G04 #@! TF.FileFunction,Copper,L1,Top,Signal*
%FSLAX46Y46*%
G04 Gerber Fmt 4.6, Leading zero omitted, Abs format (unit mm)*
G04 Created by KiCad (PCBNEW 4.0.6) date 12/04/17 20:43:07*
%MOMM*%
%LPD*%
G01*
G04 APERTURE LIST*
%ADD10C,0.100000*%
%ADD11C,2.000000*%
%ADD12C,1.600000*%
%ADD13R,1.600000X1.600000*%
%ADD14R,1.800000X1.800000*%
%ADD15O,1.800000X1.800000*%
%ADD16R,2.600000X2.000000*%
%ADD17O,2.600000X2.000000*%
%ADD18O,1.600000X1.600000*%
%ADD19R,1.700000X1.700000*%
%ADD20O,1.700000X1.700000*%
%ADD21C,1.500000*%
%ADD22C,1.700000*%
%ADD23C,1.200000*%
%ADD24R,2.000000X2.600000*%
%ADD25O,2.000000X2.600000*%
%ADD26C,0.889000*%
%ADD27C,1.800000*%
%ADD28C,0.400000*%
%ADD29C,1.000000*%
%ADD30C,0.254000*%
G04 APERTURE END LIST*
D10*
D11*
X74195000Y-93045000D03*
X66575000Y-93045000D03*
X66575000Y-98125000D03*
X74195000Y-98125000D03*
D12*
X124560000Y-80210000D03*
X124560000Y-82710000D03*
X47525000Y-72725000D03*
X47525000Y-70225000D03*
X122020000Y-80210000D03*
X122020000Y-82710000D03*
X50065000Y-72725000D03*
X50065000Y-70225000D03*
X123290000Y-90370000D03*
X120790000Y-90370000D03*
X48795000Y-62565000D03*
X51295000Y-62565000D03*
X102970000Y-75130000D03*
X100470000Y-75130000D03*
X69115000Y-77805000D03*
X71615000Y-77805000D03*
X120750000Y-67510000D03*
X118250000Y-67510000D03*
X51335000Y-85425000D03*
X53835000Y-85425000D03*
X102970000Y-85290000D03*
X100470000Y-85290000D03*
X69115000Y-67645000D03*
X71615000Y-67645000D03*
D13*
X36730000Y-58120000D03*
D12*
X39230000Y-58120000D03*
D14*
X127100000Y-76400000D03*
D15*
X119480000Y-76400000D03*
D14*
X44985000Y-76535000D03*
D15*
X52605000Y-76535000D03*
D14*
X120750000Y-73860000D03*
D15*
X128370000Y-73860000D03*
D14*
X51335000Y-79075000D03*
D15*
X43715000Y-79075000D03*
D16*
X132815000Y-67510000D03*
D17*
X132815000Y-70050000D03*
X132815000Y-72590000D03*
X132815000Y-75130000D03*
X132815000Y-77670000D03*
D16*
X39270000Y-85425000D03*
D17*
X39270000Y-82885000D03*
X39270000Y-80345000D03*
X39270000Y-77805000D03*
X39270000Y-75265000D03*
D16*
X132815000Y-80210000D03*
D17*
X132815000Y-82750000D03*
X132815000Y-85290000D03*
D16*
X39270000Y-72725000D03*
D17*
X39270000Y-70185000D03*
X39270000Y-67645000D03*
D12*
X105510000Y-80210000D03*
D18*
X97890000Y-80210000D03*
D12*
X66575000Y-72725000D03*
D18*
X74195000Y-72725000D03*
D12*
X118210000Y-87830000D03*
D18*
X125830000Y-87830000D03*
D12*
X53875000Y-65105000D03*
D18*
X46255000Y-65105000D03*
D12*
X128370000Y-87830000D03*
D18*
X128370000Y-95450000D03*
D12*
X43715000Y-57485000D03*
D18*
X43715000Y-65105000D03*
D12*
X105510000Y-90370000D03*
D18*
X97890000Y-90370000D03*
D12*
X66575000Y-62565000D03*
D18*
X74195000Y-62565000D03*
D12*
X97890000Y-62430000D03*
D18*
X105510000Y-62430000D03*
D12*
X74195000Y-90505000D03*
D18*
X66575000Y-90505000D03*
D12*
X125830000Y-64970000D03*
D18*
X118210000Y-64970000D03*
D12*
X46255000Y-87965000D03*
D18*
X53875000Y-87965000D03*
D12*
X125830000Y-62430000D03*
D18*
X118210000Y-62430000D03*
D12*
X46255000Y-90505000D03*
D18*
X53875000Y-90505000D03*
D12*
X108050000Y-94180000D03*
D18*
X115670000Y-94180000D03*
D12*
X63900000Y-59700000D03*
D18*
X56280000Y-59700000D03*
D12*
X105510000Y-72590000D03*
D18*
X97890000Y-72590000D03*
D12*
X66575000Y-80345000D03*
D18*
X74195000Y-80345000D03*
D12*
X128370000Y-70050000D03*
D18*
X128370000Y-62430000D03*
D12*
X43715000Y-82885000D03*
D18*
X43715000Y-90505000D03*
D12*
X105510000Y-82750000D03*
D18*
X97890000Y-82750000D03*
D12*
X66575000Y-70185000D03*
D18*
X74195000Y-70185000D03*
D12*
X97890000Y-70050000D03*
D18*
X105510000Y-70050000D03*
D12*
X74195000Y-82885000D03*
D18*
X66575000Y-82885000D03*
D12*
X97890000Y-67510000D03*
D18*
X105510000Y-67510000D03*
D12*
X74195000Y-85425000D03*
D18*
X66575000Y-85425000D03*
D12*
X97890000Y-64970000D03*
D18*
X105510000Y-64970000D03*
D12*
X74195000Y-87965000D03*
D18*
X66575000Y-87965000D03*
D13*
X98960000Y-55580000D03*
D12*
X98960000Y-58080000D03*
D19*
X120750000Y-95450000D03*
D20*
X120750000Y-92910000D03*
D19*
X123290000Y-95450000D03*
D20*
X123290000Y-92910000D03*
D19*
X51335000Y-57485000D03*
D20*
X51335000Y-60025000D03*
D19*
X48795000Y-57485000D03*
D20*
X48795000Y-60025000D03*
D21*
X64035000Y-90505000D03*
X64035000Y-87965000D03*
X64035000Y-85425000D03*
X64035000Y-82885000D03*
X56415000Y-82885000D03*
X56415000Y-85425000D03*
X56415000Y-87965000D03*
X56415000Y-90505000D03*
X64035000Y-80345000D03*
X64035000Y-77805000D03*
X64035000Y-75265000D03*
X64035000Y-72725000D03*
X64035000Y-70185000D03*
X64035000Y-67645000D03*
X64035000Y-62565000D03*
X64035000Y-65105000D03*
X56415000Y-62565000D03*
X56415000Y-65105000D03*
X56415000Y-67645000D03*
X56415000Y-70185000D03*
X56415000Y-72725000D03*
X56415000Y-75265000D03*
X56415000Y-77805000D03*
X56415000Y-80345000D03*
X108050000Y-62430000D03*
X108050000Y-64970000D03*
X108050000Y-67510000D03*
X108050000Y-70050000D03*
X115670000Y-70050000D03*
X115670000Y-67510000D03*
X115670000Y-64970000D03*
X115670000Y-62430000D03*
X108050000Y-72590000D03*
X108050000Y-75130000D03*
X108050000Y-77670000D03*
X108050000Y-80210000D03*
X108050000Y-82750000D03*
X108050000Y-85290000D03*
X108050000Y-90370000D03*
X108050000Y-87830000D03*
X115670000Y-90370000D03*
X115670000Y-87830000D03*
X115670000Y-85290000D03*
X115670000Y-82750000D03*
X115670000Y-80210000D03*
X115670000Y-77670000D03*
X115670000Y-75130000D03*
X115670000Y-72590000D03*
D11*
X93520000Y-92980000D03*
X93520000Y-90440000D03*
X93520000Y-87900000D03*
X93520000Y-85360000D03*
X93520000Y-82820000D03*
X93520000Y-80280000D03*
X93520000Y-77740000D03*
D21*
X93520000Y-75200000D03*
X93520000Y-72660000D03*
D11*
X93520000Y-70120000D03*
X93520000Y-67580000D03*
X93520000Y-65040000D03*
X93520000Y-62500000D03*
X93520000Y-59960000D03*
X93520000Y-57420000D03*
D22*
X78280000Y-57420000D03*
D21*
X78280000Y-59960000D03*
X78280000Y-62500000D03*
X78280000Y-65040000D03*
D11*
X78280000Y-67580000D03*
X78280000Y-70120000D03*
X78280000Y-72660000D03*
X78280000Y-75200000D03*
D21*
X78280000Y-77740000D03*
X78280000Y-80280000D03*
D11*
X78280000Y-82820000D03*
X78280000Y-85360000D03*
D22*
X78280000Y-87900000D03*
D11*
X78280000Y-90440000D03*
X78280000Y-92980000D03*
X38000000Y-50500000D03*
X38000000Y-53040000D03*
X40540000Y-50500000D03*
X40540000Y-53040000D03*
X43080000Y-50500000D03*
X43080000Y-53040000D03*
X45620000Y-50500000D03*
X45620000Y-53040000D03*
X48160000Y-50500000D03*
X48160000Y-53040000D03*
X50700000Y-50500000D03*
X50700000Y-53040000D03*
X53240000Y-50500000D03*
X53240000Y-53040000D03*
X55780000Y-50500000D03*
D22*
X55780000Y-53040000D03*
D11*
X58320000Y-50500000D03*
X58320000Y-53040000D03*
X60860000Y-50500000D03*
X60860000Y-53040000D03*
X63400000Y-50500000D03*
X63400000Y-53040000D03*
X65940000Y-50500000D03*
X65940000Y-53040000D03*
X68480000Y-50500000D03*
X68480000Y-53040000D03*
X71020000Y-50500000D03*
X71020000Y-53040000D03*
X73560000Y-50500000D03*
X73560000Y-53040000D03*
X76100000Y-50500000D03*
X76100000Y-53040000D03*
D12*
X104040000Y-55580000D03*
X104040000Y-58080000D03*
X35460000Y-63200000D03*
X37960000Y-63200000D03*
X82100000Y-92300000D03*
D18*
X89720000Y-92300000D03*
D21*
X89710000Y-89510000D03*
X89710000Y-86970000D03*
X89710000Y-84430000D03*
D23*
X89710000Y-81890000D03*
D21*
X82090000Y-81890000D03*
X82090000Y-84430000D03*
X82090000Y-86970000D03*
X82090000Y-89510000D03*
D24*
X116105000Y-53040000D03*
D25*
X118645000Y-53040000D03*
X121185000Y-53040000D03*
X123725000Y-53040000D03*
D12*
X74100000Y-57200000D03*
D18*
X66480000Y-57200000D03*
D26*
X94896000Y-76408000D03*
X102516000Y-87838000D03*
X70004000Y-64978000D03*
X91975000Y-79075000D03*
X118845000Y-59890000D03*
X126465000Y-70050000D03*
X106780000Y-63700000D03*
X128370000Y-71955000D03*
X45620000Y-82885000D03*
X53240000Y-93045000D03*
X43715000Y-80980000D03*
X65305000Y-89235000D03*
X106780000Y-89100000D03*
X106780000Y-66240000D03*
X65305000Y-86695000D03*
X65305000Y-63835000D03*
X104040000Y-60660000D03*
X105510000Y-85290000D03*
X69115000Y-92410000D03*
X66575000Y-67645000D03*
D27*
X109120000Y-58755000D03*
X114400000Y-59890000D03*
X56415000Y-54945000D03*
X81815000Y-50500000D03*
D26*
X132180000Y-90370000D03*
X125830000Y-90370000D03*
X116940000Y-76400000D03*
X127735000Y-79575000D03*
D27*
X34825000Y-66375000D03*
X57685000Y-93045000D03*
X41810000Y-55580000D03*
X61495000Y-70820000D03*
D26*
X55145000Y-76535000D03*
X44350000Y-73360000D03*
X46255000Y-62565000D03*
X39905000Y-62565000D03*
X99595000Y-60660000D03*
X90200000Y-76300000D03*
X43715000Y-67645000D03*
X46255000Y-86060000D03*
X39270000Y-87965000D03*
X74195000Y-77170000D03*
X71655000Y-92410000D03*
X97890000Y-75765000D03*
X132815000Y-64970000D03*
X125830000Y-66875000D03*
X128370000Y-85290000D03*
X79910000Y-88600000D03*
X81815000Y-79710000D03*
X81180000Y-71455000D03*
X107850000Y-50500000D03*
X80545000Y-69550000D03*
X128805000Y-53040000D03*
X81180000Y-73360000D03*
X111660000Y-50500000D03*
X110390000Y-53040000D03*
X81180000Y-75900000D03*
D28*
X95404000Y-76916000D02*
X94896000Y-76408000D01*
X95404000Y-85298000D02*
X95404000Y-76916000D01*
X97944000Y-87838000D02*
X95404000Y-85298000D01*
X102516000Y-87838000D02*
X97944000Y-87838000D01*
X72798000Y-64978000D02*
X76000000Y-68180000D01*
X83085000Y-78440000D02*
X84355000Y-78440000D01*
X84355000Y-78440000D02*
X84990000Y-79075000D01*
X89435000Y-79075000D02*
X91975000Y-79075000D01*
X84990000Y-79075000D02*
X89435000Y-79075000D01*
X79910000Y-78440000D02*
X79275000Y-79075000D01*
X76735000Y-78440000D02*
X77370000Y-79075000D01*
X77370000Y-79075000D02*
X79275000Y-79075000D01*
X70004000Y-64978000D02*
X72798000Y-64978000D01*
X79910000Y-78440000D02*
X83085000Y-78440000D01*
X76000000Y-77705000D02*
X76735000Y-78440000D01*
X76000000Y-68180000D02*
X76000000Y-77705000D01*
X124560000Y-65605000D02*
X118845000Y-59890000D01*
X124560000Y-68145000D02*
X124560000Y-65605000D01*
X126465000Y-70050000D02*
X124560000Y-68145000D01*
X120750000Y-63700000D02*
X106780000Y-63700000D01*
X123290000Y-66240000D02*
X120750000Y-63700000D01*
X123290000Y-69415000D02*
X123290000Y-66240000D01*
X125830000Y-71955000D02*
X123290000Y-69415000D01*
X128370000Y-71955000D02*
X125830000Y-71955000D01*
X45620000Y-82885000D02*
X47525000Y-84790000D01*
X47525000Y-84790000D02*
X47525000Y-87330000D01*
X47525000Y-87330000D02*
X53240000Y-93045000D01*
X43715000Y-80980000D02*
X46255000Y-80980000D01*
X46255000Y-80980000D02*
X48795000Y-83520000D01*
X48795000Y-83520000D02*
X48795000Y-86695000D01*
X48795000Y-86695000D02*
X51335000Y-89235000D01*
X51335000Y-89235000D02*
X65305000Y-89235000D01*
X106780000Y-66240000D02*
X106780000Y-89100000D01*
X65305000Y-86695000D02*
X65305000Y-63835000D01*
X104875000Y-74630000D02*
X104875000Y-74195000D01*
X104040000Y-73360000D02*
X104040000Y-60660000D01*
X104875000Y-74195000D02*
X104040000Y-73360000D01*
X105510000Y-85290000D02*
X102970000Y-82750000D01*
X102970000Y-82750000D02*
X102970000Y-78940000D01*
X102970000Y-78940000D02*
X104875000Y-77035000D01*
X104875000Y-77035000D02*
X104875000Y-74630000D01*
X104875000Y-74630000D02*
X104875000Y-74495000D01*
X69115000Y-80345000D02*
X69115000Y-92410000D01*
X67210000Y-78440000D02*
X69115000Y-80345000D01*
X67210000Y-75900000D02*
X67210000Y-78440000D01*
X69115000Y-73995000D02*
X67210000Y-75900000D01*
X69115000Y-70185000D02*
X69115000Y-73995000D01*
X66575000Y-67645000D02*
X69115000Y-70185000D01*
D29*
X109255000Y-58620000D02*
X109120000Y-58755000D01*
X114400000Y-59890000D02*
X113130000Y-58620000D01*
X113130000Y-58620000D02*
X109255000Y-58620000D01*
X79910000Y-52405000D02*
X81180000Y-51135000D01*
X56415000Y-54945000D02*
X76100000Y-54945000D01*
X76100000Y-54945000D02*
X76735000Y-54945000D01*
X76735000Y-54945000D02*
X77370000Y-54945000D01*
X77370000Y-54945000D02*
X78640000Y-53675000D01*
X78640000Y-53675000D02*
X79910000Y-52405000D01*
X81815000Y-50500000D02*
X81180000Y-51135000D01*
D28*
X132180000Y-90370000D02*
X132180000Y-89100000D01*
X132180000Y-89100000D02*
X129640000Y-86560000D01*
X125830000Y-90370000D02*
X132180000Y-90370000D01*
X126465000Y-80845000D02*
X127735000Y-79575000D01*
X126465000Y-85290000D02*
X126465000Y-80845000D01*
X127735000Y-86560000D02*
X126465000Y-85290000D01*
X129640000Y-86560000D02*
X127735000Y-86560000D01*
X127735000Y-79575000D02*
X126465000Y-78305000D01*
X126465000Y-78305000D02*
X118845000Y-78305000D01*
X118845000Y-78305000D02*
X116940000Y-76400000D01*
D29*
X34825000Y-89870000D02*
X34825000Y-90825000D01*
X34825000Y-89870000D02*
X34825000Y-67010000D01*
X34825000Y-67010000D02*
X34825000Y-66375000D01*
X57685000Y-93045000D02*
X55780000Y-94950000D01*
X53730000Y-97000000D02*
X55780000Y-94950000D01*
X41000000Y-97000000D02*
X53730000Y-97000000D01*
X34825000Y-90825000D02*
X41000000Y-97000000D01*
X60225000Y-58755000D02*
X61495000Y-60025000D01*
X41810000Y-55580000D02*
X42445000Y-54945000D01*
X42445000Y-54945000D02*
X52605000Y-54945000D01*
X52605000Y-54945000D02*
X53240000Y-54945000D01*
X53240000Y-54945000D02*
X55780000Y-57485000D01*
X55780000Y-57485000D02*
X57685000Y-57485000D01*
X57685000Y-57485000D02*
X58320000Y-57485000D01*
X58320000Y-57485000D02*
X58955000Y-57485000D01*
X58955000Y-57485000D02*
X60225000Y-58755000D01*
X61495000Y-60025000D02*
X61495000Y-70820000D01*
D28*
X53240000Y-74630000D02*
X55145000Y-76535000D01*
X45620000Y-74630000D02*
X53240000Y-74630000D01*
X44350000Y-73360000D02*
X45620000Y-74630000D01*
X46255000Y-62565000D02*
X39905000Y-62565000D01*
X39905000Y-63835000D02*
X42445000Y-66375000D01*
X42445000Y-66375000D02*
X44350000Y-66375000D01*
X44350000Y-66375000D02*
X45620000Y-67645000D01*
X45620000Y-67645000D02*
X45620000Y-72090000D01*
X45620000Y-72090000D02*
X44350000Y-73360000D01*
X39905000Y-62565000D02*
X39905000Y-63835000D01*
X97890000Y-75265000D02*
X97890000Y-75065000D01*
X99595000Y-73360000D02*
X99595000Y-60660000D01*
X97890000Y-75065000D02*
X99595000Y-73360000D01*
X96465000Y-75765000D02*
X97890000Y-75765000D01*
X92600000Y-73900000D02*
X90200000Y-76300000D01*
X94600000Y-73900000D02*
X92600000Y-73900000D01*
X96465000Y-75765000D02*
X94600000Y-73900000D01*
X41810000Y-85425000D02*
X42445000Y-86060000D01*
X41810000Y-69550000D02*
X41810000Y-85425000D01*
X43715000Y-67645000D02*
X41810000Y-69550000D01*
X42445000Y-86060000D02*
X46255000Y-86060000D01*
X40540000Y-87965000D02*
X42445000Y-86060000D01*
X39270000Y-87965000D02*
X40540000Y-87965000D01*
X74195000Y-77170000D02*
X74195000Y-77805000D01*
X74195000Y-77805000D02*
X71655000Y-80345000D01*
X71655000Y-80345000D02*
X71655000Y-92410000D01*
X130275000Y-67510000D02*
X129640000Y-66875000D01*
X97890000Y-75765000D02*
X97890000Y-75265000D01*
X97890000Y-75265000D02*
X97890000Y-75130000D01*
X132815000Y-64970000D02*
X131545000Y-64970000D01*
X131545000Y-64970000D02*
X129640000Y-66875000D01*
X129640000Y-66875000D02*
X125830000Y-66875000D01*
X130275000Y-83385000D02*
X130275000Y-67510000D01*
X128370000Y-85290000D02*
X130275000Y-83385000D01*
X80545000Y-80980000D02*
X80545000Y-87965000D01*
X80545000Y-87965000D02*
X79910000Y-88600000D01*
X81815000Y-79710000D02*
X81180000Y-80345000D01*
X81180000Y-80345000D02*
X80545000Y-80980000D01*
X102135000Y-50500000D02*
X107850000Y-50500000D01*
X86260000Y-56850000D02*
X92610000Y-50500000D01*
X92610000Y-50500000D02*
X102135000Y-50500000D01*
X86260000Y-69550000D02*
X86260000Y-61295000D01*
X84355000Y-71455000D02*
X86260000Y-69550000D01*
X81180000Y-71455000D02*
X84355000Y-71455000D01*
X86260000Y-61295000D02*
X86260000Y-56850000D01*
X102135000Y-49230000D02*
X126265000Y-49230000D01*
X80545000Y-69550000D02*
X83085000Y-69550000D01*
X83085000Y-69550000D02*
X84355000Y-68280000D01*
X84355000Y-68280000D02*
X84355000Y-56215000D01*
X84355000Y-56215000D02*
X91340000Y-49230000D01*
X91340000Y-49230000D02*
X102135000Y-49230000D01*
X128805000Y-51770000D02*
X128805000Y-53040000D01*
X126265000Y-49230000D02*
X128805000Y-51770000D01*
X102135000Y-51770000D02*
X110390000Y-51770000D01*
X88165000Y-57485000D02*
X93880000Y-51770000D01*
X93880000Y-51770000D02*
X95150000Y-51770000D01*
X88165000Y-68280000D02*
X88165000Y-58755000D01*
X81180000Y-73360000D02*
X85625000Y-73360000D01*
X85625000Y-73360000D02*
X88165000Y-70820000D01*
X88165000Y-70820000D02*
X88165000Y-68280000D01*
X102135000Y-51770000D02*
X95150000Y-51770000D01*
X88165000Y-58755000D02*
X88165000Y-57485000D01*
X110390000Y-51770000D02*
X111660000Y-50500000D01*
X90705000Y-57485000D02*
X90100000Y-58090000D01*
X95150000Y-53040000D02*
X102135000Y-53040000D01*
X90705000Y-57485000D02*
X95150000Y-53040000D01*
X84990000Y-75900000D02*
X85625000Y-75900000D01*
X84355000Y-75900000D02*
X84990000Y-75900000D01*
X81180000Y-75900000D02*
X84355000Y-75900000D01*
X102135000Y-53040000D02*
X110390000Y-53040000D01*
X90100000Y-71425000D02*
X85625000Y-75900000D01*
X90100000Y-58090000D02*
X90100000Y-71425000D01*
D30*
G36*
X35015632Y-47984368D02*
X35237862Y-48132857D01*
X35500000Y-48185000D01*
X42005394Y-48185000D01*
X42705897Y-48885503D01*
X42155057Y-49113106D01*
X41727438Y-49539978D01*
X41692532Y-49527073D01*
X40719605Y-50500000D01*
X41692532Y-51472927D01*
X41727938Y-51459836D01*
X42037759Y-51770199D01*
X41727438Y-52079978D01*
X41692532Y-52067073D01*
X40719605Y-53040000D01*
X41692532Y-54012927D01*
X41727938Y-53999836D01*
X42152637Y-54425278D01*
X42753352Y-54674716D01*
X43403795Y-54675284D01*
X44004943Y-54426894D01*
X44350199Y-54082241D01*
X44692637Y-54425278D01*
X45293352Y-54674716D01*
X45943795Y-54675284D01*
X46544943Y-54426894D01*
X46890199Y-54082241D01*
X47232637Y-54425278D01*
X47833352Y-54674716D01*
X48483795Y-54675284D01*
X49084943Y-54426894D01*
X49430199Y-54082241D01*
X49772637Y-54425278D01*
X50373352Y-54674716D01*
X51023795Y-54675284D01*
X51624943Y-54426894D01*
X51970199Y-54082241D01*
X52312637Y-54425278D01*
X52913352Y-54674716D01*
X53563795Y-54675284D01*
X54164943Y-54426894D01*
X54616358Y-53976268D01*
X54937717Y-54298188D01*
X55009184Y-54327864D01*
X54880267Y-54638330D01*
X54879735Y-55248991D01*
X55112932Y-55813371D01*
X55544357Y-56245551D01*
X56108330Y-56479733D01*
X56718991Y-56480265D01*
X57283371Y-56247068D01*
X57450731Y-56080000D01*
X65594784Y-56080000D01*
X65437189Y-56185302D01*
X65126120Y-56650849D01*
X65016887Y-57200000D01*
X65126120Y-57749151D01*
X65437189Y-58214698D01*
X65902736Y-58525767D01*
X66451887Y-58635000D01*
X66508113Y-58635000D01*
X67057264Y-58525767D01*
X67522811Y-58214698D01*
X67833880Y-57749151D01*
X67943113Y-57200000D01*
X67833880Y-56650849D01*
X67522811Y-56185302D01*
X67365216Y-56080000D01*
X73190787Y-56080000D01*
X72884176Y-56386077D01*
X72665250Y-56913309D01*
X72664752Y-57484187D01*
X72882757Y-58011800D01*
X73286077Y-58415824D01*
X73813309Y-58634750D01*
X74384187Y-58635248D01*
X74911800Y-58417243D01*
X75315824Y-58013923D01*
X75534750Y-57486691D01*
X75535248Y-56915813D01*
X75317243Y-56388200D01*
X75009580Y-56080000D01*
X76873000Y-56080000D01*
X76873000Y-56936096D01*
X76795258Y-57123319D01*
X76794743Y-57714089D01*
X76873000Y-57903486D01*
X76873000Y-66704950D01*
X76645284Y-67253352D01*
X76644919Y-67671109D01*
X76590434Y-67589566D01*
X73388434Y-64387566D01*
X73355730Y-64365714D01*
X73117541Y-64206561D01*
X72798000Y-64143000D01*
X70695769Y-64143000D01*
X70616286Y-64063378D01*
X70219668Y-63898687D01*
X69790216Y-63898313D01*
X69393311Y-64062311D01*
X69089378Y-64365714D01*
X68924687Y-64762332D01*
X68924313Y-65191784D01*
X69088311Y-65588689D01*
X69391714Y-65892622D01*
X69788332Y-66057313D01*
X70217784Y-66057687D01*
X70614689Y-65893689D01*
X70695519Y-65813000D01*
X72452132Y-65813000D01*
X75165000Y-68525868D01*
X75165000Y-69159412D01*
X75050134Y-69032611D01*
X74544041Y-68793086D01*
X74322000Y-68914371D01*
X74322000Y-70058000D01*
X74342000Y-70058000D01*
X74342000Y-70312000D01*
X74322000Y-70312000D01*
X74322000Y-70332000D01*
X74068000Y-70332000D01*
X74068000Y-70312000D01*
X72925085Y-70312000D01*
X72803096Y-70534039D01*
X72963959Y-70922423D01*
X73339866Y-71337389D01*
X73556703Y-71440014D01*
X73152189Y-71710302D01*
X72841120Y-72175849D01*
X72731887Y-72725000D01*
X72841120Y-73274151D01*
X73152189Y-73739698D01*
X73617736Y-74050767D01*
X74166887Y-74160000D01*
X74223113Y-74160000D01*
X74772264Y-74050767D01*
X75165000Y-73788349D01*
X75165000Y-76690754D01*
X75110689Y-76559311D01*
X74807286Y-76255378D01*
X74410668Y-76090687D01*
X73981216Y-76090313D01*
X73584311Y-76254311D01*
X73280378Y-76557714D01*
X73115687Y-76954332D01*
X73115313Y-77383784D01*
X73208886Y-77610246D01*
X73049923Y-77769209D01*
X73034778Y-77451546D01*
X72868864Y-77050995D01*
X72622745Y-76976861D01*
X71794605Y-77805000D01*
X71808748Y-77819142D01*
X71629142Y-77998748D01*
X71615000Y-77984605D01*
X70786861Y-78812745D01*
X70860995Y-79058864D01*
X71398223Y-79251965D01*
X71575625Y-79243507D01*
X71064566Y-79754566D01*
X70883561Y-80025459D01*
X70820000Y-80345000D01*
X70820000Y-91718231D01*
X70740378Y-91797714D01*
X70575687Y-92194332D01*
X70575313Y-92623784D01*
X70739311Y-93020689D01*
X71042714Y-93324622D01*
X71439332Y-93489313D01*
X71868784Y-93489687D01*
X72265689Y-93325689D01*
X72560010Y-93031881D01*
X72559716Y-93368795D01*
X72808106Y-93969943D01*
X73267637Y-94430278D01*
X73868352Y-94679716D01*
X74518795Y-94680284D01*
X74873000Y-94533929D01*
X74873000Y-94873000D01*
X64000000Y-94873000D01*
X63950590Y-94883006D01*
X63908965Y-94911447D01*
X63881685Y-94953841D01*
X63873000Y-95000000D01*
X63873000Y-101315000D01*
X31685000Y-101315000D01*
X31685000Y-98000000D01*
X32715000Y-98000000D01*
X32888935Y-98874432D01*
X33384261Y-99615739D01*
X34125568Y-100111065D01*
X35000000Y-100285000D01*
X35874432Y-100111065D01*
X36615739Y-99615739D01*
X37111065Y-98874432D01*
X37285000Y-98000000D01*
X37111065Y-97125568D01*
X36615739Y-96384261D01*
X35874432Y-95888935D01*
X35000000Y-95715000D01*
X34125568Y-95888935D01*
X33384261Y-96384261D01*
X32888935Y-97125568D01*
X32715000Y-98000000D01*
X31685000Y-98000000D01*
X31685000Y-66678991D01*
X33289735Y-66678991D01*
X33522932Y-67243371D01*
X33690000Y-67410731D01*
X33690000Y-90825000D01*
X33776397Y-91259346D01*
X33999409Y-91593106D01*
X34022434Y-91627566D01*
X40197434Y-97802566D01*
X40565654Y-98048603D01*
X41000000Y-98135000D01*
X53730000Y-98135000D01*
X54164346Y-98048603D01*
X54532566Y-97802566D01*
X57755071Y-94580061D01*
X57988991Y-94580265D01*
X58553371Y-94347068D01*
X58985551Y-93915643D01*
X59219733Y-93351670D01*
X59220265Y-92741009D01*
X58987068Y-92176629D01*
X58555643Y-91744449D01*
X57991670Y-91510267D01*
X57381009Y-91509735D01*
X57360361Y-91518266D01*
X57588461Y-91290564D01*
X57799759Y-90781702D01*
X57800240Y-90230715D01*
X57733834Y-90070000D01*
X62715972Y-90070000D01*
X62650241Y-90228298D01*
X62649760Y-90779285D01*
X62860169Y-91288515D01*
X63249436Y-91678461D01*
X63758298Y-91889759D01*
X64309285Y-91890240D01*
X64818515Y-91679831D01*
X65208461Y-91290564D01*
X65273856Y-91133076D01*
X65532189Y-91519698D01*
X65705219Y-91635313D01*
X65650057Y-91658106D01*
X65189722Y-92117637D01*
X64940284Y-92718352D01*
X64939716Y-93368795D01*
X65188106Y-93969943D01*
X65647637Y-94430278D01*
X66248352Y-94679716D01*
X66898795Y-94680284D01*
X67499943Y-94431894D01*
X67960278Y-93972363D01*
X68209716Y-93371648D01*
X68210013Y-93031410D01*
X68502714Y-93324622D01*
X68899332Y-93489313D01*
X69328784Y-93489687D01*
X69725689Y-93325689D01*
X70029622Y-93022286D01*
X70194313Y-92625668D01*
X70194687Y-92196216D01*
X70030689Y-91799311D01*
X69950000Y-91718481D01*
X69950000Y-80345000D01*
X69886439Y-80025459D01*
X69705434Y-79754566D01*
X69190934Y-79240066D01*
X69399187Y-79240248D01*
X69926800Y-79022243D01*
X70330824Y-78618923D01*
X70358423Y-78552456D01*
X70361136Y-78559005D01*
X70607255Y-78633139D01*
X71435395Y-77805000D01*
X70607255Y-76976861D01*
X70361136Y-77050995D01*
X70358804Y-77057483D01*
X70332243Y-76993200D01*
X70136640Y-76797255D01*
X70786861Y-76797255D01*
X71615000Y-77625395D01*
X72443139Y-76797255D01*
X72369005Y-76551136D01*
X71831777Y-76358035D01*
X71261546Y-76385222D01*
X70860995Y-76551136D01*
X70786861Y-76797255D01*
X70136640Y-76797255D01*
X69928923Y-76589176D01*
X69401691Y-76370250D01*
X68830813Y-76369752D01*
X68303200Y-76587757D01*
X68045000Y-76845507D01*
X68045000Y-76245868D01*
X69705434Y-74585434D01*
X69847752Y-74372440D01*
X69886439Y-74314541D01*
X69950000Y-73995000D01*
X69950000Y-70185000D01*
X69886439Y-69865459D01*
X69866730Y-69835961D01*
X72803096Y-69835961D01*
X72925085Y-70058000D01*
X74068000Y-70058000D01*
X74068000Y-68914371D01*
X73845959Y-68793086D01*
X73339866Y-69032611D01*
X72963959Y-69447577D01*
X72803096Y-69835961D01*
X69866730Y-69835961D01*
X69705434Y-69594566D01*
X69190934Y-69080066D01*
X69399187Y-69080248D01*
X69926800Y-68862243D01*
X70136663Y-68652745D01*
X70786861Y-68652745D01*
X70860995Y-68898864D01*
X71398223Y-69091965D01*
X71968454Y-69064778D01*
X72369005Y-68898864D01*
X72443139Y-68652745D01*
X71615000Y-67824605D01*
X70786861Y-68652745D01*
X70136663Y-68652745D01*
X70330824Y-68458923D01*
X70358423Y-68392456D01*
X70361136Y-68399005D01*
X70607255Y-68473139D01*
X71435395Y-67645000D01*
X71794605Y-67645000D01*
X72622745Y-68473139D01*
X72868864Y-68399005D01*
X73061965Y-67861777D01*
X73034778Y-67291546D01*
X72868864Y-66890995D01*
X72622745Y-66816861D01*
X71794605Y-67645000D01*
X71435395Y-67645000D01*
X70607255Y-66816861D01*
X70361136Y-66890995D01*
X70358804Y-66897483D01*
X70332243Y-66833200D01*
X70136640Y-66637255D01*
X70786861Y-66637255D01*
X71615000Y-67465395D01*
X72443139Y-66637255D01*
X72369005Y-66391136D01*
X71831777Y-66198035D01*
X71261546Y-66225222D01*
X70860995Y-66391136D01*
X70786861Y-66637255D01*
X70136640Y-66637255D01*
X69928923Y-66429176D01*
X69401691Y-66210250D01*
X68830813Y-66209752D01*
X68303200Y-66427757D01*
X67899176Y-66831077D01*
X67680250Y-67358309D01*
X67680066Y-67569198D01*
X67654589Y-67543721D01*
X67654687Y-67431216D01*
X67490689Y-67034311D01*
X67187286Y-66730378D01*
X66790668Y-66565687D01*
X66361216Y-66565313D01*
X66140000Y-66656718D01*
X66140000Y-64526769D01*
X66219622Y-64447286D01*
X66384313Y-64050668D01*
X66384357Y-63999834D01*
X66859187Y-64000248D01*
X67386800Y-63782243D01*
X67790824Y-63378923D01*
X68009750Y-62851691D01*
X68010000Y-62565000D01*
X72731887Y-62565000D01*
X72841120Y-63114151D01*
X73152189Y-63579698D01*
X73617736Y-63890767D01*
X74166887Y-64000000D01*
X74223113Y-64000000D01*
X74772264Y-63890767D01*
X75237811Y-63579698D01*
X75548880Y-63114151D01*
X75658113Y-62565000D01*
X75548880Y-62015849D01*
X75237811Y-61550302D01*
X74772264Y-61239233D01*
X74223113Y-61130000D01*
X74166887Y-61130000D01*
X73617736Y-61239233D01*
X73152189Y-61550302D01*
X72841120Y-62015849D01*
X72731887Y-62565000D01*
X68010000Y-62565000D01*
X68010248Y-62280813D01*
X67792243Y-61753200D01*
X67388923Y-61349176D01*
X66861691Y-61130250D01*
X66290813Y-61129752D01*
X65763200Y-61347757D01*
X65359176Y-61751077D01*
X65278021Y-61946519D01*
X65209831Y-61781485D01*
X64820564Y-61391539D01*
X64311702Y-61180241D01*
X63760715Y-61179760D01*
X63251485Y-61390169D01*
X62861539Y-61779436D01*
X62650241Y-62288298D01*
X62649760Y-62839285D01*
X62860169Y-63348515D01*
X63249436Y-63738461D01*
X63481870Y-63834976D01*
X63251485Y-63930169D01*
X62861539Y-64319436D01*
X62650241Y-64828298D01*
X62649760Y-65379285D01*
X62860169Y-65888515D01*
X63249436Y-66278461D01*
X63481870Y-66374976D01*
X63251485Y-66470169D01*
X62861539Y-66859436D01*
X62650241Y-67368298D01*
X62649760Y-67919285D01*
X62860169Y-68428515D01*
X63249436Y-68818461D01*
X63481870Y-68914976D01*
X63251485Y-69010169D01*
X62861539Y-69399436D01*
X62650241Y-69908298D01*
X62649760Y-70459285D01*
X62860169Y-70968515D01*
X63249436Y-71358461D01*
X63481870Y-71454976D01*
X63251485Y-71550169D01*
X62861539Y-71939436D01*
X62650241Y-72448298D01*
X62649760Y-72999285D01*
X62860169Y-73508515D01*
X63249436Y-73898461D01*
X63465979Y-73988377D01*
X63311077Y-74052540D01*
X63243088Y-74293483D01*
X64035000Y-75085395D01*
X64049143Y-75071253D01*
X64228748Y-75250858D01*
X64214605Y-75265000D01*
X64228748Y-75279143D01*
X64049143Y-75458748D01*
X64035000Y-75444605D01*
X63243088Y-76236517D01*
X63311077Y-76477460D01*
X63460511Y-76530642D01*
X63311077Y-76592540D01*
X63243088Y-76833483D01*
X64035000Y-77625395D01*
X64049143Y-77611253D01*
X64228748Y-77790858D01*
X64214605Y-77805000D01*
X64228748Y-77819143D01*
X64049143Y-77998748D01*
X64035000Y-77984605D01*
X63243088Y-78776517D01*
X63311077Y-79017460D01*
X63477621Y-79076732D01*
X63251485Y-79170169D01*
X62861539Y-79559436D01*
X62650241Y-80068298D01*
X62649760Y-80619285D01*
X62860169Y-81128515D01*
X63249436Y-81518461D01*
X63481870Y-81614976D01*
X63251485Y-81710169D01*
X62861539Y-82099436D01*
X62650241Y-82608298D01*
X62649760Y-83159285D01*
X62860169Y-83668515D01*
X63249436Y-84058461D01*
X63481870Y-84154976D01*
X63251485Y-84250169D01*
X62861539Y-84639436D01*
X62650241Y-85148298D01*
X62649760Y-85699285D01*
X62860169Y-86208515D01*
X63249436Y-86598461D01*
X63481870Y-86694976D01*
X63251485Y-86790169D01*
X62861539Y-87179436D01*
X62650241Y-87688298D01*
X62649760Y-88239285D01*
X62716166Y-88400000D01*
X57734028Y-88400000D01*
X57799759Y-88241702D01*
X57800240Y-87690715D01*
X57589831Y-87181485D01*
X57200564Y-86791539D01*
X56968130Y-86695024D01*
X57198515Y-86599831D01*
X57588461Y-86210564D01*
X57799759Y-85701702D01*
X57800240Y-85150715D01*
X57589831Y-84641485D01*
X57200564Y-84251539D01*
X56968130Y-84155024D01*
X57198515Y-84059831D01*
X57588461Y-83670564D01*
X57799759Y-83161702D01*
X57800240Y-82610715D01*
X57589831Y-82101485D01*
X57200564Y-81711539D01*
X56968130Y-81615024D01*
X57198515Y-81519831D01*
X57588461Y-81130564D01*
X57799759Y-80621702D01*
X57800240Y-80070715D01*
X57589831Y-79561485D01*
X57200564Y-79171539D01*
X56984021Y-79081623D01*
X57138923Y-79017460D01*
X57206912Y-78776517D01*
X56415000Y-77984605D01*
X55623088Y-78776517D01*
X55691077Y-79017460D01*
X55857621Y-79076732D01*
X55631485Y-79170169D01*
X55241539Y-79559436D01*
X55030241Y-80068298D01*
X55029760Y-80619285D01*
X55240169Y-81128515D01*
X55629436Y-81518461D01*
X55861870Y-81614976D01*
X55631485Y-81710169D01*
X55241539Y-82099436D01*
X55030241Y-82608298D01*
X55029760Y-83159285D01*
X55240169Y-83668515D01*
X55629436Y-84058461D01*
X55861870Y-84154976D01*
X55631485Y-84250169D01*
X55241539Y-84639436D01*
X55152091Y-84854851D01*
X55052243Y-84613200D01*
X54648923Y-84209176D01*
X54121691Y-83990250D01*
X53550813Y-83989752D01*
X53023200Y-84207757D01*
X52619176Y-84611077D01*
X52585187Y-84692931D01*
X52552243Y-84613200D01*
X52148923Y-84209176D01*
X51621691Y-83990250D01*
X51050813Y-83989752D01*
X50523200Y-84207757D01*
X50119176Y-84611077D01*
X49900250Y-85138309D01*
X49899752Y-85709187D01*
X50117757Y-86236800D01*
X50521077Y-86640824D01*
X51048309Y-86859750D01*
X51619187Y-86860248D01*
X52146800Y-86642243D01*
X52550824Y-86238923D01*
X52584813Y-86157069D01*
X52617757Y-86236800D01*
X53021077Y-86640824D01*
X53190234Y-86711064D01*
X52832189Y-86950302D01*
X52521120Y-87415849D01*
X52411887Y-87965000D01*
X52498414Y-88400000D01*
X51680868Y-88400000D01*
X49630000Y-86349132D01*
X49630000Y-83520000D01*
X49566439Y-83200459D01*
X49385434Y-82929566D01*
X46845434Y-80389566D01*
X46778736Y-80345000D01*
X46574541Y-80208561D01*
X46255000Y-80145000D01*
X44840777Y-80145000D01*
X45163227Y-79662419D01*
X45280072Y-79075000D01*
X45163227Y-78487581D01*
X44954368Y-78175000D01*
X49787560Y-78175000D01*
X49787560Y-79975000D01*
X49831838Y-80210317D01*
X49970910Y-80426441D01*
X50183110Y-80571431D01*
X50435000Y-80622440D01*
X52235000Y-80622440D01*
X52470317Y-80578162D01*
X52686441Y-80439090D01*
X52831431Y-80226890D01*
X52882440Y-79975000D01*
X52882440Y-78175000D01*
X52854471Y-78026359D01*
X53222491Y-77953155D01*
X53720481Y-77620409D01*
X53734003Y-77600171D01*
X55017799Y-77600171D01*
X55045770Y-78150448D01*
X55202540Y-78528923D01*
X55443483Y-78596912D01*
X56235395Y-77805000D01*
X56594605Y-77805000D01*
X57386517Y-78596912D01*
X57627460Y-78528923D01*
X57812201Y-78009829D01*
X57791378Y-77600171D01*
X62637799Y-77600171D01*
X62665770Y-78150448D01*
X62822540Y-78528923D01*
X63063483Y-78596912D01*
X63855395Y-77805000D01*
X63063483Y-77013088D01*
X62822540Y-77081077D01*
X62637799Y-77600171D01*
X57791378Y-77600171D01*
X57784230Y-77459552D01*
X57627460Y-77081077D01*
X57386517Y-77013088D01*
X56594605Y-77805000D01*
X56235395Y-77805000D01*
X55443483Y-77013088D01*
X55202540Y-77081077D01*
X55017799Y-77600171D01*
X53734003Y-77600171D01*
X54053227Y-77122419D01*
X54170072Y-76535000D01*
X54110700Y-76236517D01*
X55623088Y-76236517D01*
X55691077Y-76477460D01*
X55840511Y-76530642D01*
X55691077Y-76592540D01*
X55623088Y-76833483D01*
X56415000Y-77625395D01*
X57206912Y-76833483D01*
X57138923Y-76592540D01*
X56989489Y-76539358D01*
X57138923Y-76477460D01*
X57206912Y-76236517D01*
X56415000Y-75444605D01*
X55623088Y-76236517D01*
X54110700Y-76236517D01*
X54053227Y-75947581D01*
X53720481Y-75449591D01*
X53222491Y-75116845D01*
X52937572Y-75060171D01*
X55017799Y-75060171D01*
X55045770Y-75610448D01*
X55202540Y-75988923D01*
X55443483Y-76056912D01*
X56235395Y-75265000D01*
X56594605Y-75265000D01*
X57386517Y-76056912D01*
X57627460Y-75988923D01*
X57812201Y-75469829D01*
X57791378Y-75060171D01*
X62637799Y-75060171D01*
X62665770Y-75610448D01*
X62822540Y-75988923D01*
X63063483Y-76056912D01*
X63855395Y-75265000D01*
X63063483Y-74473088D01*
X62822540Y-74541077D01*
X62637799Y-75060171D01*
X57791378Y-75060171D01*
X57784230Y-74919552D01*
X57627460Y-74541077D01*
X57386517Y-74473088D01*
X56594605Y-75265000D01*
X56235395Y-75265000D01*
X55443483Y-74473088D01*
X55202540Y-74541077D01*
X55017799Y-75060171D01*
X52937572Y-75060171D01*
X52635072Y-75000000D01*
X52574928Y-75000000D01*
X51987509Y-75116845D01*
X51489519Y-75449591D01*
X51156773Y-75947581D01*
X51039928Y-76535000D01*
X51156773Y-77122419D01*
X51427479Y-77527560D01*
X50435000Y-77527560D01*
X50199683Y-77571838D01*
X49983559Y-77710910D01*
X49838569Y-77923110D01*
X49787560Y-78175000D01*
X44954368Y-78175000D01*
X44892521Y-78082440D01*
X45885000Y-78082440D01*
X46120317Y-78038162D01*
X46336441Y-77899090D01*
X46481431Y-77686890D01*
X46532440Y-77435000D01*
X46532440Y-75635000D01*
X46488162Y-75399683D01*
X46349090Y-75183559D01*
X46136890Y-75038569D01*
X45885000Y-74987560D01*
X44085000Y-74987560D01*
X43849683Y-75031838D01*
X43633559Y-75170910D01*
X43488569Y-75383110D01*
X43437560Y-75635000D01*
X43437560Y-77435000D01*
X43465529Y-77583641D01*
X43097509Y-77656845D01*
X42645000Y-77959202D01*
X42645000Y-70509187D01*
X46089752Y-70509187D01*
X46307757Y-71036800D01*
X46711077Y-71440824D01*
X46792931Y-71474813D01*
X46713200Y-71507757D01*
X46309176Y-71911077D01*
X46090250Y-72438309D01*
X46089752Y-73009187D01*
X46307757Y-73536800D01*
X46711077Y-73940824D01*
X47238309Y-74159750D01*
X47809187Y-74160248D01*
X48336800Y-73942243D01*
X48740824Y-73538923D01*
X48794862Y-73408785D01*
X48847757Y-73536800D01*
X49251077Y-73940824D01*
X49778309Y-74159750D01*
X50349187Y-74160248D01*
X50876800Y-73942243D01*
X51280824Y-73538923D01*
X51499750Y-73011691D01*
X51500248Y-72440813D01*
X51282243Y-71913200D01*
X50878923Y-71509176D01*
X50797069Y-71475187D01*
X50876800Y-71442243D01*
X51280824Y-71038923D01*
X51499750Y-70511691D01*
X51500248Y-69940813D01*
X51282243Y-69413200D01*
X50878923Y-69009176D01*
X50351691Y-68790250D01*
X49780813Y-68789752D01*
X49253200Y-69007757D01*
X48849176Y-69411077D01*
X48795138Y-69541215D01*
X48742243Y-69413200D01*
X48338923Y-69009176D01*
X47811691Y-68790250D01*
X47240813Y-68789752D01*
X46713200Y-69007757D01*
X46309176Y-69411077D01*
X46090250Y-69938309D01*
X46089752Y-70509187D01*
X42645000Y-70509187D01*
X42645000Y-69895868D01*
X43816279Y-68724589D01*
X43928784Y-68724687D01*
X44325689Y-68560689D01*
X44629622Y-68257286D01*
X44794313Y-67860668D01*
X44794687Y-67431216D01*
X44630689Y-67034311D01*
X44327286Y-66730378D01*
X43930668Y-66565687D01*
X43501216Y-66565313D01*
X43104311Y-66729311D01*
X42800378Y-67032714D01*
X42635687Y-67429332D01*
X42635588Y-67543544D01*
X41219566Y-68959566D01*
X41038561Y-69230459D01*
X41006481Y-69391736D01*
X40764029Y-69028880D01*
X40593595Y-68915000D01*
X40764029Y-68801120D01*
X41118452Y-68270687D01*
X41242909Y-67645000D01*
X41118452Y-67019313D01*
X40764029Y-66488880D01*
X40233596Y-66134457D01*
X39607909Y-66010000D01*
X38932091Y-66010000D01*
X38306404Y-66134457D01*
X37775971Y-66488880D01*
X37421548Y-67019313D01*
X37297091Y-67645000D01*
X37421548Y-68270687D01*
X37775971Y-68801120D01*
X37946405Y-68915000D01*
X37775971Y-69028880D01*
X37421548Y-69559313D01*
X37297091Y-70185000D01*
X37421548Y-70810687D01*
X37661093Y-71169192D01*
X37518559Y-71260910D01*
X37373569Y-71473110D01*
X37322560Y-71725000D01*
X37322560Y-73725000D01*
X37366838Y-73960317D01*
X37505910Y-74176441D01*
X37672620Y-74290349D01*
X37410856Y-74756645D01*
X37379876Y-74884566D01*
X37499223Y-75138000D01*
X39143000Y-75138000D01*
X39143000Y-75118000D01*
X39397000Y-75118000D01*
X39397000Y-75138000D01*
X39417000Y-75138000D01*
X39417000Y-75392000D01*
X39397000Y-75392000D01*
X39397000Y-75412000D01*
X39143000Y-75412000D01*
X39143000Y-75392000D01*
X37499223Y-75392000D01*
X37379876Y-75645434D01*
X37410856Y-75773355D01*
X37724078Y-76331317D01*
X37966188Y-76521781D01*
X37775971Y-76648880D01*
X37421548Y-77179313D01*
X37297091Y-77805000D01*
X37421548Y-78430687D01*
X37775971Y-78961120D01*
X37946405Y-79075000D01*
X37775971Y-79188880D01*
X37421548Y-79719313D01*
X37297091Y-80345000D01*
X37421548Y-80970687D01*
X37775971Y-81501120D01*
X37946405Y-81615000D01*
X37775971Y-81728880D01*
X37421548Y-82259313D01*
X37297091Y-82885000D01*
X37421548Y-83510687D01*
X37661093Y-83869192D01*
X37518559Y-83960910D01*
X37373569Y-84173110D01*
X37322560Y-84425000D01*
X37322560Y-86425000D01*
X37366838Y-86660317D01*
X37505910Y-86876441D01*
X37718110Y-87021431D01*
X37970000Y-87072440D01*
X38636142Y-87072440D01*
X38355378Y-87352714D01*
X38190687Y-87749332D01*
X38190313Y-88178784D01*
X38354311Y-88575689D01*
X38657714Y-88879622D01*
X39054332Y-89044313D01*
X39483784Y-89044687D01*
X39880689Y-88880689D01*
X39961519Y-88800000D01*
X40540000Y-88800000D01*
X40859541Y-88736439D01*
X41130434Y-88555434D01*
X42790868Y-86895000D01*
X45295700Y-86895000D01*
X45039176Y-87151077D01*
X44820250Y-87678309D01*
X44819752Y-88249187D01*
X45037757Y-88776800D01*
X45441077Y-89180824D01*
X45571215Y-89234862D01*
X45443200Y-89287757D01*
X45039176Y-89691077D01*
X44979180Y-89835564D01*
X44729698Y-89462189D01*
X44264151Y-89151120D01*
X43715000Y-89041887D01*
X43165849Y-89151120D01*
X42700302Y-89462189D01*
X42389233Y-89927736D01*
X42280000Y-90476887D01*
X42280000Y-90533113D01*
X42389233Y-91082264D01*
X42700302Y-91547811D01*
X43165849Y-91858880D01*
X43715000Y-91968113D01*
X44264151Y-91858880D01*
X44729698Y-91547811D01*
X44979027Y-91174664D01*
X45037757Y-91316800D01*
X45441077Y-91720824D01*
X45968309Y-91939750D01*
X46539187Y-91940248D01*
X47066800Y-91722243D01*
X47470824Y-91318923D01*
X47689750Y-90791691D01*
X47690248Y-90220813D01*
X47472243Y-89693200D01*
X47068923Y-89289176D01*
X46938785Y-89235138D01*
X47066800Y-89182243D01*
X47470824Y-88778923D01*
X47565368Y-88551236D01*
X52160411Y-93146280D01*
X52160313Y-93258784D01*
X52324311Y-93655689D01*
X52627714Y-93959622D01*
X53024332Y-94124313D01*
X53453784Y-94124687D01*
X53850689Y-93960689D01*
X54154622Y-93657286D01*
X54319313Y-93260668D01*
X54319687Y-92831216D01*
X54155689Y-92434311D01*
X53852286Y-92130378D01*
X53455668Y-91965687D01*
X53341456Y-91965588D01*
X53023189Y-91647321D01*
X53297736Y-91830767D01*
X53846887Y-91940000D01*
X53903113Y-91940000D01*
X54452264Y-91830767D01*
X54917811Y-91519698D01*
X55176020Y-91133262D01*
X55240169Y-91288515D01*
X55629436Y-91678461D01*
X56138298Y-91889759D01*
X56669081Y-91890222D01*
X56384449Y-92174357D01*
X56150267Y-92738330D01*
X56150061Y-92974807D01*
X53259868Y-95865000D01*
X41470132Y-95865000D01*
X35960000Y-90354868D01*
X35960000Y-67410905D01*
X36125551Y-67245643D01*
X36359733Y-66681670D01*
X36360265Y-66071009D01*
X36127068Y-65506629D01*
X36074572Y-65454041D01*
X42323086Y-65454041D01*
X42562611Y-65960134D01*
X42977577Y-66336041D01*
X43365961Y-66496904D01*
X43588000Y-66374915D01*
X43588000Y-65232000D01*
X42444371Y-65232000D01*
X42323086Y-65454041D01*
X36074572Y-65454041D01*
X35695643Y-65074449D01*
X35131670Y-64840267D01*
X34521009Y-64839735D01*
X33956629Y-65072932D01*
X33524449Y-65504357D01*
X33290267Y-66068330D01*
X33289735Y-66678991D01*
X31685000Y-66678991D01*
X31685000Y-64755959D01*
X42323086Y-64755959D01*
X42444371Y-64978000D01*
X43588000Y-64978000D01*
X43588000Y-63835085D01*
X43842000Y-63835085D01*
X43842000Y-64978000D01*
X43862000Y-64978000D01*
X43862000Y-65232000D01*
X43842000Y-65232000D01*
X43842000Y-66374915D01*
X44064039Y-66496904D01*
X44452423Y-66336041D01*
X44867389Y-65960134D01*
X44966146Y-65751470D01*
X45212189Y-66119698D01*
X45677736Y-66430767D01*
X46226887Y-66540000D01*
X46283113Y-66540000D01*
X46832264Y-66430767D01*
X47297811Y-66119698D01*
X47608880Y-65654151D01*
X47661584Y-65389187D01*
X52439752Y-65389187D01*
X52657757Y-65916800D01*
X53061077Y-66320824D01*
X53588309Y-66539750D01*
X54159187Y-66540248D01*
X54686800Y-66322243D01*
X55090824Y-65918923D01*
X55171979Y-65723481D01*
X55240169Y-65888515D01*
X55629436Y-66278461D01*
X55861870Y-66374976D01*
X55631485Y-66470169D01*
X55241539Y-66859436D01*
X55030241Y-67368298D01*
X55029760Y-67919285D01*
X55240169Y-68428515D01*
X55629436Y-68818461D01*
X55861870Y-68914976D01*
X55631485Y-69010169D01*
X55241539Y-69399436D01*
X55030241Y-69908298D01*
X55029760Y-70459285D01*
X55240169Y-70968515D01*
X55629436Y-71358461D01*
X55861870Y-71454976D01*
X55631485Y-71550169D01*
X55241539Y-71939436D01*
X55030241Y-72448298D01*
X55029760Y-72999285D01*
X55240169Y-73508515D01*
X55629436Y-73898461D01*
X55845979Y-73988377D01*
X55691077Y-74052540D01*
X55623088Y-74293483D01*
X56415000Y-75085395D01*
X57206912Y-74293483D01*
X57138923Y-74052540D01*
X56972379Y-73993268D01*
X57198515Y-73899831D01*
X57588461Y-73510564D01*
X57799759Y-73001702D01*
X57800240Y-72450715D01*
X57589831Y-71941485D01*
X57200564Y-71551539D01*
X56968130Y-71455024D01*
X57198515Y-71359831D01*
X57588461Y-70970564D01*
X57799759Y-70461702D01*
X57800240Y-69910715D01*
X57589831Y-69401485D01*
X57200564Y-69011539D01*
X56968130Y-68915024D01*
X57198515Y-68819831D01*
X57588461Y-68430564D01*
X57799759Y-67921702D01*
X57800240Y-67370715D01*
X57589831Y-66861485D01*
X57200564Y-66471539D01*
X56968130Y-66375024D01*
X57198515Y-66279831D01*
X57588461Y-65890564D01*
X57799759Y-65381702D01*
X57800240Y-64830715D01*
X57589831Y-64321485D01*
X57200564Y-63931539D01*
X56968130Y-63835024D01*
X57198515Y-63739831D01*
X57588461Y-63350564D01*
X57799759Y-62841702D01*
X57800240Y-62290715D01*
X57589831Y-61781485D01*
X57200564Y-61391539D01*
X56691702Y-61180241D01*
X56140715Y-61179760D01*
X55631485Y-61390169D01*
X55241539Y-61779436D01*
X55030241Y-62288298D01*
X55029760Y-62839285D01*
X55240169Y-63348515D01*
X55629436Y-63738461D01*
X55861870Y-63834976D01*
X55631485Y-63930169D01*
X55241539Y-64319436D01*
X55172140Y-64486567D01*
X55092243Y-64293200D01*
X54688923Y-63889176D01*
X54161691Y-63670250D01*
X53590813Y-63669752D01*
X53063200Y-63887757D01*
X52659176Y-64291077D01*
X52440250Y-64818309D01*
X52439752Y-65389187D01*
X47661584Y-65389187D01*
X47718113Y-65105000D01*
X47608880Y-64555849D01*
X47297811Y-64090302D01*
X46832264Y-63779233D01*
X46283113Y-63670000D01*
X46226887Y-63670000D01*
X45677736Y-63779233D01*
X45212189Y-64090302D01*
X44966146Y-64458530D01*
X44867389Y-64249866D01*
X44452423Y-63873959D01*
X44064039Y-63713096D01*
X43842000Y-63835085D01*
X43588000Y-63835085D01*
X43365961Y-63713096D01*
X42977577Y-63873959D01*
X42562611Y-64249866D01*
X42323086Y-64755959D01*
X31685000Y-64755959D01*
X31685000Y-63484187D01*
X34024752Y-63484187D01*
X34242757Y-64011800D01*
X34646077Y-64415824D01*
X35173309Y-64634750D01*
X35744187Y-64635248D01*
X36271800Y-64417243D01*
X36481663Y-64207745D01*
X37131861Y-64207745D01*
X37205995Y-64453864D01*
X37743223Y-64646965D01*
X38313454Y-64619778D01*
X38714005Y-64453864D01*
X38788139Y-64207745D01*
X37960000Y-63379605D01*
X37131861Y-64207745D01*
X36481663Y-64207745D01*
X36675824Y-64013923D01*
X36703423Y-63947456D01*
X36706136Y-63954005D01*
X36952255Y-64028139D01*
X37780395Y-63200000D01*
X38139605Y-63200000D01*
X38967745Y-64028139D01*
X39213864Y-63954005D01*
X39350903Y-63572745D01*
X47966861Y-63572745D01*
X48040995Y-63818864D01*
X48578223Y-64011965D01*
X49148454Y-63984778D01*
X49549005Y-63818864D01*
X49623139Y-63572745D01*
X48795000Y-62744605D01*
X47966861Y-63572745D01*
X39350903Y-63572745D01*
X39406965Y-63416777D01*
X39379778Y-62846546D01*
X39213864Y-62445995D01*
X38967745Y-62371861D01*
X38139605Y-63200000D01*
X37780395Y-63200000D01*
X36952255Y-62371861D01*
X36706136Y-62445995D01*
X36703804Y-62452483D01*
X36677243Y-62388200D01*
X36481640Y-62192255D01*
X37131861Y-62192255D01*
X37960000Y-63020395D01*
X38632171Y-62348223D01*
X47348035Y-62348223D01*
X47375222Y-62918454D01*
X47541136Y-63319005D01*
X47787255Y-63393139D01*
X48615395Y-62565000D01*
X47787255Y-61736861D01*
X47541136Y-61810995D01*
X47348035Y-62348223D01*
X38632171Y-62348223D01*
X38788139Y-62192255D01*
X38714005Y-61946136D01*
X38176777Y-61753035D01*
X37606546Y-61780222D01*
X37205995Y-61946136D01*
X37131861Y-62192255D01*
X36481640Y-62192255D01*
X36273923Y-61984176D01*
X35746691Y-61765250D01*
X35175813Y-61764752D01*
X34648200Y-61982757D01*
X34244176Y-62386077D01*
X34025250Y-62913309D01*
X34024752Y-63484187D01*
X31685000Y-63484187D01*
X31685000Y-60025000D01*
X47280907Y-60025000D01*
X47393946Y-60593285D01*
X47715853Y-61075054D01*
X48058391Y-61303930D01*
X48040995Y-61311136D01*
X47966861Y-61557255D01*
X48795000Y-62385395D01*
X49623139Y-61557255D01*
X49549005Y-61311136D01*
X49530681Y-61304550D01*
X49874147Y-61075054D01*
X50065000Y-60789422D01*
X50255853Y-61075054D01*
X50594906Y-61301601D01*
X50483200Y-61347757D01*
X50079176Y-61751077D01*
X50051577Y-61817544D01*
X50048864Y-61810995D01*
X49802745Y-61736861D01*
X48974605Y-62565000D01*
X49802745Y-63393139D01*
X50048864Y-63319005D01*
X50051196Y-63312517D01*
X50077757Y-63376800D01*
X50481077Y-63780824D01*
X51008309Y-63999750D01*
X51579187Y-64000248D01*
X52106800Y-63782243D01*
X52510824Y-63378923D01*
X52729750Y-62851691D01*
X52730248Y-62280813D01*
X52512243Y-61753200D01*
X52108923Y-61349176D01*
X52044148Y-61322279D01*
X52414147Y-61075054D01*
X52736054Y-60593285D01*
X52849093Y-60025000D01*
X52784447Y-59700000D01*
X54816887Y-59700000D01*
X54926120Y-60249151D01*
X55237189Y-60714698D01*
X55702736Y-61025767D01*
X56251887Y-61135000D01*
X56308113Y-61135000D01*
X56857264Y-61025767D01*
X57322811Y-60714698D01*
X57633880Y-60249151D01*
X57686584Y-59984187D01*
X62464752Y-59984187D01*
X62682757Y-60511800D01*
X63086077Y-60915824D01*
X63613309Y-61134750D01*
X64184187Y-61135248D01*
X64711800Y-60917243D01*
X65115824Y-60513923D01*
X65334750Y-59986691D01*
X65335248Y-59415813D01*
X65117243Y-58888200D01*
X64713923Y-58484176D01*
X64186691Y-58265250D01*
X63615813Y-58264752D01*
X63088200Y-58482757D01*
X62684176Y-58886077D01*
X62465250Y-59413309D01*
X62464752Y-59984187D01*
X57686584Y-59984187D01*
X57743113Y-59700000D01*
X57633880Y-59150849D01*
X57322811Y-58685302D01*
X56857264Y-58374233D01*
X56308113Y-58265000D01*
X56251887Y-58265000D01*
X55702736Y-58374233D01*
X55237189Y-58685302D01*
X54926120Y-59150849D01*
X54816887Y-59700000D01*
X52784447Y-59700000D01*
X52736054Y-59456715D01*
X52414147Y-58974946D01*
X52372548Y-58947150D01*
X52420317Y-58938162D01*
X52636441Y-58799090D01*
X52781431Y-58586890D01*
X52832440Y-58335000D01*
X52832440Y-56635000D01*
X52788162Y-56399683D01*
X52649090Y-56183559D01*
X52436890Y-56038569D01*
X52185000Y-55987560D01*
X50485000Y-55987560D01*
X50249683Y-56031838D01*
X50062923Y-56152015D01*
X49896890Y-56038569D01*
X49645000Y-55987560D01*
X47945000Y-55987560D01*
X47709683Y-56031838D01*
X47493559Y-56170910D01*
X47348569Y-56383110D01*
X47297560Y-56635000D01*
X47297560Y-58335000D01*
X47341838Y-58570317D01*
X47480910Y-58786441D01*
X47693110Y-58931431D01*
X47760541Y-58945086D01*
X47715853Y-58974946D01*
X47393946Y-59456715D01*
X47280907Y-60025000D01*
X31685000Y-60025000D01*
X31685000Y-57320000D01*
X35282560Y-57320000D01*
X35282560Y-58920000D01*
X35326838Y-59155317D01*
X35465910Y-59371441D01*
X35678110Y-59516431D01*
X35930000Y-59567440D01*
X37530000Y-59567440D01*
X37765317Y-59523162D01*
X37981441Y-59384090D01*
X38126431Y-59171890D01*
X38135370Y-59127745D01*
X38401861Y-59127745D01*
X38475995Y-59373864D01*
X39013223Y-59566965D01*
X39583454Y-59539778D01*
X39984005Y-59373864D01*
X40058139Y-59127745D01*
X39230000Y-58299605D01*
X38401861Y-59127745D01*
X38135370Y-59127745D01*
X38174646Y-58933799D01*
X38222255Y-58948139D01*
X39050395Y-58120000D01*
X39409605Y-58120000D01*
X40237745Y-58948139D01*
X40483864Y-58874005D01*
X40676965Y-58336777D01*
X40649904Y-57769187D01*
X42279752Y-57769187D01*
X42497757Y-58296800D01*
X42901077Y-58700824D01*
X43428309Y-58919750D01*
X43999187Y-58920248D01*
X44526800Y-58702243D01*
X44930824Y-58298923D01*
X45149750Y-57771691D01*
X45150248Y-57200813D01*
X44932243Y-56673200D01*
X44528923Y-56269176D01*
X44001691Y-56050250D01*
X43430813Y-56049752D01*
X42903200Y-56267757D01*
X42499176Y-56671077D01*
X42280250Y-57198309D01*
X42279752Y-57769187D01*
X40649904Y-57769187D01*
X40649778Y-57766546D01*
X40483864Y-57365995D01*
X40237745Y-57291861D01*
X39409605Y-58120000D01*
X39050395Y-58120000D01*
X38222255Y-57291861D01*
X38174833Y-57306145D01*
X38138351Y-57112255D01*
X38401861Y-57112255D01*
X39230000Y-57940395D01*
X40058139Y-57112255D01*
X39984005Y-56866136D01*
X39446777Y-56673035D01*
X38876546Y-56700222D01*
X38475995Y-56866136D01*
X38401861Y-57112255D01*
X38138351Y-57112255D01*
X38133162Y-57084683D01*
X37994090Y-56868559D01*
X37781890Y-56723569D01*
X37530000Y-56672560D01*
X35930000Y-56672560D01*
X35694683Y-56716838D01*
X35478559Y-56855910D01*
X35333569Y-57068110D01*
X35282560Y-57320000D01*
X31685000Y-57320000D01*
X31685000Y-51067467D01*
X31733469Y-50823795D01*
X36364716Y-50823795D01*
X36613106Y-51424943D01*
X36957759Y-51770199D01*
X36614722Y-52112637D01*
X36365284Y-52713352D01*
X36364716Y-53363795D01*
X36613106Y-53964943D01*
X37072637Y-54425278D01*
X37673352Y-54674716D01*
X38323795Y-54675284D01*
X38924943Y-54426894D01*
X39159715Y-54192532D01*
X39567073Y-54192532D01*
X39665736Y-54459387D01*
X40275461Y-54685908D01*
X40925460Y-54661856D01*
X41414264Y-54459387D01*
X41512927Y-54192532D01*
X40540000Y-53219605D01*
X39567073Y-54192532D01*
X39159715Y-54192532D01*
X39352562Y-54000022D01*
X39387468Y-54012927D01*
X40360395Y-53040000D01*
X39387468Y-52067073D01*
X39352062Y-52080164D01*
X39042241Y-51769801D01*
X39159715Y-51652532D01*
X39567073Y-51652532D01*
X39610504Y-51770000D01*
X39567073Y-51887468D01*
X40540000Y-52860395D01*
X41512927Y-51887468D01*
X41469496Y-51770000D01*
X41512927Y-51652532D01*
X40540000Y-50679605D01*
X39567073Y-51652532D01*
X39159715Y-51652532D01*
X39352562Y-51460022D01*
X39387468Y-51472927D01*
X40360395Y-50500000D01*
X39387468Y-49527073D01*
X39352062Y-49540164D01*
X39159703Y-49347468D01*
X39567073Y-49347468D01*
X40540000Y-50320395D01*
X41512927Y-49347468D01*
X41414264Y-49080613D01*
X40804539Y-48854092D01*
X40154540Y-48878144D01*
X39665736Y-49080613D01*
X39567073Y-49347468D01*
X39159703Y-49347468D01*
X38927363Y-49114722D01*
X38326648Y-48865284D01*
X37676205Y-48864716D01*
X37075057Y-49113106D01*
X36614722Y-49572637D01*
X36365284Y-50173352D01*
X36364716Y-50823795D01*
X31733469Y-50823795D01*
X31949738Y-49736541D01*
X32665429Y-48665432D01*
X33736540Y-47949738D01*
X34774532Y-47743268D01*
X35015632Y-47984368D01*
X35015632Y-47984368D01*
G37*
X35015632Y-47984368D02*
X35237862Y-48132857D01*
X35500000Y-48185000D01*
X42005394Y-48185000D01*
X42705897Y-48885503D01*
X42155057Y-49113106D01*
X41727438Y-49539978D01*
X41692532Y-49527073D01*
X40719605Y-50500000D01*
X41692532Y-51472927D01*
X41727938Y-51459836D01*
X42037759Y-51770199D01*
X41727438Y-52079978D01*
X41692532Y-52067073D01*
X40719605Y-53040000D01*
X41692532Y-54012927D01*
X41727938Y-53999836D01*
X42152637Y-54425278D01*
X42753352Y-54674716D01*
X43403795Y-54675284D01*
X44004943Y-54426894D01*
X44350199Y-54082241D01*
X44692637Y-54425278D01*
X45293352Y-54674716D01*
X45943795Y-54675284D01*
X46544943Y-54426894D01*
X46890199Y-54082241D01*
X47232637Y-54425278D01*
X47833352Y-54674716D01*
X48483795Y-54675284D01*
X49084943Y-54426894D01*
X49430199Y-54082241D01*
X49772637Y-54425278D01*
X50373352Y-54674716D01*
X51023795Y-54675284D01*
X51624943Y-54426894D01*
X51970199Y-54082241D01*
X52312637Y-54425278D01*
X52913352Y-54674716D01*
X53563795Y-54675284D01*
X54164943Y-54426894D01*
X54616358Y-53976268D01*
X54937717Y-54298188D01*
X55009184Y-54327864D01*
X54880267Y-54638330D01*
X54879735Y-55248991D01*
X55112932Y-55813371D01*
X55544357Y-56245551D01*
X56108330Y-56479733D01*
X56718991Y-56480265D01*
X57283371Y-56247068D01*
X57450731Y-56080000D01*
X65594784Y-56080000D01*
X65437189Y-56185302D01*
X65126120Y-56650849D01*
X65016887Y-57200000D01*
X65126120Y-57749151D01*
X65437189Y-58214698D01*
X65902736Y-58525767D01*
X66451887Y-58635000D01*
X66508113Y-58635000D01*
X67057264Y-58525767D01*
X67522811Y-58214698D01*
X67833880Y-57749151D01*
X67943113Y-57200000D01*
X67833880Y-56650849D01*
X67522811Y-56185302D01*
X67365216Y-56080000D01*
X73190787Y-56080000D01*
X72884176Y-56386077D01*
X72665250Y-56913309D01*
X72664752Y-57484187D01*
X72882757Y-58011800D01*
X73286077Y-58415824D01*
X73813309Y-58634750D01*
X74384187Y-58635248D01*
X74911800Y-58417243D01*
X75315824Y-58013923D01*
X75534750Y-57486691D01*
X75535248Y-56915813D01*
X75317243Y-56388200D01*
X75009580Y-56080000D01*
X76873000Y-56080000D01*
X76873000Y-56936096D01*
X76795258Y-57123319D01*
X76794743Y-57714089D01*
X76873000Y-57903486D01*
X76873000Y-66704950D01*
X76645284Y-67253352D01*
X76644919Y-67671109D01*
X76590434Y-67589566D01*
X73388434Y-64387566D01*
X73355730Y-64365714D01*
X73117541Y-64206561D01*
X72798000Y-64143000D01*
X70695769Y-64143000D01*
X70616286Y-64063378D01*
X70219668Y-63898687D01*
X69790216Y-63898313D01*
X69393311Y-64062311D01*
X69089378Y-64365714D01*
X68924687Y-64762332D01*
X68924313Y-65191784D01*
X69088311Y-65588689D01*
X69391714Y-65892622D01*
X69788332Y-66057313D01*
X70217784Y-66057687D01*
X70614689Y-65893689D01*
X70695519Y-65813000D01*
X72452132Y-65813000D01*
X75165000Y-68525868D01*
X75165000Y-69159412D01*
X75050134Y-69032611D01*
X74544041Y-68793086D01*
X74322000Y-68914371D01*
X74322000Y-70058000D01*
X74342000Y-70058000D01*
X74342000Y-70312000D01*
X74322000Y-70312000D01*
X74322000Y-70332000D01*
X74068000Y-70332000D01*
X74068000Y-70312000D01*
X72925085Y-70312000D01*
X72803096Y-70534039D01*
X72963959Y-70922423D01*
X73339866Y-71337389D01*
X73556703Y-71440014D01*
X73152189Y-71710302D01*
X72841120Y-72175849D01*
X72731887Y-72725000D01*
X72841120Y-73274151D01*
X73152189Y-73739698D01*
X73617736Y-74050767D01*
X74166887Y-74160000D01*
X74223113Y-74160000D01*
X74772264Y-74050767D01*
X75165000Y-73788349D01*
X75165000Y-76690754D01*
X75110689Y-76559311D01*
X74807286Y-76255378D01*
X74410668Y-76090687D01*
X73981216Y-76090313D01*
X73584311Y-76254311D01*
X73280378Y-76557714D01*
X73115687Y-76954332D01*
X73115313Y-77383784D01*
X73208886Y-77610246D01*
X73049923Y-77769209D01*
X73034778Y-77451546D01*
X72868864Y-77050995D01*
X72622745Y-76976861D01*
X71794605Y-77805000D01*
X71808748Y-77819142D01*
X71629142Y-77998748D01*
X71615000Y-77984605D01*
X70786861Y-78812745D01*
X70860995Y-79058864D01*
X71398223Y-79251965D01*
X71575625Y-79243507D01*
X71064566Y-79754566D01*
X70883561Y-80025459D01*
X70820000Y-80345000D01*
X70820000Y-91718231D01*
X70740378Y-91797714D01*
X70575687Y-92194332D01*
X70575313Y-92623784D01*
X70739311Y-93020689D01*
X71042714Y-93324622D01*
X71439332Y-93489313D01*
X71868784Y-93489687D01*
X72265689Y-93325689D01*
X72560010Y-93031881D01*
X72559716Y-93368795D01*
X72808106Y-93969943D01*
X73267637Y-94430278D01*
X73868352Y-94679716D01*
X74518795Y-94680284D01*
X74873000Y-94533929D01*
X74873000Y-94873000D01*
X64000000Y-94873000D01*
X63950590Y-94883006D01*
X63908965Y-94911447D01*
X63881685Y-94953841D01*
X63873000Y-95000000D01*
X63873000Y-101315000D01*
X31685000Y-101315000D01*
X31685000Y-98000000D01*
X32715000Y-98000000D01*
X32888935Y-98874432D01*
X33384261Y-99615739D01*
X34125568Y-100111065D01*
X35000000Y-100285000D01*
X35874432Y-100111065D01*
X36615739Y-99615739D01*
X37111065Y-98874432D01*
X37285000Y-98000000D01*
X37111065Y-97125568D01*
X36615739Y-96384261D01*
X35874432Y-95888935D01*
X35000000Y-95715000D01*
X34125568Y-95888935D01*
X33384261Y-96384261D01*
X32888935Y-97125568D01*
X32715000Y-98000000D01*
X31685000Y-98000000D01*
X31685000Y-66678991D01*
X33289735Y-66678991D01*
X33522932Y-67243371D01*
X33690000Y-67410731D01*
X33690000Y-90825000D01*
X33776397Y-91259346D01*
X33999409Y-91593106D01*
X34022434Y-91627566D01*
X40197434Y-97802566D01*
X40565654Y-98048603D01*
X41000000Y-98135000D01*
X53730000Y-98135000D01*
X54164346Y-98048603D01*
X54532566Y-97802566D01*
X57755071Y-94580061D01*
X57988991Y-94580265D01*
X58553371Y-94347068D01*
X58985551Y-93915643D01*
X59219733Y-93351670D01*
X59220265Y-92741009D01*
X58987068Y-92176629D01*
X58555643Y-91744449D01*
X57991670Y-91510267D01*
X57381009Y-91509735D01*
X57360361Y-91518266D01*
X57588461Y-91290564D01*
X57799759Y-90781702D01*
X57800240Y-90230715D01*
X57733834Y-90070000D01*
X62715972Y-90070000D01*
X62650241Y-90228298D01*
X62649760Y-90779285D01*
X62860169Y-91288515D01*
X63249436Y-91678461D01*
X63758298Y-91889759D01*
X64309285Y-91890240D01*
X64818515Y-91679831D01*
X65208461Y-91290564D01*
X65273856Y-91133076D01*
X65532189Y-91519698D01*
X65705219Y-91635313D01*
X65650057Y-91658106D01*
X65189722Y-92117637D01*
X64940284Y-92718352D01*
X64939716Y-93368795D01*
X65188106Y-93969943D01*
X65647637Y-94430278D01*
X66248352Y-94679716D01*
X66898795Y-94680284D01*
X67499943Y-94431894D01*
X67960278Y-93972363D01*
X68209716Y-93371648D01*
X68210013Y-93031410D01*
X68502714Y-93324622D01*
X68899332Y-93489313D01*
X69328784Y-93489687D01*
X69725689Y-93325689D01*
X70029622Y-93022286D01*
X70194313Y-92625668D01*
X70194687Y-92196216D01*
X70030689Y-91799311D01*
X69950000Y-91718481D01*
X69950000Y-80345000D01*
X69886439Y-80025459D01*
X69705434Y-79754566D01*
X69190934Y-79240066D01*
X69399187Y-79240248D01*
X69926800Y-79022243D01*
X70330824Y-78618923D01*
X70358423Y-78552456D01*
X70361136Y-78559005D01*
X70607255Y-78633139D01*
X71435395Y-77805000D01*
X70607255Y-76976861D01*
X70361136Y-77050995D01*
X70358804Y-77057483D01*
X70332243Y-76993200D01*
X70136640Y-76797255D01*
X70786861Y-76797255D01*
X71615000Y-77625395D01*
X72443139Y-76797255D01*
X72369005Y-76551136D01*
X71831777Y-76358035D01*
X71261546Y-76385222D01*
X70860995Y-76551136D01*
X70786861Y-76797255D01*
X70136640Y-76797255D01*
X69928923Y-76589176D01*
X69401691Y-76370250D01*
X68830813Y-76369752D01*
X68303200Y-76587757D01*
X68045000Y-76845507D01*
X68045000Y-76245868D01*
X69705434Y-74585434D01*
X69847752Y-74372440D01*
X69886439Y-74314541D01*
X69950000Y-73995000D01*
X69950000Y-70185000D01*
X69886439Y-69865459D01*
X69866730Y-69835961D01*
X72803096Y-69835961D01*
X72925085Y-70058000D01*
X74068000Y-70058000D01*
X74068000Y-68914371D01*
X73845959Y-68793086D01*
X73339866Y-69032611D01*
X72963959Y-69447577D01*
X72803096Y-69835961D01*
X69866730Y-69835961D01*
X69705434Y-69594566D01*
X69190934Y-69080066D01*
X69399187Y-69080248D01*
X69926800Y-68862243D01*
X70136663Y-68652745D01*
X70786861Y-68652745D01*
X70860995Y-68898864D01*
X71398223Y-69091965D01*
X71968454Y-69064778D01*
X72369005Y-68898864D01*
X72443139Y-68652745D01*
X71615000Y-67824605D01*
X70786861Y-68652745D01*
X70136663Y-68652745D01*
X70330824Y-68458923D01*
X70358423Y-68392456D01*
X70361136Y-68399005D01*
X70607255Y-68473139D01*
X71435395Y-67645000D01*
X71794605Y-67645000D01*
X72622745Y-68473139D01*
X72868864Y-68399005D01*
X73061965Y-67861777D01*
X73034778Y-67291546D01*
X72868864Y-66890995D01*
X72622745Y-66816861D01*
X71794605Y-67645000D01*
X71435395Y-67645000D01*
X70607255Y-66816861D01*
X70361136Y-66890995D01*
X70358804Y-66897483D01*
X70332243Y-66833200D01*
X70136640Y-66637255D01*
X70786861Y-66637255D01*
X71615000Y-67465395D01*
X72443139Y-66637255D01*
X72369005Y-66391136D01*
X71831777Y-66198035D01*
X71261546Y-66225222D01*
X70860995Y-66391136D01*
X70786861Y-66637255D01*
X70136640Y-66637255D01*
X69928923Y-66429176D01*
X69401691Y-66210250D01*
X68830813Y-66209752D01*
X68303200Y-66427757D01*
X67899176Y-66831077D01*
X67680250Y-67358309D01*
X67680066Y-67569198D01*
X67654589Y-67543721D01*
X67654687Y-67431216D01*
X67490689Y-67034311D01*
X67187286Y-66730378D01*
X66790668Y-66565687D01*
X66361216Y-66565313D01*
X66140000Y-66656718D01*
X66140000Y-64526769D01*
X66219622Y-64447286D01*
X66384313Y-64050668D01*
X66384357Y-63999834D01*
X66859187Y-64000248D01*
X67386800Y-63782243D01*
X67790824Y-63378923D01*
X68009750Y-62851691D01*
X68010000Y-62565000D01*
X72731887Y-62565000D01*
X72841120Y-63114151D01*
X73152189Y-63579698D01*
X73617736Y-63890767D01*
X74166887Y-64000000D01*
X74223113Y-64000000D01*
X74772264Y-63890767D01*
X75237811Y-63579698D01*
X75548880Y-63114151D01*
X75658113Y-62565000D01*
X75548880Y-62015849D01*
X75237811Y-61550302D01*
X74772264Y-61239233D01*
X74223113Y-61130000D01*
X74166887Y-61130000D01*
X73617736Y-61239233D01*
X73152189Y-61550302D01*
X72841120Y-62015849D01*
X72731887Y-62565000D01*
X68010000Y-62565000D01*
X68010248Y-62280813D01*
X67792243Y-61753200D01*
X67388923Y-61349176D01*
X66861691Y-61130250D01*
X66290813Y-61129752D01*
X65763200Y-61347757D01*
X65359176Y-61751077D01*
X65278021Y-61946519D01*
X65209831Y-61781485D01*
X64820564Y-61391539D01*
X64311702Y-61180241D01*
X63760715Y-61179760D01*
X63251485Y-61390169D01*
X62861539Y-61779436D01*
X62650241Y-62288298D01*
X62649760Y-62839285D01*
X62860169Y-63348515D01*
X63249436Y-63738461D01*
X63481870Y-63834976D01*
X63251485Y-63930169D01*
X62861539Y-64319436D01*
X62650241Y-64828298D01*
X62649760Y-65379285D01*
X62860169Y-65888515D01*
X63249436Y-66278461D01*
X63481870Y-66374976D01*
X63251485Y-66470169D01*
X62861539Y-66859436D01*
X62650241Y-67368298D01*
X62649760Y-67919285D01*
X62860169Y-68428515D01*
X63249436Y-68818461D01*
X63481870Y-68914976D01*
X63251485Y-69010169D01*
X62861539Y-69399436D01*
X62650241Y-69908298D01*
X62649760Y-70459285D01*
X62860169Y-70968515D01*
X63249436Y-71358461D01*
X63481870Y-71454976D01*
X63251485Y-71550169D01*
X62861539Y-71939436D01*
X62650241Y-72448298D01*
X62649760Y-72999285D01*
X62860169Y-73508515D01*
X63249436Y-73898461D01*
X63465979Y-73988377D01*
X63311077Y-74052540D01*
X63243088Y-74293483D01*
X64035000Y-75085395D01*
X64049143Y-75071253D01*
X64228748Y-75250858D01*
X64214605Y-75265000D01*
X64228748Y-75279143D01*
X64049143Y-75458748D01*
X64035000Y-75444605D01*
X63243088Y-76236517D01*
X63311077Y-76477460D01*
X63460511Y-76530642D01*
X63311077Y-76592540D01*
X63243088Y-76833483D01*
X64035000Y-77625395D01*
X64049143Y-77611253D01*
X64228748Y-77790858D01*
X64214605Y-77805000D01*
X64228748Y-77819143D01*
X64049143Y-77998748D01*
X64035000Y-77984605D01*
X63243088Y-78776517D01*
X63311077Y-79017460D01*
X63477621Y-79076732D01*
X63251485Y-79170169D01*
X62861539Y-79559436D01*
X62650241Y-80068298D01*
X62649760Y-80619285D01*
X62860169Y-81128515D01*
X63249436Y-81518461D01*
X63481870Y-81614976D01*
X63251485Y-81710169D01*
X62861539Y-82099436D01*
X62650241Y-82608298D01*
X62649760Y-83159285D01*
X62860169Y-83668515D01*
X63249436Y-84058461D01*
X63481870Y-84154976D01*
X63251485Y-84250169D01*
X62861539Y-84639436D01*
X62650241Y-85148298D01*
X62649760Y-85699285D01*
X62860169Y-86208515D01*
X63249436Y-86598461D01*
X63481870Y-86694976D01*
X63251485Y-86790169D01*
X62861539Y-87179436D01*
X62650241Y-87688298D01*
X62649760Y-88239285D01*
X62716166Y-88400000D01*
X57734028Y-88400000D01*
X57799759Y-88241702D01*
X57800240Y-87690715D01*
X57589831Y-87181485D01*
X57200564Y-86791539D01*
X56968130Y-86695024D01*
X57198515Y-86599831D01*
X57588461Y-86210564D01*
X57799759Y-85701702D01*
X57800240Y-85150715D01*
X57589831Y-84641485D01*
X57200564Y-84251539D01*
X56968130Y-84155024D01*
X57198515Y-84059831D01*
X57588461Y-83670564D01*
X57799759Y-83161702D01*
X57800240Y-82610715D01*
X57589831Y-82101485D01*
X57200564Y-81711539D01*
X56968130Y-81615024D01*
X57198515Y-81519831D01*
X57588461Y-81130564D01*
X57799759Y-80621702D01*
X57800240Y-80070715D01*
X57589831Y-79561485D01*
X57200564Y-79171539D01*
X56984021Y-79081623D01*
X57138923Y-79017460D01*
X57206912Y-78776517D01*
X56415000Y-77984605D01*
X55623088Y-78776517D01*
X55691077Y-79017460D01*
X55857621Y-79076732D01*
X55631485Y-79170169D01*
X55241539Y-79559436D01*
X55030241Y-80068298D01*
X55029760Y-80619285D01*
X55240169Y-81128515D01*
X55629436Y-81518461D01*
X55861870Y-81614976D01*
X55631485Y-81710169D01*
X55241539Y-82099436D01*
X55030241Y-82608298D01*
X55029760Y-83159285D01*
X55240169Y-83668515D01*
X55629436Y-84058461D01*
X55861870Y-84154976D01*
X55631485Y-84250169D01*
X55241539Y-84639436D01*
X55152091Y-84854851D01*
X55052243Y-84613200D01*
X54648923Y-84209176D01*
X54121691Y-83990250D01*
X53550813Y-83989752D01*
X53023200Y-84207757D01*
X52619176Y-84611077D01*
X52585187Y-84692931D01*
X52552243Y-84613200D01*
X52148923Y-84209176D01*
X51621691Y-83990250D01*
X51050813Y-83989752D01*
X50523200Y-84207757D01*
X50119176Y-84611077D01*
X49900250Y-85138309D01*
X49899752Y-85709187D01*
X50117757Y-86236800D01*
X50521077Y-86640824D01*
X51048309Y-86859750D01*
X51619187Y-86860248D01*
X52146800Y-86642243D01*
X52550824Y-86238923D01*
X52584813Y-86157069D01*
X52617757Y-86236800D01*
X53021077Y-86640824D01*
X53190234Y-86711064D01*
X52832189Y-86950302D01*
X52521120Y-87415849D01*
X52411887Y-87965000D01*
X52498414Y-88400000D01*
X51680868Y-88400000D01*
X49630000Y-86349132D01*
X49630000Y-83520000D01*
X49566439Y-83200459D01*
X49385434Y-82929566D01*
X46845434Y-80389566D01*
X46778736Y-80345000D01*
X46574541Y-80208561D01*
X46255000Y-80145000D01*
X44840777Y-80145000D01*
X45163227Y-79662419D01*
X45280072Y-79075000D01*
X45163227Y-78487581D01*
X44954368Y-78175000D01*
X49787560Y-78175000D01*
X49787560Y-79975000D01*
X49831838Y-80210317D01*
X49970910Y-80426441D01*
X50183110Y-80571431D01*
X50435000Y-80622440D01*
X52235000Y-80622440D01*
X52470317Y-80578162D01*
X52686441Y-80439090D01*
X52831431Y-80226890D01*
X52882440Y-79975000D01*
X52882440Y-78175000D01*
X52854471Y-78026359D01*
X53222491Y-77953155D01*
X53720481Y-77620409D01*
X53734003Y-77600171D01*
X55017799Y-77600171D01*
X55045770Y-78150448D01*
X55202540Y-78528923D01*
X55443483Y-78596912D01*
X56235395Y-77805000D01*
X56594605Y-77805000D01*
X57386517Y-78596912D01*
X57627460Y-78528923D01*
X57812201Y-78009829D01*
X57791378Y-77600171D01*
X62637799Y-77600171D01*
X62665770Y-78150448D01*
X62822540Y-78528923D01*
X63063483Y-78596912D01*
X63855395Y-77805000D01*
X63063483Y-77013088D01*
X62822540Y-77081077D01*
X62637799Y-77600171D01*
X57791378Y-77600171D01*
X57784230Y-77459552D01*
X57627460Y-77081077D01*
X57386517Y-77013088D01*
X56594605Y-77805000D01*
X56235395Y-77805000D01*
X55443483Y-77013088D01*
X55202540Y-77081077D01*
X55017799Y-77600171D01*
X53734003Y-77600171D01*
X54053227Y-77122419D01*
X54170072Y-76535000D01*
X54110700Y-76236517D01*
X55623088Y-76236517D01*
X55691077Y-76477460D01*
X55840511Y-76530642D01*
X55691077Y-76592540D01*
X55623088Y-76833483D01*
X56415000Y-77625395D01*
X57206912Y-76833483D01*
X57138923Y-76592540D01*
X56989489Y-76539358D01*
X57138923Y-76477460D01*
X57206912Y-76236517D01*
X56415000Y-75444605D01*
X55623088Y-76236517D01*
X54110700Y-76236517D01*
X54053227Y-75947581D01*
X53720481Y-75449591D01*
X53222491Y-75116845D01*
X52937572Y-75060171D01*
X55017799Y-75060171D01*
X55045770Y-75610448D01*
X55202540Y-75988923D01*
X55443483Y-76056912D01*
X56235395Y-75265000D01*
X56594605Y-75265000D01*
X57386517Y-76056912D01*
X57627460Y-75988923D01*
X57812201Y-75469829D01*
X57791378Y-75060171D01*
X62637799Y-75060171D01*
X62665770Y-75610448D01*
X62822540Y-75988923D01*
X63063483Y-76056912D01*
X63855395Y-75265000D01*
X63063483Y-74473088D01*
X62822540Y-74541077D01*
X62637799Y-75060171D01*
X57791378Y-75060171D01*
X57784230Y-74919552D01*
X57627460Y-74541077D01*
X57386517Y-74473088D01*
X56594605Y-75265000D01*
X56235395Y-75265000D01*
X55443483Y-74473088D01*
X55202540Y-74541077D01*
X55017799Y-75060171D01*
X52937572Y-75060171D01*
X52635072Y-75000000D01*
X52574928Y-75000000D01*
X51987509Y-75116845D01*
X51489519Y-75449591D01*
X51156773Y-75947581D01*
X51039928Y-76535000D01*
X51156773Y-77122419D01*
X51427479Y-77527560D01*
X50435000Y-77527560D01*
X50199683Y-77571838D01*
X49983559Y-77710910D01*
X49838569Y-77923110D01*
X49787560Y-78175000D01*
X44954368Y-78175000D01*
X44892521Y-78082440D01*
X45885000Y-78082440D01*
X46120317Y-78038162D01*
X46336441Y-77899090D01*
X46481431Y-77686890D01*
X46532440Y-77435000D01*
X46532440Y-75635000D01*
X46488162Y-75399683D01*
X46349090Y-75183559D01*
X46136890Y-75038569D01*
X45885000Y-74987560D01*
X44085000Y-74987560D01*
X43849683Y-75031838D01*
X43633559Y-75170910D01*
X43488569Y-75383110D01*
X43437560Y-75635000D01*
X43437560Y-77435000D01*
X43465529Y-77583641D01*
X43097509Y-77656845D01*
X42645000Y-77959202D01*
X42645000Y-70509187D01*
X46089752Y-70509187D01*
X46307757Y-71036800D01*
X46711077Y-71440824D01*
X46792931Y-71474813D01*
X46713200Y-71507757D01*
X46309176Y-71911077D01*
X46090250Y-72438309D01*
X46089752Y-73009187D01*
X46307757Y-73536800D01*
X46711077Y-73940824D01*
X47238309Y-74159750D01*
X47809187Y-74160248D01*
X48336800Y-73942243D01*
X48740824Y-73538923D01*
X48794862Y-73408785D01*
X48847757Y-73536800D01*
X49251077Y-73940824D01*
X49778309Y-74159750D01*
X50349187Y-74160248D01*
X50876800Y-73942243D01*
X51280824Y-73538923D01*
X51499750Y-73011691D01*
X51500248Y-72440813D01*
X51282243Y-71913200D01*
X50878923Y-71509176D01*
X50797069Y-71475187D01*
X50876800Y-71442243D01*
X51280824Y-71038923D01*
X51499750Y-70511691D01*
X51500248Y-69940813D01*
X51282243Y-69413200D01*
X50878923Y-69009176D01*
X50351691Y-68790250D01*
X49780813Y-68789752D01*
X49253200Y-69007757D01*
X48849176Y-69411077D01*
X48795138Y-69541215D01*
X48742243Y-69413200D01*
X48338923Y-69009176D01*
X47811691Y-68790250D01*
X47240813Y-68789752D01*
X46713200Y-69007757D01*
X46309176Y-69411077D01*
X46090250Y-69938309D01*
X46089752Y-70509187D01*
X42645000Y-70509187D01*
X42645000Y-69895868D01*
X43816279Y-68724589D01*
X43928784Y-68724687D01*
X44325689Y-68560689D01*
X44629622Y-68257286D01*
X44794313Y-67860668D01*
X44794687Y-67431216D01*
X44630689Y-67034311D01*
X44327286Y-66730378D01*
X43930668Y-66565687D01*
X43501216Y-66565313D01*
X43104311Y-66729311D01*
X42800378Y-67032714D01*
X42635687Y-67429332D01*
X42635588Y-67543544D01*
X41219566Y-68959566D01*
X41038561Y-69230459D01*
X41006481Y-69391736D01*
X40764029Y-69028880D01*
X40593595Y-68915000D01*
X40764029Y-68801120D01*
X41118452Y-68270687D01*
X41242909Y-67645000D01*
X41118452Y-67019313D01*
X40764029Y-66488880D01*
X40233596Y-66134457D01*
X39607909Y-66010000D01*
X38932091Y-66010000D01*
X38306404Y-66134457D01*
X37775971Y-66488880D01*
X37421548Y-67019313D01*
X37297091Y-67645000D01*
X37421548Y-68270687D01*
X37775971Y-68801120D01*
X37946405Y-68915000D01*
X37775971Y-69028880D01*
X37421548Y-69559313D01*
X37297091Y-70185000D01*
X37421548Y-70810687D01*
X37661093Y-71169192D01*
X37518559Y-71260910D01*
X37373569Y-71473110D01*
X37322560Y-71725000D01*
X37322560Y-73725000D01*
X37366838Y-73960317D01*
X37505910Y-74176441D01*
X37672620Y-74290349D01*
X37410856Y-74756645D01*
X37379876Y-74884566D01*
X37499223Y-75138000D01*
X39143000Y-75138000D01*
X39143000Y-75118000D01*
X39397000Y-75118000D01*
X39397000Y-75138000D01*
X39417000Y-75138000D01*
X39417000Y-75392000D01*
X39397000Y-75392000D01*
X39397000Y-75412000D01*
X39143000Y-75412000D01*
X39143000Y-75392000D01*
X37499223Y-75392000D01*
X37379876Y-75645434D01*
X37410856Y-75773355D01*
X37724078Y-76331317D01*
X37966188Y-76521781D01*
X37775971Y-76648880D01*
X37421548Y-77179313D01*
X37297091Y-77805000D01*
X37421548Y-78430687D01*
X37775971Y-78961120D01*
X37946405Y-79075000D01*
X37775971Y-79188880D01*
X37421548Y-79719313D01*
X37297091Y-80345000D01*
X37421548Y-80970687D01*
X37775971Y-81501120D01*
X37946405Y-81615000D01*
X37775971Y-81728880D01*
X37421548Y-82259313D01*
X37297091Y-82885000D01*
X37421548Y-83510687D01*
X37661093Y-83869192D01*
X37518559Y-83960910D01*
X37373569Y-84173110D01*
X37322560Y-84425000D01*
X37322560Y-86425000D01*
X37366838Y-86660317D01*
X37505910Y-86876441D01*
X37718110Y-87021431D01*
X37970000Y-87072440D01*
X38636142Y-87072440D01*
X38355378Y-87352714D01*
X38190687Y-87749332D01*
X38190313Y-88178784D01*
X38354311Y-88575689D01*
X38657714Y-88879622D01*
X39054332Y-89044313D01*
X39483784Y-89044687D01*
X39880689Y-88880689D01*
X39961519Y-88800000D01*
X40540000Y-88800000D01*
X40859541Y-88736439D01*
X41130434Y-88555434D01*
X42790868Y-86895000D01*
X45295700Y-86895000D01*
X45039176Y-87151077D01*
X44820250Y-87678309D01*
X44819752Y-88249187D01*
X45037757Y-88776800D01*
X45441077Y-89180824D01*
X45571215Y-89234862D01*
X45443200Y-89287757D01*
X45039176Y-89691077D01*
X44979180Y-89835564D01*
X44729698Y-89462189D01*
X44264151Y-89151120D01*
X43715000Y-89041887D01*
X43165849Y-89151120D01*
X42700302Y-89462189D01*
X42389233Y-89927736D01*
X42280000Y-90476887D01*
X42280000Y-90533113D01*
X42389233Y-91082264D01*
X42700302Y-91547811D01*
X43165849Y-91858880D01*
X43715000Y-91968113D01*
X44264151Y-91858880D01*
X44729698Y-91547811D01*
X44979027Y-91174664D01*
X45037757Y-91316800D01*
X45441077Y-91720824D01*
X45968309Y-91939750D01*
X46539187Y-91940248D01*
X47066800Y-91722243D01*
X47470824Y-91318923D01*
X47689750Y-90791691D01*
X47690248Y-90220813D01*
X47472243Y-89693200D01*
X47068923Y-89289176D01*
X46938785Y-89235138D01*
X47066800Y-89182243D01*
X47470824Y-88778923D01*
X47565368Y-88551236D01*
X52160411Y-93146280D01*
X52160313Y-93258784D01*
X52324311Y-93655689D01*
X52627714Y-93959622D01*
X53024332Y-94124313D01*
X53453784Y-94124687D01*
X53850689Y-93960689D01*
X54154622Y-93657286D01*
X54319313Y-93260668D01*
X54319687Y-92831216D01*
X54155689Y-92434311D01*
X53852286Y-92130378D01*
X53455668Y-91965687D01*
X53341456Y-91965588D01*
X53023189Y-91647321D01*
X53297736Y-91830767D01*
X53846887Y-91940000D01*
X53903113Y-91940000D01*
X54452264Y-91830767D01*
X54917811Y-91519698D01*
X55176020Y-91133262D01*
X55240169Y-91288515D01*
X55629436Y-91678461D01*
X56138298Y-91889759D01*
X56669081Y-91890222D01*
X56384449Y-92174357D01*
X56150267Y-92738330D01*
X56150061Y-92974807D01*
X53259868Y-95865000D01*
X41470132Y-95865000D01*
X35960000Y-90354868D01*
X35960000Y-67410905D01*
X36125551Y-67245643D01*
X36359733Y-66681670D01*
X36360265Y-66071009D01*
X36127068Y-65506629D01*
X36074572Y-65454041D01*
X42323086Y-65454041D01*
X42562611Y-65960134D01*
X42977577Y-66336041D01*
X43365961Y-66496904D01*
X43588000Y-66374915D01*
X43588000Y-65232000D01*
X42444371Y-65232000D01*
X42323086Y-65454041D01*
X36074572Y-65454041D01*
X35695643Y-65074449D01*
X35131670Y-64840267D01*
X34521009Y-64839735D01*
X33956629Y-65072932D01*
X33524449Y-65504357D01*
X33290267Y-66068330D01*
X33289735Y-66678991D01*
X31685000Y-66678991D01*
X31685000Y-64755959D01*
X42323086Y-64755959D01*
X42444371Y-64978000D01*
X43588000Y-64978000D01*
X43588000Y-63835085D01*
X43842000Y-63835085D01*
X43842000Y-64978000D01*
X43862000Y-64978000D01*
X43862000Y-65232000D01*
X43842000Y-65232000D01*
X43842000Y-66374915D01*
X44064039Y-66496904D01*
X44452423Y-66336041D01*
X44867389Y-65960134D01*
X44966146Y-65751470D01*
X45212189Y-66119698D01*
X45677736Y-66430767D01*
X46226887Y-66540000D01*
X46283113Y-66540000D01*
X46832264Y-66430767D01*
X47297811Y-66119698D01*
X47608880Y-65654151D01*
X47661584Y-65389187D01*
X52439752Y-65389187D01*
X52657757Y-65916800D01*
X53061077Y-66320824D01*
X53588309Y-66539750D01*
X54159187Y-66540248D01*
X54686800Y-66322243D01*
X55090824Y-65918923D01*
X55171979Y-65723481D01*
X55240169Y-65888515D01*
X55629436Y-66278461D01*
X55861870Y-66374976D01*
X55631485Y-66470169D01*
X55241539Y-66859436D01*
X55030241Y-67368298D01*
X55029760Y-67919285D01*
X55240169Y-68428515D01*
X55629436Y-68818461D01*
X55861870Y-68914976D01*
X55631485Y-69010169D01*
X55241539Y-69399436D01*
X55030241Y-69908298D01*
X55029760Y-70459285D01*
X55240169Y-70968515D01*
X55629436Y-71358461D01*
X55861870Y-71454976D01*
X55631485Y-71550169D01*
X55241539Y-71939436D01*
X55030241Y-72448298D01*
X55029760Y-72999285D01*
X55240169Y-73508515D01*
X55629436Y-73898461D01*
X55845979Y-73988377D01*
X55691077Y-74052540D01*
X55623088Y-74293483D01*
X56415000Y-75085395D01*
X57206912Y-74293483D01*
X57138923Y-74052540D01*
X56972379Y-73993268D01*
X57198515Y-73899831D01*
X57588461Y-73510564D01*
X57799759Y-73001702D01*
X57800240Y-72450715D01*
X57589831Y-71941485D01*
X57200564Y-71551539D01*
X56968130Y-71455024D01*
X57198515Y-71359831D01*
X57588461Y-70970564D01*
X57799759Y-70461702D01*
X57800240Y-69910715D01*
X57589831Y-69401485D01*
X57200564Y-69011539D01*
X56968130Y-68915024D01*
X57198515Y-68819831D01*
X57588461Y-68430564D01*
X57799759Y-67921702D01*
X57800240Y-67370715D01*
X57589831Y-66861485D01*
X57200564Y-66471539D01*
X56968130Y-66375024D01*
X57198515Y-66279831D01*
X57588461Y-65890564D01*
X57799759Y-65381702D01*
X57800240Y-64830715D01*
X57589831Y-64321485D01*
X57200564Y-63931539D01*
X56968130Y-63835024D01*
X57198515Y-63739831D01*
X57588461Y-63350564D01*
X57799759Y-62841702D01*
X57800240Y-62290715D01*
X57589831Y-61781485D01*
X57200564Y-61391539D01*
X56691702Y-61180241D01*
X56140715Y-61179760D01*
X55631485Y-61390169D01*
X55241539Y-61779436D01*
X55030241Y-62288298D01*
X55029760Y-62839285D01*
X55240169Y-63348515D01*
X55629436Y-63738461D01*
X55861870Y-63834976D01*
X55631485Y-63930169D01*
X55241539Y-64319436D01*
X55172140Y-64486567D01*
X55092243Y-64293200D01*
X54688923Y-63889176D01*
X54161691Y-63670250D01*
X53590813Y-63669752D01*
X53063200Y-63887757D01*
X52659176Y-64291077D01*
X52440250Y-64818309D01*
X52439752Y-65389187D01*
X47661584Y-65389187D01*
X47718113Y-65105000D01*
X47608880Y-64555849D01*
X47297811Y-64090302D01*
X46832264Y-63779233D01*
X46283113Y-63670000D01*
X46226887Y-63670000D01*
X45677736Y-63779233D01*
X45212189Y-64090302D01*
X44966146Y-64458530D01*
X44867389Y-64249866D01*
X44452423Y-63873959D01*
X44064039Y-63713096D01*
X43842000Y-63835085D01*
X43588000Y-63835085D01*
X43365961Y-63713096D01*
X42977577Y-63873959D01*
X42562611Y-64249866D01*
X42323086Y-64755959D01*
X31685000Y-64755959D01*
X31685000Y-63484187D01*
X34024752Y-63484187D01*
X34242757Y-64011800D01*
X34646077Y-64415824D01*
X35173309Y-64634750D01*
X35744187Y-64635248D01*
X36271800Y-64417243D01*
X36481663Y-64207745D01*
X37131861Y-64207745D01*
X37205995Y-64453864D01*
X37743223Y-64646965D01*
X38313454Y-64619778D01*
X38714005Y-64453864D01*
X38788139Y-64207745D01*
X37960000Y-63379605D01*
X37131861Y-64207745D01*
X36481663Y-64207745D01*
X36675824Y-64013923D01*
X36703423Y-63947456D01*
X36706136Y-63954005D01*
X36952255Y-64028139D01*
X37780395Y-63200000D01*
X38139605Y-63200000D01*
X38967745Y-64028139D01*
X39213864Y-63954005D01*
X39350903Y-63572745D01*
X47966861Y-63572745D01*
X48040995Y-63818864D01*
X48578223Y-64011965D01*
X49148454Y-63984778D01*
X49549005Y-63818864D01*
X49623139Y-63572745D01*
X48795000Y-62744605D01*
X47966861Y-63572745D01*
X39350903Y-63572745D01*
X39406965Y-63416777D01*
X39379778Y-62846546D01*
X39213864Y-62445995D01*
X38967745Y-62371861D01*
X38139605Y-63200000D01*
X37780395Y-63200000D01*
X36952255Y-62371861D01*
X36706136Y-62445995D01*
X36703804Y-62452483D01*
X36677243Y-62388200D01*
X36481640Y-62192255D01*
X37131861Y-62192255D01*
X37960000Y-63020395D01*
X38632171Y-62348223D01*
X47348035Y-62348223D01*
X47375222Y-62918454D01*
X47541136Y-63319005D01*
X47787255Y-63393139D01*
X48615395Y-62565000D01*
X47787255Y-61736861D01*
X47541136Y-61810995D01*
X47348035Y-62348223D01*
X38632171Y-62348223D01*
X38788139Y-62192255D01*
X38714005Y-61946136D01*
X38176777Y-61753035D01*
X37606546Y-61780222D01*
X37205995Y-61946136D01*
X37131861Y-62192255D01*
X36481640Y-62192255D01*
X36273923Y-61984176D01*
X35746691Y-61765250D01*
X35175813Y-61764752D01*
X34648200Y-61982757D01*
X34244176Y-62386077D01*
X34025250Y-62913309D01*
X34024752Y-63484187D01*
X31685000Y-63484187D01*
X31685000Y-60025000D01*
X47280907Y-60025000D01*
X47393946Y-60593285D01*
X47715853Y-61075054D01*
X48058391Y-61303930D01*
X48040995Y-61311136D01*
X47966861Y-61557255D01*
X48795000Y-62385395D01*
X49623139Y-61557255D01*
X49549005Y-61311136D01*
X49530681Y-61304550D01*
X49874147Y-61075054D01*
X50065000Y-60789422D01*
X50255853Y-61075054D01*
X50594906Y-61301601D01*
X50483200Y-61347757D01*
X50079176Y-61751077D01*
X50051577Y-61817544D01*
X50048864Y-61810995D01*
X49802745Y-61736861D01*
X48974605Y-62565000D01*
X49802745Y-63393139D01*
X50048864Y-63319005D01*
X50051196Y-63312517D01*
X50077757Y-63376800D01*
X50481077Y-63780824D01*
X51008309Y-63999750D01*
X51579187Y-64000248D01*
X52106800Y-63782243D01*
X52510824Y-63378923D01*
X52729750Y-62851691D01*
X52730248Y-62280813D01*
X52512243Y-61753200D01*
X52108923Y-61349176D01*
X52044148Y-61322279D01*
X52414147Y-61075054D01*
X52736054Y-60593285D01*
X52849093Y-60025000D01*
X52784447Y-59700000D01*
X54816887Y-59700000D01*
X54926120Y-60249151D01*
X55237189Y-60714698D01*
X55702736Y-61025767D01*
X56251887Y-61135000D01*
X56308113Y-61135000D01*
X56857264Y-61025767D01*
X57322811Y-60714698D01*
X57633880Y-60249151D01*
X57686584Y-59984187D01*
X62464752Y-59984187D01*
X62682757Y-60511800D01*
X63086077Y-60915824D01*
X63613309Y-61134750D01*
X64184187Y-61135248D01*
X64711800Y-60917243D01*
X65115824Y-60513923D01*
X65334750Y-59986691D01*
X65335248Y-59415813D01*
X65117243Y-58888200D01*
X64713923Y-58484176D01*
X64186691Y-58265250D01*
X63615813Y-58264752D01*
X63088200Y-58482757D01*
X62684176Y-58886077D01*
X62465250Y-59413309D01*
X62464752Y-59984187D01*
X57686584Y-59984187D01*
X57743113Y-59700000D01*
X57633880Y-59150849D01*
X57322811Y-58685302D01*
X56857264Y-58374233D01*
X56308113Y-58265000D01*
X56251887Y-58265000D01*
X55702736Y-58374233D01*
X55237189Y-58685302D01*
X54926120Y-59150849D01*
X54816887Y-59700000D01*
X52784447Y-59700000D01*
X52736054Y-59456715D01*
X52414147Y-58974946D01*
X52372548Y-58947150D01*
X52420317Y-58938162D01*
X52636441Y-58799090D01*
X52781431Y-58586890D01*
X52832440Y-58335000D01*
X52832440Y-56635000D01*
X52788162Y-56399683D01*
X52649090Y-56183559D01*
X52436890Y-56038569D01*
X52185000Y-55987560D01*
X50485000Y-55987560D01*
X50249683Y-56031838D01*
X50062923Y-56152015D01*
X49896890Y-56038569D01*
X49645000Y-55987560D01*
X47945000Y-55987560D01*
X47709683Y-56031838D01*
X47493559Y-56170910D01*
X47348569Y-56383110D01*
X47297560Y-56635000D01*
X47297560Y-58335000D01*
X47341838Y-58570317D01*
X47480910Y-58786441D01*
X47693110Y-58931431D01*
X47760541Y-58945086D01*
X47715853Y-58974946D01*
X47393946Y-59456715D01*
X47280907Y-60025000D01*
X31685000Y-60025000D01*
X31685000Y-57320000D01*
X35282560Y-57320000D01*
X35282560Y-58920000D01*
X35326838Y-59155317D01*
X35465910Y-59371441D01*
X35678110Y-59516431D01*
X35930000Y-59567440D01*
X37530000Y-59567440D01*
X37765317Y-59523162D01*
X37981441Y-59384090D01*
X38126431Y-59171890D01*
X38135370Y-59127745D01*
X38401861Y-59127745D01*
X38475995Y-59373864D01*
X39013223Y-59566965D01*
X39583454Y-59539778D01*
X39984005Y-59373864D01*
X40058139Y-59127745D01*
X39230000Y-58299605D01*
X38401861Y-59127745D01*
X38135370Y-59127745D01*
X38174646Y-58933799D01*
X38222255Y-58948139D01*
X39050395Y-58120000D01*
X39409605Y-58120000D01*
X40237745Y-58948139D01*
X40483864Y-58874005D01*
X40676965Y-58336777D01*
X40649904Y-57769187D01*
X42279752Y-57769187D01*
X42497757Y-58296800D01*
X42901077Y-58700824D01*
X43428309Y-58919750D01*
X43999187Y-58920248D01*
X44526800Y-58702243D01*
X44930824Y-58298923D01*
X45149750Y-57771691D01*
X45150248Y-57200813D01*
X44932243Y-56673200D01*
X44528923Y-56269176D01*
X44001691Y-56050250D01*
X43430813Y-56049752D01*
X42903200Y-56267757D01*
X42499176Y-56671077D01*
X42280250Y-57198309D01*
X42279752Y-57769187D01*
X40649904Y-57769187D01*
X40649778Y-57766546D01*
X40483864Y-57365995D01*
X40237745Y-57291861D01*
X39409605Y-58120000D01*
X39050395Y-58120000D01*
X38222255Y-57291861D01*
X38174833Y-57306145D01*
X38138351Y-57112255D01*
X38401861Y-57112255D01*
X39230000Y-57940395D01*
X40058139Y-57112255D01*
X39984005Y-56866136D01*
X39446777Y-56673035D01*
X38876546Y-56700222D01*
X38475995Y-56866136D01*
X38401861Y-57112255D01*
X38138351Y-57112255D01*
X38133162Y-57084683D01*
X37994090Y-56868559D01*
X37781890Y-56723569D01*
X37530000Y-56672560D01*
X35930000Y-56672560D01*
X35694683Y-56716838D01*
X35478559Y-56855910D01*
X35333569Y-57068110D01*
X35282560Y-57320000D01*
X31685000Y-57320000D01*
X31685000Y-51067467D01*
X31733469Y-50823795D01*
X36364716Y-50823795D01*
X36613106Y-51424943D01*
X36957759Y-51770199D01*
X36614722Y-52112637D01*
X36365284Y-52713352D01*
X36364716Y-53363795D01*
X36613106Y-53964943D01*
X37072637Y-54425278D01*
X37673352Y-54674716D01*
X38323795Y-54675284D01*
X38924943Y-54426894D01*
X39159715Y-54192532D01*
X39567073Y-54192532D01*
X39665736Y-54459387D01*
X40275461Y-54685908D01*
X40925460Y-54661856D01*
X41414264Y-54459387D01*
X41512927Y-54192532D01*
X40540000Y-53219605D01*
X39567073Y-54192532D01*
X39159715Y-54192532D01*
X39352562Y-54000022D01*
X39387468Y-54012927D01*
X40360395Y-53040000D01*
X39387468Y-52067073D01*
X39352062Y-52080164D01*
X39042241Y-51769801D01*
X39159715Y-51652532D01*
X39567073Y-51652532D01*
X39610504Y-51770000D01*
X39567073Y-51887468D01*
X40540000Y-52860395D01*
X41512927Y-51887468D01*
X41469496Y-51770000D01*
X41512927Y-51652532D01*
X40540000Y-50679605D01*
X39567073Y-51652532D01*
X39159715Y-51652532D01*
X39352562Y-51460022D01*
X39387468Y-51472927D01*
X40360395Y-50500000D01*
X39387468Y-49527073D01*
X39352062Y-49540164D01*
X39159703Y-49347468D01*
X39567073Y-49347468D01*
X40540000Y-50320395D01*
X41512927Y-49347468D01*
X41414264Y-49080613D01*
X40804539Y-48854092D01*
X40154540Y-48878144D01*
X39665736Y-49080613D01*
X39567073Y-49347468D01*
X39159703Y-49347468D01*
X38927363Y-49114722D01*
X38326648Y-48865284D01*
X37676205Y-48864716D01*
X37075057Y-49113106D01*
X36614722Y-49572637D01*
X36365284Y-50173352D01*
X36364716Y-50823795D01*
X31733469Y-50823795D01*
X31949738Y-49736541D01*
X32665429Y-48665432D01*
X33736540Y-47949738D01*
X34774532Y-47743268D01*
X35015632Y-47984368D01*
G36*
X75165000Y-77705000D02*
X75228561Y-78024541D01*
X75318039Y-78158454D01*
X75409566Y-78295434D01*
X76779566Y-79665434D01*
X76873000Y-79727865D01*
X76873000Y-81944950D01*
X76645284Y-82493352D01*
X76644716Y-83143795D01*
X76873000Y-83696283D01*
X76873000Y-84484950D01*
X76645284Y-85033352D01*
X76644716Y-85683795D01*
X76873000Y-86236283D01*
X76873000Y-87416096D01*
X76795258Y-87603319D01*
X76794890Y-88025504D01*
X75269843Y-89550551D01*
X75008923Y-89289176D01*
X74894232Y-89241552D01*
X74949005Y-89218864D01*
X75023139Y-88972745D01*
X74195000Y-88144605D01*
X73366861Y-88972745D01*
X73440995Y-89218864D01*
X73499254Y-89239805D01*
X73383200Y-89287757D01*
X72979176Y-89691077D01*
X72760250Y-90218309D01*
X72759752Y-90789187D01*
X72977757Y-91316800D01*
X73304331Y-91643944D01*
X73270057Y-91658106D01*
X72809722Y-92117637D01*
X72734598Y-92298556D01*
X72734687Y-92196216D01*
X72570689Y-91799311D01*
X72490000Y-91718481D01*
X72490000Y-87748223D01*
X72748035Y-87748223D01*
X72775222Y-88318454D01*
X72941136Y-88719005D01*
X73187255Y-88793139D01*
X74015395Y-87965000D01*
X74374605Y-87965000D01*
X75202745Y-88793139D01*
X75448864Y-88719005D01*
X75641965Y-88181777D01*
X75614778Y-87611546D01*
X75448864Y-87210995D01*
X75202745Y-87136861D01*
X74374605Y-87965000D01*
X74015395Y-87965000D01*
X73187255Y-87136861D01*
X72941136Y-87210995D01*
X72748035Y-87748223D01*
X72490000Y-87748223D01*
X72490000Y-86432745D01*
X73366861Y-86432745D01*
X73440995Y-86678864D01*
X73482709Y-86693858D01*
X73440995Y-86711136D01*
X73366861Y-86957255D01*
X74195000Y-87785395D01*
X75023139Y-86957255D01*
X74949005Y-86711136D01*
X74907291Y-86696142D01*
X74949005Y-86678864D01*
X75023139Y-86432745D01*
X74195000Y-85604605D01*
X73366861Y-86432745D01*
X72490000Y-86432745D01*
X72490000Y-85208223D01*
X72748035Y-85208223D01*
X72775222Y-85778454D01*
X72941136Y-86179005D01*
X73187255Y-86253139D01*
X74015395Y-85425000D01*
X74374605Y-85425000D01*
X75202745Y-86253139D01*
X75448864Y-86179005D01*
X75641965Y-85641777D01*
X75614778Y-85071546D01*
X75448864Y-84670995D01*
X75202745Y-84596861D01*
X74374605Y-85425000D01*
X74015395Y-85425000D01*
X73187255Y-84596861D01*
X72941136Y-84670995D01*
X72748035Y-85208223D01*
X72490000Y-85208223D01*
X72490000Y-83892745D01*
X73366861Y-83892745D01*
X73440995Y-84138864D01*
X73482709Y-84153858D01*
X73440995Y-84171136D01*
X73366861Y-84417255D01*
X74195000Y-85245395D01*
X75023139Y-84417255D01*
X74949005Y-84171136D01*
X74907291Y-84156142D01*
X74949005Y-84138864D01*
X75023139Y-83892745D01*
X74195000Y-83064605D01*
X73366861Y-83892745D01*
X72490000Y-83892745D01*
X72490000Y-82668223D01*
X72748035Y-82668223D01*
X72775222Y-83238454D01*
X72941136Y-83639005D01*
X73187255Y-83713139D01*
X74015395Y-82885000D01*
X74374605Y-82885000D01*
X75202745Y-83713139D01*
X75448864Y-83639005D01*
X75641965Y-83101777D01*
X75614778Y-82531546D01*
X75448864Y-82130995D01*
X75202745Y-82056861D01*
X74374605Y-82885000D01*
X74015395Y-82885000D01*
X73187255Y-82056861D01*
X72941136Y-82130995D01*
X72748035Y-82668223D01*
X72490000Y-82668223D01*
X72490000Y-80690868D01*
X72760000Y-80420868D01*
X72760000Y-80472002D01*
X72925084Y-80472002D01*
X72803096Y-80694039D01*
X72963959Y-81082423D01*
X73339866Y-81497389D01*
X73537766Y-81591052D01*
X73440995Y-81631136D01*
X73366861Y-81877255D01*
X74195000Y-82705395D01*
X75023139Y-81877255D01*
X74949005Y-81631136D01*
X74845868Y-81594065D01*
X75050134Y-81497389D01*
X75426041Y-81082423D01*
X75586904Y-80694039D01*
X75464915Y-80472000D01*
X74322000Y-80472000D01*
X74322000Y-80492000D01*
X74068000Y-80492000D01*
X74068000Y-80472000D01*
X74048000Y-80472000D01*
X74048000Y-80218000D01*
X74068000Y-80218000D01*
X74068000Y-80198000D01*
X74322000Y-80198000D01*
X74322000Y-80218000D01*
X75464915Y-80218000D01*
X75586904Y-79995961D01*
X75426041Y-79607577D01*
X75050134Y-79192611D01*
X74544041Y-78953086D01*
X74322002Y-79074370D01*
X74322002Y-78910000D01*
X74270868Y-78910000D01*
X74785434Y-78395434D01*
X74966439Y-78124541D01*
X75015910Y-77875835D01*
X75109622Y-77782286D01*
X75165000Y-77648922D01*
X75165000Y-77705000D01*
X75165000Y-77705000D01*
G37*
X75165000Y-77705000D02*
X75228561Y-78024541D01*
X75318039Y-78158454D01*
X75409566Y-78295434D01*
X76779566Y-79665434D01*
X76873000Y-79727865D01*
X76873000Y-81944950D01*
X76645284Y-82493352D01*
X76644716Y-83143795D01*
X76873000Y-83696283D01*
X76873000Y-84484950D01*
X76645284Y-85033352D01*
X76644716Y-85683795D01*
X76873000Y-86236283D01*
X76873000Y-87416096D01*
X76795258Y-87603319D01*
X76794890Y-88025504D01*
X75269843Y-89550551D01*
X75008923Y-89289176D01*
X74894232Y-89241552D01*
X74949005Y-89218864D01*
X75023139Y-88972745D01*
X74195000Y-88144605D01*
X73366861Y-88972745D01*
X73440995Y-89218864D01*
X73499254Y-89239805D01*
X73383200Y-89287757D01*
X72979176Y-89691077D01*
X72760250Y-90218309D01*
X72759752Y-90789187D01*
X72977757Y-91316800D01*
X73304331Y-91643944D01*
X73270057Y-91658106D01*
X72809722Y-92117637D01*
X72734598Y-92298556D01*
X72734687Y-92196216D01*
X72570689Y-91799311D01*
X72490000Y-91718481D01*
X72490000Y-87748223D01*
X72748035Y-87748223D01*
X72775222Y-88318454D01*
X72941136Y-88719005D01*
X73187255Y-88793139D01*
X74015395Y-87965000D01*
X74374605Y-87965000D01*
X75202745Y-88793139D01*
X75448864Y-88719005D01*
X75641965Y-88181777D01*
X75614778Y-87611546D01*
X75448864Y-87210995D01*
X75202745Y-87136861D01*
X74374605Y-87965000D01*
X74015395Y-87965000D01*
X73187255Y-87136861D01*
X72941136Y-87210995D01*
X72748035Y-87748223D01*
X72490000Y-87748223D01*
X72490000Y-86432745D01*
X73366861Y-86432745D01*
X73440995Y-86678864D01*
X73482709Y-86693858D01*
X73440995Y-86711136D01*
X73366861Y-86957255D01*
X74195000Y-87785395D01*
X75023139Y-86957255D01*
X74949005Y-86711136D01*
X74907291Y-86696142D01*
X74949005Y-86678864D01*
X75023139Y-86432745D01*
X74195000Y-85604605D01*
X73366861Y-86432745D01*
X72490000Y-86432745D01*
X72490000Y-85208223D01*
X72748035Y-85208223D01*
X72775222Y-85778454D01*
X72941136Y-86179005D01*
X73187255Y-86253139D01*
X74015395Y-85425000D01*
X74374605Y-85425000D01*
X75202745Y-86253139D01*
X75448864Y-86179005D01*
X75641965Y-85641777D01*
X75614778Y-85071546D01*
X75448864Y-84670995D01*
X75202745Y-84596861D01*
X74374605Y-85425000D01*
X74015395Y-85425000D01*
X73187255Y-84596861D01*
X72941136Y-84670995D01*
X72748035Y-85208223D01*
X72490000Y-85208223D01*
X72490000Y-83892745D01*
X73366861Y-83892745D01*
X73440995Y-84138864D01*
X73482709Y-84153858D01*
X73440995Y-84171136D01*
X73366861Y-84417255D01*
X74195000Y-85245395D01*
X75023139Y-84417255D01*
X74949005Y-84171136D01*
X74907291Y-84156142D01*
X74949005Y-84138864D01*
X75023139Y-83892745D01*
X74195000Y-83064605D01*
X73366861Y-83892745D01*
X72490000Y-83892745D01*
X72490000Y-82668223D01*
X72748035Y-82668223D01*
X72775222Y-83238454D01*
X72941136Y-83639005D01*
X73187255Y-83713139D01*
X74015395Y-82885000D01*
X74374605Y-82885000D01*
X75202745Y-83713139D01*
X75448864Y-83639005D01*
X75641965Y-83101777D01*
X75614778Y-82531546D01*
X75448864Y-82130995D01*
X75202745Y-82056861D01*
X74374605Y-82885000D01*
X74015395Y-82885000D01*
X73187255Y-82056861D01*
X72941136Y-82130995D01*
X72748035Y-82668223D01*
X72490000Y-82668223D01*
X72490000Y-80690868D01*
X72760000Y-80420868D01*
X72760000Y-80472002D01*
X72925084Y-80472002D01*
X72803096Y-80694039D01*
X72963959Y-81082423D01*
X73339866Y-81497389D01*
X73537766Y-81591052D01*
X73440995Y-81631136D01*
X73366861Y-81877255D01*
X74195000Y-82705395D01*
X75023139Y-81877255D01*
X74949005Y-81631136D01*
X74845868Y-81594065D01*
X75050134Y-81497389D01*
X75426041Y-81082423D01*
X75586904Y-80694039D01*
X75464915Y-80472000D01*
X74322000Y-80472000D01*
X74322000Y-80492000D01*
X74068000Y-80492000D01*
X74068000Y-80472000D01*
X74048000Y-80472000D01*
X74048000Y-80218000D01*
X74068000Y-80218000D01*
X74068000Y-80198000D01*
X74322000Y-80198000D01*
X74322000Y-80218000D01*
X75464915Y-80218000D01*
X75586904Y-79995961D01*
X75426041Y-79607577D01*
X75050134Y-79192611D01*
X74544041Y-78953086D01*
X74322002Y-79074370D01*
X74322002Y-78910000D01*
X74270868Y-78910000D01*
X74785434Y-78395434D01*
X74966439Y-78124541D01*
X75015910Y-77875835D01*
X75109622Y-77782286D01*
X75165000Y-77648922D01*
X75165000Y-77705000D01*
G36*
X84399566Y-79665434D02*
X84670460Y-79846440D01*
X84990000Y-79910000D01*
X91283231Y-79910000D01*
X91362714Y-79989622D01*
X91759332Y-80154313D01*
X91885108Y-80154423D01*
X91884716Y-80603795D01*
X92133106Y-81204943D01*
X92477759Y-81550199D01*
X92134722Y-81892637D01*
X91885284Y-82493352D01*
X91884716Y-83143795D01*
X92133106Y-83744943D01*
X92559978Y-84172562D01*
X92547073Y-84207468D01*
X92873000Y-84533395D01*
X92873000Y-84892605D01*
X92367468Y-84387073D01*
X92100613Y-84485736D01*
X91874092Y-85095461D01*
X91898144Y-85745460D01*
X92100613Y-86234264D01*
X92367468Y-86332927D01*
X92873000Y-85827395D01*
X92873000Y-86186605D01*
X92547073Y-86512532D01*
X92560164Y-86547938D01*
X92134722Y-86972637D01*
X91885284Y-87573352D01*
X91884716Y-88223795D01*
X92133106Y-88824943D01*
X92477759Y-89170199D01*
X92134722Y-89512637D01*
X91885284Y-90113352D01*
X91884716Y-90763795D01*
X92133106Y-91364943D01*
X92477759Y-91710199D01*
X92134722Y-92052637D01*
X91885284Y-92653352D01*
X91884716Y-93303795D01*
X92133106Y-93904943D01*
X92592637Y-94365278D01*
X92873000Y-94481695D01*
X92873000Y-101315000D01*
X65127000Y-101315000D01*
X65127000Y-99277532D01*
X65602073Y-99277532D01*
X65700736Y-99544387D01*
X66310461Y-99770908D01*
X66960460Y-99746856D01*
X67449264Y-99544387D01*
X67547927Y-99277532D01*
X73222073Y-99277532D01*
X73320736Y-99544387D01*
X73930461Y-99770908D01*
X74580460Y-99746856D01*
X75069264Y-99544387D01*
X75167927Y-99277532D01*
X74195000Y-98304605D01*
X73222073Y-99277532D01*
X67547927Y-99277532D01*
X66575000Y-98304605D01*
X65602073Y-99277532D01*
X65127000Y-99277532D01*
X65127000Y-98930186D01*
X65155613Y-98999264D01*
X65422468Y-99097927D01*
X66395395Y-98125000D01*
X66754605Y-98125000D01*
X67727532Y-99097927D01*
X67994387Y-98999264D01*
X68220908Y-98389539D01*
X68201331Y-97860461D01*
X72549092Y-97860461D01*
X72573144Y-98510460D01*
X72775613Y-98999264D01*
X73042468Y-99097927D01*
X74015395Y-98125000D01*
X74374605Y-98125000D01*
X75347532Y-99097927D01*
X75614387Y-98999264D01*
X75840908Y-98389539D01*
X75816856Y-97739540D01*
X75614387Y-97250736D01*
X75347532Y-97152073D01*
X74374605Y-98125000D01*
X74015395Y-98125000D01*
X73042468Y-97152073D01*
X72775613Y-97250736D01*
X72549092Y-97860461D01*
X68201331Y-97860461D01*
X68196856Y-97739540D01*
X67994387Y-97250736D01*
X67727532Y-97152073D01*
X66754605Y-98125000D01*
X66395395Y-98125000D01*
X65422468Y-97152073D01*
X65155613Y-97250736D01*
X65127000Y-97327753D01*
X65127000Y-96972468D01*
X65602073Y-96972468D01*
X66575000Y-97945395D01*
X67547927Y-96972468D01*
X73222073Y-96972468D01*
X74195000Y-97945395D01*
X75167927Y-96972468D01*
X75069264Y-96705613D01*
X74459539Y-96479092D01*
X73809540Y-96503144D01*
X73320736Y-96705613D01*
X73222073Y-96972468D01*
X67547927Y-96972468D01*
X67449264Y-96705613D01*
X66839539Y-96479092D01*
X66189540Y-96503144D01*
X65700736Y-96705613D01*
X65602073Y-96972468D01*
X65127000Y-96972468D01*
X65127000Y-96127000D01*
X76000000Y-96127000D01*
X76049410Y-96116994D01*
X76091035Y-96088553D01*
X76118315Y-96046159D01*
X76127000Y-96000000D01*
X76127000Y-93303795D01*
X76644716Y-93303795D01*
X76893106Y-93904943D01*
X77352637Y-94365278D01*
X77953352Y-94614716D01*
X78603795Y-94615284D01*
X79204943Y-94366894D01*
X79665278Y-93907363D01*
X79914260Y-93307745D01*
X81271861Y-93307745D01*
X81345995Y-93553864D01*
X81883223Y-93746965D01*
X82453454Y-93719778D01*
X82854005Y-93553864D01*
X82928139Y-93307745D01*
X82100000Y-92479605D01*
X81271861Y-93307745D01*
X79914260Y-93307745D01*
X79914716Y-93306648D01*
X79915284Y-92656205D01*
X79678532Y-92083223D01*
X80653035Y-92083223D01*
X80680222Y-92653454D01*
X80846136Y-93054005D01*
X81092255Y-93128139D01*
X81920395Y-92300000D01*
X82279605Y-92300000D01*
X83107745Y-93128139D01*
X83353864Y-93054005D01*
X83546965Y-92516777D01*
X83536630Y-92300000D01*
X88256887Y-92300000D01*
X88366120Y-92849151D01*
X88677189Y-93314698D01*
X89142736Y-93625767D01*
X89691887Y-93735000D01*
X89748113Y-93735000D01*
X90297264Y-93625767D01*
X90762811Y-93314698D01*
X91073880Y-92849151D01*
X91183113Y-92300000D01*
X91073880Y-91750849D01*
X90762811Y-91285302D01*
X90297264Y-90974233D01*
X89899769Y-90895166D01*
X89984285Y-90895240D01*
X90493515Y-90684831D01*
X90883461Y-90295564D01*
X91094759Y-89786702D01*
X91095240Y-89235715D01*
X90884831Y-88726485D01*
X90495564Y-88336539D01*
X90279021Y-88246623D01*
X90433923Y-88182460D01*
X90501912Y-87941517D01*
X89710000Y-87149605D01*
X88918088Y-87941517D01*
X88986077Y-88182460D01*
X89152621Y-88241732D01*
X88926485Y-88335169D01*
X88536539Y-88724436D01*
X88325241Y-89233298D01*
X88324760Y-89784285D01*
X88535169Y-90293515D01*
X88924436Y-90683461D01*
X89433298Y-90894759D01*
X89541802Y-90894854D01*
X89142736Y-90974233D01*
X88677189Y-91285302D01*
X88366120Y-91750849D01*
X88256887Y-92300000D01*
X83536630Y-92300000D01*
X83519778Y-91946546D01*
X83353864Y-91545995D01*
X83107745Y-91471861D01*
X82279605Y-92300000D01*
X81920395Y-92300000D01*
X81092255Y-91471861D01*
X80846136Y-91545995D01*
X80653035Y-92083223D01*
X79678532Y-92083223D01*
X79666894Y-92055057D01*
X79240022Y-91627438D01*
X79252927Y-91592532D01*
X78280000Y-90619605D01*
X77307073Y-91592532D01*
X77320164Y-91627938D01*
X76894722Y-92052637D01*
X76645284Y-92653352D01*
X76644716Y-93303795D01*
X76127000Y-93303795D01*
X76127000Y-90175461D01*
X76634092Y-90175461D01*
X76658144Y-90825460D01*
X76860613Y-91314264D01*
X77127468Y-91412927D01*
X78100395Y-90440000D01*
X78459605Y-90440000D01*
X79432532Y-91412927D01*
X79699387Y-91314264D01*
X79925908Y-90704539D01*
X79901856Y-90054540D01*
X79699387Y-89565736D01*
X79432532Y-89467073D01*
X78459605Y-90440000D01*
X78100395Y-90440000D01*
X77127468Y-89467073D01*
X76860613Y-89565736D01*
X76634092Y-90175461D01*
X76127000Y-90175461D01*
X76127000Y-90052606D01*
X77229749Y-88949857D01*
X77377262Y-89097627D01*
X77307073Y-89287468D01*
X78280000Y-90260395D01*
X79252927Y-89287468D01*
X79182599Y-89097252D01*
X79538188Y-88742283D01*
X79764742Y-88196681D01*
X79765257Y-87605911D01*
X79539656Y-87059914D01*
X79216082Y-86735775D01*
X79665278Y-86287363D01*
X79914716Y-85686648D01*
X79915284Y-85036205D01*
X79666894Y-84435057D01*
X79322241Y-84089801D01*
X79665278Y-83747363D01*
X79914716Y-83146648D01*
X79915284Y-82496205D01*
X79778138Y-82164285D01*
X80704760Y-82164285D01*
X80915169Y-82673515D01*
X81304436Y-83063461D01*
X81536870Y-83159976D01*
X81306485Y-83255169D01*
X80916539Y-83644436D01*
X80705241Y-84153298D01*
X80704760Y-84704285D01*
X80915169Y-85213515D01*
X81304436Y-85603461D01*
X81536870Y-85699976D01*
X81306485Y-85795169D01*
X80916539Y-86184436D01*
X80705241Y-86693298D01*
X80704760Y-87244285D01*
X80915169Y-87753515D01*
X81304436Y-88143461D01*
X81536870Y-88239976D01*
X81306485Y-88335169D01*
X80916539Y-88724436D01*
X80705241Y-89233298D01*
X80704760Y-89784285D01*
X80915169Y-90293515D01*
X81304436Y-90683461D01*
X81775020Y-90878864D01*
X81746546Y-90880222D01*
X81345995Y-91046136D01*
X81271861Y-91292255D01*
X82100000Y-92120395D01*
X82928139Y-91292255D01*
X82854005Y-91046136D01*
X82396809Y-90881802D01*
X82873515Y-90684831D01*
X83263461Y-90295564D01*
X83474759Y-89786702D01*
X83475240Y-89235715D01*
X83264831Y-88726485D01*
X82875564Y-88336539D01*
X82643130Y-88240024D01*
X82873515Y-88144831D01*
X83263461Y-87755564D01*
X83474759Y-87246702D01*
X83475179Y-86765171D01*
X88312799Y-86765171D01*
X88340770Y-87315448D01*
X88497540Y-87693923D01*
X88738483Y-87761912D01*
X89530395Y-86970000D01*
X89889605Y-86970000D01*
X90681517Y-87761912D01*
X90922460Y-87693923D01*
X91107201Y-87174829D01*
X91079230Y-86624552D01*
X90922460Y-86246077D01*
X90681517Y-86178088D01*
X89889605Y-86970000D01*
X89530395Y-86970000D01*
X88738483Y-86178088D01*
X88497540Y-86246077D01*
X88312799Y-86765171D01*
X83475179Y-86765171D01*
X83475240Y-86695715D01*
X83264831Y-86186485D01*
X82875564Y-85796539D01*
X82643130Y-85700024D01*
X82873515Y-85604831D01*
X83263461Y-85215564D01*
X83474759Y-84706702D01*
X83474761Y-84704285D01*
X88324760Y-84704285D01*
X88535169Y-85213515D01*
X88924436Y-85603461D01*
X89140979Y-85693377D01*
X88986077Y-85757540D01*
X88918088Y-85998483D01*
X89710000Y-86790395D01*
X90501912Y-85998483D01*
X90433923Y-85757540D01*
X90267379Y-85698268D01*
X90493515Y-85604831D01*
X90883461Y-85215564D01*
X91094759Y-84706702D01*
X91095240Y-84155715D01*
X90884831Y-83646485D01*
X90495564Y-83256539D01*
X90067216Y-83078673D01*
X90408657Y-82937592D01*
X90756371Y-82590485D01*
X90944785Y-82136734D01*
X90945214Y-81645421D01*
X90757592Y-81191343D01*
X90410485Y-80843629D01*
X89956734Y-80655215D01*
X89465421Y-80654786D01*
X89011343Y-80842408D01*
X88663629Y-81189515D01*
X88475215Y-81643266D01*
X88474786Y-82134579D01*
X88662408Y-82588657D01*
X89009515Y-82936371D01*
X89352926Y-83078968D01*
X88926485Y-83255169D01*
X88536539Y-83644436D01*
X88325241Y-84153298D01*
X88324760Y-84704285D01*
X83474761Y-84704285D01*
X83475240Y-84155715D01*
X83264831Y-83646485D01*
X82875564Y-83256539D01*
X82643130Y-83160024D01*
X82873515Y-83064831D01*
X83263461Y-82675564D01*
X83474759Y-82166702D01*
X83475240Y-81615715D01*
X83264831Y-81106485D01*
X82875564Y-80716539D01*
X82366702Y-80505241D01*
X81815715Y-80504760D01*
X81306485Y-80715169D01*
X80916539Y-81104436D01*
X80705241Y-81613298D01*
X80704760Y-82164285D01*
X79778138Y-82164285D01*
X79666894Y-81895057D01*
X79207363Y-81434722D01*
X79119999Y-81398445D01*
X79453461Y-81065564D01*
X79664759Y-80556702D01*
X79665240Y-80005715D01*
X79598371Y-79843880D01*
X79865434Y-79665434D01*
X80255868Y-79275000D01*
X84009132Y-79275000D01*
X84399566Y-79665434D01*
X84399566Y-79665434D01*
G37*
X84399566Y-79665434D02*
X84670460Y-79846440D01*
X84990000Y-79910000D01*
X91283231Y-79910000D01*
X91362714Y-79989622D01*
X91759332Y-80154313D01*
X91885108Y-80154423D01*
X91884716Y-80603795D01*
X92133106Y-81204943D01*
X92477759Y-81550199D01*
X92134722Y-81892637D01*
X91885284Y-82493352D01*
X91884716Y-83143795D01*
X92133106Y-83744943D01*
X92559978Y-84172562D01*
X92547073Y-84207468D01*
X92873000Y-84533395D01*
X92873000Y-84892605D01*
X92367468Y-84387073D01*
X92100613Y-84485736D01*
X91874092Y-85095461D01*
X91898144Y-85745460D01*
X92100613Y-86234264D01*
X92367468Y-86332927D01*
X92873000Y-85827395D01*
X92873000Y-86186605D01*
X92547073Y-86512532D01*
X92560164Y-86547938D01*
X92134722Y-86972637D01*
X91885284Y-87573352D01*
X91884716Y-88223795D01*
X92133106Y-88824943D01*
X92477759Y-89170199D01*
X92134722Y-89512637D01*
X91885284Y-90113352D01*
X91884716Y-90763795D01*
X92133106Y-91364943D01*
X92477759Y-91710199D01*
X92134722Y-92052637D01*
X91885284Y-92653352D01*
X91884716Y-93303795D01*
X92133106Y-93904943D01*
X92592637Y-94365278D01*
X92873000Y-94481695D01*
X92873000Y-101315000D01*
X65127000Y-101315000D01*
X65127000Y-99277532D01*
X65602073Y-99277532D01*
X65700736Y-99544387D01*
X66310461Y-99770908D01*
X66960460Y-99746856D01*
X67449264Y-99544387D01*
X67547927Y-99277532D01*
X73222073Y-99277532D01*
X73320736Y-99544387D01*
X73930461Y-99770908D01*
X74580460Y-99746856D01*
X75069264Y-99544387D01*
X75167927Y-99277532D01*
X74195000Y-98304605D01*
X73222073Y-99277532D01*
X67547927Y-99277532D01*
X66575000Y-98304605D01*
X65602073Y-99277532D01*
X65127000Y-99277532D01*
X65127000Y-98930186D01*
X65155613Y-98999264D01*
X65422468Y-99097927D01*
X66395395Y-98125000D01*
X66754605Y-98125000D01*
X67727532Y-99097927D01*
X67994387Y-98999264D01*
X68220908Y-98389539D01*
X68201331Y-97860461D01*
X72549092Y-97860461D01*
X72573144Y-98510460D01*
X72775613Y-98999264D01*
X73042468Y-99097927D01*
X74015395Y-98125000D01*
X74374605Y-98125000D01*
X75347532Y-99097927D01*
X75614387Y-98999264D01*
X75840908Y-98389539D01*
X75816856Y-97739540D01*
X75614387Y-97250736D01*
X75347532Y-97152073D01*
X74374605Y-98125000D01*
X74015395Y-98125000D01*
X73042468Y-97152073D01*
X72775613Y-97250736D01*
X72549092Y-97860461D01*
X68201331Y-97860461D01*
X68196856Y-97739540D01*
X67994387Y-97250736D01*
X67727532Y-97152073D01*
X66754605Y-98125000D01*
X66395395Y-98125000D01*
X65422468Y-97152073D01*
X65155613Y-97250736D01*
X65127000Y-97327753D01*
X65127000Y-96972468D01*
X65602073Y-96972468D01*
X66575000Y-97945395D01*
X67547927Y-96972468D01*
X73222073Y-96972468D01*
X74195000Y-97945395D01*
X75167927Y-96972468D01*
X75069264Y-96705613D01*
X74459539Y-96479092D01*
X73809540Y-96503144D01*
X73320736Y-96705613D01*
X73222073Y-96972468D01*
X67547927Y-96972468D01*
X67449264Y-96705613D01*
X66839539Y-96479092D01*
X66189540Y-96503144D01*
X65700736Y-96705613D01*
X65602073Y-96972468D01*
X65127000Y-96972468D01*
X65127000Y-96127000D01*
X76000000Y-96127000D01*
X76049410Y-96116994D01*
X76091035Y-96088553D01*
X76118315Y-96046159D01*
X76127000Y-96000000D01*
X76127000Y-93303795D01*
X76644716Y-93303795D01*
X76893106Y-93904943D01*
X77352637Y-94365278D01*
X77953352Y-94614716D01*
X78603795Y-94615284D01*
X79204943Y-94366894D01*
X79665278Y-93907363D01*
X79914260Y-93307745D01*
X81271861Y-93307745D01*
X81345995Y-93553864D01*
X81883223Y-93746965D01*
X82453454Y-93719778D01*
X82854005Y-93553864D01*
X82928139Y-93307745D01*
X82100000Y-92479605D01*
X81271861Y-93307745D01*
X79914260Y-93307745D01*
X79914716Y-93306648D01*
X79915284Y-92656205D01*
X79678532Y-92083223D01*
X80653035Y-92083223D01*
X80680222Y-92653454D01*
X80846136Y-93054005D01*
X81092255Y-93128139D01*
X81920395Y-92300000D01*
X82279605Y-92300000D01*
X83107745Y-93128139D01*
X83353864Y-93054005D01*
X83546965Y-92516777D01*
X83536630Y-92300000D01*
X88256887Y-92300000D01*
X88366120Y-92849151D01*
X88677189Y-93314698D01*
X89142736Y-93625767D01*
X89691887Y-93735000D01*
X89748113Y-93735000D01*
X90297264Y-93625767D01*
X90762811Y-93314698D01*
X91073880Y-92849151D01*
X91183113Y-92300000D01*
X91073880Y-91750849D01*
X90762811Y-91285302D01*
X90297264Y-90974233D01*
X89899769Y-90895166D01*
X89984285Y-90895240D01*
X90493515Y-90684831D01*
X90883461Y-90295564D01*
X91094759Y-89786702D01*
X91095240Y-89235715D01*
X90884831Y-88726485D01*
X90495564Y-88336539D01*
X90279021Y-88246623D01*
X90433923Y-88182460D01*
X90501912Y-87941517D01*
X89710000Y-87149605D01*
X88918088Y-87941517D01*
X88986077Y-88182460D01*
X89152621Y-88241732D01*
X88926485Y-88335169D01*
X88536539Y-88724436D01*
X88325241Y-89233298D01*
X88324760Y-89784285D01*
X88535169Y-90293515D01*
X88924436Y-90683461D01*
X89433298Y-90894759D01*
X89541802Y-90894854D01*
X89142736Y-90974233D01*
X88677189Y-91285302D01*
X88366120Y-91750849D01*
X88256887Y-92300000D01*
X83536630Y-92300000D01*
X83519778Y-91946546D01*
X83353864Y-91545995D01*
X83107745Y-91471861D01*
X82279605Y-92300000D01*
X81920395Y-92300000D01*
X81092255Y-91471861D01*
X80846136Y-91545995D01*
X80653035Y-92083223D01*
X79678532Y-92083223D01*
X79666894Y-92055057D01*
X79240022Y-91627438D01*
X79252927Y-91592532D01*
X78280000Y-90619605D01*
X77307073Y-91592532D01*
X77320164Y-91627938D01*
X76894722Y-92052637D01*
X76645284Y-92653352D01*
X76644716Y-93303795D01*
X76127000Y-93303795D01*
X76127000Y-90175461D01*
X76634092Y-90175461D01*
X76658144Y-90825460D01*
X76860613Y-91314264D01*
X77127468Y-91412927D01*
X78100395Y-90440000D01*
X78459605Y-90440000D01*
X79432532Y-91412927D01*
X79699387Y-91314264D01*
X79925908Y-90704539D01*
X79901856Y-90054540D01*
X79699387Y-89565736D01*
X79432532Y-89467073D01*
X78459605Y-90440000D01*
X78100395Y-90440000D01*
X77127468Y-89467073D01*
X76860613Y-89565736D01*
X76634092Y-90175461D01*
X76127000Y-90175461D01*
X76127000Y-90052606D01*
X77229749Y-88949857D01*
X77377262Y-89097627D01*
X77307073Y-89287468D01*
X78280000Y-90260395D01*
X79252927Y-89287468D01*
X79182599Y-89097252D01*
X79538188Y-88742283D01*
X79764742Y-88196681D01*
X79765257Y-87605911D01*
X79539656Y-87059914D01*
X79216082Y-86735775D01*
X79665278Y-86287363D01*
X79914716Y-85686648D01*
X79915284Y-85036205D01*
X79666894Y-84435057D01*
X79322241Y-84089801D01*
X79665278Y-83747363D01*
X79914716Y-83146648D01*
X79915284Y-82496205D01*
X79778138Y-82164285D01*
X80704760Y-82164285D01*
X80915169Y-82673515D01*
X81304436Y-83063461D01*
X81536870Y-83159976D01*
X81306485Y-83255169D01*
X80916539Y-83644436D01*
X80705241Y-84153298D01*
X80704760Y-84704285D01*
X80915169Y-85213515D01*
X81304436Y-85603461D01*
X81536870Y-85699976D01*
X81306485Y-85795169D01*
X80916539Y-86184436D01*
X80705241Y-86693298D01*
X80704760Y-87244285D01*
X80915169Y-87753515D01*
X81304436Y-88143461D01*
X81536870Y-88239976D01*
X81306485Y-88335169D01*
X80916539Y-88724436D01*
X80705241Y-89233298D01*
X80704760Y-89784285D01*
X80915169Y-90293515D01*
X81304436Y-90683461D01*
X81775020Y-90878864D01*
X81746546Y-90880222D01*
X81345995Y-91046136D01*
X81271861Y-91292255D01*
X82100000Y-92120395D01*
X82928139Y-91292255D01*
X82854005Y-91046136D01*
X82396809Y-90881802D01*
X82873515Y-90684831D01*
X83263461Y-90295564D01*
X83474759Y-89786702D01*
X83475240Y-89235715D01*
X83264831Y-88726485D01*
X82875564Y-88336539D01*
X82643130Y-88240024D01*
X82873515Y-88144831D01*
X83263461Y-87755564D01*
X83474759Y-87246702D01*
X83475179Y-86765171D01*
X88312799Y-86765171D01*
X88340770Y-87315448D01*
X88497540Y-87693923D01*
X88738483Y-87761912D01*
X89530395Y-86970000D01*
X89889605Y-86970000D01*
X90681517Y-87761912D01*
X90922460Y-87693923D01*
X91107201Y-87174829D01*
X91079230Y-86624552D01*
X90922460Y-86246077D01*
X90681517Y-86178088D01*
X89889605Y-86970000D01*
X89530395Y-86970000D01*
X88738483Y-86178088D01*
X88497540Y-86246077D01*
X88312799Y-86765171D01*
X83475179Y-86765171D01*
X83475240Y-86695715D01*
X83264831Y-86186485D01*
X82875564Y-85796539D01*
X82643130Y-85700024D01*
X82873515Y-85604831D01*
X83263461Y-85215564D01*
X83474759Y-84706702D01*
X83474761Y-84704285D01*
X88324760Y-84704285D01*
X88535169Y-85213515D01*
X88924436Y-85603461D01*
X89140979Y-85693377D01*
X88986077Y-85757540D01*
X88918088Y-85998483D01*
X89710000Y-86790395D01*
X90501912Y-85998483D01*
X90433923Y-85757540D01*
X90267379Y-85698268D01*
X90493515Y-85604831D01*
X90883461Y-85215564D01*
X91094759Y-84706702D01*
X91095240Y-84155715D01*
X90884831Y-83646485D01*
X90495564Y-83256539D01*
X90067216Y-83078673D01*
X90408657Y-82937592D01*
X90756371Y-82590485D01*
X90944785Y-82136734D01*
X90945214Y-81645421D01*
X90757592Y-81191343D01*
X90410485Y-80843629D01*
X89956734Y-80655215D01*
X89465421Y-80654786D01*
X89011343Y-80842408D01*
X88663629Y-81189515D01*
X88475215Y-81643266D01*
X88474786Y-82134579D01*
X88662408Y-82588657D01*
X89009515Y-82936371D01*
X89352926Y-83078968D01*
X88926485Y-83255169D01*
X88536539Y-83644436D01*
X88325241Y-84153298D01*
X88324760Y-84704285D01*
X83474761Y-84704285D01*
X83475240Y-84155715D01*
X83264831Y-83646485D01*
X82875564Y-83256539D01*
X82643130Y-83160024D01*
X82873515Y-83064831D01*
X83263461Y-82675564D01*
X83474759Y-82166702D01*
X83475240Y-81615715D01*
X83264831Y-81106485D01*
X82875564Y-80716539D01*
X82366702Y-80505241D01*
X81815715Y-80504760D01*
X81306485Y-80715169D01*
X80916539Y-81104436D01*
X80705241Y-81613298D01*
X80704760Y-82164285D01*
X79778138Y-82164285D01*
X79666894Y-81895057D01*
X79207363Y-81434722D01*
X79119999Y-81398445D01*
X79453461Y-81065564D01*
X79664759Y-80556702D01*
X79665240Y-80005715D01*
X79598371Y-79843880D01*
X79865434Y-79665434D01*
X80255868Y-79275000D01*
X84009132Y-79275000D01*
X84399566Y-79665434D01*
G36*
X138263459Y-47949738D02*
X139334568Y-48665429D01*
X140050262Y-49736540D01*
X140315000Y-51067467D01*
X140315000Y-101315000D01*
X94127000Y-101315000D01*
X94127000Y-98000000D01*
X134715000Y-98000000D01*
X134888935Y-98874432D01*
X135384261Y-99615739D01*
X136125568Y-100111065D01*
X137000000Y-100285000D01*
X137874432Y-100111065D01*
X138615739Y-99615739D01*
X139111065Y-98874432D01*
X139285000Y-98000000D01*
X139111065Y-97125568D01*
X138615739Y-96384261D01*
X137874432Y-95888935D01*
X137000000Y-95715000D01*
X136125568Y-95888935D01*
X135384261Y-96384261D01*
X134888935Y-97125568D01*
X134715000Y-98000000D01*
X94127000Y-98000000D01*
X94127000Y-94498266D01*
X94209477Y-94464187D01*
X106614752Y-94464187D01*
X106832757Y-94991800D01*
X107236077Y-95395824D01*
X107763309Y-95614750D01*
X108334187Y-95615248D01*
X108861800Y-95397243D01*
X109265824Y-94993923D01*
X109484750Y-94466691D01*
X109485000Y-94180000D01*
X114206887Y-94180000D01*
X114316120Y-94729151D01*
X114627189Y-95194698D01*
X115092736Y-95505767D01*
X115641887Y-95615000D01*
X115698113Y-95615000D01*
X116247264Y-95505767D01*
X116712811Y-95194698D01*
X117023880Y-94729151D01*
X117133113Y-94180000D01*
X117023880Y-93630849D01*
X116712811Y-93165302D01*
X116330726Y-92910000D01*
X119235907Y-92910000D01*
X119348946Y-93478285D01*
X119670853Y-93960054D01*
X119712452Y-93987850D01*
X119664683Y-93996838D01*
X119448559Y-94135910D01*
X119303569Y-94348110D01*
X119252560Y-94600000D01*
X119252560Y-96300000D01*
X119296838Y-96535317D01*
X119435910Y-96751441D01*
X119648110Y-96896431D01*
X119900000Y-96947440D01*
X121600000Y-96947440D01*
X121835317Y-96903162D01*
X122022077Y-96782985D01*
X122188110Y-96896431D01*
X122440000Y-96947440D01*
X124140000Y-96947440D01*
X124375317Y-96903162D01*
X124591441Y-96764090D01*
X124736431Y-96551890D01*
X124787440Y-96300000D01*
X124787440Y-95421887D01*
X126935000Y-95421887D01*
X126935000Y-95478113D01*
X127044233Y-96027264D01*
X127355302Y-96492811D01*
X127820849Y-96803880D01*
X128370000Y-96913113D01*
X128919151Y-96803880D01*
X129384698Y-96492811D01*
X129695767Y-96027264D01*
X129805000Y-95478113D01*
X129805000Y-95421887D01*
X129695767Y-94872736D01*
X129384698Y-94407189D01*
X128919151Y-94096120D01*
X128370000Y-93986887D01*
X127820849Y-94096120D01*
X127355302Y-94407189D01*
X127044233Y-94872736D01*
X126935000Y-95421887D01*
X124787440Y-95421887D01*
X124787440Y-94600000D01*
X124743162Y-94364683D01*
X124604090Y-94148559D01*
X124391890Y-94003569D01*
X124324459Y-93989914D01*
X124369147Y-93960054D01*
X124691054Y-93478285D01*
X124804093Y-92910000D01*
X124691054Y-92341715D01*
X124369147Y-91859946D01*
X124026609Y-91631070D01*
X124044005Y-91623864D01*
X124118139Y-91377745D01*
X123290000Y-90549605D01*
X122461861Y-91377745D01*
X122535995Y-91623864D01*
X122554319Y-91630450D01*
X122210853Y-91859946D01*
X122020000Y-92145578D01*
X121829147Y-91859946D01*
X121490094Y-91633399D01*
X121601800Y-91587243D01*
X122005824Y-91183923D01*
X122033423Y-91117456D01*
X122036136Y-91124005D01*
X122282255Y-91198139D01*
X123110395Y-90370000D01*
X123469605Y-90370000D01*
X124297745Y-91198139D01*
X124543864Y-91124005D01*
X124736965Y-90586777D01*
X124709778Y-90016546D01*
X124543864Y-89615995D01*
X124297745Y-89541861D01*
X123469605Y-90370000D01*
X123110395Y-90370000D01*
X122282255Y-89541861D01*
X122036136Y-89615995D01*
X122033804Y-89622483D01*
X122007243Y-89558200D01*
X121811640Y-89362255D01*
X122461861Y-89362255D01*
X123290000Y-90190395D01*
X124118139Y-89362255D01*
X124044005Y-89116136D01*
X123506777Y-88923035D01*
X122936546Y-88950222D01*
X122535995Y-89116136D01*
X122461861Y-89362255D01*
X121811640Y-89362255D01*
X121603923Y-89154176D01*
X121076691Y-88935250D01*
X120505813Y-88934752D01*
X119978200Y-89152757D01*
X119574176Y-89556077D01*
X119355250Y-90083309D01*
X119354752Y-90654187D01*
X119572757Y-91181800D01*
X119976077Y-91585824D01*
X120040852Y-91612721D01*
X119670853Y-91859946D01*
X119348946Y-92341715D01*
X119235907Y-92910000D01*
X116330726Y-92910000D01*
X116247264Y-92854233D01*
X115698113Y-92745000D01*
X115641887Y-92745000D01*
X115092736Y-92854233D01*
X114627189Y-93165302D01*
X114316120Y-93630849D01*
X114206887Y-94180000D01*
X109485000Y-94180000D01*
X109485248Y-93895813D01*
X109267243Y-93368200D01*
X108863923Y-92964176D01*
X108336691Y-92745250D01*
X107765813Y-92744752D01*
X107238200Y-92962757D01*
X106834176Y-93366077D01*
X106615250Y-93893309D01*
X106614752Y-94464187D01*
X94209477Y-94464187D01*
X94444943Y-94366894D01*
X94905278Y-93907363D01*
X95154716Y-93306648D01*
X95155284Y-92656205D01*
X94906894Y-92055057D01*
X94562241Y-91709801D01*
X94905278Y-91367363D01*
X95154716Y-90766648D01*
X95155062Y-90370000D01*
X96426887Y-90370000D01*
X96536120Y-90919151D01*
X96847189Y-91384698D01*
X97312736Y-91695767D01*
X97861887Y-91805000D01*
X97918113Y-91805000D01*
X98467264Y-91695767D01*
X98932811Y-91384698D01*
X99243880Y-90919151D01*
X99353113Y-90370000D01*
X99243880Y-89820849D01*
X98932811Y-89355302D01*
X98467264Y-89044233D01*
X97918113Y-88935000D01*
X97861887Y-88935000D01*
X97312736Y-89044233D01*
X96847189Y-89355302D01*
X96536120Y-89820849D01*
X96426887Y-90370000D01*
X95155062Y-90370000D01*
X95155284Y-90116205D01*
X94906894Y-89515057D01*
X94562241Y-89169801D01*
X94905278Y-88827363D01*
X95154716Y-88226648D01*
X95155284Y-87576205D01*
X94906894Y-86975057D01*
X94562241Y-86629801D01*
X94905278Y-86287363D01*
X94995417Y-86070285D01*
X97353566Y-88428434D01*
X97624459Y-88609439D01*
X97944000Y-88673000D01*
X101824231Y-88673000D01*
X101903714Y-88752622D01*
X102300332Y-88917313D01*
X102729784Y-88917687D01*
X103126689Y-88753689D01*
X103430622Y-88450286D01*
X103595313Y-88053668D01*
X103595687Y-87624216D01*
X103431689Y-87227311D01*
X103128286Y-86923378D01*
X102731668Y-86758687D01*
X102302216Y-86758313D01*
X101905311Y-86922311D01*
X101824481Y-87003000D01*
X98289868Y-87003000D01*
X97584613Y-86297745D01*
X99641861Y-86297745D01*
X99715995Y-86543864D01*
X100253223Y-86736965D01*
X100823454Y-86709778D01*
X101224005Y-86543864D01*
X101298139Y-86297745D01*
X100470000Y-85469605D01*
X99641861Y-86297745D01*
X97584613Y-86297745D01*
X96360091Y-85073223D01*
X99023035Y-85073223D01*
X99050222Y-85643454D01*
X99216136Y-86044005D01*
X99462255Y-86118139D01*
X100290395Y-85290000D01*
X99462255Y-84461861D01*
X99216136Y-84535995D01*
X99023035Y-85073223D01*
X96360091Y-85073223D01*
X96239000Y-84952132D01*
X96239000Y-84282255D01*
X99641861Y-84282255D01*
X100470000Y-85110395D01*
X101298139Y-84282255D01*
X101224005Y-84036136D01*
X100686777Y-83843035D01*
X100116546Y-83870222D01*
X99715995Y-84036136D01*
X99641861Y-84282255D01*
X96239000Y-84282255D01*
X96239000Y-83099039D01*
X96498096Y-83099039D01*
X96658959Y-83487423D01*
X97034866Y-83902389D01*
X97540959Y-84141914D01*
X97763000Y-84020629D01*
X97763000Y-82877000D01*
X98017000Y-82877000D01*
X98017000Y-84020629D01*
X98239041Y-84141914D01*
X98745134Y-83902389D01*
X99121041Y-83487423D01*
X99281904Y-83099039D01*
X99159915Y-82877000D01*
X98017000Y-82877000D01*
X97763000Y-82877000D01*
X96620085Y-82877000D01*
X96498096Y-83099039D01*
X96239000Y-83099039D01*
X96239000Y-80210000D01*
X96426887Y-80210000D01*
X96536120Y-80759151D01*
X96847189Y-81224698D01*
X97251703Y-81494986D01*
X97034866Y-81597611D01*
X96658959Y-82012577D01*
X96498096Y-82400961D01*
X96620085Y-82623000D01*
X97763000Y-82623000D01*
X97763000Y-82603000D01*
X98017000Y-82603000D01*
X98017000Y-82623000D01*
X99159915Y-82623000D01*
X99281904Y-82400961D01*
X99121041Y-82012577D01*
X98745134Y-81597611D01*
X98528297Y-81494986D01*
X98932811Y-81224698D01*
X99243880Y-80759151D01*
X99353113Y-80210000D01*
X99243880Y-79660849D01*
X98932811Y-79195302D01*
X98467264Y-78884233D01*
X97918113Y-78775000D01*
X97861887Y-78775000D01*
X97312736Y-78884233D01*
X96847189Y-79195302D01*
X96536120Y-79660849D01*
X96426887Y-80210000D01*
X96239000Y-80210000D01*
X96239000Y-76916000D01*
X96175439Y-76596459D01*
X96127169Y-76524218D01*
X96145459Y-76536439D01*
X96465000Y-76600000D01*
X97198231Y-76600000D01*
X97277714Y-76679622D01*
X97674332Y-76844313D01*
X98103784Y-76844687D01*
X98500689Y-76680689D01*
X98804622Y-76377286D01*
X98904088Y-76137745D01*
X99641861Y-76137745D01*
X99715995Y-76383864D01*
X100253223Y-76576965D01*
X100823454Y-76549778D01*
X101224005Y-76383864D01*
X101298139Y-76137745D01*
X100470000Y-75309605D01*
X99641861Y-76137745D01*
X98904088Y-76137745D01*
X98969313Y-75980668D01*
X98969687Y-75551216D01*
X98857110Y-75278758D01*
X99032119Y-75103749D01*
X99050222Y-75483454D01*
X99216136Y-75884005D01*
X99462255Y-75958139D01*
X100290395Y-75130000D01*
X100649605Y-75130000D01*
X101477745Y-75958139D01*
X101723864Y-75884005D01*
X101726196Y-75877517D01*
X101752757Y-75941800D01*
X102156077Y-76345824D01*
X102683309Y-76564750D01*
X103254187Y-76565248D01*
X103781800Y-76347243D01*
X104040000Y-76089493D01*
X104040000Y-76689132D01*
X102379566Y-78349566D01*
X102198561Y-78620459D01*
X102135000Y-78940000D01*
X102135000Y-82750000D01*
X102198561Y-83069541D01*
X102336005Y-83275240D01*
X102379566Y-83340434D01*
X102894066Y-83854934D01*
X102685813Y-83854752D01*
X102158200Y-84072757D01*
X101754176Y-84476077D01*
X101726577Y-84542544D01*
X101723864Y-84535995D01*
X101477745Y-84461861D01*
X100649605Y-85290000D01*
X101477745Y-86118139D01*
X101723864Y-86044005D01*
X101726196Y-86037517D01*
X101752757Y-86101800D01*
X102156077Y-86505824D01*
X102683309Y-86724750D01*
X103254187Y-86725248D01*
X103781800Y-86507243D01*
X104185824Y-86103923D01*
X104404750Y-85576691D01*
X104404934Y-85365802D01*
X104430411Y-85391279D01*
X104430313Y-85503784D01*
X104594311Y-85900689D01*
X104897714Y-86204622D01*
X105294332Y-86369313D01*
X105723784Y-86369687D01*
X105945000Y-86278282D01*
X105945000Y-88408231D01*
X105865378Y-88487714D01*
X105700687Y-88884332D01*
X105700643Y-88935166D01*
X105225813Y-88934752D01*
X104698200Y-89152757D01*
X104294176Y-89556077D01*
X104075250Y-90083309D01*
X104074752Y-90654187D01*
X104292757Y-91181800D01*
X104696077Y-91585824D01*
X105223309Y-91804750D01*
X105794187Y-91805248D01*
X106321800Y-91587243D01*
X106725824Y-91183923D01*
X106806979Y-90988481D01*
X106875169Y-91153515D01*
X107264436Y-91543461D01*
X107773298Y-91754759D01*
X108324285Y-91755240D01*
X108833515Y-91544831D01*
X109223461Y-91155564D01*
X109434759Y-90646702D01*
X109435240Y-90095715D01*
X109224831Y-89586485D01*
X108835564Y-89196539D01*
X108603130Y-89100024D01*
X108833515Y-89004831D01*
X109223461Y-88615564D01*
X109434759Y-88106702D01*
X109435240Y-87555715D01*
X109224831Y-87046485D01*
X108835564Y-86656539D01*
X108603130Y-86560024D01*
X108833515Y-86464831D01*
X109223461Y-86075564D01*
X109434759Y-85566702D01*
X109435240Y-85015715D01*
X109224831Y-84506485D01*
X108835564Y-84116539D01*
X108603130Y-84020024D01*
X108833515Y-83924831D01*
X109223461Y-83535564D01*
X109434759Y-83026702D01*
X109435240Y-82475715D01*
X109224831Y-81966485D01*
X108835564Y-81576539D01*
X108603130Y-81480024D01*
X108833515Y-81384831D01*
X109223461Y-80995564D01*
X109434759Y-80486702D01*
X109434761Y-80484285D01*
X114284760Y-80484285D01*
X114495169Y-80993515D01*
X114884436Y-81383461D01*
X115116870Y-81479976D01*
X114886485Y-81575169D01*
X114496539Y-81964436D01*
X114285241Y-82473298D01*
X114284760Y-83024285D01*
X114495169Y-83533515D01*
X114884436Y-83923461D01*
X115116870Y-84019976D01*
X114886485Y-84115169D01*
X114496539Y-84504436D01*
X114285241Y-85013298D01*
X114284760Y-85564285D01*
X114495169Y-86073515D01*
X114884436Y-86463461D01*
X115116870Y-86559976D01*
X114886485Y-86655169D01*
X114496539Y-87044436D01*
X114285241Y-87553298D01*
X114284760Y-88104285D01*
X114495169Y-88613515D01*
X114884436Y-89003461D01*
X115116870Y-89099976D01*
X114886485Y-89195169D01*
X114496539Y-89584436D01*
X114285241Y-90093298D01*
X114284760Y-90644285D01*
X114495169Y-91153515D01*
X114884436Y-91543461D01*
X115393298Y-91754759D01*
X115944285Y-91755240D01*
X116453515Y-91544831D01*
X116843461Y-91155564D01*
X117054759Y-90646702D01*
X117055240Y-90095715D01*
X116844831Y-89586485D01*
X116455564Y-89196539D01*
X116223130Y-89100024D01*
X116453515Y-89004831D01*
X116843461Y-88615564D01*
X116912860Y-88448433D01*
X116992757Y-88641800D01*
X117396077Y-89045824D01*
X117923309Y-89264750D01*
X118494187Y-89265248D01*
X119021800Y-89047243D01*
X119425824Y-88643923D01*
X119644750Y-88116691D01*
X119645000Y-87830000D01*
X124366887Y-87830000D01*
X124476120Y-88379151D01*
X124787189Y-88844698D01*
X125252736Y-89155767D01*
X125801887Y-89265000D01*
X125858113Y-89265000D01*
X126407264Y-89155767D01*
X126872811Y-88844698D01*
X126877456Y-88837745D01*
X127541861Y-88837745D01*
X127615995Y-89083864D01*
X128153223Y-89276965D01*
X128723454Y-89249778D01*
X129124005Y-89083864D01*
X129198139Y-88837745D01*
X128370000Y-88009605D01*
X127541861Y-88837745D01*
X126877456Y-88837745D01*
X127089679Y-88520132D01*
X127116136Y-88584005D01*
X127362255Y-88658139D01*
X128190395Y-87830000D01*
X128549605Y-87830000D01*
X129377745Y-88658139D01*
X129623864Y-88584005D01*
X129816965Y-88046777D01*
X129789778Y-87476546D01*
X129623864Y-87075995D01*
X129377745Y-87001861D01*
X128549605Y-87830000D01*
X128190395Y-87830000D01*
X127362255Y-87001861D01*
X127116136Y-87075995D01*
X127091954Y-87143272D01*
X126877457Y-86822255D01*
X127541861Y-86822255D01*
X128370000Y-87650395D01*
X129198139Y-86822255D01*
X129124005Y-86576136D01*
X128586777Y-86383035D01*
X128016546Y-86410222D01*
X127615995Y-86576136D01*
X127541861Y-86822255D01*
X126877457Y-86822255D01*
X126872811Y-86815302D01*
X126407264Y-86504233D01*
X125858113Y-86395000D01*
X125801887Y-86395000D01*
X125252736Y-86504233D01*
X124787189Y-86815302D01*
X124476120Y-87280849D01*
X124366887Y-87830000D01*
X119645000Y-87830000D01*
X119645248Y-87545813D01*
X119427243Y-87018200D01*
X119023923Y-86614176D01*
X118496691Y-86395250D01*
X117925813Y-86394752D01*
X117398200Y-86612757D01*
X116994176Y-87016077D01*
X116913021Y-87211519D01*
X116844831Y-87046485D01*
X116455564Y-86656539D01*
X116223130Y-86560024D01*
X116453515Y-86464831D01*
X116843461Y-86075564D01*
X117054759Y-85566702D01*
X117055240Y-85015715D01*
X116844831Y-84506485D01*
X116455564Y-84116539D01*
X116223130Y-84020024D01*
X116453515Y-83924831D01*
X116843461Y-83535564D01*
X117054759Y-83026702D01*
X117055240Y-82475715D01*
X116844831Y-81966485D01*
X116455564Y-81576539D01*
X116223130Y-81480024D01*
X116453515Y-81384831D01*
X116843461Y-80995564D01*
X117051650Y-80494187D01*
X120584752Y-80494187D01*
X120802757Y-81021800D01*
X121206077Y-81425824D01*
X121287931Y-81459813D01*
X121208200Y-81492757D01*
X120804176Y-81896077D01*
X120585250Y-82423309D01*
X120584752Y-82994187D01*
X120802757Y-83521800D01*
X121206077Y-83925824D01*
X121733309Y-84144750D01*
X122304187Y-84145248D01*
X122831800Y-83927243D01*
X123235824Y-83523923D01*
X123289862Y-83393785D01*
X123342757Y-83521800D01*
X123746077Y-83925824D01*
X124273309Y-84144750D01*
X124844187Y-84145248D01*
X125371800Y-83927243D01*
X125775824Y-83523923D01*
X125994750Y-82996691D01*
X125995248Y-82425813D01*
X125777243Y-81898200D01*
X125373923Y-81494176D01*
X125292069Y-81460187D01*
X125371800Y-81427243D01*
X125775824Y-81023923D01*
X125994750Y-80496691D01*
X125995248Y-79925813D01*
X125777243Y-79398200D01*
X125373923Y-78994176D01*
X124846691Y-78775250D01*
X124275813Y-78774752D01*
X123748200Y-78992757D01*
X123344176Y-79396077D01*
X123290138Y-79526215D01*
X123237243Y-79398200D01*
X122833923Y-78994176D01*
X122306691Y-78775250D01*
X121735813Y-78774752D01*
X121208200Y-78992757D01*
X120804176Y-79396077D01*
X120585250Y-79923309D01*
X120584752Y-80494187D01*
X117051650Y-80494187D01*
X117054759Y-80486702D01*
X117055240Y-79935715D01*
X116844831Y-79426485D01*
X116455564Y-79036539D01*
X116239021Y-78946623D01*
X116393923Y-78882460D01*
X116461912Y-78641517D01*
X115670000Y-77849605D01*
X114878088Y-78641517D01*
X114946077Y-78882460D01*
X115112621Y-78941732D01*
X114886485Y-79035169D01*
X114496539Y-79424436D01*
X114285241Y-79933298D01*
X114284760Y-80484285D01*
X109434761Y-80484285D01*
X109435240Y-79935715D01*
X109224831Y-79426485D01*
X108835564Y-79036539D01*
X108619021Y-78946623D01*
X108773923Y-78882460D01*
X108841912Y-78641517D01*
X108050000Y-77849605D01*
X108035858Y-77863748D01*
X107856253Y-77684143D01*
X107870395Y-77670000D01*
X108229605Y-77670000D01*
X109021517Y-78461912D01*
X109262460Y-78393923D01*
X109447201Y-77874829D01*
X109426378Y-77465171D01*
X114272799Y-77465171D01*
X114300770Y-78015448D01*
X114457540Y-78393923D01*
X114698483Y-78461912D01*
X115490395Y-77670000D01*
X115849605Y-77670000D01*
X116641517Y-78461912D01*
X116882460Y-78393923D01*
X117067201Y-77874829D01*
X117039230Y-77324552D01*
X116882460Y-76946077D01*
X116641517Y-76878088D01*
X115849605Y-77670000D01*
X115490395Y-77670000D01*
X114698483Y-76878088D01*
X114457540Y-76946077D01*
X114272799Y-77465171D01*
X109426378Y-77465171D01*
X109419230Y-77324552D01*
X109262460Y-76946077D01*
X109021517Y-76878088D01*
X108229605Y-77670000D01*
X107870395Y-77670000D01*
X107856253Y-77655858D01*
X108035858Y-77476253D01*
X108050000Y-77490395D01*
X108841912Y-76698483D01*
X108773923Y-76457540D01*
X108624489Y-76404358D01*
X108773923Y-76342460D01*
X108841912Y-76101517D01*
X114878088Y-76101517D01*
X114946077Y-76342460D01*
X115095511Y-76395642D01*
X114946077Y-76457540D01*
X114878088Y-76698483D01*
X115670000Y-77490395D01*
X116461912Y-76698483D01*
X116393923Y-76457540D01*
X116244489Y-76404358D01*
X116255010Y-76400000D01*
X117914928Y-76400000D01*
X118031773Y-76987419D01*
X118364519Y-77485409D01*
X118862509Y-77818155D01*
X119449928Y-77935000D01*
X119510072Y-77935000D01*
X120097491Y-77818155D01*
X120595481Y-77485409D01*
X120928227Y-76987419D01*
X121045072Y-76400000D01*
X120928227Y-75812581D01*
X120657521Y-75407440D01*
X121650000Y-75407440D01*
X121885317Y-75363162D01*
X122101441Y-75224090D01*
X122246431Y-75011890D01*
X122297440Y-74760000D01*
X122297440Y-72960000D01*
X122253162Y-72724683D01*
X122114090Y-72508559D01*
X121901890Y-72363569D01*
X121650000Y-72312560D01*
X119850000Y-72312560D01*
X119614683Y-72356838D01*
X119398559Y-72495910D01*
X119253569Y-72708110D01*
X119202560Y-72960000D01*
X119202560Y-74760000D01*
X119230529Y-74908641D01*
X118862509Y-74981845D01*
X118364519Y-75314591D01*
X118031773Y-75812581D01*
X117914928Y-76400000D01*
X116255010Y-76400000D01*
X116393923Y-76342460D01*
X116461912Y-76101517D01*
X115670000Y-75309605D01*
X114878088Y-76101517D01*
X108841912Y-76101517D01*
X108050000Y-75309605D01*
X108035858Y-75323748D01*
X107856253Y-75144143D01*
X107870395Y-75130000D01*
X108229605Y-75130000D01*
X109021517Y-75921912D01*
X109262460Y-75853923D01*
X109447201Y-75334829D01*
X109426378Y-74925171D01*
X114272799Y-74925171D01*
X114300770Y-75475448D01*
X114457540Y-75853923D01*
X114698483Y-75921912D01*
X115490395Y-75130000D01*
X115849605Y-75130000D01*
X116641517Y-75921912D01*
X116882460Y-75853923D01*
X117067201Y-75334829D01*
X117039230Y-74784552D01*
X116882460Y-74406077D01*
X116641517Y-74338088D01*
X115849605Y-75130000D01*
X115490395Y-75130000D01*
X114698483Y-74338088D01*
X114457540Y-74406077D01*
X114272799Y-74925171D01*
X109426378Y-74925171D01*
X109419230Y-74784552D01*
X109262460Y-74406077D01*
X109021517Y-74338088D01*
X108229605Y-75130000D01*
X107870395Y-75130000D01*
X107856253Y-75115858D01*
X108035858Y-74936253D01*
X108050000Y-74950395D01*
X108841912Y-74158483D01*
X108773923Y-73917540D01*
X108607379Y-73858268D01*
X108833515Y-73764831D01*
X109223461Y-73375564D01*
X109434759Y-72866702D01*
X109435240Y-72315715D01*
X109224831Y-71806485D01*
X108835564Y-71416539D01*
X108603130Y-71320024D01*
X108833515Y-71224831D01*
X109223461Y-70835564D01*
X109434759Y-70326702D01*
X109435240Y-69775715D01*
X109224831Y-69266485D01*
X108835564Y-68876539D01*
X108603130Y-68780024D01*
X108833515Y-68684831D01*
X109223461Y-68295564D01*
X109434759Y-67786702D01*
X109435240Y-67235715D01*
X109224831Y-66726485D01*
X108835564Y-66336539D01*
X108603130Y-66240024D01*
X108833515Y-66144831D01*
X109223461Y-65755564D01*
X109434759Y-65246702D01*
X109435240Y-64695715D01*
X109368834Y-64535000D01*
X114350972Y-64535000D01*
X114285241Y-64693298D01*
X114284760Y-65244285D01*
X114495169Y-65753515D01*
X114884436Y-66143461D01*
X115116870Y-66239976D01*
X114886485Y-66335169D01*
X114496539Y-66724436D01*
X114285241Y-67233298D01*
X114284760Y-67784285D01*
X114495169Y-68293515D01*
X114884436Y-68683461D01*
X115116870Y-68779976D01*
X114886485Y-68875169D01*
X114496539Y-69264436D01*
X114285241Y-69773298D01*
X114284760Y-70324285D01*
X114495169Y-70833515D01*
X114884436Y-71223461D01*
X115116870Y-71319976D01*
X114886485Y-71415169D01*
X114496539Y-71804436D01*
X114285241Y-72313298D01*
X114284760Y-72864285D01*
X114495169Y-73373515D01*
X114884436Y-73763461D01*
X115100979Y-73853377D01*
X114946077Y-73917540D01*
X114878088Y-74158483D01*
X115670000Y-74950395D01*
X116461912Y-74158483D01*
X116393923Y-73917540D01*
X116227379Y-73858268D01*
X116453515Y-73764831D01*
X116843461Y-73375564D01*
X117054759Y-72866702D01*
X117055240Y-72315715D01*
X116844831Y-71806485D01*
X116455564Y-71416539D01*
X116223130Y-71320024D01*
X116453515Y-71224831D01*
X116843461Y-70835564D01*
X117054759Y-70326702D01*
X117055240Y-69775715D01*
X116844831Y-69266485D01*
X116455564Y-68876539D01*
X116223130Y-68780024D01*
X116453515Y-68684831D01*
X116843461Y-68295564D01*
X116932909Y-68080149D01*
X117032757Y-68321800D01*
X117436077Y-68725824D01*
X117963309Y-68944750D01*
X118534187Y-68945248D01*
X119061800Y-68727243D01*
X119465824Y-68323923D01*
X119499813Y-68242069D01*
X119532757Y-68321800D01*
X119936077Y-68725824D01*
X120463309Y-68944750D01*
X121034187Y-68945248D01*
X121561800Y-68727243D01*
X121965824Y-68323923D01*
X122184750Y-67796691D01*
X122185248Y-67225813D01*
X121967243Y-66698200D01*
X121563923Y-66294176D01*
X121036691Y-66075250D01*
X120465813Y-66074752D01*
X119938200Y-66292757D01*
X119534176Y-66696077D01*
X119500187Y-66777931D01*
X119467243Y-66698200D01*
X119063923Y-66294176D01*
X118894766Y-66223936D01*
X119252811Y-65984698D01*
X119563880Y-65519151D01*
X119673113Y-64970000D01*
X119586586Y-64535000D01*
X120404132Y-64535000D01*
X122455000Y-66585868D01*
X122455000Y-69415000D01*
X122518561Y-69734541D01*
X122608765Y-69869541D01*
X122699566Y-70005434D01*
X125239566Y-72545434D01*
X125510459Y-72726439D01*
X125830000Y-72790000D01*
X127244223Y-72790000D01*
X126921773Y-73272581D01*
X126804928Y-73860000D01*
X126921773Y-74447419D01*
X127192479Y-74852560D01*
X126200000Y-74852560D01*
X125964683Y-74896838D01*
X125748559Y-75035910D01*
X125603569Y-75248110D01*
X125552560Y-75500000D01*
X125552560Y-77300000D01*
X125596838Y-77535317D01*
X125735910Y-77751441D01*
X125948110Y-77896431D01*
X126200000Y-77947440D01*
X128000000Y-77947440D01*
X128235317Y-77903162D01*
X128451441Y-77764090D01*
X128596431Y-77551890D01*
X128647440Y-77300000D01*
X128647440Y-75500000D01*
X128619471Y-75351359D01*
X128987491Y-75278155D01*
X129440000Y-74975798D01*
X129440000Y-83039132D01*
X128268721Y-84210411D01*
X128156216Y-84210313D01*
X127759311Y-84374311D01*
X127455378Y-84677714D01*
X127290687Y-85074332D01*
X127290313Y-85503784D01*
X127454311Y-85900689D01*
X127757714Y-86204622D01*
X128154332Y-86369313D01*
X128583784Y-86369687D01*
X128980689Y-86205689D01*
X129284622Y-85902286D01*
X129449313Y-85505668D01*
X129449412Y-85391456D01*
X130865434Y-83975434D01*
X130953900Y-83843035D01*
X131046439Y-83704541D01*
X131078519Y-83543264D01*
X131320971Y-83906120D01*
X131491405Y-84020000D01*
X131320971Y-84133880D01*
X130966548Y-84664313D01*
X130842091Y-85290000D01*
X130966548Y-85915687D01*
X131320971Y-86446120D01*
X131851404Y-86800543D01*
X132477091Y-86925000D01*
X133152909Y-86925000D01*
X133778596Y-86800543D01*
X134309029Y-86446120D01*
X134663452Y-85915687D01*
X134787909Y-85290000D01*
X134663452Y-84664313D01*
X134309029Y-84133880D01*
X134138595Y-84020000D01*
X134309029Y-83906120D01*
X134663452Y-83375687D01*
X134787909Y-82750000D01*
X134663452Y-82124313D01*
X134423907Y-81765808D01*
X134566441Y-81674090D01*
X134711431Y-81461890D01*
X134762440Y-81210000D01*
X134762440Y-79210000D01*
X134718162Y-78974683D01*
X134579090Y-78758559D01*
X134412380Y-78644651D01*
X134674144Y-78178355D01*
X134705124Y-78050434D01*
X134585777Y-77797000D01*
X132942000Y-77797000D01*
X132942000Y-77817000D01*
X132688000Y-77817000D01*
X132688000Y-77797000D01*
X132668000Y-77797000D01*
X132668000Y-77543000D01*
X132688000Y-77543000D01*
X132688000Y-77523000D01*
X132942000Y-77523000D01*
X132942000Y-77543000D01*
X134585777Y-77543000D01*
X134705124Y-77289566D01*
X134674144Y-77161645D01*
X134360922Y-76603683D01*
X134118812Y-76413219D01*
X134309029Y-76286120D01*
X134663452Y-75755687D01*
X134787909Y-75130000D01*
X134663452Y-74504313D01*
X134309029Y-73973880D01*
X134138595Y-73860000D01*
X134309029Y-73746120D01*
X134663452Y-73215687D01*
X134787909Y-72590000D01*
X134663452Y-71964313D01*
X134309029Y-71433880D01*
X134138595Y-71320000D01*
X134309029Y-71206120D01*
X134663452Y-70675687D01*
X134787909Y-70050000D01*
X134663452Y-69424313D01*
X134423907Y-69065808D01*
X134566441Y-68974090D01*
X134711431Y-68761890D01*
X134762440Y-68510000D01*
X134762440Y-66510000D01*
X134718162Y-66274683D01*
X134579090Y-66058559D01*
X134366890Y-65913569D01*
X134115000Y-65862560D01*
X133448858Y-65862560D01*
X133729622Y-65582286D01*
X133894313Y-65185668D01*
X133894687Y-64756216D01*
X133730689Y-64359311D01*
X133427286Y-64055378D01*
X133030668Y-63890687D01*
X132601216Y-63890313D01*
X132204311Y-64054311D01*
X132123481Y-64135000D01*
X131545000Y-64135000D01*
X131225459Y-64198561D01*
X131057648Y-64310689D01*
X130954566Y-64379566D01*
X129294132Y-66040000D01*
X126789300Y-66040000D01*
X127045824Y-65783923D01*
X127264750Y-65256691D01*
X127265248Y-64685813D01*
X127047243Y-64158200D01*
X126643923Y-63754176D01*
X126513785Y-63700138D01*
X126641800Y-63647243D01*
X127045824Y-63243923D01*
X127105820Y-63099436D01*
X127355302Y-63472811D01*
X127820849Y-63783880D01*
X128370000Y-63893113D01*
X128919151Y-63783880D01*
X129384698Y-63472811D01*
X129695767Y-63007264D01*
X129805000Y-62458113D01*
X129805000Y-62401887D01*
X129695767Y-61852736D01*
X129384698Y-61387189D01*
X128919151Y-61076120D01*
X128370000Y-60966887D01*
X127820849Y-61076120D01*
X127355302Y-61387189D01*
X127105973Y-61760336D01*
X127047243Y-61618200D01*
X126643923Y-61214176D01*
X126116691Y-60995250D01*
X125545813Y-60994752D01*
X125018200Y-61212757D01*
X124614176Y-61616077D01*
X124395250Y-62143309D01*
X124394752Y-62714187D01*
X124612757Y-63241800D01*
X125016077Y-63645824D01*
X125146215Y-63699862D01*
X125018200Y-63752757D01*
X124614176Y-64156077D01*
X124519632Y-64383763D01*
X119924589Y-59788721D01*
X119924687Y-59676216D01*
X119760689Y-59279311D01*
X119457286Y-58975378D01*
X119060668Y-58810687D01*
X118631216Y-58810313D01*
X118234311Y-58974311D01*
X117930378Y-59277714D01*
X117765687Y-59674332D01*
X117765313Y-60103784D01*
X117929311Y-60500689D01*
X118232714Y-60804622D01*
X118629332Y-60969313D01*
X118743544Y-60969412D01*
X119061813Y-61287681D01*
X118787264Y-61104233D01*
X118238113Y-60995000D01*
X118181887Y-60995000D01*
X117632736Y-61104233D01*
X117167189Y-61415302D01*
X116908980Y-61801738D01*
X116844831Y-61646485D01*
X116455564Y-61256539D01*
X115946702Y-61045241D01*
X115415919Y-61044778D01*
X115700551Y-60760643D01*
X115934733Y-60196670D01*
X115935265Y-59586009D01*
X115702068Y-59021629D01*
X115270643Y-58589449D01*
X114706670Y-58355267D01*
X114470193Y-58355061D01*
X113932566Y-57817434D01*
X113913269Y-57804540D01*
X113564346Y-57571397D01*
X113130000Y-57485000D01*
X110021141Y-57485000D01*
X109990643Y-57454449D01*
X109426670Y-57220267D01*
X108816009Y-57219735D01*
X108251629Y-57452932D01*
X107819449Y-57884357D01*
X107585267Y-58448330D01*
X107584735Y-59058991D01*
X107817932Y-59623371D01*
X108249357Y-60055551D01*
X108813330Y-60289733D01*
X109423991Y-60290265D01*
X109988371Y-60057068D01*
X110290968Y-59755000D01*
X112659868Y-59755000D01*
X112864939Y-59960071D01*
X112864735Y-60193991D01*
X113097932Y-60758371D01*
X113529357Y-61190551D01*
X114093330Y-61424733D01*
X114703991Y-61425265D01*
X114724639Y-61416734D01*
X114496539Y-61644436D01*
X114285241Y-62153298D01*
X114284760Y-62704285D01*
X114351166Y-62865000D01*
X109369028Y-62865000D01*
X109434759Y-62706702D01*
X109435240Y-62155715D01*
X109224831Y-61646485D01*
X108835564Y-61256539D01*
X108326702Y-61045241D01*
X107775715Y-61044760D01*
X107266485Y-61255169D01*
X106876539Y-61644436D01*
X106811144Y-61801924D01*
X106552811Y-61415302D01*
X106087264Y-61104233D01*
X105538113Y-60995000D01*
X105481887Y-60995000D01*
X105032657Y-61084357D01*
X105119313Y-60875668D01*
X105119687Y-60446216D01*
X104955689Y-60049311D01*
X104652286Y-59745378D01*
X104255668Y-59580687D01*
X103826216Y-59580313D01*
X103429311Y-59744311D01*
X103125378Y-60047714D01*
X102960687Y-60444332D01*
X102960313Y-60873784D01*
X103124311Y-61270689D01*
X103205000Y-61351519D01*
X103205000Y-73360000D01*
X103268561Y-73679541D01*
X103287646Y-73708104D01*
X103256691Y-73695250D01*
X102685813Y-73694752D01*
X102158200Y-73912757D01*
X101754176Y-74316077D01*
X101726577Y-74382544D01*
X101723864Y-74375995D01*
X101477745Y-74301861D01*
X100649605Y-75130000D01*
X100290395Y-75130000D01*
X100276252Y-75115858D01*
X100455858Y-74936252D01*
X100470000Y-74950395D01*
X101298139Y-74122255D01*
X101224005Y-73876136D01*
X100686777Y-73683035D01*
X100353487Y-73698925D01*
X100366439Y-73679541D01*
X100430000Y-73360000D01*
X100430000Y-61351769D01*
X100509622Y-61272286D01*
X100674313Y-60875668D01*
X100674687Y-60446216D01*
X100510689Y-60049311D01*
X100207286Y-59745378D01*
X99810668Y-59580687D01*
X99381216Y-59580313D01*
X98984311Y-59744311D01*
X98680378Y-60047714D01*
X98515687Y-60444332D01*
X98515313Y-60873784D01*
X98646027Y-61190135D01*
X98176691Y-60995250D01*
X97605813Y-60994752D01*
X97078200Y-61212757D01*
X96674176Y-61616077D01*
X96455250Y-62143309D01*
X96454752Y-62714187D01*
X96672757Y-63241800D01*
X97076077Y-63645824D01*
X97190768Y-63693448D01*
X97135995Y-63716136D01*
X97061861Y-63962255D01*
X97890000Y-64790395D01*
X97904142Y-64776252D01*
X98083748Y-64955858D01*
X98069605Y-64970000D01*
X98083748Y-64984142D01*
X97904142Y-65163748D01*
X97890000Y-65149605D01*
X97061861Y-65977745D01*
X97135995Y-66223864D01*
X97177709Y-66238858D01*
X97135995Y-66256136D01*
X97061861Y-66502255D01*
X97890000Y-67330395D01*
X97904142Y-67316252D01*
X98083748Y-67495858D01*
X98069605Y-67510000D01*
X98083748Y-67524142D01*
X97904142Y-67703748D01*
X97890000Y-67689605D01*
X97061861Y-68517745D01*
X97135995Y-68763864D01*
X97177709Y-68778858D01*
X97135995Y-68796136D01*
X97061861Y-69042255D01*
X97890000Y-69870395D01*
X97904142Y-69856252D01*
X98083748Y-70035858D01*
X98069605Y-70050000D01*
X98083748Y-70064142D01*
X97904142Y-70243748D01*
X97890000Y-70229605D01*
X97061861Y-71057745D01*
X97135995Y-71303864D01*
X97239132Y-71340935D01*
X97034866Y-71437611D01*
X96658959Y-71852577D01*
X96498096Y-72240961D01*
X96620085Y-72463000D01*
X97763000Y-72463000D01*
X97763000Y-72443000D01*
X98017000Y-72443000D01*
X98017000Y-72463000D01*
X98037000Y-72463000D01*
X98037000Y-72717000D01*
X98017000Y-72717000D01*
X98017000Y-72737000D01*
X97763000Y-72737000D01*
X97763000Y-72717000D01*
X96620085Y-72717000D01*
X96498096Y-72939039D01*
X96658959Y-73327423D01*
X97034866Y-73742389D01*
X97540959Y-73981914D01*
X97762998Y-73860630D01*
X97762998Y-74011134D01*
X97299566Y-74474566D01*
X97118561Y-74745459D01*
X97081853Y-74930000D01*
X96810868Y-74930000D01*
X95190434Y-73309566D01*
X95049934Y-73215687D01*
X94919541Y-73128561D01*
X94832298Y-73111207D01*
X94904759Y-72936702D01*
X94905240Y-72385715D01*
X94694831Y-71876485D01*
X94360652Y-71541723D01*
X94444943Y-71506894D01*
X94905278Y-71047363D01*
X95154716Y-70446648D01*
X95155251Y-69833223D01*
X96443035Y-69833223D01*
X96470222Y-70403454D01*
X96636136Y-70804005D01*
X96882255Y-70878139D01*
X97710395Y-70050000D01*
X96882255Y-69221861D01*
X96636136Y-69295995D01*
X96443035Y-69833223D01*
X95155251Y-69833223D01*
X95155284Y-69796205D01*
X94906894Y-69195057D01*
X94562241Y-68849801D01*
X94905278Y-68507363D01*
X95154716Y-67906648D01*
X95155251Y-67293223D01*
X96443035Y-67293223D01*
X96470222Y-67863454D01*
X96636136Y-68264005D01*
X96882255Y-68338139D01*
X97710395Y-67510000D01*
X96882255Y-66681861D01*
X96636136Y-66755995D01*
X96443035Y-67293223D01*
X95155251Y-67293223D01*
X95155284Y-67256205D01*
X94906894Y-66655057D01*
X94562241Y-66309801D01*
X94905278Y-65967363D01*
X95154716Y-65366648D01*
X95155251Y-64753223D01*
X96443035Y-64753223D01*
X96470222Y-65323454D01*
X96636136Y-65724005D01*
X96882255Y-65798139D01*
X97710395Y-64970000D01*
X96882255Y-64141861D01*
X96636136Y-64215995D01*
X96443035Y-64753223D01*
X95155251Y-64753223D01*
X95155284Y-64716205D01*
X94906894Y-64115057D01*
X94562241Y-63769801D01*
X94905278Y-63427363D01*
X95154716Y-62826648D01*
X95155284Y-62176205D01*
X94906894Y-61575057D01*
X94562241Y-61229801D01*
X94905278Y-60887363D01*
X95154716Y-60286648D01*
X95155284Y-59636205D01*
X94928665Y-59087745D01*
X98131861Y-59087745D01*
X98205995Y-59333864D01*
X98743223Y-59526965D01*
X99313454Y-59499778D01*
X99714005Y-59333864D01*
X99788139Y-59087745D01*
X103211861Y-59087745D01*
X103285995Y-59333864D01*
X103823223Y-59526965D01*
X104393454Y-59499778D01*
X104794005Y-59333864D01*
X104868139Y-59087745D01*
X104040000Y-58259605D01*
X103211861Y-59087745D01*
X99788139Y-59087745D01*
X98960000Y-58259605D01*
X98131861Y-59087745D01*
X94928665Y-59087745D01*
X94906894Y-59035057D01*
X94562241Y-58689801D01*
X94905278Y-58347363D01*
X95106309Y-57863223D01*
X97513035Y-57863223D01*
X97540222Y-58433454D01*
X97706136Y-58834005D01*
X97952255Y-58908139D01*
X98780395Y-58080000D01*
X99139605Y-58080000D01*
X99967745Y-58908139D01*
X100213864Y-58834005D01*
X100406965Y-58296777D01*
X100386295Y-57863223D01*
X102593035Y-57863223D01*
X102620222Y-58433454D01*
X102786136Y-58834005D01*
X103032255Y-58908139D01*
X103860395Y-58080000D01*
X104219605Y-58080000D01*
X105047745Y-58908139D01*
X105293864Y-58834005D01*
X105486965Y-58296777D01*
X105459778Y-57726546D01*
X105293864Y-57325995D01*
X105047745Y-57251861D01*
X104219605Y-58080000D01*
X103860395Y-58080000D01*
X103032255Y-57251861D01*
X102786136Y-57325995D01*
X102593035Y-57863223D01*
X100386295Y-57863223D01*
X100379778Y-57726546D01*
X100213864Y-57325995D01*
X99967745Y-57251861D01*
X99139605Y-58080000D01*
X98780395Y-58080000D01*
X97952255Y-57251861D01*
X97706136Y-57325995D01*
X97513035Y-57863223D01*
X95106309Y-57863223D01*
X95154716Y-57746648D01*
X95155284Y-57096205D01*
X94906894Y-56495057D01*
X94447363Y-56034722D01*
X93846648Y-55785284D01*
X93585812Y-55785056D01*
X94590868Y-54780000D01*
X97512560Y-54780000D01*
X97512560Y-56380000D01*
X97556838Y-56615317D01*
X97695910Y-56831441D01*
X97908110Y-56976431D01*
X98146201Y-57024646D01*
X98131861Y-57072255D01*
X98960000Y-57900395D01*
X99788139Y-57072255D01*
X99773855Y-57024833D01*
X99995317Y-56983162D01*
X100211441Y-56844090D01*
X100356431Y-56631890D01*
X100407440Y-56380000D01*
X100407440Y-55864187D01*
X102604752Y-55864187D01*
X102822757Y-56391800D01*
X103226077Y-56795824D01*
X103292544Y-56823423D01*
X103285995Y-56826136D01*
X103211861Y-57072255D01*
X104040000Y-57900395D01*
X104868139Y-57072255D01*
X104794005Y-56826136D01*
X104787517Y-56823804D01*
X104851800Y-56797243D01*
X105255824Y-56393923D01*
X105474750Y-55866691D01*
X105475248Y-55295813D01*
X105257243Y-54768200D01*
X104853923Y-54364176D01*
X104326691Y-54145250D01*
X103755813Y-54144752D01*
X103228200Y-54362757D01*
X102824176Y-54766077D01*
X102605250Y-55293309D01*
X102604752Y-55864187D01*
X100407440Y-55864187D01*
X100407440Y-54780000D01*
X100363162Y-54544683D01*
X100224090Y-54328559D01*
X100011890Y-54183569D01*
X99760000Y-54132560D01*
X98160000Y-54132560D01*
X97924683Y-54176838D01*
X97708559Y-54315910D01*
X97563569Y-54528110D01*
X97512560Y-54780000D01*
X94590868Y-54780000D01*
X95495868Y-53875000D01*
X109698231Y-53875000D01*
X109777714Y-53954622D01*
X110174332Y-54119313D01*
X110603784Y-54119687D01*
X111000689Y-53955689D01*
X111304622Y-53652286D01*
X111469313Y-53255668D01*
X111469687Y-52826216D01*
X111305689Y-52429311D01*
X111108795Y-52232073D01*
X111600868Y-51740000D01*
X114457560Y-51740000D01*
X114457560Y-54340000D01*
X114501838Y-54575317D01*
X114640910Y-54791441D01*
X114853110Y-54936431D01*
X115105000Y-54987440D01*
X117105000Y-54987440D01*
X117340317Y-54943162D01*
X117556441Y-54804090D01*
X117661951Y-54649671D01*
X118019313Y-54888452D01*
X118645000Y-55012909D01*
X119270687Y-54888452D01*
X119801120Y-54534029D01*
X119915000Y-54363595D01*
X120028880Y-54534029D01*
X120559313Y-54888452D01*
X121185000Y-55012909D01*
X121810687Y-54888452D01*
X122341120Y-54534029D01*
X122455000Y-54363595D01*
X122568880Y-54534029D01*
X123099313Y-54888452D01*
X123725000Y-55012909D01*
X124350687Y-54888452D01*
X124881120Y-54534029D01*
X125235543Y-54003596D01*
X125360000Y-53377909D01*
X125360000Y-52702091D01*
X125235543Y-52076404D01*
X124881120Y-51545971D01*
X124350687Y-51191548D01*
X123725000Y-51067091D01*
X123099313Y-51191548D01*
X122568880Y-51545971D01*
X122455000Y-51716405D01*
X122341120Y-51545971D01*
X121810687Y-51191548D01*
X121185000Y-51067091D01*
X120559313Y-51191548D01*
X120028880Y-51545971D01*
X119915000Y-51716405D01*
X119801120Y-51545971D01*
X119270687Y-51191548D01*
X118645000Y-51067091D01*
X118019313Y-51191548D01*
X117660808Y-51431093D01*
X117569090Y-51288559D01*
X117356890Y-51143569D01*
X117105000Y-51092560D01*
X115105000Y-51092560D01*
X114869683Y-51136838D01*
X114653559Y-51275910D01*
X114508569Y-51488110D01*
X114457560Y-51740000D01*
X111600868Y-51740000D01*
X111761279Y-51579589D01*
X111873784Y-51579687D01*
X112270689Y-51415689D01*
X112574622Y-51112286D01*
X112739313Y-50715668D01*
X112739687Y-50286216D01*
X112648282Y-50065000D01*
X125919132Y-50065000D01*
X127970000Y-52115868D01*
X127970000Y-52348231D01*
X127890378Y-52427714D01*
X127725687Y-52824332D01*
X127725313Y-53253784D01*
X127889311Y-53650689D01*
X128192714Y-53954622D01*
X128589332Y-54119313D01*
X129018784Y-54119687D01*
X129415689Y-53955689D01*
X129719622Y-53652286D01*
X129884313Y-53255668D01*
X129884687Y-52826216D01*
X129720689Y-52429311D01*
X129640000Y-52348481D01*
X129640000Y-51770000D01*
X129576439Y-51450459D01*
X129395434Y-51179566D01*
X126855434Y-48639566D01*
X126724590Y-48552139D01*
X126584541Y-48458561D01*
X126265000Y-48395000D01*
X91340000Y-48395000D01*
X91020460Y-48458560D01*
X90749566Y-48639566D01*
X83764566Y-55624566D01*
X83598568Y-55873000D01*
X83052606Y-55873000D01*
X80549869Y-53370263D01*
X81885071Y-52035061D01*
X82118991Y-52035265D01*
X82683371Y-51802068D01*
X83115551Y-51370643D01*
X83349733Y-50806670D01*
X83350265Y-50196009D01*
X83117068Y-49631629D01*
X82685643Y-49199449D01*
X82121670Y-48965267D01*
X81511009Y-48964735D01*
X80946629Y-49197932D01*
X80514449Y-49629357D01*
X80280267Y-50193330D01*
X80280061Y-50429807D01*
X78944737Y-51765131D01*
X78127000Y-50947394D01*
X78127000Y-48185000D01*
X78500000Y-48185000D01*
X78762138Y-48132857D01*
X78984368Y-47984368D01*
X79283736Y-47685000D01*
X136932533Y-47685000D01*
X138263459Y-47949738D01*
X138263459Y-47949738D01*
G37*
X138263459Y-47949738D02*
X139334568Y-48665429D01*
X140050262Y-49736540D01*
X140315000Y-51067467D01*
X140315000Y-101315000D01*
X94127000Y-101315000D01*
X94127000Y-98000000D01*
X134715000Y-98000000D01*
X134888935Y-98874432D01*
X135384261Y-99615739D01*
X136125568Y-100111065D01*
X137000000Y-100285000D01*
X137874432Y-100111065D01*
X138615739Y-99615739D01*
X139111065Y-98874432D01*
X139285000Y-98000000D01*
X139111065Y-97125568D01*
X138615739Y-96384261D01*
X137874432Y-95888935D01*
X137000000Y-95715000D01*
X136125568Y-95888935D01*
X135384261Y-96384261D01*
X134888935Y-97125568D01*
X134715000Y-98000000D01*
X94127000Y-98000000D01*
X94127000Y-94498266D01*
X94209477Y-94464187D01*
X106614752Y-94464187D01*
X106832757Y-94991800D01*
X107236077Y-95395824D01*
X107763309Y-95614750D01*
X108334187Y-95615248D01*
X108861800Y-95397243D01*
X109265824Y-94993923D01*
X109484750Y-94466691D01*
X109485000Y-94180000D01*
X114206887Y-94180000D01*
X114316120Y-94729151D01*
X114627189Y-95194698D01*
X115092736Y-95505767D01*
X115641887Y-95615000D01*
X115698113Y-95615000D01*
X116247264Y-95505767D01*
X116712811Y-95194698D01*
X117023880Y-94729151D01*
X117133113Y-94180000D01*
X117023880Y-93630849D01*
X116712811Y-93165302D01*
X116330726Y-92910000D01*
X119235907Y-92910000D01*
X119348946Y-93478285D01*
X119670853Y-93960054D01*
X119712452Y-93987850D01*
X119664683Y-93996838D01*
X119448559Y-94135910D01*
X119303569Y-94348110D01*
X119252560Y-94600000D01*
X119252560Y-96300000D01*
X119296838Y-96535317D01*
X119435910Y-96751441D01*
X119648110Y-96896431D01*
X119900000Y-96947440D01*
X121600000Y-96947440D01*
X121835317Y-96903162D01*
X122022077Y-96782985D01*
X122188110Y-96896431D01*
X122440000Y-96947440D01*
X124140000Y-96947440D01*
X124375317Y-96903162D01*
X124591441Y-96764090D01*
X124736431Y-96551890D01*
X124787440Y-96300000D01*
X124787440Y-95421887D01*
X126935000Y-95421887D01*
X126935000Y-95478113D01*
X127044233Y-96027264D01*
X127355302Y-96492811D01*
X127820849Y-96803880D01*
X128370000Y-96913113D01*
X128919151Y-96803880D01*
X129384698Y-96492811D01*
X129695767Y-96027264D01*
X129805000Y-95478113D01*
X129805000Y-95421887D01*
X129695767Y-94872736D01*
X129384698Y-94407189D01*
X128919151Y-94096120D01*
X128370000Y-93986887D01*
X127820849Y-94096120D01*
X127355302Y-94407189D01*
X127044233Y-94872736D01*
X126935000Y-95421887D01*
X124787440Y-95421887D01*
X124787440Y-94600000D01*
X124743162Y-94364683D01*
X124604090Y-94148559D01*
X124391890Y-94003569D01*
X124324459Y-93989914D01*
X124369147Y-93960054D01*
X124691054Y-93478285D01*
X124804093Y-92910000D01*
X124691054Y-92341715D01*
X124369147Y-91859946D01*
X124026609Y-91631070D01*
X124044005Y-91623864D01*
X124118139Y-91377745D01*
X123290000Y-90549605D01*
X122461861Y-91377745D01*
X122535995Y-91623864D01*
X122554319Y-91630450D01*
X122210853Y-91859946D01*
X122020000Y-92145578D01*
X121829147Y-91859946D01*
X121490094Y-91633399D01*
X121601800Y-91587243D01*
X122005824Y-91183923D01*
X122033423Y-91117456D01*
X122036136Y-91124005D01*
X122282255Y-91198139D01*
X123110395Y-90370000D01*
X123469605Y-90370000D01*
X124297745Y-91198139D01*
X124543864Y-91124005D01*
X124736965Y-90586777D01*
X124709778Y-90016546D01*
X124543864Y-89615995D01*
X124297745Y-89541861D01*
X123469605Y-90370000D01*
X123110395Y-90370000D01*
X122282255Y-89541861D01*
X122036136Y-89615995D01*
X122033804Y-89622483D01*
X122007243Y-89558200D01*
X121811640Y-89362255D01*
X122461861Y-89362255D01*
X123290000Y-90190395D01*
X124118139Y-89362255D01*
X124044005Y-89116136D01*
X123506777Y-88923035D01*
X122936546Y-88950222D01*
X122535995Y-89116136D01*
X122461861Y-89362255D01*
X121811640Y-89362255D01*
X121603923Y-89154176D01*
X121076691Y-88935250D01*
X120505813Y-88934752D01*
X119978200Y-89152757D01*
X119574176Y-89556077D01*
X119355250Y-90083309D01*
X119354752Y-90654187D01*
X119572757Y-91181800D01*
X119976077Y-91585824D01*
X120040852Y-91612721D01*
X119670853Y-91859946D01*
X119348946Y-92341715D01*
X119235907Y-92910000D01*
X116330726Y-92910000D01*
X116247264Y-92854233D01*
X115698113Y-92745000D01*
X115641887Y-92745000D01*
X115092736Y-92854233D01*
X114627189Y-93165302D01*
X114316120Y-93630849D01*
X114206887Y-94180000D01*
X109485000Y-94180000D01*
X109485248Y-93895813D01*
X109267243Y-93368200D01*
X108863923Y-92964176D01*
X108336691Y-92745250D01*
X107765813Y-92744752D01*
X107238200Y-92962757D01*
X106834176Y-93366077D01*
X106615250Y-93893309D01*
X106614752Y-94464187D01*
X94209477Y-94464187D01*
X94444943Y-94366894D01*
X94905278Y-93907363D01*
X95154716Y-93306648D01*
X95155284Y-92656205D01*
X94906894Y-92055057D01*
X94562241Y-91709801D01*
X94905278Y-91367363D01*
X95154716Y-90766648D01*
X95155062Y-90370000D01*
X96426887Y-90370000D01*
X96536120Y-90919151D01*
X96847189Y-91384698D01*
X97312736Y-91695767D01*
X97861887Y-91805000D01*
X97918113Y-91805000D01*
X98467264Y-91695767D01*
X98932811Y-91384698D01*
X99243880Y-90919151D01*
X99353113Y-90370000D01*
X99243880Y-89820849D01*
X98932811Y-89355302D01*
X98467264Y-89044233D01*
X97918113Y-88935000D01*
X97861887Y-88935000D01*
X97312736Y-89044233D01*
X96847189Y-89355302D01*
X96536120Y-89820849D01*
X96426887Y-90370000D01*
X95155062Y-90370000D01*
X95155284Y-90116205D01*
X94906894Y-89515057D01*
X94562241Y-89169801D01*
X94905278Y-88827363D01*
X95154716Y-88226648D01*
X95155284Y-87576205D01*
X94906894Y-86975057D01*
X94562241Y-86629801D01*
X94905278Y-86287363D01*
X94995417Y-86070285D01*
X97353566Y-88428434D01*
X97624459Y-88609439D01*
X97944000Y-88673000D01*
X101824231Y-88673000D01*
X101903714Y-88752622D01*
X102300332Y-88917313D01*
X102729784Y-88917687D01*
X103126689Y-88753689D01*
X103430622Y-88450286D01*
X103595313Y-88053668D01*
X103595687Y-87624216D01*
X103431689Y-87227311D01*
X103128286Y-86923378D01*
X102731668Y-86758687D01*
X102302216Y-86758313D01*
X101905311Y-86922311D01*
X101824481Y-87003000D01*
X98289868Y-87003000D01*
X97584613Y-86297745D01*
X99641861Y-86297745D01*
X99715995Y-86543864D01*
X100253223Y-86736965D01*
X100823454Y-86709778D01*
X101224005Y-86543864D01*
X101298139Y-86297745D01*
X100470000Y-85469605D01*
X99641861Y-86297745D01*
X97584613Y-86297745D01*
X96360091Y-85073223D01*
X99023035Y-85073223D01*
X99050222Y-85643454D01*
X99216136Y-86044005D01*
X99462255Y-86118139D01*
X100290395Y-85290000D01*
X99462255Y-84461861D01*
X99216136Y-84535995D01*
X99023035Y-85073223D01*
X96360091Y-85073223D01*
X96239000Y-84952132D01*
X96239000Y-84282255D01*
X99641861Y-84282255D01*
X100470000Y-85110395D01*
X101298139Y-84282255D01*
X101224005Y-84036136D01*
X100686777Y-83843035D01*
X100116546Y-83870222D01*
X99715995Y-84036136D01*
X99641861Y-84282255D01*
X96239000Y-84282255D01*
X96239000Y-83099039D01*
X96498096Y-83099039D01*
X96658959Y-83487423D01*
X97034866Y-83902389D01*
X97540959Y-84141914D01*
X97763000Y-84020629D01*
X97763000Y-82877000D01*
X98017000Y-82877000D01*
X98017000Y-84020629D01*
X98239041Y-84141914D01*
X98745134Y-83902389D01*
X99121041Y-83487423D01*
X99281904Y-83099039D01*
X99159915Y-82877000D01*
X98017000Y-82877000D01*
X97763000Y-82877000D01*
X96620085Y-82877000D01*
X96498096Y-83099039D01*
X96239000Y-83099039D01*
X96239000Y-80210000D01*
X96426887Y-80210000D01*
X96536120Y-80759151D01*
X96847189Y-81224698D01*
X97251703Y-81494986D01*
X97034866Y-81597611D01*
X96658959Y-82012577D01*
X96498096Y-82400961D01*
X96620085Y-82623000D01*
X97763000Y-82623000D01*
X97763000Y-82603000D01*
X98017000Y-82603000D01*
X98017000Y-82623000D01*
X99159915Y-82623000D01*
X99281904Y-82400961D01*
X99121041Y-82012577D01*
X98745134Y-81597611D01*
X98528297Y-81494986D01*
X98932811Y-81224698D01*
X99243880Y-80759151D01*
X99353113Y-80210000D01*
X99243880Y-79660849D01*
X98932811Y-79195302D01*
X98467264Y-78884233D01*
X97918113Y-78775000D01*
X97861887Y-78775000D01*
X97312736Y-78884233D01*
X96847189Y-79195302D01*
X96536120Y-79660849D01*
X96426887Y-80210000D01*
X96239000Y-80210000D01*
X96239000Y-76916000D01*
X96175439Y-76596459D01*
X96127169Y-76524218D01*
X96145459Y-76536439D01*
X96465000Y-76600000D01*
X97198231Y-76600000D01*
X97277714Y-76679622D01*
X97674332Y-76844313D01*
X98103784Y-76844687D01*
X98500689Y-76680689D01*
X98804622Y-76377286D01*
X98904088Y-76137745D01*
X99641861Y-76137745D01*
X99715995Y-76383864D01*
X100253223Y-76576965D01*
X100823454Y-76549778D01*
X101224005Y-76383864D01*
X101298139Y-76137745D01*
X100470000Y-75309605D01*
X99641861Y-76137745D01*
X98904088Y-76137745D01*
X98969313Y-75980668D01*
X98969687Y-75551216D01*
X98857110Y-75278758D01*
X99032119Y-75103749D01*
X99050222Y-75483454D01*
X99216136Y-75884005D01*
X99462255Y-75958139D01*
X100290395Y-75130000D01*
X100649605Y-75130000D01*
X101477745Y-75958139D01*
X101723864Y-75884005D01*
X101726196Y-75877517D01*
X101752757Y-75941800D01*
X102156077Y-76345824D01*
X102683309Y-76564750D01*
X103254187Y-76565248D01*
X103781800Y-76347243D01*
X104040000Y-76089493D01*
X104040000Y-76689132D01*
X102379566Y-78349566D01*
X102198561Y-78620459D01*
X102135000Y-78940000D01*
X102135000Y-82750000D01*
X102198561Y-83069541D01*
X102336005Y-83275240D01*
X102379566Y-83340434D01*
X102894066Y-83854934D01*
X102685813Y-83854752D01*
X102158200Y-84072757D01*
X101754176Y-84476077D01*
X101726577Y-84542544D01*
X101723864Y-84535995D01*
X101477745Y-84461861D01*
X100649605Y-85290000D01*
X101477745Y-86118139D01*
X101723864Y-86044005D01*
X101726196Y-86037517D01*
X101752757Y-86101800D01*
X102156077Y-86505824D01*
X102683309Y-86724750D01*
X103254187Y-86725248D01*
X103781800Y-86507243D01*
X104185824Y-86103923D01*
X104404750Y-85576691D01*
X104404934Y-85365802D01*
X104430411Y-85391279D01*
X104430313Y-85503784D01*
X104594311Y-85900689D01*
X104897714Y-86204622D01*
X105294332Y-86369313D01*
X105723784Y-86369687D01*
X105945000Y-86278282D01*
X105945000Y-88408231D01*
X105865378Y-88487714D01*
X105700687Y-88884332D01*
X105700643Y-88935166D01*
X105225813Y-88934752D01*
X104698200Y-89152757D01*
X104294176Y-89556077D01*
X104075250Y-90083309D01*
X104074752Y-90654187D01*
X104292757Y-91181800D01*
X104696077Y-91585824D01*
X105223309Y-91804750D01*
X105794187Y-91805248D01*
X106321800Y-91587243D01*
X106725824Y-91183923D01*
X106806979Y-90988481D01*
X106875169Y-91153515D01*
X107264436Y-91543461D01*
X107773298Y-91754759D01*
X108324285Y-91755240D01*
X108833515Y-91544831D01*
X109223461Y-91155564D01*
X109434759Y-90646702D01*
X109435240Y-90095715D01*
X109224831Y-89586485D01*
X108835564Y-89196539D01*
X108603130Y-89100024D01*
X108833515Y-89004831D01*
X109223461Y-88615564D01*
X109434759Y-88106702D01*
X109435240Y-87555715D01*
X109224831Y-87046485D01*
X108835564Y-86656539D01*
X108603130Y-86560024D01*
X108833515Y-86464831D01*
X109223461Y-86075564D01*
X109434759Y-85566702D01*
X109435240Y-85015715D01*
X109224831Y-84506485D01*
X108835564Y-84116539D01*
X108603130Y-84020024D01*
X108833515Y-83924831D01*
X109223461Y-83535564D01*
X109434759Y-83026702D01*
X109435240Y-82475715D01*
X109224831Y-81966485D01*
X108835564Y-81576539D01*
X108603130Y-81480024D01*
X108833515Y-81384831D01*
X109223461Y-80995564D01*
X109434759Y-80486702D01*
X109434761Y-80484285D01*
X114284760Y-80484285D01*
X114495169Y-80993515D01*
X114884436Y-81383461D01*
X115116870Y-81479976D01*
X114886485Y-81575169D01*
X114496539Y-81964436D01*
X114285241Y-82473298D01*
X114284760Y-83024285D01*
X114495169Y-83533515D01*
X114884436Y-83923461D01*
X115116870Y-84019976D01*
X114886485Y-84115169D01*
X114496539Y-84504436D01*
X114285241Y-85013298D01*
X114284760Y-85564285D01*
X114495169Y-86073515D01*
X114884436Y-86463461D01*
X115116870Y-86559976D01*
X114886485Y-86655169D01*
X114496539Y-87044436D01*
X114285241Y-87553298D01*
X114284760Y-88104285D01*
X114495169Y-88613515D01*
X114884436Y-89003461D01*
X115116870Y-89099976D01*
X114886485Y-89195169D01*
X114496539Y-89584436D01*
X114285241Y-90093298D01*
X114284760Y-90644285D01*
X114495169Y-91153515D01*
X114884436Y-91543461D01*
X115393298Y-91754759D01*
X115944285Y-91755240D01*
X116453515Y-91544831D01*
X116843461Y-91155564D01*
X117054759Y-90646702D01*
X117055240Y-90095715D01*
X116844831Y-89586485D01*
X116455564Y-89196539D01*
X116223130Y-89100024D01*
X116453515Y-89004831D01*
X116843461Y-88615564D01*
X116912860Y-88448433D01*
X116992757Y-88641800D01*
X117396077Y-89045824D01*
X117923309Y-89264750D01*
X118494187Y-89265248D01*
X119021800Y-89047243D01*
X119425824Y-88643923D01*
X119644750Y-88116691D01*
X119645000Y-87830000D01*
X124366887Y-87830000D01*
X124476120Y-88379151D01*
X124787189Y-88844698D01*
X125252736Y-89155767D01*
X125801887Y-89265000D01*
X125858113Y-89265000D01*
X126407264Y-89155767D01*
X126872811Y-88844698D01*
X126877456Y-88837745D01*
X127541861Y-88837745D01*
X127615995Y-89083864D01*
X128153223Y-89276965D01*
X128723454Y-89249778D01*
X129124005Y-89083864D01*
X129198139Y-88837745D01*
X128370000Y-88009605D01*
X127541861Y-88837745D01*
X126877456Y-88837745D01*
X127089679Y-88520132D01*
X127116136Y-88584005D01*
X127362255Y-88658139D01*
X128190395Y-87830000D01*
X128549605Y-87830000D01*
X129377745Y-88658139D01*
X129623864Y-88584005D01*
X129816965Y-88046777D01*
X129789778Y-87476546D01*
X129623864Y-87075995D01*
X129377745Y-87001861D01*
X128549605Y-87830000D01*
X128190395Y-87830000D01*
X127362255Y-87001861D01*
X127116136Y-87075995D01*
X127091954Y-87143272D01*
X126877457Y-86822255D01*
X127541861Y-86822255D01*
X128370000Y-87650395D01*
X129198139Y-86822255D01*
X129124005Y-86576136D01*
X128586777Y-86383035D01*
X128016546Y-86410222D01*
X127615995Y-86576136D01*
X127541861Y-86822255D01*
X126877457Y-86822255D01*
X126872811Y-86815302D01*
X126407264Y-86504233D01*
X125858113Y-86395000D01*
X125801887Y-86395000D01*
X125252736Y-86504233D01*
X124787189Y-86815302D01*
X124476120Y-87280849D01*
X124366887Y-87830000D01*
X119645000Y-87830000D01*
X119645248Y-87545813D01*
X119427243Y-87018200D01*
X119023923Y-86614176D01*
X118496691Y-86395250D01*
X117925813Y-86394752D01*
X117398200Y-86612757D01*
X116994176Y-87016077D01*
X116913021Y-87211519D01*
X116844831Y-87046485D01*
X116455564Y-86656539D01*
X116223130Y-86560024D01*
X116453515Y-86464831D01*
X116843461Y-86075564D01*
X117054759Y-85566702D01*
X117055240Y-85015715D01*
X116844831Y-84506485D01*
X116455564Y-84116539D01*
X116223130Y-84020024D01*
X116453515Y-83924831D01*
X116843461Y-83535564D01*
X117054759Y-83026702D01*
X117055240Y-82475715D01*
X116844831Y-81966485D01*
X116455564Y-81576539D01*
X116223130Y-81480024D01*
X116453515Y-81384831D01*
X116843461Y-80995564D01*
X117051650Y-80494187D01*
X120584752Y-80494187D01*
X120802757Y-81021800D01*
X121206077Y-81425824D01*
X121287931Y-81459813D01*
X121208200Y-81492757D01*
X120804176Y-81896077D01*
X120585250Y-82423309D01*
X120584752Y-82994187D01*
X120802757Y-83521800D01*
X121206077Y-83925824D01*
X121733309Y-84144750D01*
X122304187Y-84145248D01*
X122831800Y-83927243D01*
X123235824Y-83523923D01*
X123289862Y-83393785D01*
X123342757Y-83521800D01*
X123746077Y-83925824D01*
X124273309Y-84144750D01*
X124844187Y-84145248D01*
X125371800Y-83927243D01*
X125775824Y-83523923D01*
X125994750Y-82996691D01*
X125995248Y-82425813D01*
X125777243Y-81898200D01*
X125373923Y-81494176D01*
X125292069Y-81460187D01*
X125371800Y-81427243D01*
X125775824Y-81023923D01*
X125994750Y-80496691D01*
X125995248Y-79925813D01*
X125777243Y-79398200D01*
X125373923Y-78994176D01*
X124846691Y-78775250D01*
X124275813Y-78774752D01*
X123748200Y-78992757D01*
X123344176Y-79396077D01*
X123290138Y-79526215D01*
X123237243Y-79398200D01*
X122833923Y-78994176D01*
X122306691Y-78775250D01*
X121735813Y-78774752D01*
X121208200Y-78992757D01*
X120804176Y-79396077D01*
X120585250Y-79923309D01*
X120584752Y-80494187D01*
X117051650Y-80494187D01*
X117054759Y-80486702D01*
X117055240Y-79935715D01*
X116844831Y-79426485D01*
X116455564Y-79036539D01*
X116239021Y-78946623D01*
X116393923Y-78882460D01*
X116461912Y-78641517D01*
X115670000Y-77849605D01*
X114878088Y-78641517D01*
X114946077Y-78882460D01*
X115112621Y-78941732D01*
X114886485Y-79035169D01*
X114496539Y-79424436D01*
X114285241Y-79933298D01*
X114284760Y-80484285D01*
X109434761Y-80484285D01*
X109435240Y-79935715D01*
X109224831Y-79426485D01*
X108835564Y-79036539D01*
X108619021Y-78946623D01*
X108773923Y-78882460D01*
X108841912Y-78641517D01*
X108050000Y-77849605D01*
X108035858Y-77863748D01*
X107856253Y-77684143D01*
X107870395Y-77670000D01*
X108229605Y-77670000D01*
X109021517Y-78461912D01*
X109262460Y-78393923D01*
X109447201Y-77874829D01*
X109426378Y-77465171D01*
X114272799Y-77465171D01*
X114300770Y-78015448D01*
X114457540Y-78393923D01*
X114698483Y-78461912D01*
X115490395Y-77670000D01*
X115849605Y-77670000D01*
X116641517Y-78461912D01*
X116882460Y-78393923D01*
X117067201Y-77874829D01*
X117039230Y-77324552D01*
X116882460Y-76946077D01*
X116641517Y-76878088D01*
X115849605Y-77670000D01*
X115490395Y-77670000D01*
X114698483Y-76878088D01*
X114457540Y-76946077D01*
X114272799Y-77465171D01*
X109426378Y-77465171D01*
X109419230Y-77324552D01*
X109262460Y-76946077D01*
X109021517Y-76878088D01*
X108229605Y-77670000D01*
X107870395Y-77670000D01*
X107856253Y-77655858D01*
X108035858Y-77476253D01*
X108050000Y-77490395D01*
X108841912Y-76698483D01*
X108773923Y-76457540D01*
X108624489Y-76404358D01*
X108773923Y-76342460D01*
X108841912Y-76101517D01*
X114878088Y-76101517D01*
X114946077Y-76342460D01*
X115095511Y-76395642D01*
X114946077Y-76457540D01*
X114878088Y-76698483D01*
X115670000Y-77490395D01*
X116461912Y-76698483D01*
X116393923Y-76457540D01*
X116244489Y-76404358D01*
X116255010Y-76400000D01*
X117914928Y-76400000D01*
X118031773Y-76987419D01*
X118364519Y-77485409D01*
X118862509Y-77818155D01*
X119449928Y-77935000D01*
X119510072Y-77935000D01*
X120097491Y-77818155D01*
X120595481Y-77485409D01*
X120928227Y-76987419D01*
X121045072Y-76400000D01*
X120928227Y-75812581D01*
X120657521Y-75407440D01*
X121650000Y-75407440D01*
X121885317Y-75363162D01*
X122101441Y-75224090D01*
X122246431Y-75011890D01*
X122297440Y-74760000D01*
X122297440Y-72960000D01*
X122253162Y-72724683D01*
X122114090Y-72508559D01*
X121901890Y-72363569D01*
X121650000Y-72312560D01*
X119850000Y-72312560D01*
X119614683Y-72356838D01*
X119398559Y-72495910D01*
X119253569Y-72708110D01*
X119202560Y-72960000D01*
X119202560Y-74760000D01*
X119230529Y-74908641D01*
X118862509Y-74981845D01*
X118364519Y-75314591D01*
X118031773Y-75812581D01*
X117914928Y-76400000D01*
X116255010Y-76400000D01*
X116393923Y-76342460D01*
X116461912Y-76101517D01*
X115670000Y-75309605D01*
X114878088Y-76101517D01*
X108841912Y-76101517D01*
X108050000Y-75309605D01*
X108035858Y-75323748D01*
X107856253Y-75144143D01*
X107870395Y-75130000D01*
X108229605Y-75130000D01*
X109021517Y-75921912D01*
X109262460Y-75853923D01*
X109447201Y-75334829D01*
X109426378Y-74925171D01*
X114272799Y-74925171D01*
X114300770Y-75475448D01*
X114457540Y-75853923D01*
X114698483Y-75921912D01*
X115490395Y-75130000D01*
X115849605Y-75130000D01*
X116641517Y-75921912D01*
X116882460Y-75853923D01*
X117067201Y-75334829D01*
X117039230Y-74784552D01*
X116882460Y-74406077D01*
X116641517Y-74338088D01*
X115849605Y-75130000D01*
X115490395Y-75130000D01*
X114698483Y-74338088D01*
X114457540Y-74406077D01*
X114272799Y-74925171D01*
X109426378Y-74925171D01*
X109419230Y-74784552D01*
X109262460Y-74406077D01*
X109021517Y-74338088D01*
X108229605Y-75130000D01*
X107870395Y-75130000D01*
X107856253Y-75115858D01*
X108035858Y-74936253D01*
X108050000Y-74950395D01*
X108841912Y-74158483D01*
X108773923Y-73917540D01*
X108607379Y-73858268D01*
X108833515Y-73764831D01*
X109223461Y-73375564D01*
X109434759Y-72866702D01*
X109435240Y-72315715D01*
X109224831Y-71806485D01*
X108835564Y-71416539D01*
X108603130Y-71320024D01*
X108833515Y-71224831D01*
X109223461Y-70835564D01*
X109434759Y-70326702D01*
X109435240Y-69775715D01*
X109224831Y-69266485D01*
X108835564Y-68876539D01*
X108603130Y-68780024D01*
X108833515Y-68684831D01*
X109223461Y-68295564D01*
X109434759Y-67786702D01*
X109435240Y-67235715D01*
X109224831Y-66726485D01*
X108835564Y-66336539D01*
X108603130Y-66240024D01*
X108833515Y-66144831D01*
X109223461Y-65755564D01*
X109434759Y-65246702D01*
X109435240Y-64695715D01*
X109368834Y-64535000D01*
X114350972Y-64535000D01*
X114285241Y-64693298D01*
X114284760Y-65244285D01*
X114495169Y-65753515D01*
X114884436Y-66143461D01*
X115116870Y-66239976D01*
X114886485Y-66335169D01*
X114496539Y-66724436D01*
X114285241Y-67233298D01*
X114284760Y-67784285D01*
X114495169Y-68293515D01*
X114884436Y-68683461D01*
X115116870Y-68779976D01*
X114886485Y-68875169D01*
X114496539Y-69264436D01*
X114285241Y-69773298D01*
X114284760Y-70324285D01*
X114495169Y-70833515D01*
X114884436Y-71223461D01*
X115116870Y-71319976D01*
X114886485Y-71415169D01*
X114496539Y-71804436D01*
X114285241Y-72313298D01*
X114284760Y-72864285D01*
X114495169Y-73373515D01*
X114884436Y-73763461D01*
X115100979Y-73853377D01*
X114946077Y-73917540D01*
X114878088Y-74158483D01*
X115670000Y-74950395D01*
X116461912Y-74158483D01*
X116393923Y-73917540D01*
X116227379Y-73858268D01*
X116453515Y-73764831D01*
X116843461Y-73375564D01*
X117054759Y-72866702D01*
X117055240Y-72315715D01*
X116844831Y-71806485D01*
X116455564Y-71416539D01*
X116223130Y-71320024D01*
X116453515Y-71224831D01*
X116843461Y-70835564D01*
X117054759Y-70326702D01*
X117055240Y-69775715D01*
X116844831Y-69266485D01*
X116455564Y-68876539D01*
X116223130Y-68780024D01*
X116453515Y-68684831D01*
X116843461Y-68295564D01*
X116932909Y-68080149D01*
X117032757Y-68321800D01*
X117436077Y-68725824D01*
X117963309Y-68944750D01*
X118534187Y-68945248D01*
X119061800Y-68727243D01*
X119465824Y-68323923D01*
X119499813Y-68242069D01*
X119532757Y-68321800D01*
X119936077Y-68725824D01*
X120463309Y-68944750D01*
X121034187Y-68945248D01*
X121561800Y-68727243D01*
X121965824Y-68323923D01*
X122184750Y-67796691D01*
X122185248Y-67225813D01*
X121967243Y-66698200D01*
X121563923Y-66294176D01*
X121036691Y-66075250D01*
X120465813Y-66074752D01*
X119938200Y-66292757D01*
X119534176Y-66696077D01*
X119500187Y-66777931D01*
X119467243Y-66698200D01*
X119063923Y-66294176D01*
X118894766Y-66223936D01*
X119252811Y-65984698D01*
X119563880Y-65519151D01*
X119673113Y-64970000D01*
X119586586Y-64535000D01*
X120404132Y-64535000D01*
X122455000Y-66585868D01*
X122455000Y-69415000D01*
X122518561Y-69734541D01*
X122608765Y-69869541D01*
X122699566Y-70005434D01*
X125239566Y-72545434D01*
X125510459Y-72726439D01*
X125830000Y-72790000D01*
X127244223Y-72790000D01*
X126921773Y-73272581D01*
X126804928Y-73860000D01*
X126921773Y-74447419D01*
X127192479Y-74852560D01*
X126200000Y-74852560D01*
X125964683Y-74896838D01*
X125748559Y-75035910D01*
X125603569Y-75248110D01*
X125552560Y-75500000D01*
X125552560Y-77300000D01*
X125596838Y-77535317D01*
X125735910Y-77751441D01*
X125948110Y-77896431D01*
X126200000Y-77947440D01*
X128000000Y-77947440D01*
X128235317Y-77903162D01*
X128451441Y-77764090D01*
X128596431Y-77551890D01*
X128647440Y-77300000D01*
X128647440Y-75500000D01*
X128619471Y-75351359D01*
X128987491Y-75278155D01*
X129440000Y-74975798D01*
X129440000Y-83039132D01*
X128268721Y-84210411D01*
X128156216Y-84210313D01*
X127759311Y-84374311D01*
X127455378Y-84677714D01*
X127290687Y-85074332D01*
X127290313Y-85503784D01*
X127454311Y-85900689D01*
X127757714Y-86204622D01*
X128154332Y-86369313D01*
X128583784Y-86369687D01*
X128980689Y-86205689D01*
X129284622Y-85902286D01*
X129449313Y-85505668D01*
X129449412Y-85391456D01*
X130865434Y-83975434D01*
X130953900Y-83843035D01*
X131046439Y-83704541D01*
X131078519Y-83543264D01*
X131320971Y-83906120D01*
X131491405Y-84020000D01*
X131320971Y-84133880D01*
X130966548Y-84664313D01*
X130842091Y-85290000D01*
X130966548Y-85915687D01*
X131320971Y-86446120D01*
X131851404Y-86800543D01*
X132477091Y-86925000D01*
X133152909Y-86925000D01*
X133778596Y-86800543D01*
X134309029Y-86446120D01*
X134663452Y-85915687D01*
X134787909Y-85290000D01*
X134663452Y-84664313D01*
X134309029Y-84133880D01*
X134138595Y-84020000D01*
X134309029Y-83906120D01*
X134663452Y-83375687D01*
X134787909Y-82750000D01*
X134663452Y-82124313D01*
X134423907Y-81765808D01*
X134566441Y-81674090D01*
X134711431Y-81461890D01*
X134762440Y-81210000D01*
X134762440Y-79210000D01*
X134718162Y-78974683D01*
X134579090Y-78758559D01*
X134412380Y-78644651D01*
X134674144Y-78178355D01*
X134705124Y-78050434D01*
X134585777Y-77797000D01*
X132942000Y-77797000D01*
X132942000Y-77817000D01*
X132688000Y-77817000D01*
X132688000Y-77797000D01*
X132668000Y-77797000D01*
X132668000Y-77543000D01*
X132688000Y-77543000D01*
X132688000Y-77523000D01*
X132942000Y-77523000D01*
X132942000Y-77543000D01*
X134585777Y-77543000D01*
X134705124Y-77289566D01*
X134674144Y-77161645D01*
X134360922Y-76603683D01*
X134118812Y-76413219D01*
X134309029Y-76286120D01*
X134663452Y-75755687D01*
X134787909Y-75130000D01*
X134663452Y-74504313D01*
X134309029Y-73973880D01*
X134138595Y-73860000D01*
X134309029Y-73746120D01*
X134663452Y-73215687D01*
X134787909Y-72590000D01*
X134663452Y-71964313D01*
X134309029Y-71433880D01*
X134138595Y-71320000D01*
X134309029Y-71206120D01*
X134663452Y-70675687D01*
X134787909Y-70050000D01*
X134663452Y-69424313D01*
X134423907Y-69065808D01*
X134566441Y-68974090D01*
X134711431Y-68761890D01*
X134762440Y-68510000D01*
X134762440Y-66510000D01*
X134718162Y-66274683D01*
X134579090Y-66058559D01*
X134366890Y-65913569D01*
X134115000Y-65862560D01*
X133448858Y-65862560D01*
X133729622Y-65582286D01*
X133894313Y-65185668D01*
X133894687Y-64756216D01*
X133730689Y-64359311D01*
X133427286Y-64055378D01*
X133030668Y-63890687D01*
X132601216Y-63890313D01*
X132204311Y-64054311D01*
X132123481Y-64135000D01*
X131545000Y-64135000D01*
X131225459Y-64198561D01*
X131057648Y-64310689D01*
X130954566Y-64379566D01*
X129294132Y-66040000D01*
X126789300Y-66040000D01*
X127045824Y-65783923D01*
X127264750Y-65256691D01*
X127265248Y-64685813D01*
X127047243Y-64158200D01*
X126643923Y-63754176D01*
X126513785Y-63700138D01*
X126641800Y-63647243D01*
X127045824Y-63243923D01*
X127105820Y-63099436D01*
X127355302Y-63472811D01*
X127820849Y-63783880D01*
X128370000Y-63893113D01*
X128919151Y-63783880D01*
X129384698Y-63472811D01*
X129695767Y-63007264D01*
X129805000Y-62458113D01*
X129805000Y-62401887D01*
X129695767Y-61852736D01*
X129384698Y-61387189D01*
X128919151Y-61076120D01*
X128370000Y-60966887D01*
X127820849Y-61076120D01*
X127355302Y-61387189D01*
X127105973Y-61760336D01*
X127047243Y-61618200D01*
X126643923Y-61214176D01*
X126116691Y-60995250D01*
X125545813Y-60994752D01*
X125018200Y-61212757D01*
X124614176Y-61616077D01*
X124395250Y-62143309D01*
X124394752Y-62714187D01*
X124612757Y-63241800D01*
X125016077Y-63645824D01*
X125146215Y-63699862D01*
X125018200Y-63752757D01*
X124614176Y-64156077D01*
X124519632Y-64383763D01*
X119924589Y-59788721D01*
X119924687Y-59676216D01*
X119760689Y-59279311D01*
X119457286Y-58975378D01*
X119060668Y-58810687D01*
X118631216Y-58810313D01*
X118234311Y-58974311D01*
X117930378Y-59277714D01*
X117765687Y-59674332D01*
X117765313Y-60103784D01*
X117929311Y-60500689D01*
X118232714Y-60804622D01*
X118629332Y-60969313D01*
X118743544Y-60969412D01*
X119061813Y-61287681D01*
X118787264Y-61104233D01*
X118238113Y-60995000D01*
X118181887Y-60995000D01*
X117632736Y-61104233D01*
X117167189Y-61415302D01*
X116908980Y-61801738D01*
X116844831Y-61646485D01*
X116455564Y-61256539D01*
X115946702Y-61045241D01*
X115415919Y-61044778D01*
X115700551Y-60760643D01*
X115934733Y-60196670D01*
X115935265Y-59586009D01*
X115702068Y-59021629D01*
X115270643Y-58589449D01*
X114706670Y-58355267D01*
X114470193Y-58355061D01*
X113932566Y-57817434D01*
X113913269Y-57804540D01*
X113564346Y-57571397D01*
X113130000Y-57485000D01*
X110021141Y-57485000D01*
X109990643Y-57454449D01*
X109426670Y-57220267D01*
X108816009Y-57219735D01*
X108251629Y-57452932D01*
X107819449Y-57884357D01*
X107585267Y-58448330D01*
X107584735Y-59058991D01*
X107817932Y-59623371D01*
X108249357Y-60055551D01*
X108813330Y-60289733D01*
X109423991Y-60290265D01*
X109988371Y-60057068D01*
X110290968Y-59755000D01*
X112659868Y-59755000D01*
X112864939Y-59960071D01*
X112864735Y-60193991D01*
X113097932Y-60758371D01*
X113529357Y-61190551D01*
X114093330Y-61424733D01*
X114703991Y-61425265D01*
X114724639Y-61416734D01*
X114496539Y-61644436D01*
X114285241Y-62153298D01*
X114284760Y-62704285D01*
X114351166Y-62865000D01*
X109369028Y-62865000D01*
X109434759Y-62706702D01*
X109435240Y-62155715D01*
X109224831Y-61646485D01*
X108835564Y-61256539D01*
X108326702Y-61045241D01*
X107775715Y-61044760D01*
X107266485Y-61255169D01*
X106876539Y-61644436D01*
X106811144Y-61801924D01*
X106552811Y-61415302D01*
X106087264Y-61104233D01*
X105538113Y-60995000D01*
X105481887Y-60995000D01*
X105032657Y-61084357D01*
X105119313Y-60875668D01*
X105119687Y-60446216D01*
X104955689Y-60049311D01*
X104652286Y-59745378D01*
X104255668Y-59580687D01*
X103826216Y-59580313D01*
X103429311Y-59744311D01*
X103125378Y-60047714D01*
X102960687Y-60444332D01*
X102960313Y-60873784D01*
X103124311Y-61270689D01*
X103205000Y-61351519D01*
X103205000Y-73360000D01*
X103268561Y-73679541D01*
X103287646Y-73708104D01*
X103256691Y-73695250D01*
X102685813Y-73694752D01*
X102158200Y-73912757D01*
X101754176Y-74316077D01*
X101726577Y-74382544D01*
X101723864Y-74375995D01*
X101477745Y-74301861D01*
X100649605Y-75130000D01*
X100290395Y-75130000D01*
X100276252Y-75115858D01*
X100455858Y-74936252D01*
X100470000Y-74950395D01*
X101298139Y-74122255D01*
X101224005Y-73876136D01*
X100686777Y-73683035D01*
X100353487Y-73698925D01*
X100366439Y-73679541D01*
X100430000Y-73360000D01*
X100430000Y-61351769D01*
X100509622Y-61272286D01*
X100674313Y-60875668D01*
X100674687Y-60446216D01*
X100510689Y-60049311D01*
X100207286Y-59745378D01*
X99810668Y-59580687D01*
X99381216Y-59580313D01*
X98984311Y-59744311D01*
X98680378Y-60047714D01*
X98515687Y-60444332D01*
X98515313Y-60873784D01*
X98646027Y-61190135D01*
X98176691Y-60995250D01*
X97605813Y-60994752D01*
X97078200Y-61212757D01*
X96674176Y-61616077D01*
X96455250Y-62143309D01*
X96454752Y-62714187D01*
X96672757Y-63241800D01*
X97076077Y-63645824D01*
X97190768Y-63693448D01*
X97135995Y-63716136D01*
X97061861Y-63962255D01*
X97890000Y-64790395D01*
X97904142Y-64776252D01*
X98083748Y-64955858D01*
X98069605Y-64970000D01*
X98083748Y-64984142D01*
X97904142Y-65163748D01*
X97890000Y-65149605D01*
X97061861Y-65977745D01*
X97135995Y-66223864D01*
X97177709Y-66238858D01*
X97135995Y-66256136D01*
X97061861Y-66502255D01*
X97890000Y-67330395D01*
X97904142Y-67316252D01*
X98083748Y-67495858D01*
X98069605Y-67510000D01*
X98083748Y-67524142D01*
X97904142Y-67703748D01*
X97890000Y-67689605D01*
X97061861Y-68517745D01*
X97135995Y-68763864D01*
X97177709Y-68778858D01*
X97135995Y-68796136D01*
X97061861Y-69042255D01*
X97890000Y-69870395D01*
X97904142Y-69856252D01*
X98083748Y-70035858D01*
X98069605Y-70050000D01*
X98083748Y-70064142D01*
X97904142Y-70243748D01*
X97890000Y-70229605D01*
X97061861Y-71057745D01*
X97135995Y-71303864D01*
X97239132Y-71340935D01*
X97034866Y-71437611D01*
X96658959Y-71852577D01*
X96498096Y-72240961D01*
X96620085Y-72463000D01*
X97763000Y-72463000D01*
X97763000Y-72443000D01*
X98017000Y-72443000D01*
X98017000Y-72463000D01*
X98037000Y-72463000D01*
X98037000Y-72717000D01*
X98017000Y-72717000D01*
X98017000Y-72737000D01*
X97763000Y-72737000D01*
X97763000Y-72717000D01*
X96620085Y-72717000D01*
X96498096Y-72939039D01*
X96658959Y-73327423D01*
X97034866Y-73742389D01*
X97540959Y-73981914D01*
X97762998Y-73860630D01*
X97762998Y-74011134D01*
X97299566Y-74474566D01*
X97118561Y-74745459D01*
X97081853Y-74930000D01*
X96810868Y-74930000D01*
X95190434Y-73309566D01*
X95049934Y-73215687D01*
X94919541Y-73128561D01*
X94832298Y-73111207D01*
X94904759Y-72936702D01*
X94905240Y-72385715D01*
X94694831Y-71876485D01*
X94360652Y-71541723D01*
X94444943Y-71506894D01*
X94905278Y-71047363D01*
X95154716Y-70446648D01*
X95155251Y-69833223D01*
X96443035Y-69833223D01*
X96470222Y-70403454D01*
X96636136Y-70804005D01*
X96882255Y-70878139D01*
X97710395Y-70050000D01*
X96882255Y-69221861D01*
X96636136Y-69295995D01*
X96443035Y-69833223D01*
X95155251Y-69833223D01*
X95155284Y-69796205D01*
X94906894Y-69195057D01*
X94562241Y-68849801D01*
X94905278Y-68507363D01*
X95154716Y-67906648D01*
X95155251Y-67293223D01*
X96443035Y-67293223D01*
X96470222Y-67863454D01*
X96636136Y-68264005D01*
X96882255Y-68338139D01*
X97710395Y-67510000D01*
X96882255Y-66681861D01*
X96636136Y-66755995D01*
X96443035Y-67293223D01*
X95155251Y-67293223D01*
X95155284Y-67256205D01*
X94906894Y-66655057D01*
X94562241Y-66309801D01*
X94905278Y-65967363D01*
X95154716Y-65366648D01*
X95155251Y-64753223D01*
X96443035Y-64753223D01*
X96470222Y-65323454D01*
X96636136Y-65724005D01*
X96882255Y-65798139D01*
X97710395Y-64970000D01*
X96882255Y-64141861D01*
X96636136Y-64215995D01*
X96443035Y-64753223D01*
X95155251Y-64753223D01*
X95155284Y-64716205D01*
X94906894Y-64115057D01*
X94562241Y-63769801D01*
X94905278Y-63427363D01*
X95154716Y-62826648D01*
X95155284Y-62176205D01*
X94906894Y-61575057D01*
X94562241Y-61229801D01*
X94905278Y-60887363D01*
X95154716Y-60286648D01*
X95155284Y-59636205D01*
X94928665Y-59087745D01*
X98131861Y-59087745D01*
X98205995Y-59333864D01*
X98743223Y-59526965D01*
X99313454Y-59499778D01*
X99714005Y-59333864D01*
X99788139Y-59087745D01*
X103211861Y-59087745D01*
X103285995Y-59333864D01*
X103823223Y-59526965D01*
X104393454Y-59499778D01*
X104794005Y-59333864D01*
X104868139Y-59087745D01*
X104040000Y-58259605D01*
X103211861Y-59087745D01*
X99788139Y-59087745D01*
X98960000Y-58259605D01*
X98131861Y-59087745D01*
X94928665Y-59087745D01*
X94906894Y-59035057D01*
X94562241Y-58689801D01*
X94905278Y-58347363D01*
X95106309Y-57863223D01*
X97513035Y-57863223D01*
X97540222Y-58433454D01*
X97706136Y-58834005D01*
X97952255Y-58908139D01*
X98780395Y-58080000D01*
X99139605Y-58080000D01*
X99967745Y-58908139D01*
X100213864Y-58834005D01*
X100406965Y-58296777D01*
X100386295Y-57863223D01*
X102593035Y-57863223D01*
X102620222Y-58433454D01*
X102786136Y-58834005D01*
X103032255Y-58908139D01*
X103860395Y-58080000D01*
X104219605Y-58080000D01*
X105047745Y-58908139D01*
X105293864Y-58834005D01*
X105486965Y-58296777D01*
X105459778Y-57726546D01*
X105293864Y-57325995D01*
X105047745Y-57251861D01*
X104219605Y-58080000D01*
X103860395Y-58080000D01*
X103032255Y-57251861D01*
X102786136Y-57325995D01*
X102593035Y-57863223D01*
X100386295Y-57863223D01*
X100379778Y-57726546D01*
X100213864Y-57325995D01*
X99967745Y-57251861D01*
X99139605Y-58080000D01*
X98780395Y-58080000D01*
X97952255Y-57251861D01*
X97706136Y-57325995D01*
X97513035Y-57863223D01*
X95106309Y-57863223D01*
X95154716Y-57746648D01*
X95155284Y-57096205D01*
X94906894Y-56495057D01*
X94447363Y-56034722D01*
X93846648Y-55785284D01*
X93585812Y-55785056D01*
X94590868Y-54780000D01*
X97512560Y-54780000D01*
X97512560Y-56380000D01*
X97556838Y-56615317D01*
X97695910Y-56831441D01*
X97908110Y-56976431D01*
X98146201Y-57024646D01*
X98131861Y-57072255D01*
X98960000Y-57900395D01*
X99788139Y-57072255D01*
X99773855Y-57024833D01*
X99995317Y-56983162D01*
X100211441Y-56844090D01*
X100356431Y-56631890D01*
X100407440Y-56380000D01*
X100407440Y-55864187D01*
X102604752Y-55864187D01*
X102822757Y-56391800D01*
X103226077Y-56795824D01*
X103292544Y-56823423D01*
X103285995Y-56826136D01*
X103211861Y-57072255D01*
X104040000Y-57900395D01*
X104868139Y-57072255D01*
X104794005Y-56826136D01*
X104787517Y-56823804D01*
X104851800Y-56797243D01*
X105255824Y-56393923D01*
X105474750Y-55866691D01*
X105475248Y-55295813D01*
X105257243Y-54768200D01*
X104853923Y-54364176D01*
X104326691Y-54145250D01*
X103755813Y-54144752D01*
X103228200Y-54362757D01*
X102824176Y-54766077D01*
X102605250Y-55293309D01*
X102604752Y-55864187D01*
X100407440Y-55864187D01*
X100407440Y-54780000D01*
X100363162Y-54544683D01*
X100224090Y-54328559D01*
X100011890Y-54183569D01*
X99760000Y-54132560D01*
X98160000Y-54132560D01*
X97924683Y-54176838D01*
X97708559Y-54315910D01*
X97563569Y-54528110D01*
X97512560Y-54780000D01*
X94590868Y-54780000D01*
X95495868Y-53875000D01*
X109698231Y-53875000D01*
X109777714Y-53954622D01*
X110174332Y-54119313D01*
X110603784Y-54119687D01*
X111000689Y-53955689D01*
X111304622Y-53652286D01*
X111469313Y-53255668D01*
X111469687Y-52826216D01*
X111305689Y-52429311D01*
X111108795Y-52232073D01*
X111600868Y-51740000D01*
X114457560Y-51740000D01*
X114457560Y-54340000D01*
X114501838Y-54575317D01*
X114640910Y-54791441D01*
X114853110Y-54936431D01*
X115105000Y-54987440D01*
X117105000Y-54987440D01*
X117340317Y-54943162D01*
X117556441Y-54804090D01*
X117661951Y-54649671D01*
X118019313Y-54888452D01*
X118645000Y-55012909D01*
X119270687Y-54888452D01*
X119801120Y-54534029D01*
X119915000Y-54363595D01*
X120028880Y-54534029D01*
X120559313Y-54888452D01*
X121185000Y-55012909D01*
X121810687Y-54888452D01*
X122341120Y-54534029D01*
X122455000Y-54363595D01*
X122568880Y-54534029D01*
X123099313Y-54888452D01*
X123725000Y-55012909D01*
X124350687Y-54888452D01*
X124881120Y-54534029D01*
X125235543Y-54003596D01*
X125360000Y-53377909D01*
X125360000Y-52702091D01*
X125235543Y-52076404D01*
X124881120Y-51545971D01*
X124350687Y-51191548D01*
X123725000Y-51067091D01*
X123099313Y-51191548D01*
X122568880Y-51545971D01*
X122455000Y-51716405D01*
X122341120Y-51545971D01*
X121810687Y-51191548D01*
X121185000Y-51067091D01*
X120559313Y-51191548D01*
X120028880Y-51545971D01*
X119915000Y-51716405D01*
X119801120Y-51545971D01*
X119270687Y-51191548D01*
X118645000Y-51067091D01*
X118019313Y-51191548D01*
X117660808Y-51431093D01*
X117569090Y-51288559D01*
X117356890Y-51143569D01*
X117105000Y-51092560D01*
X115105000Y-51092560D01*
X114869683Y-51136838D01*
X114653559Y-51275910D01*
X114508569Y-51488110D01*
X114457560Y-51740000D01*
X111600868Y-51740000D01*
X111761279Y-51579589D01*
X111873784Y-51579687D01*
X112270689Y-51415689D01*
X112574622Y-51112286D01*
X112739313Y-50715668D01*
X112739687Y-50286216D01*
X112648282Y-50065000D01*
X125919132Y-50065000D01*
X127970000Y-52115868D01*
X127970000Y-52348231D01*
X127890378Y-52427714D01*
X127725687Y-52824332D01*
X127725313Y-53253784D01*
X127889311Y-53650689D01*
X128192714Y-53954622D01*
X128589332Y-54119313D01*
X129018784Y-54119687D01*
X129415689Y-53955689D01*
X129719622Y-53652286D01*
X129884313Y-53255668D01*
X129884687Y-52826216D01*
X129720689Y-52429311D01*
X129640000Y-52348481D01*
X129640000Y-51770000D01*
X129576439Y-51450459D01*
X129395434Y-51179566D01*
X126855434Y-48639566D01*
X126724590Y-48552139D01*
X126584541Y-48458561D01*
X126265000Y-48395000D01*
X91340000Y-48395000D01*
X91020460Y-48458560D01*
X90749566Y-48639566D01*
X83764566Y-55624566D01*
X83598568Y-55873000D01*
X83052606Y-55873000D01*
X80549869Y-53370263D01*
X81885071Y-52035061D01*
X82118991Y-52035265D01*
X82683371Y-51802068D01*
X83115551Y-51370643D01*
X83349733Y-50806670D01*
X83350265Y-50196009D01*
X83117068Y-49631629D01*
X82685643Y-49199449D01*
X82121670Y-48965267D01*
X81511009Y-48964735D01*
X80946629Y-49197932D01*
X80514449Y-49629357D01*
X80280267Y-50193330D01*
X80280061Y-50429807D01*
X78944737Y-51765131D01*
X78127000Y-50947394D01*
X78127000Y-48185000D01*
X78500000Y-48185000D01*
X78762138Y-48132857D01*
X78984368Y-47984368D01*
X79283736Y-47685000D01*
X136932533Y-47685000D01*
X138263459Y-47949738D01*
M02*
