G04 #@! TF.FileFunction,Soldermask,Top*
%FSLAX46Y46*%
G04 Gerber Fmt 4.6, Leading zero omitted, Abs format (unit mm)*
G04 Created by KiCad (PCBNEW 4.0.6) date 12/04/17 20:43:07*
%MOMM*%
%LPD*%
G01*
G04 APERTURE LIST*
%ADD10C,0.100000*%
%ADD11C,2.000000*%
%ADD12C,1.600000*%
%ADD13R,1.600000X1.600000*%
%ADD14R,1.800000X1.800000*%
%ADD15O,1.800000X1.800000*%
%ADD16R,2.600000X2.000000*%
%ADD17O,2.600000X2.000000*%
%ADD18O,1.600000X1.600000*%
%ADD19R,1.700000X1.700000*%
%ADD20O,1.700000X1.700000*%
%ADD21C,1.500000*%
%ADD22C,1.700000*%
%ADD23C,1.200000*%
%ADD24R,2.000000X2.600000*%
%ADD25O,2.000000X2.600000*%
G04 APERTURE END LIST*
D10*
D11*
X74195000Y-93045000D03*
X66575000Y-93045000D03*
X66575000Y-98125000D03*
X74195000Y-98125000D03*
D12*
X124560000Y-80210000D03*
X124560000Y-82710000D03*
X47525000Y-72725000D03*
X47525000Y-70225000D03*
X122020000Y-80210000D03*
X122020000Y-82710000D03*
X50065000Y-72725000D03*
X50065000Y-70225000D03*
X123290000Y-90370000D03*
X120790000Y-90370000D03*
X48795000Y-62565000D03*
X51295000Y-62565000D03*
X102970000Y-75130000D03*
X100470000Y-75130000D03*
X69115000Y-77805000D03*
X71615000Y-77805000D03*
X120750000Y-67510000D03*
X118250000Y-67510000D03*
X51335000Y-85425000D03*
X53835000Y-85425000D03*
X102970000Y-85290000D03*
X100470000Y-85290000D03*
X69115000Y-67645000D03*
X71615000Y-67645000D03*
D13*
X36730000Y-58120000D03*
D12*
X39230000Y-58120000D03*
D14*
X127100000Y-76400000D03*
D15*
X119480000Y-76400000D03*
D14*
X44985000Y-76535000D03*
D15*
X52605000Y-76535000D03*
D14*
X120750000Y-73860000D03*
D15*
X128370000Y-73860000D03*
D14*
X51335000Y-79075000D03*
D15*
X43715000Y-79075000D03*
D16*
X132815000Y-67510000D03*
D17*
X132815000Y-70050000D03*
X132815000Y-72590000D03*
X132815000Y-75130000D03*
X132815000Y-77670000D03*
D16*
X39270000Y-85425000D03*
D17*
X39270000Y-82885000D03*
X39270000Y-80345000D03*
X39270000Y-77805000D03*
X39270000Y-75265000D03*
D16*
X132815000Y-80210000D03*
D17*
X132815000Y-82750000D03*
X132815000Y-85290000D03*
D16*
X39270000Y-72725000D03*
D17*
X39270000Y-70185000D03*
X39270000Y-67645000D03*
D12*
X105510000Y-80210000D03*
D18*
X97890000Y-80210000D03*
D12*
X66575000Y-72725000D03*
D18*
X74195000Y-72725000D03*
D12*
X118210000Y-87830000D03*
D18*
X125830000Y-87830000D03*
D12*
X53875000Y-65105000D03*
D18*
X46255000Y-65105000D03*
D12*
X128370000Y-87830000D03*
D18*
X128370000Y-95450000D03*
D12*
X43715000Y-57485000D03*
D18*
X43715000Y-65105000D03*
D12*
X105510000Y-90370000D03*
D18*
X97890000Y-90370000D03*
D12*
X66575000Y-62565000D03*
D18*
X74195000Y-62565000D03*
D12*
X97890000Y-62430000D03*
D18*
X105510000Y-62430000D03*
D12*
X74195000Y-90505000D03*
D18*
X66575000Y-90505000D03*
D12*
X125830000Y-64970000D03*
D18*
X118210000Y-64970000D03*
D12*
X46255000Y-87965000D03*
D18*
X53875000Y-87965000D03*
D12*
X125830000Y-62430000D03*
D18*
X118210000Y-62430000D03*
D12*
X46255000Y-90505000D03*
D18*
X53875000Y-90505000D03*
D12*
X108050000Y-94180000D03*
D18*
X115670000Y-94180000D03*
D12*
X63900000Y-59700000D03*
D18*
X56280000Y-59700000D03*
D12*
X105510000Y-72590000D03*
D18*
X97890000Y-72590000D03*
D12*
X66575000Y-80345000D03*
D18*
X74195000Y-80345000D03*
D12*
X128370000Y-70050000D03*
D18*
X128370000Y-62430000D03*
D12*
X43715000Y-82885000D03*
D18*
X43715000Y-90505000D03*
D12*
X105510000Y-82750000D03*
D18*
X97890000Y-82750000D03*
D12*
X66575000Y-70185000D03*
D18*
X74195000Y-70185000D03*
D12*
X97890000Y-70050000D03*
D18*
X105510000Y-70050000D03*
D12*
X74195000Y-82885000D03*
D18*
X66575000Y-82885000D03*
D12*
X97890000Y-67510000D03*
D18*
X105510000Y-67510000D03*
D12*
X74195000Y-85425000D03*
D18*
X66575000Y-85425000D03*
D12*
X97890000Y-64970000D03*
D18*
X105510000Y-64970000D03*
D12*
X74195000Y-87965000D03*
D18*
X66575000Y-87965000D03*
D13*
X98960000Y-55580000D03*
D12*
X98960000Y-58080000D03*
D19*
X120750000Y-95450000D03*
D20*
X120750000Y-92910000D03*
D19*
X123290000Y-95450000D03*
D20*
X123290000Y-92910000D03*
D19*
X51335000Y-57485000D03*
D20*
X51335000Y-60025000D03*
D19*
X48795000Y-57485000D03*
D20*
X48795000Y-60025000D03*
D21*
X64035000Y-90505000D03*
X64035000Y-87965000D03*
X64035000Y-85425000D03*
X64035000Y-82885000D03*
X56415000Y-82885000D03*
X56415000Y-85425000D03*
X56415000Y-87965000D03*
X56415000Y-90505000D03*
X64035000Y-80345000D03*
X64035000Y-77805000D03*
X64035000Y-75265000D03*
X64035000Y-72725000D03*
X64035000Y-70185000D03*
X64035000Y-67645000D03*
X64035000Y-62565000D03*
X64035000Y-65105000D03*
X56415000Y-62565000D03*
X56415000Y-65105000D03*
X56415000Y-67645000D03*
X56415000Y-70185000D03*
X56415000Y-72725000D03*
X56415000Y-75265000D03*
X56415000Y-77805000D03*
X56415000Y-80345000D03*
X108050000Y-62430000D03*
X108050000Y-64970000D03*
X108050000Y-67510000D03*
X108050000Y-70050000D03*
X115670000Y-70050000D03*
X115670000Y-67510000D03*
X115670000Y-64970000D03*
X115670000Y-62430000D03*
X108050000Y-72590000D03*
X108050000Y-75130000D03*
X108050000Y-77670000D03*
X108050000Y-80210000D03*
X108050000Y-82750000D03*
X108050000Y-85290000D03*
X108050000Y-90370000D03*
X108050000Y-87830000D03*
X115670000Y-90370000D03*
X115670000Y-87830000D03*
X115670000Y-85290000D03*
X115670000Y-82750000D03*
X115670000Y-80210000D03*
X115670000Y-77670000D03*
X115670000Y-75130000D03*
X115670000Y-72590000D03*
D11*
X93520000Y-92980000D03*
X93520000Y-90440000D03*
X93520000Y-87900000D03*
X93520000Y-85360000D03*
X93520000Y-82820000D03*
X93520000Y-80280000D03*
X93520000Y-77740000D03*
D21*
X93520000Y-75200000D03*
X93520000Y-72660000D03*
D11*
X93520000Y-70120000D03*
X93520000Y-67580000D03*
X93520000Y-65040000D03*
X93520000Y-62500000D03*
X93520000Y-59960000D03*
X93520000Y-57420000D03*
D22*
X78280000Y-57420000D03*
D21*
X78280000Y-59960000D03*
X78280000Y-62500000D03*
X78280000Y-65040000D03*
D11*
X78280000Y-67580000D03*
X78280000Y-70120000D03*
X78280000Y-72660000D03*
X78280000Y-75200000D03*
D21*
X78280000Y-77740000D03*
X78280000Y-80280000D03*
D11*
X78280000Y-82820000D03*
X78280000Y-85360000D03*
D22*
X78280000Y-87900000D03*
D11*
X78280000Y-90440000D03*
X78280000Y-92980000D03*
X38000000Y-50500000D03*
X38000000Y-53040000D03*
X40540000Y-50500000D03*
X40540000Y-53040000D03*
X43080000Y-50500000D03*
X43080000Y-53040000D03*
X45620000Y-50500000D03*
X45620000Y-53040000D03*
X48160000Y-50500000D03*
X48160000Y-53040000D03*
X50700000Y-50500000D03*
X50700000Y-53040000D03*
X53240000Y-50500000D03*
X53240000Y-53040000D03*
X55780000Y-50500000D03*
D22*
X55780000Y-53040000D03*
D11*
X58320000Y-50500000D03*
X58320000Y-53040000D03*
X60860000Y-50500000D03*
X60860000Y-53040000D03*
X63400000Y-50500000D03*
X63400000Y-53040000D03*
X65940000Y-50500000D03*
X65940000Y-53040000D03*
X68480000Y-50500000D03*
X68480000Y-53040000D03*
X71020000Y-50500000D03*
X71020000Y-53040000D03*
X73560000Y-50500000D03*
X73560000Y-53040000D03*
X76100000Y-50500000D03*
X76100000Y-53040000D03*
D12*
X104040000Y-55580000D03*
X104040000Y-58080000D03*
X35460000Y-63200000D03*
X37960000Y-63200000D03*
X82100000Y-92300000D03*
D18*
X89720000Y-92300000D03*
D21*
X89710000Y-89510000D03*
X89710000Y-86970000D03*
X89710000Y-84430000D03*
D23*
X89710000Y-81890000D03*
D21*
X82090000Y-81890000D03*
X82090000Y-84430000D03*
X82090000Y-86970000D03*
X82090000Y-89510000D03*
D24*
X116105000Y-53040000D03*
D25*
X118645000Y-53040000D03*
X121185000Y-53040000D03*
X123725000Y-53040000D03*
D12*
X74100000Y-57200000D03*
D18*
X66480000Y-57200000D03*
M02*
