M48
INCH,TZ
T1C0.025
T2C0.030
T3C0.031
T4C0.035
T5C0.039
T6C0.047
%
G90
G05
T1
X13711Y-26132
X15461Y-34632
X15711Y-24632
X16461Y-21882
X17211Y-26632
X17211Y-31882
X17461Y-28882
X17961Y-32632
X18211Y-24632
X18211Y-33882
X20961Y-36632
X21711Y-30132
X22211Y-21632
X22711Y-36632
X24211Y-27882
X25711Y-25132
X25711Y-34132
X25711Y-35132
X26211Y-26632
X27211Y-36382
X27561Y-25582
X28211Y-36382
X29211Y-30382
X31461Y-34882
X31711Y-27382
X31961Y-28132
X31961Y-28882
X31961Y-29882
X32211Y-19882
X32211Y-31382
X35512Y-30039
X36211Y-31132
X37361Y-30082
X38539Y-29829
X39211Y-23882
X40361Y-34582
X40961Y-23882
X41539Y-33579
X42039Y-25079
X42039Y-26079
X42039Y-35079
X42461Y-19882
X42961Y-23132
X43461Y-20882
X43961Y-19882
X45039Y-23579
X46039Y-30079
X46789Y-23579
X49539Y-26329
X49539Y-35579
X49789Y-27579
X50289Y-31329
X50539Y-28329
X50539Y-33579
X50711Y-20882
X52039Y-35579
X52289Y-25579
T2
X22211Y-24632
X22211Y-25632
X22211Y-26632
X22211Y-27632
X22211Y-28632
X22211Y-29632
X22211Y-30632
X22211Y-31632
X22211Y-32632
X22211Y-33632
X22211Y-34632
X22211Y-35632
X25211Y-24632
X25211Y-25632
X25211Y-26632
X25211Y-27632
X25211Y-28632
X25211Y-29632
X25211Y-30632
X25211Y-31632
X25211Y-32632
X25211Y-33632
X25211Y-34632
X25211Y-35632
X26211Y-36632
X26211Y-38632
X29211Y-36632
X29211Y-38632
X30819Y-22606
X30819Y-23606
X30819Y-24606
X30819Y-25606
X30819Y-26606
X30819Y-27606
X30819Y-28606
X30819Y-29606
X30819Y-30606
X30819Y-31606
X30819Y-32606
X30819Y-33606
X30819Y-34606
X30819Y-35606
X30819Y-36606
X32319Y-32240
X32319Y-33240
X32319Y-34240
X32319Y-35240
X35319Y-32240
X35319Y-33240
X35319Y-34240
X35319Y-35240
X36819Y-22606
X36819Y-23606
X36819Y-24606
X36819Y-25606
X36819Y-26606
X36819Y-27606
X36819Y-28606
X36819Y-29606
X36819Y-30606
X36819Y-31606
X36819Y-32606
X36819Y-33606
X36819Y-34606
X36819Y-35606
X36819Y-36606
X42539Y-24579
X42539Y-25579
X42539Y-26579
X42539Y-27579
X42539Y-28579
X42539Y-29579
X42539Y-30579
X42539Y-31579
X42539Y-32579
X42539Y-33579
X42539Y-34579
X42539Y-35579
X45539Y-24579
X45539Y-25579
X45539Y-26579
X45539Y-27579
X45539Y-28579
X45539Y-29579
X45539Y-30579
X45539Y-31579
X45539Y-32579
X45539Y-33579
X45539Y-34579
X45539Y-35579
T3
X13961Y-24882
X14461Y-22882
X14945Y-24882
X15445Y-22882
X17211Y-22632
X17211Y-25632
X17211Y-32632
X17211Y-35632
X18211Y-25632
X18211Y-34632
X18211Y-35632
X18711Y-27648
X18711Y-28632
X19211Y-24632
X19711Y-27648
X19711Y-28632
X20195Y-24632
X20211Y-33632
X21195Y-33632
X21211Y-25632
X21211Y-34632
X21211Y-35632
X22157Y-23504
X25157Y-23504
X26173Y-22520
X26211Y-24632
X26211Y-27632
X26211Y-28632
X26211Y-31632
X26211Y-32632
X26211Y-33632
X26211Y-34632
X26211Y-35632
X27211Y-26632
X27211Y-30632
X28195Y-26632
X28195Y-30632
X29173Y-22520
X29211Y-24632
X29211Y-27632
X29211Y-28632
X29211Y-31632
X29211Y-32632
X29211Y-33632
X29211Y-34632
X29211Y-35632
X32323Y-36339
X35323Y-36339
X38539Y-24579
X38539Y-25579
X38539Y-26579
X38539Y-27579
X38539Y-28579
X38539Y-31579
X38539Y-32579
X38539Y-35579
X38961Y-21882
X38961Y-22866
X39555Y-29579
X39555Y-33579
X40539Y-29579
X40539Y-33579
X40961Y-21882
X40961Y-22866
X41539Y-24579
X41539Y-25579
X41539Y-26579
X41539Y-27579
X41539Y-28579
X41539Y-31579
X41539Y-32579
X41539Y-35579
X42539Y-37079
X45539Y-37079
X46539Y-24579
X46539Y-25579
X46539Y-34579
X46555Y-26579
X47539Y-26579
X47555Y-35579
X48039Y-31579
X48039Y-32563
X48539Y-35579
X49039Y-31579
X49039Y-32563
X49539Y-24579
X49539Y-25579
X49539Y-34579
X50539Y-24579
X50539Y-27579
X50539Y-34579
X50539Y-37579
T4
X17211Y-31132
X17711Y-30132
X20211Y-31132
X20711Y-30132
X47039Y-30079
X47539Y-29079
X50039Y-30079
X50539Y-29079
T5
X14961Y-19882
X14961Y-20882
X15961Y-19882
X15961Y-20882
X16961Y-19882
X16961Y-20882
X17961Y-19882
X17961Y-20882
X18961Y-19882
X18961Y-20882
X19211Y-22632
X19211Y-23632
X19961Y-19882
X19961Y-20882
X20211Y-22632
X20211Y-23632
X20961Y-19882
X20961Y-20882
X21961Y-19882
X21961Y-20882
X22961Y-19882
X22961Y-20882
X23961Y-19882
X23961Y-20882
X24961Y-19882
X24961Y-20882
X25961Y-19882
X25961Y-20882
X26961Y-19882
X26961Y-20882
X27961Y-19882
X27961Y-20882
X28961Y-19882
X28961Y-20882
X29961Y-19882
X29961Y-20882
X47539Y-36579
X47539Y-37579
X48539Y-36579
X48539Y-37579
T6
X15461Y-26632
X15461Y-27632
X15461Y-28632
X15461Y-29632
X15461Y-30632
X15461Y-31632
X15461Y-32632
X15461Y-33632
X45711Y-20882
X46711Y-20882
X47711Y-20882
X48711Y-20882
X52289Y-26579
X52289Y-27579
X52289Y-28579
X52289Y-29579
X52289Y-30579
X52289Y-31579
X52289Y-32579
X52289Y-33579
T0
M30
