M48
;DRILL file {KiCad 4.0.7-e2-6376~58~ubuntu16.04.1} date Wed Feb  7 17:30:49 2018
;FORMAT={-:-/ absolute / inch / decimal}
FMAT,2
INCH,TZ
T1C0.025
T2C0.030
T3C0.031
T4C0.035
T5C0.039
T6C0.047
%
G90
G05
M72
T1
X1.3711Y-2.6132
X1.5461Y-3.4632
X1.5711Y-2.4632
X1.6461Y-2.1882
X1.7211Y-2.6632
X1.7211Y-3.1882
X1.7461Y-2.8882
X1.7961Y-3.2632
X1.8211Y-2.4632
X1.8211Y-3.3882
X2.0961Y-3.6632
X2.1711Y-3.0132
X2.2211Y-2.1632
X2.2711Y-3.6632
X2.4211Y-2.7882
X2.5711Y-2.5132
X2.5711Y-3.4132
X2.5711Y-3.5132
X2.6211Y-2.6632
X2.7211Y-3.6382
X2.7561Y-2.5582
X2.8211Y-3.6382
X2.9211Y-3.0382
X3.1461Y-3.4882
X3.1711Y-2.7382
X3.1961Y-2.8132
X3.1961Y-2.8882
X3.1961Y-2.9882
X3.2087Y-2.5689
X3.2211Y-1.9882
X3.2211Y-3.1382
X3.3858Y-1.9882
X3.5512Y-3.0039
X3.6211Y-3.1132
X3.7361Y-3.0082
X3.8539Y-2.9829
X3.9211Y-2.3882
X4.0361Y-3.4582
X4.0961Y-2.3882
X4.1539Y-3.3579
X4.2039Y-2.5079
X4.2039Y-2.6079
X4.2039Y-3.5079
X4.2961Y-2.3132
X4.3209Y-1.9783
X4.4193Y-1.9488
X4.5039Y-2.3579
X4.6039Y-3.0079
X4.6789Y-2.3579
X4.8228Y-1.9488
X4.9213Y-1.9488
X4.9539Y-2.6329
X4.9539Y-3.5579
X4.9789Y-2.7579
X5.0289Y-3.1329
X5.0539Y-2.8329
X5.0539Y-3.3579
X5.2039Y-3.5579
X5.2289Y-2.5579
X5.2756Y-2.0472
T2
X2.2211Y-2.4632
X2.2211Y-2.5632
X2.2211Y-2.6632
X2.2211Y-2.7632
X2.2211Y-2.8632
X2.2211Y-2.9632
X2.2211Y-3.0632
X2.2211Y-3.1632
X2.2211Y-3.2632
X2.2211Y-3.3632
X2.2211Y-3.4632
X2.2211Y-3.5632
X2.5211Y-2.4632
X2.5211Y-2.5632
X2.5211Y-2.6632
X2.5211Y-2.7632
X2.5211Y-2.8632
X2.5211Y-2.9632
X2.5211Y-3.0632
X2.5211Y-3.1632
X2.5211Y-3.2632
X2.5211Y-3.3632
X2.5211Y-3.4632
X2.5211Y-3.5632
X2.6211Y-3.6632
X2.6211Y-3.8632
X2.9211Y-3.6632
X2.9211Y-3.8632
X3.0819Y-2.2606
X3.0819Y-2.3606
X3.0819Y-2.4606
X3.0819Y-2.5606
X3.0819Y-2.6606
X3.0819Y-2.7606
X3.0819Y-2.8606
X3.0819Y-2.9606
X3.0819Y-3.0606
X3.0819Y-3.1606
X3.0819Y-3.2606
X3.0819Y-3.3606
X3.0819Y-3.4606
X3.0819Y-3.5606
X3.0819Y-3.6606
X3.2319Y-3.224
X3.2319Y-3.324
X3.2319Y-3.424
X3.2319Y-3.524
X3.5319Y-3.224
X3.5319Y-3.324
X3.5319Y-3.424
X3.5319Y-3.524
X3.6819Y-2.2606
X3.6819Y-2.3606
X3.6819Y-2.4606
X3.6819Y-2.5606
X3.6819Y-2.6606
X3.6819Y-2.7606
X3.6819Y-2.8606
X3.6819Y-2.9606
X3.6819Y-3.0606
X3.6819Y-3.1606
X3.6819Y-3.2606
X3.6819Y-3.3606
X3.6819Y-3.4606
X3.6819Y-3.5606
X3.6819Y-3.6606
X4.2539Y-2.4579
X4.2539Y-2.5579
X4.2539Y-2.6579
X4.2539Y-2.7579
X4.2539Y-2.8579
X4.2539Y-2.9579
X4.2539Y-3.0579
X4.2539Y-3.1579
X4.2539Y-3.2579
X4.2539Y-3.3579
X4.2539Y-3.4579
X4.2539Y-3.5579
X4.5539Y-2.4579
X4.5539Y-2.5579
X4.5539Y-2.6579
X4.5539Y-2.7579
X4.5539Y-2.8579
X4.5539Y-2.9579
X4.5539Y-3.0579
X4.5539Y-3.1579
X4.5539Y-3.2579
X4.5539Y-3.3579
X4.5539Y-3.4579
X4.5539Y-3.5579
T3
X1.3961Y-2.4882
X1.4461Y-2.2882
X1.4945Y-2.4882
X1.5445Y-2.2882
X1.7211Y-2.2632
X1.7211Y-2.5632
X1.7211Y-3.2632
X1.7211Y-3.5632
X1.8211Y-2.5632
X1.8211Y-3.4632
X1.8211Y-3.5632
X1.8711Y-2.7648
X1.8711Y-2.8632
X1.9211Y-2.4632
X1.9711Y-2.7648
X1.9711Y-2.8632
X2.0195Y-2.4632
X2.0211Y-3.3632
X2.1195Y-3.3632
X2.1211Y-2.5632
X2.1211Y-3.4632
X2.1211Y-3.5632
X2.2157Y-2.3504
X2.5157Y-2.3504
X2.6173Y-2.252
X2.6211Y-2.4632
X2.6211Y-2.7632
X2.6211Y-2.8632
X2.6211Y-3.1632
X2.6211Y-3.2632
X2.6211Y-3.3632
X2.6211Y-3.4632
X2.6211Y-3.5632
X2.7211Y-2.6632
X2.7211Y-3.0632
X2.8195Y-2.6632
X2.8195Y-3.0632
X2.9173Y-2.252
X2.9211Y-2.4632
X2.9211Y-2.7632
X2.9211Y-2.8632
X2.9211Y-3.1632
X2.9211Y-3.2632
X2.9211Y-3.3632
X2.9211Y-3.4632
X2.9211Y-3.5632
X3.2323Y-3.6339
X3.5323Y-3.6339
X3.8539Y-2.4579
X3.8539Y-2.5579
X3.8539Y-2.6579
X3.8539Y-2.7579
X3.8539Y-2.8579
X3.8539Y-3.1579
X3.8539Y-3.2579
X3.8539Y-3.5579
X3.8961Y-2.1882
X3.8961Y-2.2866
X3.9555Y-2.9579
X3.9555Y-3.3579
X4.0539Y-2.9579
X4.0539Y-3.3579
X4.0961Y-2.1882
X4.0961Y-2.2866
X4.1539Y-2.4579
X4.1539Y-2.5579
X4.1539Y-2.6579
X4.1539Y-2.7579
X4.1539Y-2.8579
X4.1539Y-3.1579
X4.1539Y-3.2579
X4.1539Y-3.5579
X4.2539Y-3.7079
X4.5539Y-3.7079
X4.6539Y-2.4579
X4.6539Y-2.5579
X4.6539Y-3.4579
X4.6555Y-2.6579
X4.7539Y-2.6579
X4.7555Y-3.5579
X4.8039Y-3.1579
X4.8039Y-3.2563
X4.8539Y-3.5579
X4.9039Y-3.1579
X4.9039Y-3.2563
X4.9539Y-2.4579
X4.9539Y-2.5579
X4.9539Y-3.4579
X5.0539Y-2.4579
X5.0539Y-2.7579
X5.0539Y-3.4579
X5.0539Y-3.7579
T4
X1.7211Y-3.1132
X1.7711Y-3.0132
X2.0211Y-3.1132
X2.0711Y-3.0132
X4.7039Y-3.0079
X4.7539Y-2.9079
X5.0039Y-3.0079
X5.0539Y-2.9079
T5
X1.4961Y-1.9882
X1.4961Y-2.0882
X1.5961Y-1.9882
X1.5961Y-2.0882
X1.6961Y-1.9882
X1.6961Y-2.0882
X1.7961Y-1.9882
X1.7961Y-2.0882
X1.8961Y-1.9882
X1.8961Y-2.0882
X1.9211Y-2.2632
X1.9211Y-2.3632
X1.9961Y-1.9882
X1.9961Y-2.0882
X2.0211Y-2.2632
X2.0211Y-2.3632
X2.0961Y-1.9882
X2.0961Y-2.0882
X2.1961Y-1.9882
X2.1961Y-2.0882
X2.2961Y-1.9882
X2.2961Y-2.0882
X2.3961Y-1.9882
X2.3961Y-2.0882
X2.4961Y-1.9882
X2.4961Y-2.0882
X2.5961Y-1.9882
X2.5961Y-2.0882
X2.6961Y-1.9882
X2.6961Y-2.0882
X2.7961Y-1.9882
X2.7961Y-2.0882
X2.8961Y-1.9882
X2.8961Y-2.0882
X2.9961Y-1.9882
X2.9961Y-2.0882
X4.7539Y-3.6579
X4.7539Y-3.7579
X4.8539Y-3.6579
X4.8539Y-3.7579
T6
X1.5461Y-2.6632
X1.5461Y-2.7632
X1.5461Y-2.8632
X1.5461Y-2.9632
X1.5461Y-3.0632
X1.5461Y-3.1632
X1.5461Y-3.2632
X1.5461Y-3.3632
X4.3205Y-2.0504
X4.4205Y-2.0504
X4.5205Y-2.0504
X4.6205Y-2.0504
X4.8205Y-2.0504
X4.9205Y-2.0504
X5.0205Y-2.0504
X5.1205Y-2.0504
X5.2289Y-2.6579
X5.2289Y-2.7579
X5.2289Y-2.8579
X5.2289Y-2.9579
X5.2289Y-3.0579
X5.2289Y-3.1579
X5.2289Y-3.2579
X5.2289Y-3.3579
T0
M30
