G04 #@! TF.FileFunction,Copper,L2,Bot,Signal*
%FSLAX46Y46*%
G04 Gerber Fmt 4.6, Leading zero omitted, Abs format (unit mm)*
G04 Created by KiCad (PCBNEW 4.0.6) date 12/04/17 20:43:07*
%MOMM*%
%LPD*%
G01*
G04 APERTURE LIST*
%ADD10C,0.100000*%
%ADD11C,2.000000*%
%ADD12C,1.600000*%
%ADD13R,1.600000X1.600000*%
%ADD14R,1.800000X1.800000*%
%ADD15O,1.800000X1.800000*%
%ADD16R,2.600000X2.000000*%
%ADD17O,2.600000X2.000000*%
%ADD18O,1.600000X1.600000*%
%ADD19R,1.700000X1.700000*%
%ADD20O,1.700000X1.700000*%
%ADD21C,1.500000*%
%ADD22C,1.700000*%
%ADD23C,1.200000*%
%ADD24R,2.000000X2.600000*%
%ADD25O,2.000000X2.600000*%
%ADD26C,0.889000*%
%ADD27C,1.800000*%
%ADD28C,1.400000*%
%ADD29C,0.400000*%
%ADD30C,1.000000*%
%ADD31C,1.200000*%
%ADD32C,1.600000*%
%ADD33C,1.800000*%
%ADD34C,2.000000*%
%ADD35C,1.500000*%
%ADD36C,0.800000*%
%ADD37C,0.600000*%
%ADD38C,1.700000*%
%ADD39C,0.254000*%
G04 APERTURE END LIST*
D10*
D11*
X74195000Y-93045000D03*
X66575000Y-93045000D03*
X66575000Y-98125000D03*
X74195000Y-98125000D03*
D12*
X124560000Y-80210000D03*
X124560000Y-82710000D03*
X47525000Y-72725000D03*
X47525000Y-70225000D03*
X122020000Y-80210000D03*
X122020000Y-82710000D03*
X50065000Y-72725000D03*
X50065000Y-70225000D03*
X123290000Y-90370000D03*
X120790000Y-90370000D03*
X48795000Y-62565000D03*
X51295000Y-62565000D03*
X102970000Y-75130000D03*
X100470000Y-75130000D03*
X69115000Y-77805000D03*
X71615000Y-77805000D03*
X120750000Y-67510000D03*
X118250000Y-67510000D03*
X51335000Y-85425000D03*
X53835000Y-85425000D03*
X102970000Y-85290000D03*
X100470000Y-85290000D03*
X69115000Y-67645000D03*
X71615000Y-67645000D03*
D13*
X36730000Y-58120000D03*
D12*
X39230000Y-58120000D03*
D14*
X127100000Y-76400000D03*
D15*
X119480000Y-76400000D03*
D14*
X44985000Y-76535000D03*
D15*
X52605000Y-76535000D03*
D14*
X120750000Y-73860000D03*
D15*
X128370000Y-73860000D03*
D14*
X51335000Y-79075000D03*
D15*
X43715000Y-79075000D03*
D16*
X132815000Y-67510000D03*
D17*
X132815000Y-70050000D03*
X132815000Y-72590000D03*
X132815000Y-75130000D03*
X132815000Y-77670000D03*
D16*
X39270000Y-85425000D03*
D17*
X39270000Y-82885000D03*
X39270000Y-80345000D03*
X39270000Y-77805000D03*
X39270000Y-75265000D03*
D16*
X132815000Y-80210000D03*
D17*
X132815000Y-82750000D03*
X132815000Y-85290000D03*
D16*
X39270000Y-72725000D03*
D17*
X39270000Y-70185000D03*
X39270000Y-67645000D03*
D12*
X105510000Y-80210000D03*
D18*
X97890000Y-80210000D03*
D12*
X66575000Y-72725000D03*
D18*
X74195000Y-72725000D03*
D12*
X118210000Y-87830000D03*
D18*
X125830000Y-87830000D03*
D12*
X53875000Y-65105000D03*
D18*
X46255000Y-65105000D03*
D12*
X128370000Y-87830000D03*
D18*
X128370000Y-95450000D03*
D12*
X43715000Y-57485000D03*
D18*
X43715000Y-65105000D03*
D12*
X105510000Y-90370000D03*
D18*
X97890000Y-90370000D03*
D12*
X66575000Y-62565000D03*
D18*
X74195000Y-62565000D03*
D12*
X97890000Y-62430000D03*
D18*
X105510000Y-62430000D03*
D12*
X74195000Y-90505000D03*
D18*
X66575000Y-90505000D03*
D12*
X125830000Y-64970000D03*
D18*
X118210000Y-64970000D03*
D12*
X46255000Y-87965000D03*
D18*
X53875000Y-87965000D03*
D12*
X125830000Y-62430000D03*
D18*
X118210000Y-62430000D03*
D12*
X46255000Y-90505000D03*
D18*
X53875000Y-90505000D03*
D12*
X108050000Y-94180000D03*
D18*
X115670000Y-94180000D03*
D12*
X63900000Y-59700000D03*
D18*
X56280000Y-59700000D03*
D12*
X105510000Y-72590000D03*
D18*
X97890000Y-72590000D03*
D12*
X66575000Y-80345000D03*
D18*
X74195000Y-80345000D03*
D12*
X128370000Y-70050000D03*
D18*
X128370000Y-62430000D03*
D12*
X43715000Y-82885000D03*
D18*
X43715000Y-90505000D03*
D12*
X105510000Y-82750000D03*
D18*
X97890000Y-82750000D03*
D12*
X66575000Y-70185000D03*
D18*
X74195000Y-70185000D03*
D12*
X97890000Y-70050000D03*
D18*
X105510000Y-70050000D03*
D12*
X74195000Y-82885000D03*
D18*
X66575000Y-82885000D03*
D12*
X97890000Y-67510000D03*
D18*
X105510000Y-67510000D03*
D12*
X74195000Y-85425000D03*
D18*
X66575000Y-85425000D03*
D12*
X97890000Y-64970000D03*
D18*
X105510000Y-64970000D03*
D12*
X74195000Y-87965000D03*
D18*
X66575000Y-87965000D03*
D13*
X98960000Y-55580000D03*
D12*
X98960000Y-58080000D03*
D19*
X120750000Y-95450000D03*
D20*
X120750000Y-92910000D03*
D19*
X123290000Y-95450000D03*
D20*
X123290000Y-92910000D03*
D19*
X51335000Y-57485000D03*
D20*
X51335000Y-60025000D03*
D19*
X48795000Y-57485000D03*
D20*
X48795000Y-60025000D03*
D21*
X64035000Y-90505000D03*
X64035000Y-87965000D03*
X64035000Y-85425000D03*
X64035000Y-82885000D03*
X56415000Y-82885000D03*
X56415000Y-85425000D03*
X56415000Y-87965000D03*
X56415000Y-90505000D03*
X64035000Y-80345000D03*
X64035000Y-77805000D03*
X64035000Y-75265000D03*
X64035000Y-72725000D03*
X64035000Y-70185000D03*
X64035000Y-67645000D03*
X64035000Y-62565000D03*
X64035000Y-65105000D03*
X56415000Y-62565000D03*
X56415000Y-65105000D03*
X56415000Y-67645000D03*
X56415000Y-70185000D03*
X56415000Y-72725000D03*
X56415000Y-75265000D03*
X56415000Y-77805000D03*
X56415000Y-80345000D03*
X108050000Y-62430000D03*
X108050000Y-64970000D03*
X108050000Y-67510000D03*
X108050000Y-70050000D03*
X115670000Y-70050000D03*
X115670000Y-67510000D03*
X115670000Y-64970000D03*
X115670000Y-62430000D03*
X108050000Y-72590000D03*
X108050000Y-75130000D03*
X108050000Y-77670000D03*
X108050000Y-80210000D03*
X108050000Y-82750000D03*
X108050000Y-85290000D03*
X108050000Y-90370000D03*
X108050000Y-87830000D03*
X115670000Y-90370000D03*
X115670000Y-87830000D03*
X115670000Y-85290000D03*
X115670000Y-82750000D03*
X115670000Y-80210000D03*
X115670000Y-77670000D03*
X115670000Y-75130000D03*
X115670000Y-72590000D03*
D11*
X93520000Y-92980000D03*
X93520000Y-90440000D03*
X93520000Y-87900000D03*
X93520000Y-85360000D03*
X93520000Y-82820000D03*
X93520000Y-80280000D03*
X93520000Y-77740000D03*
D21*
X93520000Y-75200000D03*
X93520000Y-72660000D03*
D11*
X93520000Y-70120000D03*
X93520000Y-67580000D03*
X93520000Y-65040000D03*
X93520000Y-62500000D03*
X93520000Y-59960000D03*
X93520000Y-57420000D03*
D22*
X78280000Y-57420000D03*
D21*
X78280000Y-59960000D03*
X78280000Y-62500000D03*
X78280000Y-65040000D03*
D11*
X78280000Y-67580000D03*
X78280000Y-70120000D03*
X78280000Y-72660000D03*
X78280000Y-75200000D03*
D21*
X78280000Y-77740000D03*
X78280000Y-80280000D03*
D11*
X78280000Y-82820000D03*
X78280000Y-85360000D03*
D22*
X78280000Y-87900000D03*
D11*
X78280000Y-90440000D03*
X78280000Y-92980000D03*
X38000000Y-50500000D03*
X38000000Y-53040000D03*
X40540000Y-50500000D03*
X40540000Y-53040000D03*
X43080000Y-50500000D03*
X43080000Y-53040000D03*
X45620000Y-50500000D03*
X45620000Y-53040000D03*
X48160000Y-50500000D03*
X48160000Y-53040000D03*
X50700000Y-50500000D03*
X50700000Y-53040000D03*
X53240000Y-50500000D03*
X53240000Y-53040000D03*
X55780000Y-50500000D03*
D22*
X55780000Y-53040000D03*
D11*
X58320000Y-50500000D03*
X58320000Y-53040000D03*
X60860000Y-50500000D03*
X60860000Y-53040000D03*
X63400000Y-50500000D03*
X63400000Y-53040000D03*
X65940000Y-50500000D03*
X65940000Y-53040000D03*
X68480000Y-50500000D03*
X68480000Y-53040000D03*
X71020000Y-50500000D03*
X71020000Y-53040000D03*
X73560000Y-50500000D03*
X73560000Y-53040000D03*
X76100000Y-50500000D03*
X76100000Y-53040000D03*
D12*
X104040000Y-55580000D03*
X104040000Y-58080000D03*
X35460000Y-63200000D03*
X37960000Y-63200000D03*
X82100000Y-92300000D03*
D18*
X89720000Y-92300000D03*
D21*
X89710000Y-89510000D03*
X89710000Y-86970000D03*
X89710000Y-84430000D03*
D23*
X89710000Y-81890000D03*
D21*
X82090000Y-81890000D03*
X82090000Y-84430000D03*
X82090000Y-86970000D03*
X82090000Y-89510000D03*
D24*
X116105000Y-53040000D03*
D25*
X118645000Y-53040000D03*
X121185000Y-53040000D03*
X123725000Y-53040000D03*
D12*
X74100000Y-57200000D03*
D18*
X66480000Y-57200000D03*
D26*
X94896000Y-76408000D03*
X102516000Y-87838000D03*
X70004000Y-64978000D03*
X91975000Y-79075000D03*
X118845000Y-59890000D03*
X126465000Y-70050000D03*
X106780000Y-63700000D03*
X128370000Y-71955000D03*
X45620000Y-82885000D03*
X53240000Y-93045000D03*
X43715000Y-80980000D03*
X65305000Y-89235000D03*
X106780000Y-89100000D03*
X106780000Y-66240000D03*
X65305000Y-86695000D03*
X65305000Y-63835000D03*
X104040000Y-60660000D03*
X105510000Y-85290000D03*
X69115000Y-92410000D03*
X66575000Y-67645000D03*
D27*
X109120000Y-58755000D03*
X114400000Y-59890000D03*
X56415000Y-54945000D03*
X81815000Y-50500000D03*
D26*
X132180000Y-90370000D03*
X125830000Y-90370000D03*
X116940000Y-76400000D03*
X127735000Y-79575000D03*
D27*
X34825000Y-66375000D03*
X57685000Y-93045000D03*
X41810000Y-55580000D03*
X61495000Y-70820000D03*
D26*
X55145000Y-76535000D03*
X44350000Y-73360000D03*
X46255000Y-62565000D03*
X39905000Y-62565000D03*
X99595000Y-60660000D03*
X90200000Y-76300000D03*
X43715000Y-67645000D03*
X46255000Y-86060000D03*
X39270000Y-87965000D03*
X74195000Y-77170000D03*
X71655000Y-92410000D03*
X97890000Y-75765000D03*
X132815000Y-64970000D03*
X125830000Y-66875000D03*
X128370000Y-85290000D03*
X79910000Y-88600000D03*
X81815000Y-79710000D03*
X81180000Y-71455000D03*
X107850000Y-50500000D03*
X80545000Y-69550000D03*
X128805000Y-53040000D03*
X81180000Y-73360000D03*
X111660000Y-50500000D03*
X110390000Y-53040000D03*
X81180000Y-75900000D03*
D28*
X115670000Y-85290000D02*
X114400000Y-85290000D01*
D29*
X120075000Y-82710000D02*
X122020000Y-82710000D01*
X118845000Y-81480000D02*
X120075000Y-82710000D01*
X114400000Y-81480000D02*
X118845000Y-81480000D01*
X113765000Y-82115000D02*
X114400000Y-81480000D01*
X113765000Y-84655000D02*
X113765000Y-82115000D01*
X114400000Y-85290000D02*
X113765000Y-84655000D01*
D30*
X120750000Y-73860000D02*
X120750000Y-75130000D01*
D29*
X126465000Y-81480000D02*
X125235000Y-82710000D01*
X126465000Y-79575000D02*
X126465000Y-81480000D01*
X125195000Y-78305000D02*
X126465000Y-79575000D01*
X123925000Y-78305000D02*
X125195000Y-78305000D01*
X120750000Y-75130000D02*
X123925000Y-78305000D01*
X125235000Y-82710000D02*
X124560000Y-82710000D01*
D28*
X124560000Y-82710000D02*
X122020000Y-82710000D01*
D29*
X121980000Y-82750000D02*
X122020000Y-82710000D01*
X50105000Y-70185000D02*
X50065000Y-70225000D01*
D28*
X47525000Y-70225000D02*
X50065000Y-70225000D01*
D29*
X46850000Y-70225000D02*
X47525000Y-70225000D01*
X51335000Y-77805000D02*
X48160000Y-74630000D01*
X48160000Y-74630000D02*
X46890000Y-74630000D01*
X46890000Y-74630000D02*
X45620000Y-73360000D01*
X45620000Y-73360000D02*
X45620000Y-71455000D01*
X45620000Y-71455000D02*
X46850000Y-70225000D01*
D30*
X51335000Y-79075000D02*
X51335000Y-77805000D01*
D29*
X57685000Y-67645000D02*
X58320000Y-68280000D01*
X58320000Y-68280000D02*
X58320000Y-70820000D01*
X58320000Y-70820000D02*
X57685000Y-71455000D01*
X57685000Y-71455000D02*
X53240000Y-71455000D01*
X53240000Y-71455000D02*
X52010000Y-70225000D01*
X52010000Y-70225000D02*
X50065000Y-70225000D01*
D28*
X56415000Y-67645000D02*
X57685000Y-67645000D01*
X120750000Y-95450000D02*
X120750000Y-92910000D01*
X120790000Y-90370000D02*
X120790000Y-92870000D01*
D29*
X120790000Y-92870000D02*
X120750000Y-92910000D01*
D28*
X115670000Y-94180000D02*
X116940000Y-92910000D01*
X116940000Y-92910000D02*
X120750000Y-92910000D01*
X115670000Y-90370000D02*
X115670000Y-94180000D01*
D29*
X108050000Y-87830000D02*
X107920000Y-87700000D01*
D31*
X107920000Y-87700000D02*
X102654000Y-87700000D01*
D29*
X102654000Y-87700000D02*
X102516000Y-87838000D01*
D30*
X94896000Y-76408000D02*
X93688000Y-75200000D01*
D29*
X102524000Y-87830000D02*
X102516000Y-87838000D01*
X93688000Y-75200000D02*
X93520000Y-75200000D01*
D28*
X97890000Y-90370000D02*
X96920000Y-90370000D01*
D30*
X95658000Y-59558000D02*
X93520000Y-57420000D01*
D29*
X95658000Y-73868000D02*
X95658000Y-59558000D01*
X96420000Y-74630000D02*
X95658000Y-73868000D01*
X96420000Y-77678000D02*
X96420000Y-74630000D01*
X95404000Y-78694000D02*
X96420000Y-77678000D01*
X95404000Y-88854000D02*
X95404000Y-78694000D01*
X96920000Y-90370000D02*
X95404000Y-88854000D01*
X64035000Y-65105000D02*
X64230000Y-65300000D01*
D28*
X64230000Y-65300000D02*
X69682000Y-65300000D01*
D29*
X69682000Y-65300000D02*
X70004000Y-64978000D01*
D30*
X91975000Y-79075000D02*
X93310000Y-77740000D01*
D29*
X93310000Y-77740000D02*
X93520000Y-77740000D01*
D30*
X74195000Y-62565000D02*
X74195000Y-65359000D01*
X76608000Y-78608000D02*
X78280000Y-80280000D01*
D29*
X76608000Y-67772000D02*
X76608000Y-78608000D01*
X74195000Y-65359000D02*
X76608000Y-67772000D01*
D28*
X105510000Y-72590000D02*
X102970000Y-75130000D01*
D30*
X105510000Y-72590000D02*
X108050000Y-70050000D01*
X66575000Y-80345000D02*
X64035000Y-82885000D01*
X66575000Y-80345000D02*
X69115000Y-77805000D01*
D28*
X128370000Y-61795000D02*
X128370000Y-62430000D01*
X127100000Y-60525000D02*
X128370000Y-61795000D01*
D29*
X124560000Y-60525000D02*
X127100000Y-60525000D01*
X120750000Y-64335000D02*
X124560000Y-60525000D01*
X120750000Y-67510000D02*
X120750000Y-64335000D01*
D28*
X115670000Y-67510000D02*
X118250000Y-67510000D01*
D29*
X51335000Y-85425000D02*
X51335000Y-88600000D01*
X51335000Y-88600000D02*
X47525000Y-92410000D01*
X47525000Y-92410000D02*
X44985000Y-92410000D01*
D30*
X44985000Y-92410000D02*
X43715000Y-91140000D01*
D29*
X43715000Y-91140000D02*
X43715000Y-90505000D01*
D28*
X56415000Y-85425000D02*
X53835000Y-85425000D01*
D30*
X102970000Y-85290000D02*
X105510000Y-82750000D01*
D28*
X105510000Y-82750000D02*
X108050000Y-82750000D01*
X66575000Y-70185000D02*
X64035000Y-70185000D01*
D30*
X69115000Y-67645000D02*
X66575000Y-70185000D01*
X128370000Y-70050000D02*
X127100000Y-71320000D01*
D29*
X127100000Y-72590000D02*
X128370000Y-73860000D01*
X127100000Y-71320000D02*
X127100000Y-72590000D01*
D28*
X127100000Y-76400000D02*
X127100000Y-75130000D01*
X127100000Y-75130000D02*
X128370000Y-73860000D01*
X44985000Y-77805000D02*
X43715000Y-79075000D01*
X44985000Y-76535000D02*
X44985000Y-77805000D01*
D29*
X44985000Y-81615000D02*
X44985000Y-80345000D01*
X44985000Y-80345000D02*
X43715000Y-79075000D01*
D30*
X43715000Y-82885000D02*
X44985000Y-81615000D01*
D29*
X118210000Y-60525000D02*
X118210000Y-62430000D01*
X118845000Y-59890000D02*
X118210000Y-60525000D01*
X127735000Y-68780000D02*
X126465000Y-70050000D01*
X129005000Y-68780000D02*
X127735000Y-68780000D01*
X130275000Y-70050000D02*
X129005000Y-68780000D01*
D32*
X132815000Y-70050000D02*
X130275000Y-70050000D01*
D28*
X115670000Y-62430000D02*
X118210000Y-62430000D01*
D33*
X132815000Y-72590000D02*
X130275000Y-72590000D01*
D30*
X106780000Y-63700000D02*
X108050000Y-62430000D01*
D29*
X129640000Y-71955000D02*
X128370000Y-71955000D01*
X130275000Y-72590000D02*
X129640000Y-71955000D01*
D28*
X105510000Y-62430000D02*
X108050000Y-62430000D01*
D29*
X129005000Y-77035000D02*
X130910000Y-75130000D01*
X129005000Y-77035000D02*
X127735000Y-78305000D01*
X127735000Y-78305000D02*
X126465000Y-78305000D01*
X126465000Y-78305000D02*
X122655000Y-74495000D01*
X122655000Y-74495000D02*
X122655000Y-73225000D01*
X122655000Y-73225000D02*
X120750000Y-71320000D01*
X120750000Y-71320000D02*
X115035000Y-71320000D01*
X115035000Y-71320000D02*
X113765000Y-70050000D01*
X113765000Y-70050000D02*
X113765000Y-66875000D01*
X115670000Y-64970000D02*
X113765000Y-66875000D01*
D34*
X130910000Y-75130000D02*
X132815000Y-75130000D01*
D28*
X115670000Y-64970000D02*
X118210000Y-64970000D01*
X56415000Y-90505000D02*
X53875000Y-90505000D01*
D35*
X39270000Y-82885000D02*
X41810000Y-82885000D01*
D29*
X41810000Y-82885000D02*
X43080000Y-84155000D01*
X43080000Y-84155000D02*
X44350000Y-84155000D01*
X44350000Y-84155000D02*
X45620000Y-82885000D01*
X53240000Y-93045000D02*
X53875000Y-92410000D01*
X53875000Y-92410000D02*
X53875000Y-90505000D01*
D28*
X66575000Y-90505000D02*
X64035000Y-90505000D01*
D29*
X41810000Y-80345000D02*
X42445000Y-80980000D01*
X42445000Y-80980000D02*
X43715000Y-80980000D01*
D30*
X65305000Y-89235000D02*
X64035000Y-90505000D01*
D34*
X39270000Y-80345000D02*
X41810000Y-80345000D01*
D28*
X56415000Y-87965000D02*
X53875000Y-87965000D01*
D29*
X42445000Y-77805000D02*
X43080000Y-77170000D01*
X43080000Y-77170000D02*
X43080000Y-75900000D01*
X43080000Y-75900000D02*
X44350000Y-74630000D01*
X44350000Y-74630000D02*
X45620000Y-74630000D01*
X45620000Y-74630000D02*
X49430000Y-78440000D01*
X49430000Y-78440000D02*
X49430000Y-79710000D01*
X49430000Y-79710000D02*
X51335000Y-81615000D01*
X51335000Y-81615000D02*
X57050000Y-81615000D01*
X57050000Y-81615000D02*
X58320000Y-82885000D01*
X58320000Y-82885000D02*
X58320000Y-86060000D01*
X58320000Y-86060000D02*
X56415000Y-87965000D01*
D31*
X39270000Y-77805000D02*
X42445000Y-77805000D01*
D30*
X115670000Y-82750000D02*
X117575000Y-82750000D01*
D34*
X129640000Y-80210000D02*
X132815000Y-80210000D01*
D30*
X128370000Y-81480000D02*
X129640000Y-80210000D01*
X128370000Y-82750000D02*
X128370000Y-81480000D01*
X125830000Y-85290000D02*
X128370000Y-82750000D01*
X120115000Y-85290000D02*
X125830000Y-85290000D01*
X117575000Y-82750000D02*
X120115000Y-85290000D01*
X134085000Y-63700000D02*
X133185000Y-62800000D01*
X130910000Y-63700000D02*
X129640000Y-64970000D01*
X135990000Y-65605000D02*
X135990000Y-81480000D01*
X135990000Y-81480000D02*
X134720000Y-82750000D01*
D34*
X132815000Y-82750000D02*
X134720000Y-82750000D01*
D30*
X124560000Y-70050000D02*
X115670000Y-70050000D01*
X124560000Y-70050000D02*
X129640000Y-64970000D01*
X135990000Y-65605000D02*
X134085000Y-63700000D01*
X131810000Y-62800000D02*
X130910000Y-63700000D01*
X133185000Y-62800000D02*
X131810000Y-62800000D01*
X112495000Y-59255000D02*
X113765000Y-57985000D01*
X112495000Y-59255000D02*
X109955000Y-61795000D01*
X109955000Y-61795000D02*
X109955000Y-63700000D01*
X108685000Y-72590000D02*
X109955000Y-71320000D01*
D34*
X135990000Y-85290000D02*
X132815000Y-85290000D01*
D30*
X137895000Y-83385000D02*
X135990000Y-85290000D01*
X137895000Y-64970000D02*
X137895000Y-83385000D01*
X132180000Y-59255000D02*
X137895000Y-64970000D01*
X109955000Y-71320000D02*
X109955000Y-63700000D01*
X130910000Y-57985000D02*
X132180000Y-59255000D01*
X113765000Y-57985000D02*
X130910000Y-57985000D01*
X108050000Y-72590000D02*
X108685000Y-72590000D01*
X54510000Y-70185000D02*
X51970000Y-67645000D01*
X51970000Y-67645000D02*
X46255000Y-67645000D01*
X46255000Y-67645000D02*
X43715000Y-70185000D01*
X43715000Y-70185000D02*
X43715000Y-71455000D01*
X43715000Y-71455000D02*
X42445000Y-72725000D01*
D34*
X42445000Y-72725000D02*
X39270000Y-72725000D01*
D30*
X56415000Y-70185000D02*
X54510000Y-70185000D01*
X38000000Y-89235000D02*
X38765000Y-90000000D01*
X36095000Y-87330000D02*
X38000000Y-89235000D01*
X47525000Y-82885000D02*
X42445000Y-87965000D01*
X56415000Y-82885000D02*
X47525000Y-82885000D01*
D34*
X37365000Y-70185000D02*
X39270000Y-70185000D01*
D30*
X36095000Y-71455000D02*
X37365000Y-70185000D01*
X36095000Y-87330000D02*
X36095000Y-71455000D01*
X41175000Y-89235000D02*
X42445000Y-87965000D01*
X40410000Y-90000000D02*
X41175000Y-89235000D01*
X38765000Y-90000000D02*
X40410000Y-90000000D01*
X34190000Y-87965000D02*
X33655000Y-87430000D01*
X59590000Y-93680000D02*
X58320000Y-94950000D01*
X59590000Y-93680000D02*
X62130000Y-91140000D01*
X62130000Y-91140000D02*
X62130000Y-89235000D01*
X63400000Y-80345000D02*
X62130000Y-81615000D01*
X36095000Y-67645000D02*
X39270000Y-67645000D01*
X34190000Y-69550000D02*
X36095000Y-67645000D01*
X39905000Y-93680000D02*
X34190000Y-87965000D01*
X62130000Y-81615000D02*
X62130000Y-89235000D01*
X41175000Y-94950000D02*
X39905000Y-93680000D01*
X58320000Y-94950000D02*
X41175000Y-94950000D01*
X33655000Y-70085000D02*
X34190000Y-69550000D01*
X33655000Y-87430000D02*
X33655000Y-70085000D01*
X64035000Y-80345000D02*
X63400000Y-80345000D01*
D28*
X105510000Y-80210000D02*
X108050000Y-80210000D01*
X66575000Y-72725000D02*
X64035000Y-72725000D01*
D30*
X108050000Y-64970000D02*
X106780000Y-66240000D01*
X106780000Y-89100000D02*
X108050000Y-90370000D01*
D28*
X105510000Y-90370000D02*
X108050000Y-90370000D01*
X66575000Y-62565000D02*
X64035000Y-62565000D01*
D30*
X65305000Y-63835000D02*
X64035000Y-62565000D01*
X64035000Y-87965000D02*
X65305000Y-86695000D01*
D28*
X104040000Y-63835000D02*
X105175000Y-64970000D01*
D29*
X104040000Y-60660000D02*
X104040000Y-63835000D01*
X105175000Y-64970000D02*
X105510000Y-64970000D01*
D28*
X108050000Y-85290000D02*
X105510000Y-85290000D01*
D29*
X104875000Y-67510000D02*
X105510000Y-67510000D01*
D30*
X108050000Y-67510000D02*
X105510000Y-67510000D01*
X105510000Y-64970000D02*
X105510000Y-67510000D01*
D28*
X105510000Y-67510000D02*
X105510000Y-70050000D01*
X66575000Y-85425000D02*
X66575000Y-82885000D01*
D30*
X66575000Y-87965000D02*
X66575000Y-85425000D01*
X64035000Y-85425000D02*
X66575000Y-85425000D01*
D29*
X67210000Y-85425000D02*
X66575000Y-85425000D01*
X69115000Y-90505000D02*
X66575000Y-87965000D01*
D28*
X64035000Y-67645000D02*
X66575000Y-67645000D01*
D29*
X69115000Y-92410000D02*
X69115000Y-90505000D01*
D28*
X123290000Y-95450000D02*
X128370000Y-95450000D01*
X56415000Y-62565000D02*
X56415000Y-59835000D01*
D29*
X56415000Y-59835000D02*
X56280000Y-59700000D01*
D28*
X55955000Y-60025000D02*
X55145000Y-60025000D01*
X55145000Y-60025000D02*
X51335000Y-60025000D01*
D29*
X55955000Y-60025000D02*
X56280000Y-59700000D01*
X51295000Y-60065000D02*
X51335000Y-60025000D01*
D28*
X51295000Y-62565000D02*
X51295000Y-60065000D01*
X51335000Y-57485000D02*
X51335000Y-60025000D01*
X48795000Y-57485000D02*
X43715000Y-57485000D01*
X115670000Y-87830000D02*
X118210000Y-87830000D01*
X56415000Y-65105000D02*
X53875000Y-65105000D01*
D30*
X104040000Y-55580000D02*
X105945000Y-55580000D01*
X113130000Y-72590000D02*
X115670000Y-72590000D01*
X111860000Y-62430000D02*
X114400000Y-59890000D01*
X111860000Y-71320000D02*
X111860000Y-62430000D01*
X113130000Y-72590000D02*
X111860000Y-71320000D01*
X105945000Y-55580000D02*
X109120000Y-58755000D01*
X98960000Y-55580000D02*
X104040000Y-55580000D01*
X98960000Y-55580000D02*
X97690000Y-55580000D01*
X43080000Y-54310000D02*
X43080000Y-53040000D01*
X43080000Y-54310000D02*
X43715000Y-54945000D01*
X43715000Y-54945000D02*
X56415000Y-54945000D01*
X84355000Y-53040000D02*
X81815000Y-50500000D01*
X95150000Y-53040000D02*
X84355000Y-53040000D01*
X97690000Y-55580000D02*
X95150000Y-53040000D01*
D34*
X43080000Y-50500000D02*
X43080000Y-53040000D01*
D30*
X122020000Y-80210000D02*
X119480000Y-77670000D01*
X116940000Y-72590000D02*
X117575000Y-73225000D01*
X117575000Y-73225000D02*
X117575000Y-74495000D01*
X117575000Y-74495000D02*
X119480000Y-76400000D01*
X115670000Y-72590000D02*
X116940000Y-72590000D01*
X118210000Y-78940000D02*
X119480000Y-77670000D01*
X115670000Y-80210000D02*
X116940000Y-80210000D01*
X116940000Y-80210000D02*
X118210000Y-78940000D01*
X119480000Y-77670000D02*
X119480000Y-76400000D01*
X124560000Y-80210000D02*
X122020000Y-80210000D01*
X101500000Y-61930000D02*
X101500000Y-60620000D01*
X100470000Y-73120000D02*
X101500000Y-72090000D01*
X101500000Y-72090000D02*
X101500000Y-61930000D01*
X100470000Y-75130000D02*
X100470000Y-73120000D01*
X101500000Y-60620000D02*
X104040000Y-58080000D01*
X98960000Y-58080000D02*
X104040000Y-58080000D01*
X78640000Y-49865000D02*
X82450000Y-53675000D01*
X77370000Y-48595000D02*
X78640000Y-49865000D01*
X58320000Y-48595000D02*
X77370000Y-48595000D01*
X46255000Y-48595000D02*
X58320000Y-48595000D01*
X45620000Y-49230000D02*
X46255000Y-48595000D01*
X45620000Y-50500000D02*
X45620000Y-49230000D01*
X97015000Y-58080000D02*
X98960000Y-58080000D01*
X93880000Y-54945000D02*
X97015000Y-58080000D01*
X83720000Y-54945000D02*
X93880000Y-54945000D01*
X82450000Y-53675000D02*
X83720000Y-54945000D01*
D34*
X45620000Y-53040000D02*
X45620000Y-50500000D01*
D29*
X97890000Y-82750000D02*
X99795000Y-80845000D01*
X99795000Y-79575000D02*
X101700000Y-77670000D01*
X99795000Y-80845000D02*
X99795000Y-79575000D01*
D28*
X123290000Y-90370000D02*
X125830000Y-90370000D01*
X129640000Y-87830000D02*
X128370000Y-87830000D01*
D29*
X132180000Y-90370000D02*
X129640000Y-87830000D01*
D30*
X116940000Y-76400000D02*
X115670000Y-77670000D01*
D29*
X115670000Y-77670000D02*
X115670000Y-75130000D01*
X115670000Y-75130000D02*
X108050000Y-75130000D01*
X108050000Y-75130000D02*
X108050000Y-77670000D01*
X108050000Y-77670000D02*
X101700000Y-77670000D01*
X100470000Y-76440000D02*
X100470000Y-75130000D01*
X101700000Y-77670000D02*
X100470000Y-76440000D01*
D28*
X97890000Y-72590000D02*
X97890000Y-70050000D01*
X97890000Y-70050000D02*
X97890000Y-67510000D01*
X97890000Y-64970000D02*
X97890000Y-67510000D01*
D29*
X100470000Y-85290000D02*
X100430000Y-85290000D01*
D28*
X100430000Y-85290000D02*
X97890000Y-82750000D01*
D29*
X100470000Y-75130000D02*
X100430000Y-75130000D01*
D28*
X100430000Y-75130000D02*
X97890000Y-72590000D01*
D36*
X132815000Y-77670000D02*
X129640000Y-77670000D01*
D29*
X129640000Y-77670000D02*
X127735000Y-79575000D01*
D30*
X34825000Y-66375000D02*
X34825000Y-64470000D01*
X35460000Y-63835000D02*
X34825000Y-64470000D01*
X58955000Y-80345000D02*
X56415000Y-80345000D01*
X60225000Y-90505000D02*
X57685000Y-93045000D01*
X60225000Y-81615000D02*
X60225000Y-90505000D01*
X58955000Y-80345000D02*
X60225000Y-81615000D01*
D34*
X38000000Y-50500000D02*
X38000000Y-53040000D01*
D30*
X36730000Y-58120000D02*
X36730000Y-54310000D01*
X36730000Y-54310000D02*
X38000000Y-53040000D01*
X35460000Y-63200000D02*
X35460000Y-59390000D01*
X35460000Y-59390000D02*
X36730000Y-58120000D01*
X35460000Y-63835000D02*
X35460000Y-63200000D01*
X47525000Y-72725000D02*
X50065000Y-72725000D01*
X52605000Y-75265000D02*
X52605000Y-76535000D01*
X55145000Y-72725000D02*
X53875000Y-73995000D01*
X56415000Y-72725000D02*
X55145000Y-72725000D01*
X53875000Y-73995000D02*
X52605000Y-75265000D01*
X54510000Y-79710000D02*
X54510000Y-78440000D01*
X55145000Y-80345000D02*
X54510000Y-79710000D01*
X56415000Y-80345000D02*
X55145000Y-80345000D01*
X54510000Y-78440000D02*
X52605000Y-76535000D01*
X50065000Y-72725000D02*
X52605000Y-75265000D01*
D37*
X39270000Y-75265000D02*
X42445000Y-75265000D01*
D29*
X42445000Y-75265000D02*
X44350000Y-73360000D01*
X64035000Y-77805000D02*
X64035000Y-75265000D01*
D30*
X41770000Y-55580000D02*
X41810000Y-55580000D01*
X39230000Y-58120000D02*
X41770000Y-55580000D01*
X62765000Y-75265000D02*
X64035000Y-75265000D01*
X61495000Y-73995000D02*
X62765000Y-75265000D01*
X61495000Y-70820000D02*
X61495000Y-73995000D01*
X39230000Y-58120000D02*
X39230000Y-59430000D01*
X37960000Y-60700000D02*
X37960000Y-63200000D01*
X39230000Y-59430000D02*
X37960000Y-60700000D01*
X40540000Y-53040000D02*
X40540000Y-56810000D01*
X40540000Y-56810000D02*
X39230000Y-58120000D01*
D34*
X40540000Y-50500000D02*
X40540000Y-53040000D01*
D30*
X71655000Y-77805000D02*
X74195000Y-80345000D01*
D29*
X71615000Y-77805000D02*
X71655000Y-77805000D01*
D30*
X71655000Y-67645000D02*
X74195000Y-70185000D01*
D29*
X71615000Y-67645000D02*
X71655000Y-67645000D01*
D28*
X74195000Y-87965000D02*
X74195000Y-85425000D01*
X74195000Y-82885000D02*
X74195000Y-85425000D01*
X74195000Y-80345000D02*
X74195000Y-82885000D01*
D29*
X70385000Y-75265000D02*
X71615000Y-76495000D01*
X71615000Y-76495000D02*
X71615000Y-77805000D01*
X64035000Y-75265000D02*
X70385000Y-75265000D01*
X56415000Y-77805000D02*
X64035000Y-77805000D01*
X56415000Y-75265000D02*
X56415000Y-77805000D01*
X55145000Y-76535000D02*
X56415000Y-75265000D01*
X39905000Y-62565000D02*
X42445000Y-65105000D01*
D28*
X42445000Y-65105000D02*
X43715000Y-65105000D01*
X48795000Y-62565000D02*
X46255000Y-62565000D01*
D29*
X72290000Y-72090000D02*
X72290000Y-73360000D01*
X72290000Y-73360000D02*
X70385000Y-75265000D01*
D30*
X74195000Y-70185000D02*
X72290000Y-72090000D01*
D29*
X72925000Y-90505000D02*
X74195000Y-90505000D01*
X63900000Y-59700000D02*
X58320000Y-54120000D01*
X58320000Y-54120000D02*
X58320000Y-53040000D01*
D28*
X99160000Y-62430000D02*
X97890000Y-62430000D01*
D29*
X99595000Y-61995000D02*
X99160000Y-62430000D01*
X99595000Y-60660000D02*
X99595000Y-61995000D01*
X62305000Y-61295000D02*
X59765000Y-63835000D01*
X63900000Y-59700000D02*
X62305000Y-61295000D01*
X51970000Y-65105000D02*
X53240000Y-63835000D01*
X53240000Y-63835000D02*
X58955000Y-63835000D01*
X51970000Y-65105000D02*
X46255000Y-65105000D01*
X59765000Y-63835000D02*
X58955000Y-63835000D01*
X75465000Y-68280000D02*
X66885000Y-59700000D01*
X66885000Y-59700000D02*
X63900000Y-59700000D01*
D30*
X74195000Y-72725000D02*
X75465000Y-71455000D01*
D29*
X75465000Y-71455000D02*
X75465000Y-68280000D01*
X90200000Y-76300000D02*
X90200000Y-79600000D01*
X89710000Y-84430000D02*
X91600000Y-82540000D01*
X91600000Y-81000000D02*
X91600000Y-82540000D01*
X90200000Y-79600000D02*
X91600000Y-81000000D01*
X78280000Y-85360000D02*
X78280000Y-85380000D01*
X78280000Y-85380000D02*
X81100000Y-88200000D01*
D28*
X86570000Y-84430000D02*
X89710000Y-84430000D01*
D29*
X82800000Y-88200000D02*
X86570000Y-84430000D01*
X81100000Y-88200000D02*
X82800000Y-88200000D01*
X78280000Y-85360000D02*
X77940000Y-85360000D01*
D30*
X77940000Y-85360000D02*
X76735000Y-84155000D01*
D29*
X76735000Y-84155000D02*
X76735000Y-80345000D01*
X76735000Y-80345000D02*
X74195000Y-77805000D01*
X74195000Y-77805000D02*
X74195000Y-77170000D01*
D34*
X58320000Y-50500000D02*
X58320000Y-53040000D01*
D30*
X46255000Y-65105000D02*
X43715000Y-67645000D01*
D29*
X45620000Y-60025000D02*
X44350000Y-61295000D01*
D28*
X48795000Y-60025000D02*
X45620000Y-60025000D01*
D29*
X44350000Y-63200000D02*
X46255000Y-65105000D01*
X44350000Y-61295000D02*
X44350000Y-63200000D01*
X46255000Y-86060000D02*
X46255000Y-87965000D01*
D28*
X46255000Y-90505000D02*
X46255000Y-87965000D01*
D35*
X39270000Y-85425000D02*
X39270000Y-87965000D01*
D29*
X71655000Y-92410000D02*
X71655000Y-91775000D01*
X71655000Y-91775000D02*
X72925000Y-90505000D01*
X74195000Y-72725000D02*
X74195000Y-77170000D01*
X97890000Y-80210000D02*
X97890000Y-75765000D01*
X113130000Y-89100000D02*
X108050000Y-94180000D01*
X118845000Y-89100000D02*
X113130000Y-89100000D01*
D30*
X97890000Y-80210000D02*
X96620000Y-81480000D01*
D29*
X96620000Y-81480000D02*
X96620000Y-84655000D01*
X96620000Y-84655000D02*
X106145000Y-94180000D01*
D28*
X106145000Y-94180000D02*
X108050000Y-94180000D01*
D32*
X132815000Y-67510000D02*
X132815000Y-64970000D01*
D28*
X125830000Y-62430000D02*
X125830000Y-64970000D01*
D30*
X125830000Y-66875000D02*
X125830000Y-64970000D01*
D28*
X123290000Y-92910000D02*
X126465000Y-92910000D01*
D29*
X127735000Y-89735000D02*
X125830000Y-87830000D01*
X127735000Y-91640000D02*
X127735000Y-89735000D01*
X126465000Y-92910000D02*
X127735000Y-91640000D01*
D30*
X125830000Y-87830000D02*
X128370000Y-85290000D01*
D29*
X125830000Y-87830000D02*
X120115000Y-87830000D01*
X120115000Y-87830000D02*
X118845000Y-89100000D01*
D34*
X48160000Y-50500000D02*
X48160000Y-53040000D01*
X50700000Y-50500000D02*
X50700000Y-53040000D01*
X53240000Y-50500000D02*
X53240000Y-53040000D01*
D38*
X55780000Y-50500000D02*
X55780000Y-53040000D01*
D34*
X66575000Y-98125000D02*
X74195000Y-98125000D01*
D29*
X75270000Y-61100000D02*
X74870000Y-60700000D01*
X65450000Y-58900000D02*
X67300000Y-58900000D01*
X75270000Y-61100000D02*
X76100000Y-61930000D01*
X81815000Y-65740000D02*
X80545000Y-64470000D01*
X79910000Y-63835000D02*
X80545000Y-64470000D01*
X83085000Y-67010000D02*
X81815000Y-65740000D01*
X77370000Y-63835000D02*
X79910000Y-63835000D01*
X83085000Y-78440000D02*
X83085000Y-67010000D01*
X82450000Y-79075000D02*
X83085000Y-78440000D01*
X76100000Y-61930000D02*
X76100000Y-62565000D01*
X76100000Y-62565000D02*
X77370000Y-63835000D01*
X60860000Y-53040000D02*
X60860000Y-54310000D01*
X60860000Y-54310000D02*
X63400000Y-56850000D01*
X79910000Y-88600000D02*
X78280000Y-90230000D01*
X81815000Y-79710000D02*
X82450000Y-79075000D01*
X63400000Y-56850000D02*
X65450000Y-58900000D01*
X69900000Y-58900000D02*
X67300000Y-58900000D01*
X71700000Y-60700000D02*
X69900000Y-58900000D01*
X72300000Y-60700000D02*
X71700000Y-60700000D01*
X74870000Y-60700000D02*
X72300000Y-60700000D01*
X74195000Y-98125000D02*
X76275000Y-98125000D01*
X76275000Y-98125000D02*
X82100000Y-92300000D01*
X78280000Y-90230000D02*
X78280000Y-90440000D01*
X78280000Y-90440000D02*
X78280000Y-90230000D01*
X78280000Y-90440000D02*
X80240000Y-90440000D01*
X80240000Y-90440000D02*
X82100000Y-92300000D01*
X91340000Y-90505000D02*
X91340000Y-93045000D01*
X91340000Y-93045000D02*
X90070000Y-94315000D01*
X90070000Y-94315000D02*
X84115000Y-94315000D01*
X84115000Y-94315000D02*
X82100000Y-92300000D01*
X89710000Y-86970000D02*
X91340000Y-88600000D01*
X91340000Y-90505000D02*
X91340000Y-88600000D01*
X89710000Y-86970000D02*
X91910000Y-86970000D01*
D30*
X91910000Y-86970000D02*
X93520000Y-85360000D01*
D34*
X60860000Y-50500000D02*
X60860000Y-53040000D01*
X63400000Y-50500000D02*
X63400000Y-53040000D01*
X65940000Y-50500000D02*
X65940000Y-53040000D01*
D29*
X68480000Y-54900000D02*
X66480000Y-56900000D01*
X66480000Y-56900000D02*
X66480000Y-57200000D01*
X72290000Y-58755000D02*
X70735000Y-57200000D01*
X84990000Y-81615000D02*
X84990000Y-65740000D01*
X84990000Y-65740000D02*
X84355000Y-65105000D01*
X83405000Y-83200000D02*
X81400000Y-83200000D01*
X81400000Y-83200000D02*
X80545000Y-84055000D01*
X80545000Y-84055000D02*
X80545000Y-85425000D01*
X80545000Y-61295000D02*
X83085000Y-63835000D01*
X74830000Y-58755000D02*
X72290000Y-58755000D01*
X80545000Y-61295000D02*
X77370000Y-61295000D01*
X77370000Y-61295000D02*
X74830000Y-58755000D01*
X84355000Y-82250000D02*
X83720000Y-82885000D01*
D30*
X82090000Y-86970000D02*
X80545000Y-85425000D01*
D29*
X83720000Y-82885000D02*
X83405000Y-83200000D01*
X84355000Y-65105000D02*
X83085000Y-63835000D01*
X84355000Y-82250000D02*
X84990000Y-81615000D01*
D30*
X70735000Y-57200000D02*
X66480000Y-57200000D01*
D29*
X68480000Y-54945000D02*
X68480000Y-54900000D01*
X68480000Y-54900000D02*
X68480000Y-53040000D01*
D34*
X68480000Y-50500000D02*
X68480000Y-53040000D01*
D29*
X76735000Y-58755000D02*
X75180000Y-57200000D01*
X86895000Y-81615000D02*
X86895000Y-64470000D01*
X86895000Y-64470000D02*
X85625000Y-63200000D01*
D28*
X82090000Y-84430000D02*
X84080000Y-84430000D01*
D29*
X76735000Y-58755000D02*
X81180000Y-58755000D01*
X81180000Y-58755000D02*
X85625000Y-63200000D01*
X84080000Y-84430000D02*
X85625000Y-82885000D01*
X85625000Y-82885000D02*
X86895000Y-81615000D01*
D30*
X75180000Y-57200000D02*
X74100000Y-57200000D01*
D29*
X74100000Y-57200000D02*
X71020000Y-54120000D01*
X71020000Y-54120000D02*
X71020000Y-53040000D01*
D34*
X71020000Y-50500000D02*
X71020000Y-53040000D01*
X73560000Y-50500000D02*
X73560000Y-53040000D01*
X76100000Y-50500000D02*
X76100000Y-53040000D01*
D28*
X82090000Y-89510000D02*
X83995000Y-89510000D01*
X86785000Y-92300000D02*
X89720000Y-92300000D01*
D29*
X83995000Y-89510000D02*
X86785000Y-92300000D01*
X87900000Y-88300000D02*
X87900000Y-88600000D01*
D30*
X93520000Y-82820000D02*
X90640000Y-85700000D01*
D29*
X88700000Y-85700000D02*
X90640000Y-85700000D01*
X87900000Y-86500000D02*
X88700000Y-85700000D01*
X87900000Y-88300000D02*
X87900000Y-86500000D01*
D28*
X88810000Y-89510000D02*
X89110000Y-89510000D01*
D29*
X87900000Y-88600000D02*
X88810000Y-89510000D01*
D28*
X89110000Y-89510000D02*
X89710000Y-89510000D01*
X89710000Y-89510000D02*
X89110000Y-89510000D01*
X89710000Y-81890000D02*
X88800000Y-80980000D01*
X90770000Y-62500000D02*
X93520000Y-62500000D01*
D29*
X88800000Y-64470000D02*
X90770000Y-62500000D01*
X88800000Y-80980000D02*
X88800000Y-64470000D01*
X79275000Y-65105000D02*
X81180000Y-67010000D01*
D28*
X78345000Y-65105000D02*
X79275000Y-65105000D01*
D29*
X81180000Y-67010000D02*
X81815000Y-67645000D01*
X81815000Y-67645000D02*
X81815000Y-70185000D01*
X81815000Y-70185000D02*
X81815000Y-70820000D01*
X81815000Y-70820000D02*
X81180000Y-71455000D01*
D34*
X121185000Y-50500000D02*
X121185000Y-53040000D01*
D29*
X119915000Y-49230000D02*
X121185000Y-50500000D01*
X109120000Y-49230000D02*
X119915000Y-49230000D01*
X107850000Y-50500000D02*
X109120000Y-49230000D01*
X78280000Y-65040000D02*
X78345000Y-65105000D01*
D30*
X78280000Y-67580000D02*
X80250000Y-69550000D01*
D29*
X80250000Y-69550000D02*
X80545000Y-69550000D01*
D34*
X128805000Y-53040000D02*
X123725000Y-53040000D01*
D31*
X78280000Y-72660000D02*
X78980000Y-73360000D01*
D29*
X78980000Y-73360000D02*
X81180000Y-73360000D01*
D34*
X118645000Y-51135000D02*
X118645000Y-53040000D01*
D29*
X118010000Y-50500000D02*
X118645000Y-51135000D01*
X111660000Y-50500000D02*
X118010000Y-50500000D01*
X78280000Y-72660000D02*
X78345000Y-72725000D01*
D34*
X116105000Y-53040000D02*
X110390000Y-53040000D01*
D28*
X79910000Y-77805000D02*
X78345000Y-77805000D01*
D29*
X79910000Y-77805000D02*
X81180000Y-76535000D01*
X81180000Y-75900000D02*
X81180000Y-76535000D01*
X78280000Y-77740000D02*
X78345000Y-77805000D01*
X74195000Y-93045000D02*
X75465000Y-93045000D01*
X76100000Y-90080000D02*
X78280000Y-87900000D01*
X76100000Y-92410000D02*
X76100000Y-90080000D01*
X75465000Y-93045000D02*
X76100000Y-92410000D01*
D32*
X66575000Y-93045000D02*
X68480000Y-94950000D01*
X72290000Y-94950000D02*
X74195000Y-93045000D01*
X71020000Y-94950000D02*
X72290000Y-94950000D01*
X68480000Y-94950000D02*
X71020000Y-94950000D01*
D39*
G36*
X138263459Y-47949738D02*
X139334568Y-48665429D01*
X140050262Y-49736540D01*
X140315000Y-51067467D01*
X140315000Y-101315000D01*
X94127000Y-101315000D01*
X94127000Y-98000000D01*
X134715000Y-98000000D01*
X134888935Y-98874432D01*
X135384261Y-99615739D01*
X136125568Y-100111065D01*
X137000000Y-100285000D01*
X137874432Y-100111065D01*
X138615739Y-99615739D01*
X139111065Y-98874432D01*
X139285000Y-98000000D01*
X139111065Y-97125568D01*
X138615739Y-96384261D01*
X137874432Y-95888935D01*
X137000000Y-95715000D01*
X136125568Y-95888935D01*
X135384261Y-96384261D01*
X134888935Y-97125568D01*
X134715000Y-98000000D01*
X94127000Y-98000000D01*
X94127000Y-94498266D01*
X94444943Y-94366894D01*
X94905278Y-93907363D01*
X95154716Y-93306648D01*
X95155284Y-92656205D01*
X94906894Y-92055057D01*
X94562241Y-91709801D01*
X94905278Y-91367363D01*
X95154716Y-90766648D01*
X95155284Y-90116205D01*
X94922881Y-89553749D01*
X95610572Y-90241440D01*
X95585000Y-90370000D01*
X95686621Y-90880882D01*
X95976012Y-91313988D01*
X96409118Y-91603379D01*
X96920000Y-91705000D01*
X97359153Y-91705000D01*
X97861887Y-91805000D01*
X97918113Y-91805000D01*
X98467264Y-91695767D01*
X98932811Y-91384698D01*
X99243880Y-90919151D01*
X99353113Y-90370000D01*
X99243880Y-89820849D01*
X98932811Y-89355302D01*
X98467264Y-89044233D01*
X97918113Y-88935000D01*
X97861887Y-88935000D01*
X97359153Y-89035000D01*
X96920000Y-89035000D01*
X96791440Y-89060572D01*
X96239000Y-88508132D01*
X96239000Y-85454868D01*
X104835572Y-94051440D01*
X104810000Y-94180000D01*
X104911621Y-94690882D01*
X105201012Y-95123988D01*
X105634118Y-95413379D01*
X106145000Y-95515000D01*
X107523084Y-95515000D01*
X107763309Y-95614750D01*
X108334187Y-95615248D01*
X108861800Y-95397243D01*
X109265824Y-94993923D01*
X109484750Y-94466691D01*
X109485222Y-93925646D01*
X113475868Y-89935000D01*
X114350972Y-89935000D01*
X114285241Y-90093298D01*
X114284760Y-90644285D01*
X114335000Y-90765875D01*
X114335000Y-93602593D01*
X114316120Y-93630849D01*
X114206887Y-94180000D01*
X114316120Y-94729151D01*
X114627189Y-95194698D01*
X115092736Y-95505767D01*
X115641887Y-95615000D01*
X115698113Y-95615000D01*
X116247264Y-95505767D01*
X116712811Y-95194698D01*
X117023880Y-94729151D01*
X117027618Y-94710357D01*
X117492975Y-94245000D01*
X119374021Y-94245000D01*
X119303569Y-94348110D01*
X119252560Y-94600000D01*
X119252560Y-96300000D01*
X119296838Y-96535317D01*
X119435910Y-96751441D01*
X119648110Y-96896431D01*
X119900000Y-96947440D01*
X121600000Y-96947440D01*
X121835317Y-96903162D01*
X122022077Y-96782985D01*
X122188110Y-96896431D01*
X122440000Y-96947440D01*
X124140000Y-96947440D01*
X124375317Y-96903162D01*
X124558946Y-96785000D01*
X127792593Y-96785000D01*
X127820849Y-96803880D01*
X128370000Y-96913113D01*
X128919151Y-96803880D01*
X129384698Y-96492811D01*
X129695767Y-96027264D01*
X129805000Y-95478113D01*
X129805000Y-95421887D01*
X129695767Y-94872736D01*
X129384698Y-94407189D01*
X128919151Y-94096120D01*
X128370000Y-93986887D01*
X127820849Y-94096120D01*
X127792593Y-94115000D01*
X127018354Y-94115000D01*
X127408988Y-93853988D01*
X127698379Y-93420882D01*
X127800000Y-92910000D01*
X127774428Y-92781440D01*
X128325434Y-92230434D01*
X128444234Y-92052637D01*
X128506439Y-91959541D01*
X128570000Y-91640000D01*
X128570000Y-89735000D01*
X128506439Y-89415459D01*
X128405852Y-89264920D01*
X128723454Y-89249778D01*
X129124005Y-89083864D01*
X129198139Y-88837745D01*
X128370000Y-88009605D01*
X128355858Y-88023748D01*
X128176252Y-87844142D01*
X128190395Y-87830000D01*
X128549605Y-87830000D01*
X129377745Y-88658139D01*
X129623864Y-88584005D01*
X129816965Y-88046777D01*
X129789778Y-87476546D01*
X129623864Y-87075995D01*
X129377745Y-87001861D01*
X128549605Y-87830000D01*
X128190395Y-87830000D01*
X128176253Y-87815858D01*
X128355858Y-87636253D01*
X128370000Y-87650395D01*
X129198139Y-86822255D01*
X129124005Y-86576136D01*
X128804014Y-86461119D01*
X129172566Y-86092567D01*
X129418603Y-85724346D01*
X129504999Y-85290000D01*
X129418603Y-84855655D01*
X129172566Y-84487434D01*
X128804345Y-84241397D01*
X128536928Y-84188205D01*
X129172566Y-83552567D01*
X129418603Y-83184346D01*
X129434108Y-83106397D01*
X129505000Y-82750000D01*
X129505000Y-81950132D01*
X129615087Y-81840045D01*
X129640000Y-81845000D01*
X131153178Y-81845000D01*
X130966548Y-82124313D01*
X130842091Y-82750000D01*
X130966548Y-83375687D01*
X131320971Y-83906120D01*
X131491405Y-84020000D01*
X131320971Y-84133880D01*
X130966548Y-84664313D01*
X130842091Y-85290000D01*
X130966548Y-85915687D01*
X131320971Y-86446120D01*
X131851404Y-86800543D01*
X132477091Y-86925000D01*
X135990000Y-86925000D01*
X136615687Y-86800543D01*
X137146120Y-86446120D01*
X137500543Y-85915687D01*
X137625000Y-85290000D01*
X137620045Y-85265087D01*
X138697566Y-84187566D01*
X138732529Y-84135240D01*
X138943603Y-83819346D01*
X139030000Y-83385000D01*
X139030000Y-64970000D01*
X138996669Y-64802434D01*
X138943604Y-64535655D01*
X138697567Y-64167434D01*
X132982566Y-58452434D01*
X131712566Y-57182434D01*
X131583515Y-57096205D01*
X131344346Y-56936397D01*
X130910000Y-56850000D01*
X113765000Y-56850000D01*
X113330654Y-56936397D01*
X113091485Y-57096205D01*
X112962434Y-57182434D01*
X111692436Y-58452432D01*
X111692433Y-58452434D01*
X109152434Y-60992434D01*
X108919669Y-61340791D01*
X108835564Y-61256539D01*
X108326702Y-61045241D01*
X107775715Y-61044760D01*
X107654125Y-61095000D01*
X106040847Y-61095000D01*
X105538113Y-60995000D01*
X105481887Y-60995000D01*
X105032657Y-61084357D01*
X105119313Y-60875668D01*
X105119687Y-60446216D01*
X104955689Y-60049311D01*
X104652286Y-59745378D01*
X104255668Y-59580687D01*
X103826216Y-59580313D01*
X103429311Y-59744311D01*
X103125378Y-60047714D01*
X102960687Y-60444332D01*
X102960313Y-60873784D01*
X103124311Y-61270689D01*
X103205000Y-61351519D01*
X103205000Y-62818189D01*
X103096012Y-62891012D01*
X102806621Y-63324117D01*
X102704999Y-63835000D01*
X102806621Y-64345883D01*
X103096012Y-64778988D01*
X104231012Y-65913987D01*
X104375000Y-66010197D01*
X104375000Y-66633272D01*
X104156120Y-66960849D01*
X104113367Y-67175784D01*
X104103561Y-67190459D01*
X104040000Y-67510000D01*
X104103561Y-67829541D01*
X104113367Y-67844216D01*
X104156120Y-68059151D01*
X104175000Y-68087407D01*
X104175000Y-69472593D01*
X104156120Y-69500849D01*
X104046887Y-70050000D01*
X104156120Y-70599151D01*
X104467189Y-71064698D01*
X104840336Y-71314027D01*
X104698200Y-71372757D01*
X104294176Y-71776077D01*
X104193505Y-72018520D01*
X102398597Y-73813427D01*
X102158200Y-73912757D01*
X101754176Y-74316077D01*
X101726577Y-74382544D01*
X101723864Y-74375995D01*
X101477745Y-74301861D01*
X100649605Y-75130000D01*
X101477745Y-75958139D01*
X101723864Y-75884005D01*
X101726196Y-75877517D01*
X101752757Y-75941800D01*
X102156077Y-76345824D01*
X102683309Y-76564750D01*
X103254187Y-76565248D01*
X103781800Y-76347243D01*
X104027954Y-76101517D01*
X107258088Y-76101517D01*
X107326077Y-76342460D01*
X107475511Y-76395642D01*
X107326077Y-76457540D01*
X107258088Y-76698483D01*
X108050000Y-77490395D01*
X108841912Y-76698483D01*
X108773923Y-76457540D01*
X108624489Y-76404358D01*
X108773923Y-76342460D01*
X108841912Y-76101517D01*
X114878088Y-76101517D01*
X114946077Y-76342460D01*
X115095511Y-76395642D01*
X114946077Y-76457540D01*
X114878088Y-76698483D01*
X115670000Y-77490395D01*
X116461912Y-76698483D01*
X116393923Y-76457540D01*
X116244489Y-76404358D01*
X116393923Y-76342460D01*
X116461912Y-76101517D01*
X115670000Y-75309605D01*
X114878088Y-76101517D01*
X108841912Y-76101517D01*
X108050000Y-75309605D01*
X107258088Y-76101517D01*
X104027954Y-76101517D01*
X104185824Y-75943923D01*
X104286495Y-75701481D01*
X105062804Y-74925171D01*
X106652799Y-74925171D01*
X106680770Y-75475448D01*
X106837540Y-75853923D01*
X107078483Y-75921912D01*
X107870395Y-75130000D01*
X108229605Y-75130000D01*
X109021517Y-75921912D01*
X109262460Y-75853923D01*
X109447201Y-75334829D01*
X109426378Y-74925171D01*
X114272799Y-74925171D01*
X114300770Y-75475448D01*
X114457540Y-75853923D01*
X114698483Y-75921912D01*
X115490395Y-75130000D01*
X114698483Y-74338088D01*
X114457540Y-74406077D01*
X114272799Y-74925171D01*
X109426378Y-74925171D01*
X109419230Y-74784552D01*
X109262460Y-74406077D01*
X109021517Y-74338088D01*
X108229605Y-75130000D01*
X107870395Y-75130000D01*
X107078483Y-74338088D01*
X106837540Y-74406077D01*
X106652799Y-74925171D01*
X105062804Y-74925171D01*
X106081402Y-73906573D01*
X106321800Y-73807243D01*
X106725824Y-73403923D01*
X106806979Y-73208481D01*
X106875169Y-73373515D01*
X107264436Y-73763461D01*
X107480979Y-73853377D01*
X107326077Y-73917540D01*
X107258088Y-74158483D01*
X108050000Y-74950395D01*
X108841912Y-74158483D01*
X108773923Y-73917540D01*
X108607379Y-73858268D01*
X108833515Y-73764831D01*
X108920302Y-73678195D01*
X109119346Y-73638603D01*
X109487566Y-73392566D01*
X110757566Y-72122566D01*
X110786597Y-72079118D01*
X110907500Y-71898174D01*
X111028403Y-72079118D01*
X111057434Y-72122566D01*
X112327434Y-73392566D01*
X112695654Y-73638603D01*
X113130000Y-73725000D01*
X114846042Y-73725000D01*
X114884436Y-73763461D01*
X115100979Y-73853377D01*
X114946077Y-73917540D01*
X114878088Y-74158483D01*
X115670000Y-74950395D01*
X115684143Y-74936253D01*
X115863748Y-75115858D01*
X115849605Y-75130000D01*
X116641517Y-75921912D01*
X116882460Y-75853923D01*
X116999612Y-75524744D01*
X117924875Y-76450007D01*
X118031773Y-76987419D01*
X118242329Y-77302539D01*
X116481924Y-79062944D01*
X116455564Y-79036539D01*
X116239021Y-78946623D01*
X116393923Y-78882460D01*
X116461912Y-78641517D01*
X115670000Y-77849605D01*
X114878088Y-78641517D01*
X114946077Y-78882460D01*
X115112621Y-78941732D01*
X114886485Y-79035169D01*
X114496539Y-79424436D01*
X114285241Y-79933298D01*
X114284760Y-80484285D01*
X114354875Y-80653976D01*
X114080460Y-80708560D01*
X113809566Y-80889566D01*
X113174566Y-81524566D01*
X112993561Y-81795459D01*
X112930000Y-82115000D01*
X112930000Y-84655000D01*
X112993561Y-84974541D01*
X113096966Y-85129297D01*
X113065000Y-85290000D01*
X113166621Y-85800882D01*
X113456012Y-86233988D01*
X113889118Y-86523379D01*
X114400000Y-86625000D01*
X114959500Y-86625000D01*
X114886485Y-86655169D01*
X114496539Y-87044436D01*
X114285241Y-87553298D01*
X114284760Y-88104285D01*
X114351166Y-88265000D01*
X113130000Y-88265000D01*
X112810459Y-88328561D01*
X112660989Y-88428434D01*
X112539566Y-88509566D01*
X108303911Y-92745221D01*
X107765813Y-92744752D01*
X107523194Y-92845000D01*
X106145000Y-92845000D01*
X106016440Y-92870572D01*
X104756982Y-91611114D01*
X105223309Y-91804750D01*
X105794187Y-91805248D01*
X106036806Y-91705000D01*
X107653465Y-91705000D01*
X107773298Y-91754759D01*
X108324285Y-91755240D01*
X108833515Y-91544831D01*
X109223461Y-91155564D01*
X109434759Y-90646702D01*
X109435240Y-90095715D01*
X109224831Y-89586485D01*
X108835564Y-89196539D01*
X108603130Y-89100024D01*
X108833515Y-89004831D01*
X109223461Y-88615564D01*
X109434759Y-88106702D01*
X109435240Y-87555715D01*
X109224831Y-87046485D01*
X108835564Y-86656539D01*
X108603130Y-86560024D01*
X108833515Y-86464831D01*
X109223461Y-86075564D01*
X109434759Y-85566702D01*
X109435240Y-85015715D01*
X109224831Y-84506485D01*
X108835564Y-84116539D01*
X108603130Y-84020024D01*
X108833515Y-83924831D01*
X109223461Y-83535564D01*
X109434759Y-83026702D01*
X109435240Y-82475715D01*
X109224831Y-81966485D01*
X108835564Y-81576539D01*
X108603130Y-81480024D01*
X108833515Y-81384831D01*
X109223461Y-80995564D01*
X109434759Y-80486702D01*
X109435240Y-79935715D01*
X109224831Y-79426485D01*
X108835564Y-79036539D01*
X108619021Y-78946623D01*
X108773923Y-78882460D01*
X108841912Y-78641517D01*
X108050000Y-77849605D01*
X107258088Y-78641517D01*
X107323972Y-78875000D01*
X106036916Y-78875000D01*
X105796691Y-78775250D01*
X105225813Y-78774752D01*
X104698200Y-78992757D01*
X104294176Y-79396077D01*
X104075250Y-79923309D01*
X104074752Y-80494187D01*
X104292757Y-81021800D01*
X104696077Y-81425824D01*
X104826215Y-81479862D01*
X104698200Y-81532757D01*
X104294176Y-81936077D01*
X104075250Y-82463309D01*
X104075148Y-82579719D01*
X102800016Y-83854852D01*
X102685813Y-83854752D01*
X102158200Y-84072757D01*
X101754176Y-84476077D01*
X101726577Y-84542544D01*
X101723864Y-84535995D01*
X101477745Y-84461861D01*
X100649605Y-85290000D01*
X101477745Y-86118139D01*
X101723864Y-86044005D01*
X101726196Y-86037517D01*
X101752757Y-86101800D01*
X102156077Y-86505824D01*
X102250874Y-86545187D01*
X102181386Y-86559009D01*
X101780723Y-86826723D01*
X101513009Y-87227386D01*
X101419000Y-87700000D01*
X101436543Y-87788192D01*
X101436313Y-88051784D01*
X101600311Y-88448689D01*
X101903714Y-88752622D01*
X102300332Y-88917313D01*
X102566246Y-88917545D01*
X102654000Y-88935000D01*
X105225213Y-88935000D01*
X104698200Y-89152757D01*
X104294176Y-89556077D01*
X104075250Y-90083309D01*
X104074752Y-90654187D01*
X104268175Y-91122307D01*
X99542738Y-86396870D01*
X99641861Y-86297747D01*
X99715995Y-86543864D01*
X100253223Y-86736965D01*
X100823454Y-86709778D01*
X101224005Y-86543864D01*
X101298139Y-86297745D01*
X100470000Y-85469605D01*
X100455858Y-85483748D01*
X100276252Y-85304142D01*
X100290395Y-85290000D01*
X99462255Y-84461861D01*
X99216136Y-84535995D01*
X99023035Y-85073223D01*
X99050222Y-85643454D01*
X99216136Y-86044005D01*
X99462253Y-86118139D01*
X99363130Y-86217262D01*
X97455000Y-84309132D01*
X97455000Y-84282255D01*
X99641861Y-84282255D01*
X100470000Y-85110395D01*
X101298139Y-84282255D01*
X101224005Y-84036136D01*
X100686777Y-83843035D01*
X100116546Y-83870222D01*
X99715995Y-84036136D01*
X99641861Y-84282255D01*
X97455000Y-84282255D01*
X97455000Y-84101231D01*
X97540959Y-84141914D01*
X97763000Y-84020629D01*
X97763000Y-82877000D01*
X98017000Y-82877000D01*
X98017000Y-84020629D01*
X98239041Y-84141914D01*
X98745134Y-83902389D01*
X99121041Y-83487423D01*
X99281904Y-83099039D01*
X99159915Y-82877000D01*
X98017000Y-82877000D01*
X97763000Y-82877000D01*
X97743000Y-82877000D01*
X97743000Y-82623000D01*
X97763000Y-82623000D01*
X97763000Y-82603000D01*
X98017000Y-82603000D01*
X98017000Y-82623000D01*
X99159915Y-82623000D01*
X99281904Y-82400961D01*
X99121041Y-82012577D01*
X98745134Y-81597611D01*
X98528297Y-81494986D01*
X98932811Y-81224698D01*
X99243880Y-80759151D01*
X99353113Y-80210000D01*
X99243880Y-79660849D01*
X98932811Y-79195302D01*
X98725000Y-79056447D01*
X98725000Y-77465171D01*
X106652799Y-77465171D01*
X106680770Y-78015448D01*
X106837540Y-78393923D01*
X107078483Y-78461912D01*
X107870395Y-77670000D01*
X108229605Y-77670000D01*
X109021517Y-78461912D01*
X109262460Y-78393923D01*
X109447201Y-77874829D01*
X109426378Y-77465171D01*
X114272799Y-77465171D01*
X114300770Y-78015448D01*
X114457540Y-78393923D01*
X114698483Y-78461912D01*
X115490395Y-77670000D01*
X115849605Y-77670000D01*
X116641517Y-78461912D01*
X116882460Y-78393923D01*
X117067201Y-77874829D01*
X117039230Y-77324552D01*
X116882460Y-76946077D01*
X116641517Y-76878088D01*
X115849605Y-77670000D01*
X115490395Y-77670000D01*
X114698483Y-76878088D01*
X114457540Y-76946077D01*
X114272799Y-77465171D01*
X109426378Y-77465171D01*
X109419230Y-77324552D01*
X109262460Y-76946077D01*
X109021517Y-76878088D01*
X108229605Y-77670000D01*
X107870395Y-77670000D01*
X107078483Y-76878088D01*
X106837540Y-76946077D01*
X106652799Y-77465171D01*
X98725000Y-77465171D01*
X98725000Y-76456769D01*
X98804622Y-76377286D01*
X98904088Y-76137745D01*
X99641861Y-76137745D01*
X99715995Y-76383864D01*
X100253223Y-76576965D01*
X100823454Y-76549778D01*
X101224005Y-76383864D01*
X101298139Y-76137745D01*
X100470000Y-75309605D01*
X99641861Y-76137745D01*
X98904088Y-76137745D01*
X98969313Y-75980668D01*
X98969687Y-75551216D01*
X98805689Y-75154311D01*
X98565022Y-74913223D01*
X99023035Y-74913223D01*
X99050222Y-75483454D01*
X99216136Y-75884005D01*
X99462255Y-75958139D01*
X100290395Y-75130000D01*
X99462255Y-74301861D01*
X99216136Y-74375995D01*
X99023035Y-74913223D01*
X98565022Y-74913223D01*
X98502286Y-74850378D01*
X98105668Y-74685687D01*
X97676216Y-74685313D01*
X97279311Y-74849311D01*
X97255000Y-74873580D01*
X97255000Y-74630000D01*
X97248038Y-74595000D01*
X97191440Y-74310460D01*
X97065686Y-74122255D01*
X99641861Y-74122255D01*
X100470000Y-74950395D01*
X101298139Y-74122255D01*
X101224005Y-73876136D01*
X100686777Y-73683035D01*
X100116546Y-73710222D01*
X99715995Y-73876136D01*
X99641861Y-74122255D01*
X97065686Y-74122255D01*
X97010434Y-74039566D01*
X96493000Y-73522132D01*
X96493000Y-72717002D01*
X96620084Y-72717002D01*
X96498096Y-72939039D01*
X96658959Y-73327423D01*
X97034866Y-73742389D01*
X97540959Y-73981914D01*
X97763000Y-73860629D01*
X97763000Y-72717000D01*
X98017000Y-72717000D01*
X98017000Y-73860629D01*
X98239041Y-73981914D01*
X98745134Y-73742389D01*
X99121041Y-73327423D01*
X99281904Y-72939039D01*
X99159915Y-72717000D01*
X98017000Y-72717000D01*
X97763000Y-72717000D01*
X97743000Y-72717000D01*
X97743000Y-72463000D01*
X97763000Y-72463000D01*
X97763000Y-72443000D01*
X98017000Y-72443000D01*
X98017000Y-72463000D01*
X99159915Y-72463000D01*
X99281904Y-72240961D01*
X99121041Y-71852577D01*
X98745134Y-71437611D01*
X98547234Y-71343948D01*
X98644005Y-71303864D01*
X98718139Y-71057745D01*
X97890000Y-70229605D01*
X97061861Y-71057745D01*
X97135995Y-71303864D01*
X97239132Y-71340935D01*
X97034866Y-71437611D01*
X96658959Y-71852577D01*
X96498096Y-72240961D01*
X96620084Y-72462998D01*
X96493000Y-72462998D01*
X96493000Y-70458445D01*
X96636136Y-70804005D01*
X96882255Y-70878139D01*
X97710395Y-70050000D01*
X98069605Y-70050000D01*
X98897745Y-70878139D01*
X99143864Y-70804005D01*
X99336965Y-70266777D01*
X99309778Y-69696546D01*
X99143864Y-69295995D01*
X98897745Y-69221861D01*
X98069605Y-70050000D01*
X97710395Y-70050000D01*
X96882255Y-69221861D01*
X96636136Y-69295995D01*
X96493000Y-69694215D01*
X96493000Y-68517745D01*
X97061861Y-68517745D01*
X97135995Y-68763864D01*
X97177709Y-68778858D01*
X97135995Y-68796136D01*
X97061861Y-69042255D01*
X97890000Y-69870395D01*
X98718139Y-69042255D01*
X98644005Y-68796136D01*
X98602291Y-68781142D01*
X98644005Y-68763864D01*
X98718139Y-68517745D01*
X97890000Y-67689605D01*
X97061861Y-68517745D01*
X96493000Y-68517745D01*
X96493000Y-67918445D01*
X96636136Y-68264005D01*
X96882255Y-68338139D01*
X97710395Y-67510000D01*
X98069605Y-67510000D01*
X98897745Y-68338139D01*
X99143864Y-68264005D01*
X99336965Y-67726777D01*
X99309778Y-67156546D01*
X99143864Y-66755995D01*
X98897745Y-66681861D01*
X98069605Y-67510000D01*
X97710395Y-67510000D01*
X96882255Y-66681861D01*
X96636136Y-66755995D01*
X96493000Y-67154215D01*
X96493000Y-65977745D01*
X97061861Y-65977745D01*
X97135995Y-66223864D01*
X97177709Y-66238858D01*
X97135995Y-66256136D01*
X97061861Y-66502255D01*
X97890000Y-67330395D01*
X98718139Y-66502255D01*
X98644005Y-66256136D01*
X98602291Y-66241142D01*
X98644005Y-66223864D01*
X98718139Y-65977745D01*
X97890000Y-65149605D01*
X97061861Y-65977745D01*
X96493000Y-65977745D01*
X96493000Y-65378445D01*
X96636136Y-65724005D01*
X96882255Y-65798139D01*
X97710395Y-64970000D01*
X98069605Y-64970000D01*
X98897745Y-65798139D01*
X99143864Y-65724005D01*
X99336965Y-65186777D01*
X99309778Y-64616546D01*
X99143864Y-64215995D01*
X98897745Y-64141861D01*
X98069605Y-64970000D01*
X97710395Y-64970000D01*
X96882255Y-64141861D01*
X96636136Y-64215995D01*
X96493000Y-64614215D01*
X96493000Y-62806754D01*
X96672757Y-63241800D01*
X97076077Y-63645824D01*
X97190768Y-63693448D01*
X97135995Y-63716136D01*
X97061861Y-63962255D01*
X97890000Y-64790395D01*
X98718139Y-63962255D01*
X98658723Y-63765000D01*
X99160000Y-63765000D01*
X99670882Y-63663379D01*
X100103988Y-63373988D01*
X100393379Y-62940882D01*
X100495000Y-62430000D01*
X100419236Y-62049112D01*
X100430000Y-61995000D01*
X100430000Y-61351769D01*
X100509622Y-61272286D01*
X100674313Y-60875668D01*
X100674687Y-60446216D01*
X100510689Y-60049311D01*
X100207286Y-59745378D01*
X99810668Y-59580687D01*
X99381216Y-59580313D01*
X98984311Y-59744311D01*
X98680378Y-60047714D01*
X98515687Y-60444332D01*
X98515313Y-60873784D01*
X98606718Y-61095000D01*
X98416916Y-61095000D01*
X98176691Y-60995250D01*
X97605813Y-60994752D01*
X97078200Y-61212757D01*
X96674176Y-61616077D01*
X96493000Y-62052397D01*
X96493000Y-60312025D01*
X96706604Y-59992346D01*
X96793000Y-59558000D01*
X96706604Y-59123655D01*
X96682610Y-59087745D01*
X98131861Y-59087745D01*
X98205995Y-59333864D01*
X98743223Y-59526965D01*
X99313454Y-59499778D01*
X99714005Y-59333864D01*
X99788139Y-59087745D01*
X103211861Y-59087745D01*
X103285995Y-59333864D01*
X103823223Y-59526965D01*
X104393454Y-59499778D01*
X104794005Y-59333864D01*
X104868139Y-59087745D01*
X104040000Y-58259605D01*
X103211861Y-59087745D01*
X99788139Y-59087745D01*
X98960000Y-58259605D01*
X98131861Y-59087745D01*
X96682610Y-59087745D01*
X96460566Y-58755434D01*
X95568355Y-57863223D01*
X97513035Y-57863223D01*
X97540222Y-58433454D01*
X97706136Y-58834005D01*
X97952255Y-58908139D01*
X98780395Y-58080000D01*
X99139605Y-58080000D01*
X99967745Y-58908139D01*
X100213864Y-58834005D01*
X100406965Y-58296777D01*
X100386295Y-57863223D01*
X102593035Y-57863223D01*
X102620222Y-58433454D01*
X102786136Y-58834005D01*
X103032255Y-58908139D01*
X103860395Y-58080000D01*
X104219605Y-58080000D01*
X105047745Y-58908139D01*
X105293864Y-58834005D01*
X105486965Y-58296777D01*
X105459778Y-57726546D01*
X105293864Y-57325995D01*
X105047745Y-57251861D01*
X104219605Y-58080000D01*
X103860395Y-58080000D01*
X103032255Y-57251861D01*
X102786136Y-57325995D01*
X102593035Y-57863223D01*
X100386295Y-57863223D01*
X100379778Y-57726546D01*
X100213864Y-57325995D01*
X99967745Y-57251861D01*
X99139605Y-58080000D01*
X98780395Y-58080000D01*
X97952255Y-57251861D01*
X97706136Y-57325995D01*
X97513035Y-57863223D01*
X95568355Y-57863223D01*
X95154975Y-57449843D01*
X95155284Y-57096205D01*
X94906894Y-56495057D01*
X94447363Y-56034722D01*
X93846648Y-55785284D01*
X93196205Y-55784716D01*
X92595057Y-56033106D01*
X92403717Y-56224111D01*
X92089803Y-55910197D01*
X92047789Y-55882334D01*
X92000000Y-55873000D01*
X83052606Y-55873000D01*
X78127000Y-50947394D01*
X78127000Y-50803991D01*
X80279735Y-50803991D01*
X80512932Y-51368371D01*
X80944357Y-51800551D01*
X81508330Y-52034733D01*
X81744807Y-52034939D01*
X83552433Y-53842566D01*
X83793432Y-54003596D01*
X83920654Y-54088603D01*
X84355000Y-54175000D01*
X94679868Y-54175000D01*
X96887433Y-56382566D01*
X97055788Y-56495057D01*
X97255654Y-56628603D01*
X97610851Y-56699256D01*
X97695910Y-56831441D01*
X97908110Y-56976431D01*
X98146201Y-57024646D01*
X98131861Y-57072255D01*
X98960000Y-57900395D01*
X99788139Y-57072255D01*
X99773855Y-57024833D01*
X99995317Y-56983162D01*
X100211441Y-56844090D01*
X100299644Y-56715000D01*
X103145394Y-56715000D01*
X103226077Y-56795824D01*
X103292544Y-56823423D01*
X103285995Y-56826136D01*
X103211861Y-57072255D01*
X104040000Y-57900395D01*
X104868139Y-57072255D01*
X104794005Y-56826136D01*
X104787517Y-56823804D01*
X104851800Y-56797243D01*
X104934187Y-56715000D01*
X105474868Y-56715000D01*
X107584939Y-58825071D01*
X107584735Y-59058991D01*
X107817932Y-59623371D01*
X108249357Y-60055551D01*
X108813330Y-60289733D01*
X109423991Y-60290265D01*
X109988371Y-60057068D01*
X110420551Y-59625643D01*
X110654733Y-59061670D01*
X110655265Y-58451009D01*
X110422068Y-57886629D01*
X109990643Y-57454449D01*
X109426670Y-57220267D01*
X109190193Y-57220061D01*
X106747566Y-54777434D01*
X106730569Y-54766077D01*
X106379346Y-54531397D01*
X105945000Y-54445000D01*
X104934606Y-54445000D01*
X104853923Y-54364176D01*
X104326691Y-54145250D01*
X103755813Y-54144752D01*
X103228200Y-54362757D01*
X103145813Y-54445000D01*
X100299018Y-54445000D01*
X100224090Y-54328559D01*
X100011890Y-54183569D01*
X99760000Y-54132560D01*
X98160000Y-54132560D01*
X97924683Y-54176838D01*
X97904779Y-54189646D01*
X95952566Y-52237434D01*
X95952565Y-52237433D01*
X95584346Y-51991397D01*
X95150000Y-51905000D01*
X84825133Y-51905000D01*
X83633917Y-50713784D01*
X106770313Y-50713784D01*
X106934311Y-51110689D01*
X107237714Y-51414622D01*
X107634332Y-51579313D01*
X108063784Y-51579687D01*
X108460689Y-51415689D01*
X108764622Y-51112286D01*
X108929313Y-50715668D01*
X108929412Y-50601456D01*
X109465868Y-50065000D01*
X110671762Y-50065000D01*
X110580687Y-50284332D01*
X110580313Y-50713784D01*
X110744311Y-51110689D01*
X111038109Y-51405000D01*
X110390000Y-51405000D01*
X109764313Y-51529457D01*
X109233880Y-51883880D01*
X108879457Y-52414313D01*
X108755000Y-53040000D01*
X108879457Y-53665687D01*
X109233880Y-54196120D01*
X109764313Y-54550543D01*
X110390000Y-54675000D01*
X114565982Y-54675000D01*
X114640910Y-54791441D01*
X114853110Y-54936431D01*
X115105000Y-54987440D01*
X117105000Y-54987440D01*
X117340317Y-54943162D01*
X117556441Y-54804090D01*
X117661951Y-54649671D01*
X118019313Y-54888452D01*
X118645000Y-55012909D01*
X119270687Y-54888452D01*
X119801120Y-54534029D01*
X119915000Y-54363595D01*
X120028880Y-54534029D01*
X120559313Y-54888452D01*
X121185000Y-55012909D01*
X121810687Y-54888452D01*
X122341120Y-54534029D01*
X122455000Y-54363595D01*
X122568880Y-54534029D01*
X123099313Y-54888452D01*
X123725000Y-55012909D01*
X124350687Y-54888452D01*
X124670141Y-54675000D01*
X128805000Y-54675000D01*
X129430687Y-54550543D01*
X129961120Y-54196120D01*
X130315543Y-53665687D01*
X130440000Y-53040000D01*
X130315543Y-52414313D01*
X129961120Y-51883880D01*
X129430687Y-51529457D01*
X128805000Y-51405000D01*
X124670141Y-51405000D01*
X124350687Y-51191548D01*
X123725000Y-51067091D01*
X123099313Y-51191548D01*
X122820000Y-51378178D01*
X122820000Y-50500000D01*
X122695543Y-49874313D01*
X122341120Y-49343880D01*
X121810687Y-48989457D01*
X121185000Y-48865000D01*
X120806213Y-48940345D01*
X120505434Y-48639566D01*
X120374590Y-48552139D01*
X120234541Y-48458561D01*
X119915000Y-48395000D01*
X109120000Y-48395000D01*
X108800459Y-48458561D01*
X108660410Y-48552139D01*
X108529566Y-48639566D01*
X107748721Y-49420411D01*
X107636216Y-49420313D01*
X107239311Y-49584311D01*
X106935378Y-49887714D01*
X106770687Y-50284332D01*
X106770313Y-50713784D01*
X83633917Y-50713784D01*
X83350061Y-50429929D01*
X83350265Y-50196009D01*
X83117068Y-49631629D01*
X82685643Y-49199449D01*
X82121670Y-48965267D01*
X81511009Y-48964735D01*
X80946629Y-49197932D01*
X80514449Y-49629357D01*
X80280267Y-50193330D01*
X80279735Y-50803991D01*
X78127000Y-50803991D01*
X78127000Y-48185000D01*
X78500000Y-48185000D01*
X78762138Y-48132857D01*
X78984368Y-47984368D01*
X79283736Y-47685000D01*
X136932533Y-47685000D01*
X138263459Y-47949738D01*
X138263459Y-47949738D01*
G37*
X138263459Y-47949738D02*
X139334568Y-48665429D01*
X140050262Y-49736540D01*
X140315000Y-51067467D01*
X140315000Y-101315000D01*
X94127000Y-101315000D01*
X94127000Y-98000000D01*
X134715000Y-98000000D01*
X134888935Y-98874432D01*
X135384261Y-99615739D01*
X136125568Y-100111065D01*
X137000000Y-100285000D01*
X137874432Y-100111065D01*
X138615739Y-99615739D01*
X139111065Y-98874432D01*
X139285000Y-98000000D01*
X139111065Y-97125568D01*
X138615739Y-96384261D01*
X137874432Y-95888935D01*
X137000000Y-95715000D01*
X136125568Y-95888935D01*
X135384261Y-96384261D01*
X134888935Y-97125568D01*
X134715000Y-98000000D01*
X94127000Y-98000000D01*
X94127000Y-94498266D01*
X94444943Y-94366894D01*
X94905278Y-93907363D01*
X95154716Y-93306648D01*
X95155284Y-92656205D01*
X94906894Y-92055057D01*
X94562241Y-91709801D01*
X94905278Y-91367363D01*
X95154716Y-90766648D01*
X95155284Y-90116205D01*
X94922881Y-89553749D01*
X95610572Y-90241440D01*
X95585000Y-90370000D01*
X95686621Y-90880882D01*
X95976012Y-91313988D01*
X96409118Y-91603379D01*
X96920000Y-91705000D01*
X97359153Y-91705000D01*
X97861887Y-91805000D01*
X97918113Y-91805000D01*
X98467264Y-91695767D01*
X98932811Y-91384698D01*
X99243880Y-90919151D01*
X99353113Y-90370000D01*
X99243880Y-89820849D01*
X98932811Y-89355302D01*
X98467264Y-89044233D01*
X97918113Y-88935000D01*
X97861887Y-88935000D01*
X97359153Y-89035000D01*
X96920000Y-89035000D01*
X96791440Y-89060572D01*
X96239000Y-88508132D01*
X96239000Y-85454868D01*
X104835572Y-94051440D01*
X104810000Y-94180000D01*
X104911621Y-94690882D01*
X105201012Y-95123988D01*
X105634118Y-95413379D01*
X106145000Y-95515000D01*
X107523084Y-95515000D01*
X107763309Y-95614750D01*
X108334187Y-95615248D01*
X108861800Y-95397243D01*
X109265824Y-94993923D01*
X109484750Y-94466691D01*
X109485222Y-93925646D01*
X113475868Y-89935000D01*
X114350972Y-89935000D01*
X114285241Y-90093298D01*
X114284760Y-90644285D01*
X114335000Y-90765875D01*
X114335000Y-93602593D01*
X114316120Y-93630849D01*
X114206887Y-94180000D01*
X114316120Y-94729151D01*
X114627189Y-95194698D01*
X115092736Y-95505767D01*
X115641887Y-95615000D01*
X115698113Y-95615000D01*
X116247264Y-95505767D01*
X116712811Y-95194698D01*
X117023880Y-94729151D01*
X117027618Y-94710357D01*
X117492975Y-94245000D01*
X119374021Y-94245000D01*
X119303569Y-94348110D01*
X119252560Y-94600000D01*
X119252560Y-96300000D01*
X119296838Y-96535317D01*
X119435910Y-96751441D01*
X119648110Y-96896431D01*
X119900000Y-96947440D01*
X121600000Y-96947440D01*
X121835317Y-96903162D01*
X122022077Y-96782985D01*
X122188110Y-96896431D01*
X122440000Y-96947440D01*
X124140000Y-96947440D01*
X124375317Y-96903162D01*
X124558946Y-96785000D01*
X127792593Y-96785000D01*
X127820849Y-96803880D01*
X128370000Y-96913113D01*
X128919151Y-96803880D01*
X129384698Y-96492811D01*
X129695767Y-96027264D01*
X129805000Y-95478113D01*
X129805000Y-95421887D01*
X129695767Y-94872736D01*
X129384698Y-94407189D01*
X128919151Y-94096120D01*
X128370000Y-93986887D01*
X127820849Y-94096120D01*
X127792593Y-94115000D01*
X127018354Y-94115000D01*
X127408988Y-93853988D01*
X127698379Y-93420882D01*
X127800000Y-92910000D01*
X127774428Y-92781440D01*
X128325434Y-92230434D01*
X128444234Y-92052637D01*
X128506439Y-91959541D01*
X128570000Y-91640000D01*
X128570000Y-89735000D01*
X128506439Y-89415459D01*
X128405852Y-89264920D01*
X128723454Y-89249778D01*
X129124005Y-89083864D01*
X129198139Y-88837745D01*
X128370000Y-88009605D01*
X128355858Y-88023748D01*
X128176252Y-87844142D01*
X128190395Y-87830000D01*
X128549605Y-87830000D01*
X129377745Y-88658139D01*
X129623864Y-88584005D01*
X129816965Y-88046777D01*
X129789778Y-87476546D01*
X129623864Y-87075995D01*
X129377745Y-87001861D01*
X128549605Y-87830000D01*
X128190395Y-87830000D01*
X128176253Y-87815858D01*
X128355858Y-87636253D01*
X128370000Y-87650395D01*
X129198139Y-86822255D01*
X129124005Y-86576136D01*
X128804014Y-86461119D01*
X129172566Y-86092567D01*
X129418603Y-85724346D01*
X129504999Y-85290000D01*
X129418603Y-84855655D01*
X129172566Y-84487434D01*
X128804345Y-84241397D01*
X128536928Y-84188205D01*
X129172566Y-83552567D01*
X129418603Y-83184346D01*
X129434108Y-83106397D01*
X129505000Y-82750000D01*
X129505000Y-81950132D01*
X129615087Y-81840045D01*
X129640000Y-81845000D01*
X131153178Y-81845000D01*
X130966548Y-82124313D01*
X130842091Y-82750000D01*
X130966548Y-83375687D01*
X131320971Y-83906120D01*
X131491405Y-84020000D01*
X131320971Y-84133880D01*
X130966548Y-84664313D01*
X130842091Y-85290000D01*
X130966548Y-85915687D01*
X131320971Y-86446120D01*
X131851404Y-86800543D01*
X132477091Y-86925000D01*
X135990000Y-86925000D01*
X136615687Y-86800543D01*
X137146120Y-86446120D01*
X137500543Y-85915687D01*
X137625000Y-85290000D01*
X137620045Y-85265087D01*
X138697566Y-84187566D01*
X138732529Y-84135240D01*
X138943603Y-83819346D01*
X139030000Y-83385000D01*
X139030000Y-64970000D01*
X138996669Y-64802434D01*
X138943604Y-64535655D01*
X138697567Y-64167434D01*
X132982566Y-58452434D01*
X131712566Y-57182434D01*
X131583515Y-57096205D01*
X131344346Y-56936397D01*
X130910000Y-56850000D01*
X113765000Y-56850000D01*
X113330654Y-56936397D01*
X113091485Y-57096205D01*
X112962434Y-57182434D01*
X111692436Y-58452432D01*
X111692433Y-58452434D01*
X109152434Y-60992434D01*
X108919669Y-61340791D01*
X108835564Y-61256539D01*
X108326702Y-61045241D01*
X107775715Y-61044760D01*
X107654125Y-61095000D01*
X106040847Y-61095000D01*
X105538113Y-60995000D01*
X105481887Y-60995000D01*
X105032657Y-61084357D01*
X105119313Y-60875668D01*
X105119687Y-60446216D01*
X104955689Y-60049311D01*
X104652286Y-59745378D01*
X104255668Y-59580687D01*
X103826216Y-59580313D01*
X103429311Y-59744311D01*
X103125378Y-60047714D01*
X102960687Y-60444332D01*
X102960313Y-60873784D01*
X103124311Y-61270689D01*
X103205000Y-61351519D01*
X103205000Y-62818189D01*
X103096012Y-62891012D01*
X102806621Y-63324117D01*
X102704999Y-63835000D01*
X102806621Y-64345883D01*
X103096012Y-64778988D01*
X104231012Y-65913987D01*
X104375000Y-66010197D01*
X104375000Y-66633272D01*
X104156120Y-66960849D01*
X104113367Y-67175784D01*
X104103561Y-67190459D01*
X104040000Y-67510000D01*
X104103561Y-67829541D01*
X104113367Y-67844216D01*
X104156120Y-68059151D01*
X104175000Y-68087407D01*
X104175000Y-69472593D01*
X104156120Y-69500849D01*
X104046887Y-70050000D01*
X104156120Y-70599151D01*
X104467189Y-71064698D01*
X104840336Y-71314027D01*
X104698200Y-71372757D01*
X104294176Y-71776077D01*
X104193505Y-72018520D01*
X102398597Y-73813427D01*
X102158200Y-73912757D01*
X101754176Y-74316077D01*
X101726577Y-74382544D01*
X101723864Y-74375995D01*
X101477745Y-74301861D01*
X100649605Y-75130000D01*
X101477745Y-75958139D01*
X101723864Y-75884005D01*
X101726196Y-75877517D01*
X101752757Y-75941800D01*
X102156077Y-76345824D01*
X102683309Y-76564750D01*
X103254187Y-76565248D01*
X103781800Y-76347243D01*
X104027954Y-76101517D01*
X107258088Y-76101517D01*
X107326077Y-76342460D01*
X107475511Y-76395642D01*
X107326077Y-76457540D01*
X107258088Y-76698483D01*
X108050000Y-77490395D01*
X108841912Y-76698483D01*
X108773923Y-76457540D01*
X108624489Y-76404358D01*
X108773923Y-76342460D01*
X108841912Y-76101517D01*
X114878088Y-76101517D01*
X114946077Y-76342460D01*
X115095511Y-76395642D01*
X114946077Y-76457540D01*
X114878088Y-76698483D01*
X115670000Y-77490395D01*
X116461912Y-76698483D01*
X116393923Y-76457540D01*
X116244489Y-76404358D01*
X116393923Y-76342460D01*
X116461912Y-76101517D01*
X115670000Y-75309605D01*
X114878088Y-76101517D01*
X108841912Y-76101517D01*
X108050000Y-75309605D01*
X107258088Y-76101517D01*
X104027954Y-76101517D01*
X104185824Y-75943923D01*
X104286495Y-75701481D01*
X105062804Y-74925171D01*
X106652799Y-74925171D01*
X106680770Y-75475448D01*
X106837540Y-75853923D01*
X107078483Y-75921912D01*
X107870395Y-75130000D01*
X108229605Y-75130000D01*
X109021517Y-75921912D01*
X109262460Y-75853923D01*
X109447201Y-75334829D01*
X109426378Y-74925171D01*
X114272799Y-74925171D01*
X114300770Y-75475448D01*
X114457540Y-75853923D01*
X114698483Y-75921912D01*
X115490395Y-75130000D01*
X114698483Y-74338088D01*
X114457540Y-74406077D01*
X114272799Y-74925171D01*
X109426378Y-74925171D01*
X109419230Y-74784552D01*
X109262460Y-74406077D01*
X109021517Y-74338088D01*
X108229605Y-75130000D01*
X107870395Y-75130000D01*
X107078483Y-74338088D01*
X106837540Y-74406077D01*
X106652799Y-74925171D01*
X105062804Y-74925171D01*
X106081402Y-73906573D01*
X106321800Y-73807243D01*
X106725824Y-73403923D01*
X106806979Y-73208481D01*
X106875169Y-73373515D01*
X107264436Y-73763461D01*
X107480979Y-73853377D01*
X107326077Y-73917540D01*
X107258088Y-74158483D01*
X108050000Y-74950395D01*
X108841912Y-74158483D01*
X108773923Y-73917540D01*
X108607379Y-73858268D01*
X108833515Y-73764831D01*
X108920302Y-73678195D01*
X109119346Y-73638603D01*
X109487566Y-73392566D01*
X110757566Y-72122566D01*
X110786597Y-72079118D01*
X110907500Y-71898174D01*
X111028403Y-72079118D01*
X111057434Y-72122566D01*
X112327434Y-73392566D01*
X112695654Y-73638603D01*
X113130000Y-73725000D01*
X114846042Y-73725000D01*
X114884436Y-73763461D01*
X115100979Y-73853377D01*
X114946077Y-73917540D01*
X114878088Y-74158483D01*
X115670000Y-74950395D01*
X115684143Y-74936253D01*
X115863748Y-75115858D01*
X115849605Y-75130000D01*
X116641517Y-75921912D01*
X116882460Y-75853923D01*
X116999612Y-75524744D01*
X117924875Y-76450007D01*
X118031773Y-76987419D01*
X118242329Y-77302539D01*
X116481924Y-79062944D01*
X116455564Y-79036539D01*
X116239021Y-78946623D01*
X116393923Y-78882460D01*
X116461912Y-78641517D01*
X115670000Y-77849605D01*
X114878088Y-78641517D01*
X114946077Y-78882460D01*
X115112621Y-78941732D01*
X114886485Y-79035169D01*
X114496539Y-79424436D01*
X114285241Y-79933298D01*
X114284760Y-80484285D01*
X114354875Y-80653976D01*
X114080460Y-80708560D01*
X113809566Y-80889566D01*
X113174566Y-81524566D01*
X112993561Y-81795459D01*
X112930000Y-82115000D01*
X112930000Y-84655000D01*
X112993561Y-84974541D01*
X113096966Y-85129297D01*
X113065000Y-85290000D01*
X113166621Y-85800882D01*
X113456012Y-86233988D01*
X113889118Y-86523379D01*
X114400000Y-86625000D01*
X114959500Y-86625000D01*
X114886485Y-86655169D01*
X114496539Y-87044436D01*
X114285241Y-87553298D01*
X114284760Y-88104285D01*
X114351166Y-88265000D01*
X113130000Y-88265000D01*
X112810459Y-88328561D01*
X112660989Y-88428434D01*
X112539566Y-88509566D01*
X108303911Y-92745221D01*
X107765813Y-92744752D01*
X107523194Y-92845000D01*
X106145000Y-92845000D01*
X106016440Y-92870572D01*
X104756982Y-91611114D01*
X105223309Y-91804750D01*
X105794187Y-91805248D01*
X106036806Y-91705000D01*
X107653465Y-91705000D01*
X107773298Y-91754759D01*
X108324285Y-91755240D01*
X108833515Y-91544831D01*
X109223461Y-91155564D01*
X109434759Y-90646702D01*
X109435240Y-90095715D01*
X109224831Y-89586485D01*
X108835564Y-89196539D01*
X108603130Y-89100024D01*
X108833515Y-89004831D01*
X109223461Y-88615564D01*
X109434759Y-88106702D01*
X109435240Y-87555715D01*
X109224831Y-87046485D01*
X108835564Y-86656539D01*
X108603130Y-86560024D01*
X108833515Y-86464831D01*
X109223461Y-86075564D01*
X109434759Y-85566702D01*
X109435240Y-85015715D01*
X109224831Y-84506485D01*
X108835564Y-84116539D01*
X108603130Y-84020024D01*
X108833515Y-83924831D01*
X109223461Y-83535564D01*
X109434759Y-83026702D01*
X109435240Y-82475715D01*
X109224831Y-81966485D01*
X108835564Y-81576539D01*
X108603130Y-81480024D01*
X108833515Y-81384831D01*
X109223461Y-80995564D01*
X109434759Y-80486702D01*
X109435240Y-79935715D01*
X109224831Y-79426485D01*
X108835564Y-79036539D01*
X108619021Y-78946623D01*
X108773923Y-78882460D01*
X108841912Y-78641517D01*
X108050000Y-77849605D01*
X107258088Y-78641517D01*
X107323972Y-78875000D01*
X106036916Y-78875000D01*
X105796691Y-78775250D01*
X105225813Y-78774752D01*
X104698200Y-78992757D01*
X104294176Y-79396077D01*
X104075250Y-79923309D01*
X104074752Y-80494187D01*
X104292757Y-81021800D01*
X104696077Y-81425824D01*
X104826215Y-81479862D01*
X104698200Y-81532757D01*
X104294176Y-81936077D01*
X104075250Y-82463309D01*
X104075148Y-82579719D01*
X102800016Y-83854852D01*
X102685813Y-83854752D01*
X102158200Y-84072757D01*
X101754176Y-84476077D01*
X101726577Y-84542544D01*
X101723864Y-84535995D01*
X101477745Y-84461861D01*
X100649605Y-85290000D01*
X101477745Y-86118139D01*
X101723864Y-86044005D01*
X101726196Y-86037517D01*
X101752757Y-86101800D01*
X102156077Y-86505824D01*
X102250874Y-86545187D01*
X102181386Y-86559009D01*
X101780723Y-86826723D01*
X101513009Y-87227386D01*
X101419000Y-87700000D01*
X101436543Y-87788192D01*
X101436313Y-88051784D01*
X101600311Y-88448689D01*
X101903714Y-88752622D01*
X102300332Y-88917313D01*
X102566246Y-88917545D01*
X102654000Y-88935000D01*
X105225213Y-88935000D01*
X104698200Y-89152757D01*
X104294176Y-89556077D01*
X104075250Y-90083309D01*
X104074752Y-90654187D01*
X104268175Y-91122307D01*
X99542738Y-86396870D01*
X99641861Y-86297747D01*
X99715995Y-86543864D01*
X100253223Y-86736965D01*
X100823454Y-86709778D01*
X101224005Y-86543864D01*
X101298139Y-86297745D01*
X100470000Y-85469605D01*
X100455858Y-85483748D01*
X100276252Y-85304142D01*
X100290395Y-85290000D01*
X99462255Y-84461861D01*
X99216136Y-84535995D01*
X99023035Y-85073223D01*
X99050222Y-85643454D01*
X99216136Y-86044005D01*
X99462253Y-86118139D01*
X99363130Y-86217262D01*
X97455000Y-84309132D01*
X97455000Y-84282255D01*
X99641861Y-84282255D01*
X100470000Y-85110395D01*
X101298139Y-84282255D01*
X101224005Y-84036136D01*
X100686777Y-83843035D01*
X100116546Y-83870222D01*
X99715995Y-84036136D01*
X99641861Y-84282255D01*
X97455000Y-84282255D01*
X97455000Y-84101231D01*
X97540959Y-84141914D01*
X97763000Y-84020629D01*
X97763000Y-82877000D01*
X98017000Y-82877000D01*
X98017000Y-84020629D01*
X98239041Y-84141914D01*
X98745134Y-83902389D01*
X99121041Y-83487423D01*
X99281904Y-83099039D01*
X99159915Y-82877000D01*
X98017000Y-82877000D01*
X97763000Y-82877000D01*
X97743000Y-82877000D01*
X97743000Y-82623000D01*
X97763000Y-82623000D01*
X97763000Y-82603000D01*
X98017000Y-82603000D01*
X98017000Y-82623000D01*
X99159915Y-82623000D01*
X99281904Y-82400961D01*
X99121041Y-82012577D01*
X98745134Y-81597611D01*
X98528297Y-81494986D01*
X98932811Y-81224698D01*
X99243880Y-80759151D01*
X99353113Y-80210000D01*
X99243880Y-79660849D01*
X98932811Y-79195302D01*
X98725000Y-79056447D01*
X98725000Y-77465171D01*
X106652799Y-77465171D01*
X106680770Y-78015448D01*
X106837540Y-78393923D01*
X107078483Y-78461912D01*
X107870395Y-77670000D01*
X108229605Y-77670000D01*
X109021517Y-78461912D01*
X109262460Y-78393923D01*
X109447201Y-77874829D01*
X109426378Y-77465171D01*
X114272799Y-77465171D01*
X114300770Y-78015448D01*
X114457540Y-78393923D01*
X114698483Y-78461912D01*
X115490395Y-77670000D01*
X115849605Y-77670000D01*
X116641517Y-78461912D01*
X116882460Y-78393923D01*
X117067201Y-77874829D01*
X117039230Y-77324552D01*
X116882460Y-76946077D01*
X116641517Y-76878088D01*
X115849605Y-77670000D01*
X115490395Y-77670000D01*
X114698483Y-76878088D01*
X114457540Y-76946077D01*
X114272799Y-77465171D01*
X109426378Y-77465171D01*
X109419230Y-77324552D01*
X109262460Y-76946077D01*
X109021517Y-76878088D01*
X108229605Y-77670000D01*
X107870395Y-77670000D01*
X107078483Y-76878088D01*
X106837540Y-76946077D01*
X106652799Y-77465171D01*
X98725000Y-77465171D01*
X98725000Y-76456769D01*
X98804622Y-76377286D01*
X98904088Y-76137745D01*
X99641861Y-76137745D01*
X99715995Y-76383864D01*
X100253223Y-76576965D01*
X100823454Y-76549778D01*
X101224005Y-76383864D01*
X101298139Y-76137745D01*
X100470000Y-75309605D01*
X99641861Y-76137745D01*
X98904088Y-76137745D01*
X98969313Y-75980668D01*
X98969687Y-75551216D01*
X98805689Y-75154311D01*
X98565022Y-74913223D01*
X99023035Y-74913223D01*
X99050222Y-75483454D01*
X99216136Y-75884005D01*
X99462255Y-75958139D01*
X100290395Y-75130000D01*
X99462255Y-74301861D01*
X99216136Y-74375995D01*
X99023035Y-74913223D01*
X98565022Y-74913223D01*
X98502286Y-74850378D01*
X98105668Y-74685687D01*
X97676216Y-74685313D01*
X97279311Y-74849311D01*
X97255000Y-74873580D01*
X97255000Y-74630000D01*
X97248038Y-74595000D01*
X97191440Y-74310460D01*
X97065686Y-74122255D01*
X99641861Y-74122255D01*
X100470000Y-74950395D01*
X101298139Y-74122255D01*
X101224005Y-73876136D01*
X100686777Y-73683035D01*
X100116546Y-73710222D01*
X99715995Y-73876136D01*
X99641861Y-74122255D01*
X97065686Y-74122255D01*
X97010434Y-74039566D01*
X96493000Y-73522132D01*
X96493000Y-72717002D01*
X96620084Y-72717002D01*
X96498096Y-72939039D01*
X96658959Y-73327423D01*
X97034866Y-73742389D01*
X97540959Y-73981914D01*
X97763000Y-73860629D01*
X97763000Y-72717000D01*
X98017000Y-72717000D01*
X98017000Y-73860629D01*
X98239041Y-73981914D01*
X98745134Y-73742389D01*
X99121041Y-73327423D01*
X99281904Y-72939039D01*
X99159915Y-72717000D01*
X98017000Y-72717000D01*
X97763000Y-72717000D01*
X97743000Y-72717000D01*
X97743000Y-72463000D01*
X97763000Y-72463000D01*
X97763000Y-72443000D01*
X98017000Y-72443000D01*
X98017000Y-72463000D01*
X99159915Y-72463000D01*
X99281904Y-72240961D01*
X99121041Y-71852577D01*
X98745134Y-71437611D01*
X98547234Y-71343948D01*
X98644005Y-71303864D01*
X98718139Y-71057745D01*
X97890000Y-70229605D01*
X97061861Y-71057745D01*
X97135995Y-71303864D01*
X97239132Y-71340935D01*
X97034866Y-71437611D01*
X96658959Y-71852577D01*
X96498096Y-72240961D01*
X96620084Y-72462998D01*
X96493000Y-72462998D01*
X96493000Y-70458445D01*
X96636136Y-70804005D01*
X96882255Y-70878139D01*
X97710395Y-70050000D01*
X98069605Y-70050000D01*
X98897745Y-70878139D01*
X99143864Y-70804005D01*
X99336965Y-70266777D01*
X99309778Y-69696546D01*
X99143864Y-69295995D01*
X98897745Y-69221861D01*
X98069605Y-70050000D01*
X97710395Y-70050000D01*
X96882255Y-69221861D01*
X96636136Y-69295995D01*
X96493000Y-69694215D01*
X96493000Y-68517745D01*
X97061861Y-68517745D01*
X97135995Y-68763864D01*
X97177709Y-68778858D01*
X97135995Y-68796136D01*
X97061861Y-69042255D01*
X97890000Y-69870395D01*
X98718139Y-69042255D01*
X98644005Y-68796136D01*
X98602291Y-68781142D01*
X98644005Y-68763864D01*
X98718139Y-68517745D01*
X97890000Y-67689605D01*
X97061861Y-68517745D01*
X96493000Y-68517745D01*
X96493000Y-67918445D01*
X96636136Y-68264005D01*
X96882255Y-68338139D01*
X97710395Y-67510000D01*
X98069605Y-67510000D01*
X98897745Y-68338139D01*
X99143864Y-68264005D01*
X99336965Y-67726777D01*
X99309778Y-67156546D01*
X99143864Y-66755995D01*
X98897745Y-66681861D01*
X98069605Y-67510000D01*
X97710395Y-67510000D01*
X96882255Y-66681861D01*
X96636136Y-66755995D01*
X96493000Y-67154215D01*
X96493000Y-65977745D01*
X97061861Y-65977745D01*
X97135995Y-66223864D01*
X97177709Y-66238858D01*
X97135995Y-66256136D01*
X97061861Y-66502255D01*
X97890000Y-67330395D01*
X98718139Y-66502255D01*
X98644005Y-66256136D01*
X98602291Y-66241142D01*
X98644005Y-66223864D01*
X98718139Y-65977745D01*
X97890000Y-65149605D01*
X97061861Y-65977745D01*
X96493000Y-65977745D01*
X96493000Y-65378445D01*
X96636136Y-65724005D01*
X96882255Y-65798139D01*
X97710395Y-64970000D01*
X98069605Y-64970000D01*
X98897745Y-65798139D01*
X99143864Y-65724005D01*
X99336965Y-65186777D01*
X99309778Y-64616546D01*
X99143864Y-64215995D01*
X98897745Y-64141861D01*
X98069605Y-64970000D01*
X97710395Y-64970000D01*
X96882255Y-64141861D01*
X96636136Y-64215995D01*
X96493000Y-64614215D01*
X96493000Y-62806754D01*
X96672757Y-63241800D01*
X97076077Y-63645824D01*
X97190768Y-63693448D01*
X97135995Y-63716136D01*
X97061861Y-63962255D01*
X97890000Y-64790395D01*
X98718139Y-63962255D01*
X98658723Y-63765000D01*
X99160000Y-63765000D01*
X99670882Y-63663379D01*
X100103988Y-63373988D01*
X100393379Y-62940882D01*
X100495000Y-62430000D01*
X100419236Y-62049112D01*
X100430000Y-61995000D01*
X100430000Y-61351769D01*
X100509622Y-61272286D01*
X100674313Y-60875668D01*
X100674687Y-60446216D01*
X100510689Y-60049311D01*
X100207286Y-59745378D01*
X99810668Y-59580687D01*
X99381216Y-59580313D01*
X98984311Y-59744311D01*
X98680378Y-60047714D01*
X98515687Y-60444332D01*
X98515313Y-60873784D01*
X98606718Y-61095000D01*
X98416916Y-61095000D01*
X98176691Y-60995250D01*
X97605813Y-60994752D01*
X97078200Y-61212757D01*
X96674176Y-61616077D01*
X96493000Y-62052397D01*
X96493000Y-60312025D01*
X96706604Y-59992346D01*
X96793000Y-59558000D01*
X96706604Y-59123655D01*
X96682610Y-59087745D01*
X98131861Y-59087745D01*
X98205995Y-59333864D01*
X98743223Y-59526965D01*
X99313454Y-59499778D01*
X99714005Y-59333864D01*
X99788139Y-59087745D01*
X103211861Y-59087745D01*
X103285995Y-59333864D01*
X103823223Y-59526965D01*
X104393454Y-59499778D01*
X104794005Y-59333864D01*
X104868139Y-59087745D01*
X104040000Y-58259605D01*
X103211861Y-59087745D01*
X99788139Y-59087745D01*
X98960000Y-58259605D01*
X98131861Y-59087745D01*
X96682610Y-59087745D01*
X96460566Y-58755434D01*
X95568355Y-57863223D01*
X97513035Y-57863223D01*
X97540222Y-58433454D01*
X97706136Y-58834005D01*
X97952255Y-58908139D01*
X98780395Y-58080000D01*
X99139605Y-58080000D01*
X99967745Y-58908139D01*
X100213864Y-58834005D01*
X100406965Y-58296777D01*
X100386295Y-57863223D01*
X102593035Y-57863223D01*
X102620222Y-58433454D01*
X102786136Y-58834005D01*
X103032255Y-58908139D01*
X103860395Y-58080000D01*
X104219605Y-58080000D01*
X105047745Y-58908139D01*
X105293864Y-58834005D01*
X105486965Y-58296777D01*
X105459778Y-57726546D01*
X105293864Y-57325995D01*
X105047745Y-57251861D01*
X104219605Y-58080000D01*
X103860395Y-58080000D01*
X103032255Y-57251861D01*
X102786136Y-57325995D01*
X102593035Y-57863223D01*
X100386295Y-57863223D01*
X100379778Y-57726546D01*
X100213864Y-57325995D01*
X99967745Y-57251861D01*
X99139605Y-58080000D01*
X98780395Y-58080000D01*
X97952255Y-57251861D01*
X97706136Y-57325995D01*
X97513035Y-57863223D01*
X95568355Y-57863223D01*
X95154975Y-57449843D01*
X95155284Y-57096205D01*
X94906894Y-56495057D01*
X94447363Y-56034722D01*
X93846648Y-55785284D01*
X93196205Y-55784716D01*
X92595057Y-56033106D01*
X92403717Y-56224111D01*
X92089803Y-55910197D01*
X92047789Y-55882334D01*
X92000000Y-55873000D01*
X83052606Y-55873000D01*
X78127000Y-50947394D01*
X78127000Y-50803991D01*
X80279735Y-50803991D01*
X80512932Y-51368371D01*
X80944357Y-51800551D01*
X81508330Y-52034733D01*
X81744807Y-52034939D01*
X83552433Y-53842566D01*
X83793432Y-54003596D01*
X83920654Y-54088603D01*
X84355000Y-54175000D01*
X94679868Y-54175000D01*
X96887433Y-56382566D01*
X97055788Y-56495057D01*
X97255654Y-56628603D01*
X97610851Y-56699256D01*
X97695910Y-56831441D01*
X97908110Y-56976431D01*
X98146201Y-57024646D01*
X98131861Y-57072255D01*
X98960000Y-57900395D01*
X99788139Y-57072255D01*
X99773855Y-57024833D01*
X99995317Y-56983162D01*
X100211441Y-56844090D01*
X100299644Y-56715000D01*
X103145394Y-56715000D01*
X103226077Y-56795824D01*
X103292544Y-56823423D01*
X103285995Y-56826136D01*
X103211861Y-57072255D01*
X104040000Y-57900395D01*
X104868139Y-57072255D01*
X104794005Y-56826136D01*
X104787517Y-56823804D01*
X104851800Y-56797243D01*
X104934187Y-56715000D01*
X105474868Y-56715000D01*
X107584939Y-58825071D01*
X107584735Y-59058991D01*
X107817932Y-59623371D01*
X108249357Y-60055551D01*
X108813330Y-60289733D01*
X109423991Y-60290265D01*
X109988371Y-60057068D01*
X110420551Y-59625643D01*
X110654733Y-59061670D01*
X110655265Y-58451009D01*
X110422068Y-57886629D01*
X109990643Y-57454449D01*
X109426670Y-57220267D01*
X109190193Y-57220061D01*
X106747566Y-54777434D01*
X106730569Y-54766077D01*
X106379346Y-54531397D01*
X105945000Y-54445000D01*
X104934606Y-54445000D01*
X104853923Y-54364176D01*
X104326691Y-54145250D01*
X103755813Y-54144752D01*
X103228200Y-54362757D01*
X103145813Y-54445000D01*
X100299018Y-54445000D01*
X100224090Y-54328559D01*
X100011890Y-54183569D01*
X99760000Y-54132560D01*
X98160000Y-54132560D01*
X97924683Y-54176838D01*
X97904779Y-54189646D01*
X95952566Y-52237434D01*
X95952565Y-52237433D01*
X95584346Y-51991397D01*
X95150000Y-51905000D01*
X84825133Y-51905000D01*
X83633917Y-50713784D01*
X106770313Y-50713784D01*
X106934311Y-51110689D01*
X107237714Y-51414622D01*
X107634332Y-51579313D01*
X108063784Y-51579687D01*
X108460689Y-51415689D01*
X108764622Y-51112286D01*
X108929313Y-50715668D01*
X108929412Y-50601456D01*
X109465868Y-50065000D01*
X110671762Y-50065000D01*
X110580687Y-50284332D01*
X110580313Y-50713784D01*
X110744311Y-51110689D01*
X111038109Y-51405000D01*
X110390000Y-51405000D01*
X109764313Y-51529457D01*
X109233880Y-51883880D01*
X108879457Y-52414313D01*
X108755000Y-53040000D01*
X108879457Y-53665687D01*
X109233880Y-54196120D01*
X109764313Y-54550543D01*
X110390000Y-54675000D01*
X114565982Y-54675000D01*
X114640910Y-54791441D01*
X114853110Y-54936431D01*
X115105000Y-54987440D01*
X117105000Y-54987440D01*
X117340317Y-54943162D01*
X117556441Y-54804090D01*
X117661951Y-54649671D01*
X118019313Y-54888452D01*
X118645000Y-55012909D01*
X119270687Y-54888452D01*
X119801120Y-54534029D01*
X119915000Y-54363595D01*
X120028880Y-54534029D01*
X120559313Y-54888452D01*
X121185000Y-55012909D01*
X121810687Y-54888452D01*
X122341120Y-54534029D01*
X122455000Y-54363595D01*
X122568880Y-54534029D01*
X123099313Y-54888452D01*
X123725000Y-55012909D01*
X124350687Y-54888452D01*
X124670141Y-54675000D01*
X128805000Y-54675000D01*
X129430687Y-54550543D01*
X129961120Y-54196120D01*
X130315543Y-53665687D01*
X130440000Y-53040000D01*
X130315543Y-52414313D01*
X129961120Y-51883880D01*
X129430687Y-51529457D01*
X128805000Y-51405000D01*
X124670141Y-51405000D01*
X124350687Y-51191548D01*
X123725000Y-51067091D01*
X123099313Y-51191548D01*
X122820000Y-51378178D01*
X122820000Y-50500000D01*
X122695543Y-49874313D01*
X122341120Y-49343880D01*
X121810687Y-48989457D01*
X121185000Y-48865000D01*
X120806213Y-48940345D01*
X120505434Y-48639566D01*
X120374590Y-48552139D01*
X120234541Y-48458561D01*
X119915000Y-48395000D01*
X109120000Y-48395000D01*
X108800459Y-48458561D01*
X108660410Y-48552139D01*
X108529566Y-48639566D01*
X107748721Y-49420411D01*
X107636216Y-49420313D01*
X107239311Y-49584311D01*
X106935378Y-49887714D01*
X106770687Y-50284332D01*
X106770313Y-50713784D01*
X83633917Y-50713784D01*
X83350061Y-50429929D01*
X83350265Y-50196009D01*
X83117068Y-49631629D01*
X82685643Y-49199449D01*
X82121670Y-48965267D01*
X81511009Y-48964735D01*
X80946629Y-49197932D01*
X80514449Y-49629357D01*
X80280267Y-50193330D01*
X80279735Y-50803991D01*
X78127000Y-50803991D01*
X78127000Y-48185000D01*
X78500000Y-48185000D01*
X78762138Y-48132857D01*
X78984368Y-47984368D01*
X79283736Y-47685000D01*
X136932533Y-47685000D01*
X138263459Y-47949738D01*
G36*
X124787189Y-88844698D02*
X125252736Y-89155767D01*
X125801887Y-89265000D01*
X125858113Y-89265000D01*
X126046633Y-89227501D01*
X126900000Y-90080868D01*
X126900000Y-91294132D01*
X126593560Y-91600572D01*
X126465000Y-91575000D01*
X124058723Y-91575000D01*
X124118139Y-91377745D01*
X123290000Y-90549605D01*
X122461861Y-91377745D01*
X122535995Y-91623864D01*
X122554319Y-91630450D01*
X122210853Y-91859946D01*
X122125000Y-91988434D01*
X122125000Y-91150772D01*
X122282255Y-91198139D01*
X123110395Y-90370000D01*
X123469605Y-90370000D01*
X124297745Y-91198139D01*
X124543864Y-91124005D01*
X124736965Y-90586777D01*
X124709778Y-90016546D01*
X124543864Y-89615995D01*
X124297745Y-89541861D01*
X123469605Y-90370000D01*
X123110395Y-90370000D01*
X122282255Y-89541861D01*
X122036136Y-89615995D01*
X122033804Y-89622483D01*
X122007243Y-89558200D01*
X121811640Y-89362255D01*
X122461861Y-89362255D01*
X123290000Y-90190395D01*
X124118139Y-89362255D01*
X124044005Y-89116136D01*
X123506777Y-88923035D01*
X122936546Y-88950222D01*
X122535995Y-89116136D01*
X122461861Y-89362255D01*
X121811640Y-89362255D01*
X121603923Y-89154176D01*
X121076691Y-88935250D01*
X120505813Y-88934752D01*
X119978200Y-89152757D01*
X119574176Y-89556077D01*
X119355250Y-90083309D01*
X119354752Y-90654187D01*
X119455000Y-90896806D01*
X119455000Y-91575000D01*
X117005000Y-91575000D01*
X117005000Y-90766535D01*
X117054759Y-90646702D01*
X117055240Y-90095715D01*
X116988834Y-89935000D01*
X118845000Y-89935000D01*
X119164541Y-89871439D01*
X119435434Y-89690434D01*
X120460868Y-88665000D01*
X124667118Y-88665000D01*
X124787189Y-88844698D01*
X124787189Y-88844698D01*
G37*
X124787189Y-88844698D02*
X125252736Y-89155767D01*
X125801887Y-89265000D01*
X125858113Y-89265000D01*
X126046633Y-89227501D01*
X126900000Y-90080868D01*
X126900000Y-91294132D01*
X126593560Y-91600572D01*
X126465000Y-91575000D01*
X124058723Y-91575000D01*
X124118139Y-91377745D01*
X123290000Y-90549605D01*
X122461861Y-91377745D01*
X122535995Y-91623864D01*
X122554319Y-91630450D01*
X122210853Y-91859946D01*
X122125000Y-91988434D01*
X122125000Y-91150772D01*
X122282255Y-91198139D01*
X123110395Y-90370000D01*
X123469605Y-90370000D01*
X124297745Y-91198139D01*
X124543864Y-91124005D01*
X124736965Y-90586777D01*
X124709778Y-90016546D01*
X124543864Y-89615995D01*
X124297745Y-89541861D01*
X123469605Y-90370000D01*
X123110395Y-90370000D01*
X122282255Y-89541861D01*
X122036136Y-89615995D01*
X122033804Y-89622483D01*
X122007243Y-89558200D01*
X121811640Y-89362255D01*
X122461861Y-89362255D01*
X123290000Y-90190395D01*
X124118139Y-89362255D01*
X124044005Y-89116136D01*
X123506777Y-88923035D01*
X122936546Y-88950222D01*
X122535995Y-89116136D01*
X122461861Y-89362255D01*
X121811640Y-89362255D01*
X121603923Y-89154176D01*
X121076691Y-88935250D01*
X120505813Y-88934752D01*
X119978200Y-89152757D01*
X119574176Y-89556077D01*
X119355250Y-90083309D01*
X119354752Y-90654187D01*
X119455000Y-90896806D01*
X119455000Y-91575000D01*
X117005000Y-91575000D01*
X117005000Y-90766535D01*
X117054759Y-90646702D01*
X117055240Y-90095715D01*
X116988834Y-89935000D01*
X118845000Y-89935000D01*
X119164541Y-89871439D01*
X119435434Y-89690434D01*
X120460868Y-88665000D01*
X124667118Y-88665000D01*
X124787189Y-88844698D01*
G36*
X134855000Y-66075132D02*
X134855000Y-81009868D01*
X134762440Y-81102428D01*
X134762440Y-79210000D01*
X134718162Y-78974683D01*
X134579090Y-78758559D01*
X134412380Y-78644651D01*
X134674144Y-78178355D01*
X134705124Y-78050434D01*
X134585777Y-77797000D01*
X132942000Y-77797000D01*
X132942000Y-77817000D01*
X132688000Y-77817000D01*
X132688000Y-77797000D01*
X131044223Y-77797000D01*
X130924876Y-78050434D01*
X130955856Y-78178355D01*
X131178520Y-78575000D01*
X129640000Y-78575000D01*
X129014313Y-78699457D01*
X128483880Y-79053880D01*
X128129457Y-79584313D01*
X128005000Y-80210000D01*
X128009955Y-80234913D01*
X127567434Y-80677434D01*
X127321397Y-81045654D01*
X127300000Y-81153224D01*
X127300000Y-79575000D01*
X127236439Y-79255459D01*
X127159292Y-79140000D01*
X127735000Y-79140000D01*
X128054541Y-79076439D01*
X128325434Y-78895434D01*
X130531213Y-76689655D01*
X130910000Y-76765000D01*
X131178520Y-76765000D01*
X130955856Y-77161645D01*
X130924876Y-77289566D01*
X131044223Y-77543000D01*
X132688000Y-77543000D01*
X132688000Y-77523000D01*
X132942000Y-77523000D01*
X132942000Y-77543000D01*
X134585777Y-77543000D01*
X134705124Y-77289566D01*
X134674144Y-77161645D01*
X134360922Y-76603683D01*
X134118812Y-76413219D01*
X134309029Y-76286120D01*
X134663452Y-75755687D01*
X134787909Y-75130000D01*
X134663452Y-74504313D01*
X134309029Y-73973880D01*
X134138595Y-73860000D01*
X134309029Y-73746120D01*
X134663452Y-73215687D01*
X134787909Y-72590000D01*
X134663452Y-71964313D01*
X134309029Y-71433880D01*
X134138595Y-71320000D01*
X134309029Y-71206120D01*
X134663452Y-70675687D01*
X134787909Y-70050000D01*
X134663452Y-69424313D01*
X134423907Y-69065808D01*
X134566441Y-68974090D01*
X134711431Y-68761890D01*
X134762440Y-68510000D01*
X134762440Y-66510000D01*
X134718162Y-66274683D01*
X134579090Y-66058559D01*
X134366890Y-65913569D01*
X134250000Y-65889898D01*
X134250000Y-65470132D01*
X134855000Y-66075132D01*
X134855000Y-66075132D01*
G37*
X134855000Y-66075132D02*
X134855000Y-81009868D01*
X134762440Y-81102428D01*
X134762440Y-79210000D01*
X134718162Y-78974683D01*
X134579090Y-78758559D01*
X134412380Y-78644651D01*
X134674144Y-78178355D01*
X134705124Y-78050434D01*
X134585777Y-77797000D01*
X132942000Y-77797000D01*
X132942000Y-77817000D01*
X132688000Y-77817000D01*
X132688000Y-77797000D01*
X131044223Y-77797000D01*
X130924876Y-78050434D01*
X130955856Y-78178355D01*
X131178520Y-78575000D01*
X129640000Y-78575000D01*
X129014313Y-78699457D01*
X128483880Y-79053880D01*
X128129457Y-79584313D01*
X128005000Y-80210000D01*
X128009955Y-80234913D01*
X127567434Y-80677434D01*
X127321397Y-81045654D01*
X127300000Y-81153224D01*
X127300000Y-79575000D01*
X127236439Y-79255459D01*
X127159292Y-79140000D01*
X127735000Y-79140000D01*
X128054541Y-79076439D01*
X128325434Y-78895434D01*
X130531213Y-76689655D01*
X130910000Y-76765000D01*
X131178520Y-76765000D01*
X130955856Y-77161645D01*
X130924876Y-77289566D01*
X131044223Y-77543000D01*
X132688000Y-77543000D01*
X132688000Y-77523000D01*
X132942000Y-77523000D01*
X132942000Y-77543000D01*
X134585777Y-77543000D01*
X134705124Y-77289566D01*
X134674144Y-77161645D01*
X134360922Y-76603683D01*
X134118812Y-76413219D01*
X134309029Y-76286120D01*
X134663452Y-75755687D01*
X134787909Y-75130000D01*
X134663452Y-74504313D01*
X134309029Y-73973880D01*
X134138595Y-73860000D01*
X134309029Y-73746120D01*
X134663452Y-73215687D01*
X134787909Y-72590000D01*
X134663452Y-71964313D01*
X134309029Y-71433880D01*
X134138595Y-71320000D01*
X134309029Y-71206120D01*
X134663452Y-70675687D01*
X134787909Y-70050000D01*
X134663452Y-69424313D01*
X134423907Y-69065808D01*
X134566441Y-68974090D01*
X134711431Y-68761890D01*
X134762440Y-68510000D01*
X134762440Y-66510000D01*
X134718162Y-66274683D01*
X134579090Y-66058559D01*
X134366890Y-65913569D01*
X134250000Y-65889898D01*
X134250000Y-65470132D01*
X134855000Y-66075132D01*
G36*
X92873000Y-86186605D02*
X92547073Y-86512532D01*
X92560164Y-86547938D01*
X92134722Y-86972637D01*
X91885284Y-87573352D01*
X91884716Y-88223795D01*
X92133106Y-88824943D01*
X92477759Y-89170199D01*
X92134722Y-89512637D01*
X91885284Y-90113352D01*
X91884716Y-90763795D01*
X92133106Y-91364943D01*
X92477759Y-91710199D01*
X92134722Y-92052637D01*
X91885284Y-92653352D01*
X91884716Y-93303795D01*
X92133106Y-93904943D01*
X92592637Y-94365278D01*
X92873000Y-94481695D01*
X92873000Y-101315000D01*
X65127000Y-101315000D01*
X65127000Y-99277532D01*
X65602073Y-99277532D01*
X65700736Y-99544387D01*
X66310461Y-99770908D01*
X66960460Y-99746856D01*
X67449264Y-99544387D01*
X67547927Y-99277532D01*
X73222073Y-99277532D01*
X73320736Y-99544387D01*
X73930461Y-99770908D01*
X74580460Y-99746856D01*
X75069264Y-99544387D01*
X75167927Y-99277532D01*
X74195000Y-98304605D01*
X73222073Y-99277532D01*
X67547927Y-99277532D01*
X66575000Y-98304605D01*
X65602073Y-99277532D01*
X65127000Y-99277532D01*
X65127000Y-98930186D01*
X65155613Y-98999264D01*
X65422468Y-99097927D01*
X66395395Y-98125000D01*
X66754605Y-98125000D01*
X67727532Y-99097927D01*
X67994387Y-98999264D01*
X68220908Y-98389539D01*
X68201331Y-97860461D01*
X72549092Y-97860461D01*
X72573144Y-98510460D01*
X72775613Y-98999264D01*
X73042468Y-99097927D01*
X74015395Y-98125000D01*
X74374605Y-98125000D01*
X75347532Y-99097927D01*
X75614387Y-98999264D01*
X75840908Y-98389539D01*
X75816856Y-97739540D01*
X75614387Y-97250736D01*
X75347532Y-97152073D01*
X74374605Y-98125000D01*
X74015395Y-98125000D01*
X73042468Y-97152073D01*
X72775613Y-97250736D01*
X72549092Y-97860461D01*
X68201331Y-97860461D01*
X68196856Y-97739540D01*
X67994387Y-97250736D01*
X67727532Y-97152073D01*
X66754605Y-98125000D01*
X66395395Y-98125000D01*
X65422468Y-97152073D01*
X65155613Y-97250736D01*
X65127000Y-97327753D01*
X65127000Y-96972468D01*
X65602073Y-96972468D01*
X66575000Y-97945395D01*
X67547927Y-96972468D01*
X73222073Y-96972468D01*
X74195000Y-97945395D01*
X75167927Y-96972468D01*
X75069264Y-96705613D01*
X74459539Y-96479092D01*
X73809540Y-96503144D01*
X73320736Y-96705613D01*
X73222073Y-96972468D01*
X67547927Y-96972468D01*
X67449264Y-96705613D01*
X66839539Y-96479092D01*
X66189540Y-96503144D01*
X65700736Y-96705613D01*
X65602073Y-96972468D01*
X65127000Y-96972468D01*
X65127000Y-96127000D01*
X67708204Y-96127000D01*
X67930849Y-96275767D01*
X68480000Y-96385000D01*
X72290000Y-96385000D01*
X72839151Y-96275767D01*
X73061796Y-96127000D01*
X76000000Y-96127000D01*
X76049410Y-96116994D01*
X76091035Y-96088553D01*
X76118315Y-96046159D01*
X76127000Y-96000000D01*
X76127000Y-93563868D01*
X76644941Y-93045927D01*
X76644716Y-93303795D01*
X76893106Y-93904943D01*
X77352637Y-94365278D01*
X77953352Y-94614716D01*
X78603795Y-94615284D01*
X79204943Y-94366894D01*
X79665278Y-93907363D01*
X79914260Y-93307745D01*
X81271861Y-93307745D01*
X81345995Y-93553864D01*
X81883223Y-93746965D01*
X82453454Y-93719778D01*
X82854005Y-93553864D01*
X82928139Y-93307745D01*
X82100000Y-92479605D01*
X81271861Y-93307745D01*
X79914260Y-93307745D01*
X79914716Y-93306648D01*
X79915284Y-92656205D01*
X79678532Y-92083223D01*
X80653035Y-92083223D01*
X80680222Y-92653454D01*
X80846136Y-93054005D01*
X81092255Y-93128139D01*
X81920395Y-92300000D01*
X82279605Y-92300000D01*
X83107745Y-93128139D01*
X83353864Y-93054005D01*
X83546965Y-92516777D01*
X83519778Y-91946546D01*
X83353864Y-91545995D01*
X83107745Y-91471861D01*
X82279605Y-92300000D01*
X81920395Y-92300000D01*
X81092255Y-91471861D01*
X80846136Y-91545995D01*
X80653035Y-92083223D01*
X79678532Y-92083223D01*
X79666894Y-92055057D01*
X79240022Y-91627438D01*
X79252927Y-91592532D01*
X78280000Y-90619605D01*
X77307073Y-91592532D01*
X77320164Y-91627938D01*
X76935000Y-92012429D01*
X76935000Y-91341767D01*
X77127468Y-91412927D01*
X78100395Y-90440000D01*
X78459605Y-90440000D01*
X79432532Y-91412927D01*
X79699387Y-91314264D01*
X79925908Y-90704539D01*
X79901856Y-90054540D01*
X79699387Y-89565736D01*
X79432532Y-89467073D01*
X78459605Y-90440000D01*
X78100395Y-90440000D01*
X78086253Y-90425858D01*
X78265858Y-90246253D01*
X78280000Y-90260395D01*
X79252927Y-89287468D01*
X79182599Y-89097252D01*
X79538188Y-88742283D01*
X79764742Y-88196681D01*
X79764874Y-88045742D01*
X80509566Y-88790434D01*
X80780459Y-88971439D01*
X80811417Y-88977597D01*
X80705241Y-89233298D01*
X80704760Y-89784285D01*
X80915169Y-90293515D01*
X81304436Y-90683461D01*
X81775020Y-90878864D01*
X81746546Y-90880222D01*
X81345995Y-91046136D01*
X81271861Y-91292255D01*
X82100000Y-92120395D01*
X82928139Y-91292255D01*
X82854005Y-91046136D01*
X82396809Y-90881802D01*
X82485875Y-90845000D01*
X83995000Y-90845000D01*
X84123560Y-90819428D01*
X85475572Y-92171440D01*
X85450000Y-92300000D01*
X85551621Y-92810882D01*
X85841012Y-93243988D01*
X86274118Y-93533379D01*
X86785000Y-93635000D01*
X89189153Y-93635000D01*
X89691887Y-93735000D01*
X89748113Y-93735000D01*
X90297264Y-93625767D01*
X90762811Y-93314698D01*
X91073880Y-92849151D01*
X91183113Y-92300000D01*
X91073880Y-91750849D01*
X90762811Y-91285302D01*
X90297264Y-90974233D01*
X89899769Y-90895166D01*
X89984285Y-90895240D01*
X90493515Y-90684831D01*
X90883461Y-90295564D01*
X91094759Y-89786702D01*
X91095240Y-89235715D01*
X90884831Y-88726485D01*
X90495564Y-88336539D01*
X90279021Y-88246623D01*
X90433923Y-88182460D01*
X90501912Y-87941517D01*
X89710000Y-87149605D01*
X89695858Y-87163748D01*
X89516253Y-86984143D01*
X89530395Y-86970000D01*
X89516253Y-86955858D01*
X89695858Y-86776253D01*
X89710000Y-86790395D01*
X89724143Y-86776253D01*
X89903748Y-86955858D01*
X89889605Y-86970000D01*
X90681517Y-87761912D01*
X90922460Y-87693923D01*
X91107201Y-87174829D01*
X91085168Y-86741371D01*
X91442566Y-86502566D01*
X91986459Y-85958673D01*
X92100613Y-86234264D01*
X92367468Y-86332927D01*
X92873000Y-85827395D01*
X92873000Y-86186605D01*
X92873000Y-86186605D01*
G37*
X92873000Y-86186605D02*
X92547073Y-86512532D01*
X92560164Y-86547938D01*
X92134722Y-86972637D01*
X91885284Y-87573352D01*
X91884716Y-88223795D01*
X92133106Y-88824943D01*
X92477759Y-89170199D01*
X92134722Y-89512637D01*
X91885284Y-90113352D01*
X91884716Y-90763795D01*
X92133106Y-91364943D01*
X92477759Y-91710199D01*
X92134722Y-92052637D01*
X91885284Y-92653352D01*
X91884716Y-93303795D01*
X92133106Y-93904943D01*
X92592637Y-94365278D01*
X92873000Y-94481695D01*
X92873000Y-101315000D01*
X65127000Y-101315000D01*
X65127000Y-99277532D01*
X65602073Y-99277532D01*
X65700736Y-99544387D01*
X66310461Y-99770908D01*
X66960460Y-99746856D01*
X67449264Y-99544387D01*
X67547927Y-99277532D01*
X73222073Y-99277532D01*
X73320736Y-99544387D01*
X73930461Y-99770908D01*
X74580460Y-99746856D01*
X75069264Y-99544387D01*
X75167927Y-99277532D01*
X74195000Y-98304605D01*
X73222073Y-99277532D01*
X67547927Y-99277532D01*
X66575000Y-98304605D01*
X65602073Y-99277532D01*
X65127000Y-99277532D01*
X65127000Y-98930186D01*
X65155613Y-98999264D01*
X65422468Y-99097927D01*
X66395395Y-98125000D01*
X66754605Y-98125000D01*
X67727532Y-99097927D01*
X67994387Y-98999264D01*
X68220908Y-98389539D01*
X68201331Y-97860461D01*
X72549092Y-97860461D01*
X72573144Y-98510460D01*
X72775613Y-98999264D01*
X73042468Y-99097927D01*
X74015395Y-98125000D01*
X74374605Y-98125000D01*
X75347532Y-99097927D01*
X75614387Y-98999264D01*
X75840908Y-98389539D01*
X75816856Y-97739540D01*
X75614387Y-97250736D01*
X75347532Y-97152073D01*
X74374605Y-98125000D01*
X74015395Y-98125000D01*
X73042468Y-97152073D01*
X72775613Y-97250736D01*
X72549092Y-97860461D01*
X68201331Y-97860461D01*
X68196856Y-97739540D01*
X67994387Y-97250736D01*
X67727532Y-97152073D01*
X66754605Y-98125000D01*
X66395395Y-98125000D01*
X65422468Y-97152073D01*
X65155613Y-97250736D01*
X65127000Y-97327753D01*
X65127000Y-96972468D01*
X65602073Y-96972468D01*
X66575000Y-97945395D01*
X67547927Y-96972468D01*
X73222073Y-96972468D01*
X74195000Y-97945395D01*
X75167927Y-96972468D01*
X75069264Y-96705613D01*
X74459539Y-96479092D01*
X73809540Y-96503144D01*
X73320736Y-96705613D01*
X73222073Y-96972468D01*
X67547927Y-96972468D01*
X67449264Y-96705613D01*
X66839539Y-96479092D01*
X66189540Y-96503144D01*
X65700736Y-96705613D01*
X65602073Y-96972468D01*
X65127000Y-96972468D01*
X65127000Y-96127000D01*
X67708204Y-96127000D01*
X67930849Y-96275767D01*
X68480000Y-96385000D01*
X72290000Y-96385000D01*
X72839151Y-96275767D01*
X73061796Y-96127000D01*
X76000000Y-96127000D01*
X76049410Y-96116994D01*
X76091035Y-96088553D01*
X76118315Y-96046159D01*
X76127000Y-96000000D01*
X76127000Y-93563868D01*
X76644941Y-93045927D01*
X76644716Y-93303795D01*
X76893106Y-93904943D01*
X77352637Y-94365278D01*
X77953352Y-94614716D01*
X78603795Y-94615284D01*
X79204943Y-94366894D01*
X79665278Y-93907363D01*
X79914260Y-93307745D01*
X81271861Y-93307745D01*
X81345995Y-93553864D01*
X81883223Y-93746965D01*
X82453454Y-93719778D01*
X82854005Y-93553864D01*
X82928139Y-93307745D01*
X82100000Y-92479605D01*
X81271861Y-93307745D01*
X79914260Y-93307745D01*
X79914716Y-93306648D01*
X79915284Y-92656205D01*
X79678532Y-92083223D01*
X80653035Y-92083223D01*
X80680222Y-92653454D01*
X80846136Y-93054005D01*
X81092255Y-93128139D01*
X81920395Y-92300000D01*
X82279605Y-92300000D01*
X83107745Y-93128139D01*
X83353864Y-93054005D01*
X83546965Y-92516777D01*
X83519778Y-91946546D01*
X83353864Y-91545995D01*
X83107745Y-91471861D01*
X82279605Y-92300000D01*
X81920395Y-92300000D01*
X81092255Y-91471861D01*
X80846136Y-91545995D01*
X80653035Y-92083223D01*
X79678532Y-92083223D01*
X79666894Y-92055057D01*
X79240022Y-91627438D01*
X79252927Y-91592532D01*
X78280000Y-90619605D01*
X77307073Y-91592532D01*
X77320164Y-91627938D01*
X76935000Y-92012429D01*
X76935000Y-91341767D01*
X77127468Y-91412927D01*
X78100395Y-90440000D01*
X78459605Y-90440000D01*
X79432532Y-91412927D01*
X79699387Y-91314264D01*
X79925908Y-90704539D01*
X79901856Y-90054540D01*
X79699387Y-89565736D01*
X79432532Y-89467073D01*
X78459605Y-90440000D01*
X78100395Y-90440000D01*
X78086253Y-90425858D01*
X78265858Y-90246253D01*
X78280000Y-90260395D01*
X79252927Y-89287468D01*
X79182599Y-89097252D01*
X79538188Y-88742283D01*
X79764742Y-88196681D01*
X79764874Y-88045742D01*
X80509566Y-88790434D01*
X80780459Y-88971439D01*
X80811417Y-88977597D01*
X80705241Y-89233298D01*
X80704760Y-89784285D01*
X80915169Y-90293515D01*
X81304436Y-90683461D01*
X81775020Y-90878864D01*
X81746546Y-90880222D01*
X81345995Y-91046136D01*
X81271861Y-91292255D01*
X82100000Y-92120395D01*
X82928139Y-91292255D01*
X82854005Y-91046136D01*
X82396809Y-90881802D01*
X82485875Y-90845000D01*
X83995000Y-90845000D01*
X84123560Y-90819428D01*
X85475572Y-92171440D01*
X85450000Y-92300000D01*
X85551621Y-92810882D01*
X85841012Y-93243988D01*
X86274118Y-93533379D01*
X86785000Y-93635000D01*
X89189153Y-93635000D01*
X89691887Y-93735000D01*
X89748113Y-93735000D01*
X90297264Y-93625767D01*
X90762811Y-93314698D01*
X91073880Y-92849151D01*
X91183113Y-92300000D01*
X91073880Y-91750849D01*
X90762811Y-91285302D01*
X90297264Y-90974233D01*
X89899769Y-90895166D01*
X89984285Y-90895240D01*
X90493515Y-90684831D01*
X90883461Y-90295564D01*
X91094759Y-89786702D01*
X91095240Y-89235715D01*
X90884831Y-88726485D01*
X90495564Y-88336539D01*
X90279021Y-88246623D01*
X90433923Y-88182460D01*
X90501912Y-87941517D01*
X89710000Y-87149605D01*
X89695858Y-87163748D01*
X89516253Y-86984143D01*
X89530395Y-86970000D01*
X89516253Y-86955858D01*
X89695858Y-86776253D01*
X89710000Y-86790395D01*
X89724143Y-86776253D01*
X89903748Y-86955858D01*
X89889605Y-86970000D01*
X90681517Y-87761912D01*
X90922460Y-87693923D01*
X91107201Y-87174829D01*
X91085168Y-86741371D01*
X91442566Y-86502566D01*
X91986459Y-85958673D01*
X92100613Y-86234264D01*
X92367468Y-86332927D01*
X92873000Y-85827395D01*
X92873000Y-86186605D01*
G36*
X84155000Y-66085868D02*
X84155000Y-81269132D01*
X83474949Y-81949183D01*
X83475240Y-81615715D01*
X83264831Y-81106485D01*
X82875564Y-80716539D01*
X82366702Y-80505241D01*
X81815715Y-80504760D01*
X81306485Y-80715169D01*
X80916539Y-81104436D01*
X80705241Y-81613298D01*
X80704760Y-82164285D01*
X80871615Y-82568106D01*
X80809566Y-82609566D01*
X79954566Y-83464566D01*
X79773561Y-83735459D01*
X79710000Y-84055000D01*
X79710000Y-84539381D01*
X79666894Y-84435057D01*
X79322241Y-84089801D01*
X79665278Y-83747363D01*
X79914716Y-83146648D01*
X79915284Y-82496205D01*
X79666894Y-81895057D01*
X79207363Y-81434722D01*
X79119999Y-81398445D01*
X79453461Y-81065564D01*
X79664759Y-80556702D01*
X79665240Y-80005715D01*
X79454831Y-79496485D01*
X79098967Y-79140000D01*
X79910000Y-79140000D01*
X80420882Y-79038379D01*
X80853988Y-78748988D01*
X81143379Y-78315882D01*
X81245000Y-77805000D01*
X81219428Y-77676440D01*
X81770434Y-77125434D01*
X81797161Y-77085434D01*
X81951439Y-76854541D01*
X82000910Y-76605835D01*
X82094622Y-76512286D01*
X82259313Y-76115668D01*
X82259687Y-75686216D01*
X82095689Y-75289311D01*
X81792286Y-74985378D01*
X81395668Y-74820687D01*
X80966216Y-74820313D01*
X80569311Y-74984311D01*
X80265378Y-75287714D01*
X80100687Y-75684332D01*
X80100313Y-76113784D01*
X80193886Y-76340246D01*
X80038560Y-76495572D01*
X79910000Y-76470000D01*
X79322042Y-76470000D01*
X79665278Y-76127363D01*
X79914716Y-75526648D01*
X79915284Y-74876205D01*
X79693690Y-74339909D01*
X79853277Y-74233277D01*
X79878853Y-74195000D01*
X80488231Y-74195000D01*
X80567714Y-74274622D01*
X80964332Y-74439313D01*
X81393784Y-74439687D01*
X81790689Y-74275689D01*
X82094622Y-73972286D01*
X82259313Y-73575668D01*
X82259687Y-73146216D01*
X82095689Y-72749311D01*
X81792286Y-72445378D01*
X81701332Y-72407611D01*
X81790689Y-72370689D01*
X82094622Y-72067286D01*
X82259313Y-71670668D01*
X82259412Y-71556456D01*
X82405434Y-71410434D01*
X82586440Y-71139540D01*
X82650000Y-70820000D01*
X82650000Y-67645000D01*
X82637071Y-67580000D01*
X82586440Y-67325460D01*
X82405434Y-67054566D01*
X80584428Y-65233560D01*
X80610000Y-65105000D01*
X80508379Y-64594118D01*
X80218988Y-64161012D01*
X79785882Y-63871621D01*
X79275000Y-63770000D01*
X78833188Y-63770000D01*
X79063515Y-63674831D01*
X79453461Y-63285564D01*
X79664759Y-62776702D01*
X79665240Y-62225715D01*
X79625691Y-62130000D01*
X80199132Y-62130000D01*
X84155000Y-66085868D01*
X84155000Y-66085868D01*
G37*
X84155000Y-66085868D02*
X84155000Y-81269132D01*
X83474949Y-81949183D01*
X83475240Y-81615715D01*
X83264831Y-81106485D01*
X82875564Y-80716539D01*
X82366702Y-80505241D01*
X81815715Y-80504760D01*
X81306485Y-80715169D01*
X80916539Y-81104436D01*
X80705241Y-81613298D01*
X80704760Y-82164285D01*
X80871615Y-82568106D01*
X80809566Y-82609566D01*
X79954566Y-83464566D01*
X79773561Y-83735459D01*
X79710000Y-84055000D01*
X79710000Y-84539381D01*
X79666894Y-84435057D01*
X79322241Y-84089801D01*
X79665278Y-83747363D01*
X79914716Y-83146648D01*
X79915284Y-82496205D01*
X79666894Y-81895057D01*
X79207363Y-81434722D01*
X79119999Y-81398445D01*
X79453461Y-81065564D01*
X79664759Y-80556702D01*
X79665240Y-80005715D01*
X79454831Y-79496485D01*
X79098967Y-79140000D01*
X79910000Y-79140000D01*
X80420882Y-79038379D01*
X80853988Y-78748988D01*
X81143379Y-78315882D01*
X81245000Y-77805000D01*
X81219428Y-77676440D01*
X81770434Y-77125434D01*
X81797161Y-77085434D01*
X81951439Y-76854541D01*
X82000910Y-76605835D01*
X82094622Y-76512286D01*
X82259313Y-76115668D01*
X82259687Y-75686216D01*
X82095689Y-75289311D01*
X81792286Y-74985378D01*
X81395668Y-74820687D01*
X80966216Y-74820313D01*
X80569311Y-74984311D01*
X80265378Y-75287714D01*
X80100687Y-75684332D01*
X80100313Y-76113784D01*
X80193886Y-76340246D01*
X80038560Y-76495572D01*
X79910000Y-76470000D01*
X79322042Y-76470000D01*
X79665278Y-76127363D01*
X79914716Y-75526648D01*
X79915284Y-74876205D01*
X79693690Y-74339909D01*
X79853277Y-74233277D01*
X79878853Y-74195000D01*
X80488231Y-74195000D01*
X80567714Y-74274622D01*
X80964332Y-74439313D01*
X81393784Y-74439687D01*
X81790689Y-74275689D01*
X82094622Y-73972286D01*
X82259313Y-73575668D01*
X82259687Y-73146216D01*
X82095689Y-72749311D01*
X81792286Y-72445378D01*
X81701332Y-72407611D01*
X81790689Y-72370689D01*
X82094622Y-72067286D01*
X82259313Y-71670668D01*
X82259412Y-71556456D01*
X82405434Y-71410434D01*
X82586440Y-71139540D01*
X82650000Y-70820000D01*
X82650000Y-67645000D01*
X82637071Y-67580000D01*
X82586440Y-67325460D01*
X82405434Y-67054566D01*
X80584428Y-65233560D01*
X80610000Y-65105000D01*
X80508379Y-64594118D01*
X80218988Y-64161012D01*
X79785882Y-63871621D01*
X79275000Y-63770000D01*
X78833188Y-63770000D01*
X79063515Y-63674831D01*
X79453461Y-63285564D01*
X79664759Y-62776702D01*
X79665240Y-62225715D01*
X79625691Y-62130000D01*
X80199132Y-62130000D01*
X84155000Y-66085868D01*
G36*
X35015632Y-47984368D02*
X35237862Y-48132857D01*
X35500000Y-48185000D01*
X42005394Y-48185000D01*
X42705897Y-48885503D01*
X42155057Y-49113106D01*
X41727438Y-49539978D01*
X41692532Y-49527073D01*
X40719605Y-50500000D01*
X40733748Y-50514143D01*
X40554143Y-50693748D01*
X40540000Y-50679605D01*
X40525858Y-50693748D01*
X40346253Y-50514143D01*
X40360395Y-50500000D01*
X39387468Y-49527073D01*
X39352062Y-49540164D01*
X39159703Y-49347468D01*
X39567073Y-49347468D01*
X40540000Y-50320395D01*
X41512927Y-49347468D01*
X41414264Y-49080613D01*
X40804539Y-48854092D01*
X40154540Y-48878144D01*
X39665736Y-49080613D01*
X39567073Y-49347468D01*
X39159703Y-49347468D01*
X38927363Y-49114722D01*
X38326648Y-48865284D01*
X37676205Y-48864716D01*
X37075057Y-49113106D01*
X36614722Y-49572637D01*
X36365284Y-50173352D01*
X36364716Y-50823795D01*
X36365000Y-50824482D01*
X36365000Y-53038574D01*
X36364973Y-53069895D01*
X35927434Y-53507434D01*
X35681397Y-53875654D01*
X35595000Y-54310000D01*
X35595000Y-56780982D01*
X35478559Y-56855910D01*
X35333569Y-57068110D01*
X35282560Y-57320000D01*
X35282560Y-57962308D01*
X34657434Y-58587434D01*
X34411397Y-58955654D01*
X34325000Y-59390000D01*
X34325000Y-62305394D01*
X34244176Y-62386077D01*
X34025250Y-62913309D01*
X34024752Y-63484187D01*
X34077652Y-63612216D01*
X34022434Y-63667434D01*
X33776397Y-64035654D01*
X33690000Y-64470000D01*
X33690000Y-65339095D01*
X33524449Y-65504357D01*
X33290267Y-66068330D01*
X33289735Y-66678991D01*
X33522932Y-67243371D01*
X33954357Y-67675551D01*
X34311160Y-67823708D01*
X32852434Y-69282434D01*
X32606397Y-69650654D01*
X32520000Y-70085000D01*
X32520000Y-87430000D01*
X32606397Y-87864346D01*
X32828456Y-88196681D01*
X32852434Y-88232566D01*
X33387434Y-88767566D01*
X39102434Y-94482567D01*
X39102437Y-94482569D01*
X40372434Y-95752566D01*
X40740654Y-95998603D01*
X41175000Y-96085000D01*
X58320000Y-96085000D01*
X58754346Y-95998603D01*
X59122566Y-95752566D01*
X60392566Y-94482566D01*
X62932566Y-91942567D01*
X63165331Y-91594209D01*
X63249436Y-91678461D01*
X63758298Y-91889759D01*
X64309285Y-91890240D01*
X64430875Y-91840000D01*
X65467845Y-91840000D01*
X65189722Y-92117637D01*
X64940284Y-92718352D01*
X64939716Y-93368795D01*
X65188106Y-93969943D01*
X65647637Y-94430278D01*
X66132011Y-94631407D01*
X66373604Y-94873000D01*
X64000000Y-94873000D01*
X63950590Y-94883006D01*
X63908965Y-94911447D01*
X63881685Y-94953841D01*
X63873000Y-95000000D01*
X63873000Y-101315000D01*
X31685000Y-101315000D01*
X31685000Y-98000000D01*
X32715000Y-98000000D01*
X32888935Y-98874432D01*
X33384261Y-99615739D01*
X34125568Y-100111065D01*
X35000000Y-100285000D01*
X35874432Y-100111065D01*
X36615739Y-99615739D01*
X37111065Y-98874432D01*
X37285000Y-98000000D01*
X37111065Y-97125568D01*
X36615739Y-96384261D01*
X35874432Y-95888935D01*
X35000000Y-95715000D01*
X34125568Y-95888935D01*
X33384261Y-96384261D01*
X32888935Y-97125568D01*
X32715000Y-98000000D01*
X31685000Y-98000000D01*
X31685000Y-51067467D01*
X31949738Y-49736541D01*
X32665429Y-48665432D01*
X33736540Y-47949738D01*
X34774532Y-47743268D01*
X35015632Y-47984368D01*
X35015632Y-47984368D01*
G37*
X35015632Y-47984368D02*
X35237862Y-48132857D01*
X35500000Y-48185000D01*
X42005394Y-48185000D01*
X42705897Y-48885503D01*
X42155057Y-49113106D01*
X41727438Y-49539978D01*
X41692532Y-49527073D01*
X40719605Y-50500000D01*
X40733748Y-50514143D01*
X40554143Y-50693748D01*
X40540000Y-50679605D01*
X40525858Y-50693748D01*
X40346253Y-50514143D01*
X40360395Y-50500000D01*
X39387468Y-49527073D01*
X39352062Y-49540164D01*
X39159703Y-49347468D01*
X39567073Y-49347468D01*
X40540000Y-50320395D01*
X41512927Y-49347468D01*
X41414264Y-49080613D01*
X40804539Y-48854092D01*
X40154540Y-48878144D01*
X39665736Y-49080613D01*
X39567073Y-49347468D01*
X39159703Y-49347468D01*
X38927363Y-49114722D01*
X38326648Y-48865284D01*
X37676205Y-48864716D01*
X37075057Y-49113106D01*
X36614722Y-49572637D01*
X36365284Y-50173352D01*
X36364716Y-50823795D01*
X36365000Y-50824482D01*
X36365000Y-53038574D01*
X36364973Y-53069895D01*
X35927434Y-53507434D01*
X35681397Y-53875654D01*
X35595000Y-54310000D01*
X35595000Y-56780982D01*
X35478559Y-56855910D01*
X35333569Y-57068110D01*
X35282560Y-57320000D01*
X35282560Y-57962308D01*
X34657434Y-58587434D01*
X34411397Y-58955654D01*
X34325000Y-59390000D01*
X34325000Y-62305394D01*
X34244176Y-62386077D01*
X34025250Y-62913309D01*
X34024752Y-63484187D01*
X34077652Y-63612216D01*
X34022434Y-63667434D01*
X33776397Y-64035654D01*
X33690000Y-64470000D01*
X33690000Y-65339095D01*
X33524449Y-65504357D01*
X33290267Y-66068330D01*
X33289735Y-66678991D01*
X33522932Y-67243371D01*
X33954357Y-67675551D01*
X34311160Y-67823708D01*
X32852434Y-69282434D01*
X32606397Y-69650654D01*
X32520000Y-70085000D01*
X32520000Y-87430000D01*
X32606397Y-87864346D01*
X32828456Y-88196681D01*
X32852434Y-88232566D01*
X33387434Y-88767566D01*
X39102434Y-94482567D01*
X39102437Y-94482569D01*
X40372434Y-95752566D01*
X40740654Y-95998603D01*
X41175000Y-96085000D01*
X58320000Y-96085000D01*
X58754346Y-95998603D01*
X59122566Y-95752566D01*
X60392566Y-94482566D01*
X62932566Y-91942567D01*
X63165331Y-91594209D01*
X63249436Y-91678461D01*
X63758298Y-91889759D01*
X64309285Y-91890240D01*
X64430875Y-91840000D01*
X65467845Y-91840000D01*
X65189722Y-92117637D01*
X64940284Y-92718352D01*
X64939716Y-93368795D01*
X65188106Y-93969943D01*
X65647637Y-94430278D01*
X66132011Y-94631407D01*
X66373604Y-94873000D01*
X64000000Y-94873000D01*
X63950590Y-94883006D01*
X63908965Y-94911447D01*
X63881685Y-94953841D01*
X63873000Y-95000000D01*
X63873000Y-101315000D01*
X31685000Y-101315000D01*
X31685000Y-98000000D01*
X32715000Y-98000000D01*
X32888935Y-98874432D01*
X33384261Y-99615739D01*
X34125568Y-100111065D01*
X35000000Y-100285000D01*
X35874432Y-100111065D01*
X36615739Y-99615739D01*
X37111065Y-98874432D01*
X37285000Y-98000000D01*
X37111065Y-97125568D01*
X36615739Y-96384261D01*
X35874432Y-95888935D01*
X35000000Y-95715000D01*
X34125568Y-95888935D01*
X33384261Y-96384261D01*
X32888935Y-97125568D01*
X32715000Y-98000000D01*
X31685000Y-98000000D01*
X31685000Y-51067467D01*
X31949738Y-49736541D01*
X32665429Y-48665432D01*
X33736540Y-47949738D01*
X34774532Y-47743268D01*
X35015632Y-47984368D01*
G36*
X62650241Y-62288298D02*
X62649760Y-62839285D01*
X62860169Y-63348515D01*
X63249436Y-63738461D01*
X63481870Y-63834976D01*
X63251485Y-63930169D01*
X62861539Y-64319436D01*
X62650241Y-64828298D01*
X62649760Y-65379285D01*
X62860169Y-65888515D01*
X63249436Y-66278461D01*
X63481870Y-66374976D01*
X63251485Y-66470169D01*
X62861539Y-66859436D01*
X62650241Y-67368298D01*
X62649760Y-67919285D01*
X62860169Y-68428515D01*
X63249436Y-68818461D01*
X63481870Y-68914976D01*
X63251485Y-69010169D01*
X62861539Y-69399436D01*
X62650241Y-69908298D01*
X62649760Y-70459285D01*
X62860169Y-70968515D01*
X63249436Y-71358461D01*
X63481870Y-71454976D01*
X63251485Y-71550169D01*
X62861539Y-71939436D01*
X62650241Y-72448298D01*
X62649760Y-72999285D01*
X62860169Y-73508515D01*
X63249436Y-73898461D01*
X63465979Y-73988377D01*
X63311077Y-74052540D01*
X63243088Y-74293483D01*
X64035000Y-75085395D01*
X64826912Y-74293483D01*
X64761028Y-74060000D01*
X66048084Y-74060000D01*
X66288309Y-74159750D01*
X66859187Y-74160248D01*
X67386800Y-73942243D01*
X67790824Y-73538923D01*
X68009750Y-73011691D01*
X68010248Y-72440813D01*
X67792243Y-71913200D01*
X67388923Y-71509176D01*
X67258785Y-71455138D01*
X67386800Y-71402243D01*
X67790824Y-70998923D01*
X68009750Y-70471691D01*
X68009852Y-70355281D01*
X68529171Y-69835961D01*
X72803096Y-69835961D01*
X72925085Y-70058000D01*
X74068000Y-70058000D01*
X74068000Y-68914371D01*
X73845959Y-68793086D01*
X73339866Y-69032611D01*
X72963959Y-69447577D01*
X72803096Y-69835961D01*
X68529171Y-69835961D01*
X69284984Y-69080148D01*
X69399187Y-69080248D01*
X69926800Y-68862243D01*
X70136663Y-68652745D01*
X70786861Y-68652745D01*
X70860995Y-68898864D01*
X71398223Y-69091965D01*
X71968454Y-69064778D01*
X72369005Y-68898864D01*
X72443139Y-68652745D01*
X71615000Y-67824605D01*
X70786861Y-68652745D01*
X70136663Y-68652745D01*
X70330824Y-68458923D01*
X70358423Y-68392456D01*
X70361136Y-68399005D01*
X70607255Y-68473139D01*
X71435395Y-67645000D01*
X70607255Y-66816861D01*
X70361136Y-66890995D01*
X70358804Y-66897483D01*
X70332243Y-66833200D01*
X70059441Y-66559922D01*
X70192882Y-66533379D01*
X70625988Y-66243988D01*
X70915379Y-65810882D01*
X70996624Y-65402438D01*
X71083313Y-65193668D01*
X71083413Y-65079281D01*
X72542262Y-66538130D01*
X72443139Y-66637253D01*
X72369005Y-66391136D01*
X71831777Y-66198035D01*
X71261546Y-66225222D01*
X70860995Y-66391136D01*
X70786861Y-66637255D01*
X71615000Y-67465395D01*
X71629142Y-67451252D01*
X71808748Y-67630858D01*
X71794605Y-67645000D01*
X72622745Y-68473139D01*
X72868864Y-68399005D01*
X73061965Y-67861777D01*
X73034778Y-67291546D01*
X72868864Y-66890995D01*
X72622747Y-66816861D01*
X72721870Y-66717738D01*
X74630000Y-68625868D01*
X74630000Y-68833769D01*
X74544041Y-68793086D01*
X74322000Y-68914371D01*
X74322000Y-70058000D01*
X74342000Y-70058000D01*
X74342000Y-70312000D01*
X74322000Y-70312000D01*
X74322000Y-70332000D01*
X74068000Y-70332000D01*
X74068000Y-70312000D01*
X72925085Y-70312000D01*
X72803096Y-70534039D01*
X72963959Y-70922423D01*
X73339866Y-71337389D01*
X73556703Y-71440014D01*
X73152189Y-71710302D01*
X72841120Y-72175849D01*
X72731887Y-72725000D01*
X72841120Y-73274151D01*
X73152189Y-73739698D01*
X73360000Y-73878553D01*
X73360000Y-76478231D01*
X73280378Y-76557714D01*
X73115687Y-76954332D01*
X73115313Y-77383784D01*
X73279311Y-77780689D01*
X73374040Y-77875583D01*
X73423561Y-78124541D01*
X73551411Y-78315882D01*
X73604566Y-78395434D01*
X74119132Y-78910000D01*
X74067998Y-78910000D01*
X74067998Y-79074370D01*
X73845959Y-78953086D01*
X73339866Y-79192611D01*
X72963959Y-79607577D01*
X72803096Y-79995961D01*
X72925085Y-80218000D01*
X74068000Y-80218000D01*
X74068000Y-80198000D01*
X74322000Y-80198000D01*
X74322000Y-80218000D01*
X74342000Y-80218000D01*
X74342000Y-80472000D01*
X74322000Y-80472000D01*
X74322000Y-80492000D01*
X74068000Y-80492000D01*
X74068000Y-80472000D01*
X72925085Y-80472000D01*
X72803096Y-80694039D01*
X72963959Y-81082423D01*
X73339866Y-81497389D01*
X73537766Y-81591052D01*
X73440995Y-81631136D01*
X73366861Y-81877255D01*
X74195000Y-82705395D01*
X75023139Y-81877255D01*
X74949005Y-81631136D01*
X74845868Y-81594065D01*
X75050134Y-81497389D01*
X75426041Y-81082423D01*
X75586904Y-80694039D01*
X75464916Y-80472002D01*
X75630000Y-80472002D01*
X75630000Y-80420868D01*
X75900000Y-80690868D01*
X75900000Y-83400975D01*
X75686397Y-83720655D01*
X75600000Y-84155000D01*
X75686397Y-84589345D01*
X75932434Y-84957566D01*
X76644728Y-85669860D01*
X76644716Y-85683795D01*
X76873000Y-86236283D01*
X76873000Y-87416096D01*
X76795258Y-87603319D01*
X76794890Y-88025504D01*
X75269843Y-89550551D01*
X75008923Y-89289176D01*
X74894232Y-89241552D01*
X74949005Y-89218864D01*
X75023139Y-88972745D01*
X74195000Y-88144605D01*
X73366861Y-88972745D01*
X73440995Y-89218864D01*
X73499254Y-89239805D01*
X73383200Y-89287757D01*
X73000290Y-89670000D01*
X72925000Y-89670000D01*
X72605459Y-89733561D01*
X72437648Y-89845689D01*
X72334566Y-89914566D01*
X71064566Y-91184566D01*
X70883561Y-91455459D01*
X70834090Y-91704165D01*
X70740378Y-91797714D01*
X70575687Y-92194332D01*
X70575313Y-92623784D01*
X70739311Y-93020689D01*
X71042714Y-93324622D01*
X71439332Y-93489313D01*
X71721046Y-93489558D01*
X71695604Y-93515000D01*
X69074396Y-93515000D01*
X69048839Y-93489443D01*
X69328784Y-93489687D01*
X69725689Y-93325689D01*
X70029622Y-93022286D01*
X70194313Y-92625668D01*
X70194687Y-92196216D01*
X70030689Y-91799311D01*
X69950000Y-91718481D01*
X69950000Y-90505000D01*
X69886439Y-90185459D01*
X69705434Y-89914566D01*
X67991286Y-88200418D01*
X68038113Y-87965000D01*
X67994994Y-87748223D01*
X72748035Y-87748223D01*
X72775222Y-88318454D01*
X72941136Y-88719005D01*
X73187255Y-88793139D01*
X74015395Y-87965000D01*
X74374605Y-87965000D01*
X75202745Y-88793139D01*
X75448864Y-88719005D01*
X75641965Y-88181777D01*
X75614778Y-87611546D01*
X75448864Y-87210995D01*
X75202745Y-87136861D01*
X74374605Y-87965000D01*
X74015395Y-87965000D01*
X73187255Y-87136861D01*
X72941136Y-87210995D01*
X72748035Y-87748223D01*
X67994994Y-87748223D01*
X67928880Y-87415849D01*
X67710000Y-87088272D01*
X67710000Y-86432745D01*
X73366861Y-86432745D01*
X73440995Y-86678864D01*
X73482709Y-86693858D01*
X73440995Y-86711136D01*
X73366861Y-86957255D01*
X74195000Y-87785395D01*
X75023139Y-86957255D01*
X74949005Y-86711136D01*
X74907291Y-86696142D01*
X74949005Y-86678864D01*
X75023139Y-86432745D01*
X74195000Y-85604605D01*
X73366861Y-86432745D01*
X67710000Y-86432745D01*
X67710000Y-86301728D01*
X67928880Y-85974151D01*
X67971633Y-85759216D01*
X67981439Y-85744541D01*
X68045000Y-85425000D01*
X68001881Y-85208223D01*
X72748035Y-85208223D01*
X72775222Y-85778454D01*
X72941136Y-86179005D01*
X73187255Y-86253139D01*
X74015395Y-85425000D01*
X74374605Y-85425000D01*
X75202745Y-86253139D01*
X75448864Y-86179005D01*
X75641965Y-85641777D01*
X75614778Y-85071546D01*
X75448864Y-84670995D01*
X75202745Y-84596861D01*
X74374605Y-85425000D01*
X74015395Y-85425000D01*
X73187255Y-84596861D01*
X72941136Y-84670995D01*
X72748035Y-85208223D01*
X68001881Y-85208223D01*
X67981439Y-85105459D01*
X67971633Y-85090784D01*
X67928880Y-84875849D01*
X67910000Y-84847593D01*
X67910000Y-83892745D01*
X73366861Y-83892745D01*
X73440995Y-84138864D01*
X73482709Y-84153858D01*
X73440995Y-84171136D01*
X73366861Y-84417255D01*
X74195000Y-85245395D01*
X75023139Y-84417255D01*
X74949005Y-84171136D01*
X74907291Y-84156142D01*
X74949005Y-84138864D01*
X75023139Y-83892745D01*
X74195000Y-83064605D01*
X73366861Y-83892745D01*
X67910000Y-83892745D01*
X67910000Y-83462407D01*
X67928880Y-83434151D01*
X68038113Y-82885000D01*
X67994994Y-82668223D01*
X72748035Y-82668223D01*
X72775222Y-83238454D01*
X72941136Y-83639005D01*
X73187255Y-83713139D01*
X74015395Y-82885000D01*
X74374605Y-82885000D01*
X75202745Y-83713139D01*
X75448864Y-83639005D01*
X75641965Y-83101777D01*
X75614778Y-82531546D01*
X75448864Y-82130995D01*
X75202745Y-82056861D01*
X74374605Y-82885000D01*
X74015395Y-82885000D01*
X73187255Y-82056861D01*
X72941136Y-82130995D01*
X72748035Y-82668223D01*
X67994994Y-82668223D01*
X67928880Y-82335849D01*
X67617811Y-81870302D01*
X67244664Y-81620973D01*
X67386800Y-81562243D01*
X67790824Y-81158923D01*
X68009750Y-80631691D01*
X68009852Y-80515281D01*
X69284984Y-79240148D01*
X69399187Y-79240248D01*
X69926800Y-79022243D01*
X70136663Y-78812745D01*
X70786861Y-78812745D01*
X70860995Y-79058864D01*
X71398223Y-79251965D01*
X71968454Y-79224778D01*
X72369005Y-79058864D01*
X72443139Y-78812745D01*
X71615000Y-77984605D01*
X70786861Y-78812745D01*
X70136663Y-78812745D01*
X70330824Y-78618923D01*
X70358423Y-78552456D01*
X70361136Y-78559005D01*
X70607255Y-78633139D01*
X71435395Y-77805000D01*
X71794605Y-77805000D01*
X72622745Y-78633139D01*
X72868864Y-78559005D01*
X73061965Y-78021777D01*
X73034778Y-77451546D01*
X72868864Y-77050995D01*
X72622745Y-76976861D01*
X71794605Y-77805000D01*
X71435395Y-77805000D01*
X70607255Y-76976861D01*
X70361136Y-77050995D01*
X70358804Y-77057483D01*
X70332243Y-76993200D01*
X70136640Y-76797255D01*
X70786861Y-76797255D01*
X71615000Y-77625395D01*
X72443139Y-76797255D01*
X72369005Y-76551136D01*
X71831777Y-76358035D01*
X71261546Y-76385222D01*
X70860995Y-76551136D01*
X70786861Y-76797255D01*
X70136640Y-76797255D01*
X69928923Y-76589176D01*
X69401691Y-76370250D01*
X68830813Y-76369752D01*
X68303200Y-76587757D01*
X67899176Y-76991077D01*
X67680250Y-77518309D01*
X67680148Y-77634719D01*
X66405016Y-78909852D01*
X66290813Y-78909752D01*
X65763200Y-79127757D01*
X65359176Y-79531077D01*
X65278021Y-79726519D01*
X65209831Y-79561485D01*
X64820564Y-79171539D01*
X64604021Y-79081623D01*
X64758923Y-79017460D01*
X64826912Y-78776517D01*
X64035000Y-77984605D01*
X63243088Y-78776517D01*
X63311077Y-79017460D01*
X63477621Y-79076732D01*
X63251485Y-79170169D01*
X63164698Y-79256805D01*
X62965654Y-79296397D01*
X62646954Y-79509346D01*
X62597434Y-79542434D01*
X61327434Y-80812434D01*
X61177500Y-81036826D01*
X61027566Y-80812434D01*
X59757566Y-79542434D01*
X59708046Y-79509346D01*
X59389346Y-79296397D01*
X58955000Y-79210000D01*
X57238958Y-79210000D01*
X57200564Y-79171539D01*
X56984021Y-79081623D01*
X57138923Y-79017460D01*
X57206912Y-78776517D01*
X56415000Y-77984605D01*
X56400858Y-77998748D01*
X56221253Y-77819143D01*
X56235395Y-77805000D01*
X56594605Y-77805000D01*
X57386517Y-78596912D01*
X57627460Y-78528923D01*
X57812201Y-78009829D01*
X57791378Y-77600171D01*
X62637799Y-77600171D01*
X62665770Y-78150448D01*
X62822540Y-78528923D01*
X63063483Y-78596912D01*
X63855395Y-77805000D01*
X64214605Y-77805000D01*
X65006517Y-78596912D01*
X65247460Y-78528923D01*
X65432201Y-78009829D01*
X65404230Y-77459552D01*
X65247460Y-77081077D01*
X65006517Y-77013088D01*
X64214605Y-77805000D01*
X63855395Y-77805000D01*
X63063483Y-77013088D01*
X62822540Y-77081077D01*
X62637799Y-77600171D01*
X57791378Y-77600171D01*
X57784230Y-77459552D01*
X57627460Y-77081077D01*
X57386517Y-77013088D01*
X56594605Y-77805000D01*
X56235395Y-77805000D01*
X55443483Y-77013088D01*
X55202540Y-77081077D01*
X55085388Y-77410256D01*
X54160125Y-76484993D01*
X54110701Y-76236517D01*
X55623088Y-76236517D01*
X55691077Y-76477460D01*
X55840511Y-76530642D01*
X55691077Y-76592540D01*
X55623088Y-76833483D01*
X56415000Y-77625395D01*
X57206912Y-76833483D01*
X57138923Y-76592540D01*
X56989489Y-76539358D01*
X57138923Y-76477460D01*
X57206912Y-76236517D01*
X63243088Y-76236517D01*
X63311077Y-76477460D01*
X63460511Y-76530642D01*
X63311077Y-76592540D01*
X63243088Y-76833483D01*
X64035000Y-77625395D01*
X64826912Y-76833483D01*
X64758923Y-76592540D01*
X64609489Y-76539358D01*
X64758923Y-76477460D01*
X64826912Y-76236517D01*
X64035000Y-75444605D01*
X63243088Y-76236517D01*
X57206912Y-76236517D01*
X56415000Y-75444605D01*
X55623088Y-76236517D01*
X54110701Y-76236517D01*
X54053227Y-75947581D01*
X53842671Y-75632461D01*
X54414961Y-75060171D01*
X55017799Y-75060171D01*
X55045770Y-75610448D01*
X55202540Y-75988923D01*
X55443483Y-76056912D01*
X56235395Y-75265000D01*
X56594605Y-75265000D01*
X57386517Y-76056912D01*
X57627460Y-75988923D01*
X57812201Y-75469829D01*
X57791378Y-75060171D01*
X62637799Y-75060171D01*
X62665770Y-75610448D01*
X62822540Y-75988923D01*
X63063483Y-76056912D01*
X63855395Y-75265000D01*
X64214605Y-75265000D01*
X65006517Y-76056912D01*
X65247460Y-75988923D01*
X65432201Y-75469829D01*
X65404230Y-74919552D01*
X65247460Y-74541077D01*
X65006517Y-74473088D01*
X64214605Y-75265000D01*
X63855395Y-75265000D01*
X63063483Y-74473088D01*
X62822540Y-74541077D01*
X62637799Y-75060171D01*
X57791378Y-75060171D01*
X57784230Y-74919552D01*
X57627460Y-74541077D01*
X57386517Y-74473088D01*
X56594605Y-75265000D01*
X56235395Y-75265000D01*
X55443483Y-74473088D01*
X55202540Y-74541077D01*
X55017799Y-75060171D01*
X54414961Y-75060171D01*
X55603076Y-73872056D01*
X55629436Y-73898461D01*
X55845979Y-73988377D01*
X55691077Y-74052540D01*
X55623088Y-74293483D01*
X56415000Y-75085395D01*
X57206912Y-74293483D01*
X57138923Y-74052540D01*
X56972379Y-73993268D01*
X57198515Y-73899831D01*
X57588461Y-73510564D01*
X57799759Y-73001702D01*
X57800240Y-72450715D01*
X57730125Y-72281024D01*
X58004541Y-72226439D01*
X58275434Y-72045434D01*
X58910434Y-71410434D01*
X59091440Y-71139540D01*
X59155000Y-70820000D01*
X59155000Y-68280000D01*
X59146135Y-68235434D01*
X59091440Y-67960460D01*
X58988034Y-67805703D01*
X59020000Y-67645000D01*
X58918379Y-67134118D01*
X58628988Y-66701012D01*
X58195882Y-66411621D01*
X57685000Y-66310000D01*
X57125500Y-66310000D01*
X57198515Y-66279831D01*
X57588461Y-65890564D01*
X57799759Y-65381702D01*
X57800240Y-64830715D01*
X57733834Y-64670000D01*
X59765000Y-64670000D01*
X60084541Y-64606439D01*
X60355434Y-64425434D01*
X62762202Y-62018666D01*
X62650241Y-62288298D01*
X62650241Y-62288298D01*
G37*
X62650241Y-62288298D02*
X62649760Y-62839285D01*
X62860169Y-63348515D01*
X63249436Y-63738461D01*
X63481870Y-63834976D01*
X63251485Y-63930169D01*
X62861539Y-64319436D01*
X62650241Y-64828298D01*
X62649760Y-65379285D01*
X62860169Y-65888515D01*
X63249436Y-66278461D01*
X63481870Y-66374976D01*
X63251485Y-66470169D01*
X62861539Y-66859436D01*
X62650241Y-67368298D01*
X62649760Y-67919285D01*
X62860169Y-68428515D01*
X63249436Y-68818461D01*
X63481870Y-68914976D01*
X63251485Y-69010169D01*
X62861539Y-69399436D01*
X62650241Y-69908298D01*
X62649760Y-70459285D01*
X62860169Y-70968515D01*
X63249436Y-71358461D01*
X63481870Y-71454976D01*
X63251485Y-71550169D01*
X62861539Y-71939436D01*
X62650241Y-72448298D01*
X62649760Y-72999285D01*
X62860169Y-73508515D01*
X63249436Y-73898461D01*
X63465979Y-73988377D01*
X63311077Y-74052540D01*
X63243088Y-74293483D01*
X64035000Y-75085395D01*
X64826912Y-74293483D01*
X64761028Y-74060000D01*
X66048084Y-74060000D01*
X66288309Y-74159750D01*
X66859187Y-74160248D01*
X67386800Y-73942243D01*
X67790824Y-73538923D01*
X68009750Y-73011691D01*
X68010248Y-72440813D01*
X67792243Y-71913200D01*
X67388923Y-71509176D01*
X67258785Y-71455138D01*
X67386800Y-71402243D01*
X67790824Y-70998923D01*
X68009750Y-70471691D01*
X68009852Y-70355281D01*
X68529171Y-69835961D01*
X72803096Y-69835961D01*
X72925085Y-70058000D01*
X74068000Y-70058000D01*
X74068000Y-68914371D01*
X73845959Y-68793086D01*
X73339866Y-69032611D01*
X72963959Y-69447577D01*
X72803096Y-69835961D01*
X68529171Y-69835961D01*
X69284984Y-69080148D01*
X69399187Y-69080248D01*
X69926800Y-68862243D01*
X70136663Y-68652745D01*
X70786861Y-68652745D01*
X70860995Y-68898864D01*
X71398223Y-69091965D01*
X71968454Y-69064778D01*
X72369005Y-68898864D01*
X72443139Y-68652745D01*
X71615000Y-67824605D01*
X70786861Y-68652745D01*
X70136663Y-68652745D01*
X70330824Y-68458923D01*
X70358423Y-68392456D01*
X70361136Y-68399005D01*
X70607255Y-68473139D01*
X71435395Y-67645000D01*
X70607255Y-66816861D01*
X70361136Y-66890995D01*
X70358804Y-66897483D01*
X70332243Y-66833200D01*
X70059441Y-66559922D01*
X70192882Y-66533379D01*
X70625988Y-66243988D01*
X70915379Y-65810882D01*
X70996624Y-65402438D01*
X71083313Y-65193668D01*
X71083413Y-65079281D01*
X72542262Y-66538130D01*
X72443139Y-66637253D01*
X72369005Y-66391136D01*
X71831777Y-66198035D01*
X71261546Y-66225222D01*
X70860995Y-66391136D01*
X70786861Y-66637255D01*
X71615000Y-67465395D01*
X71629142Y-67451252D01*
X71808748Y-67630858D01*
X71794605Y-67645000D01*
X72622745Y-68473139D01*
X72868864Y-68399005D01*
X73061965Y-67861777D01*
X73034778Y-67291546D01*
X72868864Y-66890995D01*
X72622747Y-66816861D01*
X72721870Y-66717738D01*
X74630000Y-68625868D01*
X74630000Y-68833769D01*
X74544041Y-68793086D01*
X74322000Y-68914371D01*
X74322000Y-70058000D01*
X74342000Y-70058000D01*
X74342000Y-70312000D01*
X74322000Y-70312000D01*
X74322000Y-70332000D01*
X74068000Y-70332000D01*
X74068000Y-70312000D01*
X72925085Y-70312000D01*
X72803096Y-70534039D01*
X72963959Y-70922423D01*
X73339866Y-71337389D01*
X73556703Y-71440014D01*
X73152189Y-71710302D01*
X72841120Y-72175849D01*
X72731887Y-72725000D01*
X72841120Y-73274151D01*
X73152189Y-73739698D01*
X73360000Y-73878553D01*
X73360000Y-76478231D01*
X73280378Y-76557714D01*
X73115687Y-76954332D01*
X73115313Y-77383784D01*
X73279311Y-77780689D01*
X73374040Y-77875583D01*
X73423561Y-78124541D01*
X73551411Y-78315882D01*
X73604566Y-78395434D01*
X74119132Y-78910000D01*
X74067998Y-78910000D01*
X74067998Y-79074370D01*
X73845959Y-78953086D01*
X73339866Y-79192611D01*
X72963959Y-79607577D01*
X72803096Y-79995961D01*
X72925085Y-80218000D01*
X74068000Y-80218000D01*
X74068000Y-80198000D01*
X74322000Y-80198000D01*
X74322000Y-80218000D01*
X74342000Y-80218000D01*
X74342000Y-80472000D01*
X74322000Y-80472000D01*
X74322000Y-80492000D01*
X74068000Y-80492000D01*
X74068000Y-80472000D01*
X72925085Y-80472000D01*
X72803096Y-80694039D01*
X72963959Y-81082423D01*
X73339866Y-81497389D01*
X73537766Y-81591052D01*
X73440995Y-81631136D01*
X73366861Y-81877255D01*
X74195000Y-82705395D01*
X75023139Y-81877255D01*
X74949005Y-81631136D01*
X74845868Y-81594065D01*
X75050134Y-81497389D01*
X75426041Y-81082423D01*
X75586904Y-80694039D01*
X75464916Y-80472002D01*
X75630000Y-80472002D01*
X75630000Y-80420868D01*
X75900000Y-80690868D01*
X75900000Y-83400975D01*
X75686397Y-83720655D01*
X75600000Y-84155000D01*
X75686397Y-84589345D01*
X75932434Y-84957566D01*
X76644728Y-85669860D01*
X76644716Y-85683795D01*
X76873000Y-86236283D01*
X76873000Y-87416096D01*
X76795258Y-87603319D01*
X76794890Y-88025504D01*
X75269843Y-89550551D01*
X75008923Y-89289176D01*
X74894232Y-89241552D01*
X74949005Y-89218864D01*
X75023139Y-88972745D01*
X74195000Y-88144605D01*
X73366861Y-88972745D01*
X73440995Y-89218864D01*
X73499254Y-89239805D01*
X73383200Y-89287757D01*
X73000290Y-89670000D01*
X72925000Y-89670000D01*
X72605459Y-89733561D01*
X72437648Y-89845689D01*
X72334566Y-89914566D01*
X71064566Y-91184566D01*
X70883561Y-91455459D01*
X70834090Y-91704165D01*
X70740378Y-91797714D01*
X70575687Y-92194332D01*
X70575313Y-92623784D01*
X70739311Y-93020689D01*
X71042714Y-93324622D01*
X71439332Y-93489313D01*
X71721046Y-93489558D01*
X71695604Y-93515000D01*
X69074396Y-93515000D01*
X69048839Y-93489443D01*
X69328784Y-93489687D01*
X69725689Y-93325689D01*
X70029622Y-93022286D01*
X70194313Y-92625668D01*
X70194687Y-92196216D01*
X70030689Y-91799311D01*
X69950000Y-91718481D01*
X69950000Y-90505000D01*
X69886439Y-90185459D01*
X69705434Y-89914566D01*
X67991286Y-88200418D01*
X68038113Y-87965000D01*
X67994994Y-87748223D01*
X72748035Y-87748223D01*
X72775222Y-88318454D01*
X72941136Y-88719005D01*
X73187255Y-88793139D01*
X74015395Y-87965000D01*
X74374605Y-87965000D01*
X75202745Y-88793139D01*
X75448864Y-88719005D01*
X75641965Y-88181777D01*
X75614778Y-87611546D01*
X75448864Y-87210995D01*
X75202745Y-87136861D01*
X74374605Y-87965000D01*
X74015395Y-87965000D01*
X73187255Y-87136861D01*
X72941136Y-87210995D01*
X72748035Y-87748223D01*
X67994994Y-87748223D01*
X67928880Y-87415849D01*
X67710000Y-87088272D01*
X67710000Y-86432745D01*
X73366861Y-86432745D01*
X73440995Y-86678864D01*
X73482709Y-86693858D01*
X73440995Y-86711136D01*
X73366861Y-86957255D01*
X74195000Y-87785395D01*
X75023139Y-86957255D01*
X74949005Y-86711136D01*
X74907291Y-86696142D01*
X74949005Y-86678864D01*
X75023139Y-86432745D01*
X74195000Y-85604605D01*
X73366861Y-86432745D01*
X67710000Y-86432745D01*
X67710000Y-86301728D01*
X67928880Y-85974151D01*
X67971633Y-85759216D01*
X67981439Y-85744541D01*
X68045000Y-85425000D01*
X68001881Y-85208223D01*
X72748035Y-85208223D01*
X72775222Y-85778454D01*
X72941136Y-86179005D01*
X73187255Y-86253139D01*
X74015395Y-85425000D01*
X74374605Y-85425000D01*
X75202745Y-86253139D01*
X75448864Y-86179005D01*
X75641965Y-85641777D01*
X75614778Y-85071546D01*
X75448864Y-84670995D01*
X75202745Y-84596861D01*
X74374605Y-85425000D01*
X74015395Y-85425000D01*
X73187255Y-84596861D01*
X72941136Y-84670995D01*
X72748035Y-85208223D01*
X68001881Y-85208223D01*
X67981439Y-85105459D01*
X67971633Y-85090784D01*
X67928880Y-84875849D01*
X67910000Y-84847593D01*
X67910000Y-83892745D01*
X73366861Y-83892745D01*
X73440995Y-84138864D01*
X73482709Y-84153858D01*
X73440995Y-84171136D01*
X73366861Y-84417255D01*
X74195000Y-85245395D01*
X75023139Y-84417255D01*
X74949005Y-84171136D01*
X74907291Y-84156142D01*
X74949005Y-84138864D01*
X75023139Y-83892745D01*
X74195000Y-83064605D01*
X73366861Y-83892745D01*
X67910000Y-83892745D01*
X67910000Y-83462407D01*
X67928880Y-83434151D01*
X68038113Y-82885000D01*
X67994994Y-82668223D01*
X72748035Y-82668223D01*
X72775222Y-83238454D01*
X72941136Y-83639005D01*
X73187255Y-83713139D01*
X74015395Y-82885000D01*
X74374605Y-82885000D01*
X75202745Y-83713139D01*
X75448864Y-83639005D01*
X75641965Y-83101777D01*
X75614778Y-82531546D01*
X75448864Y-82130995D01*
X75202745Y-82056861D01*
X74374605Y-82885000D01*
X74015395Y-82885000D01*
X73187255Y-82056861D01*
X72941136Y-82130995D01*
X72748035Y-82668223D01*
X67994994Y-82668223D01*
X67928880Y-82335849D01*
X67617811Y-81870302D01*
X67244664Y-81620973D01*
X67386800Y-81562243D01*
X67790824Y-81158923D01*
X68009750Y-80631691D01*
X68009852Y-80515281D01*
X69284984Y-79240148D01*
X69399187Y-79240248D01*
X69926800Y-79022243D01*
X70136663Y-78812745D01*
X70786861Y-78812745D01*
X70860995Y-79058864D01*
X71398223Y-79251965D01*
X71968454Y-79224778D01*
X72369005Y-79058864D01*
X72443139Y-78812745D01*
X71615000Y-77984605D01*
X70786861Y-78812745D01*
X70136663Y-78812745D01*
X70330824Y-78618923D01*
X70358423Y-78552456D01*
X70361136Y-78559005D01*
X70607255Y-78633139D01*
X71435395Y-77805000D01*
X71794605Y-77805000D01*
X72622745Y-78633139D01*
X72868864Y-78559005D01*
X73061965Y-78021777D01*
X73034778Y-77451546D01*
X72868864Y-77050995D01*
X72622745Y-76976861D01*
X71794605Y-77805000D01*
X71435395Y-77805000D01*
X70607255Y-76976861D01*
X70361136Y-77050995D01*
X70358804Y-77057483D01*
X70332243Y-76993200D01*
X70136640Y-76797255D01*
X70786861Y-76797255D01*
X71615000Y-77625395D01*
X72443139Y-76797255D01*
X72369005Y-76551136D01*
X71831777Y-76358035D01*
X71261546Y-76385222D01*
X70860995Y-76551136D01*
X70786861Y-76797255D01*
X70136640Y-76797255D01*
X69928923Y-76589176D01*
X69401691Y-76370250D01*
X68830813Y-76369752D01*
X68303200Y-76587757D01*
X67899176Y-76991077D01*
X67680250Y-77518309D01*
X67680148Y-77634719D01*
X66405016Y-78909852D01*
X66290813Y-78909752D01*
X65763200Y-79127757D01*
X65359176Y-79531077D01*
X65278021Y-79726519D01*
X65209831Y-79561485D01*
X64820564Y-79171539D01*
X64604021Y-79081623D01*
X64758923Y-79017460D01*
X64826912Y-78776517D01*
X64035000Y-77984605D01*
X63243088Y-78776517D01*
X63311077Y-79017460D01*
X63477621Y-79076732D01*
X63251485Y-79170169D01*
X63164698Y-79256805D01*
X62965654Y-79296397D01*
X62646954Y-79509346D01*
X62597434Y-79542434D01*
X61327434Y-80812434D01*
X61177500Y-81036826D01*
X61027566Y-80812434D01*
X59757566Y-79542434D01*
X59708046Y-79509346D01*
X59389346Y-79296397D01*
X58955000Y-79210000D01*
X57238958Y-79210000D01*
X57200564Y-79171539D01*
X56984021Y-79081623D01*
X57138923Y-79017460D01*
X57206912Y-78776517D01*
X56415000Y-77984605D01*
X56400858Y-77998748D01*
X56221253Y-77819143D01*
X56235395Y-77805000D01*
X56594605Y-77805000D01*
X57386517Y-78596912D01*
X57627460Y-78528923D01*
X57812201Y-78009829D01*
X57791378Y-77600171D01*
X62637799Y-77600171D01*
X62665770Y-78150448D01*
X62822540Y-78528923D01*
X63063483Y-78596912D01*
X63855395Y-77805000D01*
X64214605Y-77805000D01*
X65006517Y-78596912D01*
X65247460Y-78528923D01*
X65432201Y-78009829D01*
X65404230Y-77459552D01*
X65247460Y-77081077D01*
X65006517Y-77013088D01*
X64214605Y-77805000D01*
X63855395Y-77805000D01*
X63063483Y-77013088D01*
X62822540Y-77081077D01*
X62637799Y-77600171D01*
X57791378Y-77600171D01*
X57784230Y-77459552D01*
X57627460Y-77081077D01*
X57386517Y-77013088D01*
X56594605Y-77805000D01*
X56235395Y-77805000D01*
X55443483Y-77013088D01*
X55202540Y-77081077D01*
X55085388Y-77410256D01*
X54160125Y-76484993D01*
X54110701Y-76236517D01*
X55623088Y-76236517D01*
X55691077Y-76477460D01*
X55840511Y-76530642D01*
X55691077Y-76592540D01*
X55623088Y-76833483D01*
X56415000Y-77625395D01*
X57206912Y-76833483D01*
X57138923Y-76592540D01*
X56989489Y-76539358D01*
X57138923Y-76477460D01*
X57206912Y-76236517D01*
X63243088Y-76236517D01*
X63311077Y-76477460D01*
X63460511Y-76530642D01*
X63311077Y-76592540D01*
X63243088Y-76833483D01*
X64035000Y-77625395D01*
X64826912Y-76833483D01*
X64758923Y-76592540D01*
X64609489Y-76539358D01*
X64758923Y-76477460D01*
X64826912Y-76236517D01*
X64035000Y-75444605D01*
X63243088Y-76236517D01*
X57206912Y-76236517D01*
X56415000Y-75444605D01*
X55623088Y-76236517D01*
X54110701Y-76236517D01*
X54053227Y-75947581D01*
X53842671Y-75632461D01*
X54414961Y-75060171D01*
X55017799Y-75060171D01*
X55045770Y-75610448D01*
X55202540Y-75988923D01*
X55443483Y-76056912D01*
X56235395Y-75265000D01*
X56594605Y-75265000D01*
X57386517Y-76056912D01*
X57627460Y-75988923D01*
X57812201Y-75469829D01*
X57791378Y-75060171D01*
X62637799Y-75060171D01*
X62665770Y-75610448D01*
X62822540Y-75988923D01*
X63063483Y-76056912D01*
X63855395Y-75265000D01*
X64214605Y-75265000D01*
X65006517Y-76056912D01*
X65247460Y-75988923D01*
X65432201Y-75469829D01*
X65404230Y-74919552D01*
X65247460Y-74541077D01*
X65006517Y-74473088D01*
X64214605Y-75265000D01*
X63855395Y-75265000D01*
X63063483Y-74473088D01*
X62822540Y-74541077D01*
X62637799Y-75060171D01*
X57791378Y-75060171D01*
X57784230Y-74919552D01*
X57627460Y-74541077D01*
X57386517Y-74473088D01*
X56594605Y-75265000D01*
X56235395Y-75265000D01*
X55443483Y-74473088D01*
X55202540Y-74541077D01*
X55017799Y-75060171D01*
X54414961Y-75060171D01*
X55603076Y-73872056D01*
X55629436Y-73898461D01*
X55845979Y-73988377D01*
X55691077Y-74052540D01*
X55623088Y-74293483D01*
X56415000Y-75085395D01*
X57206912Y-74293483D01*
X57138923Y-74052540D01*
X56972379Y-73993268D01*
X57198515Y-73899831D01*
X57588461Y-73510564D01*
X57799759Y-73001702D01*
X57800240Y-72450715D01*
X57730125Y-72281024D01*
X58004541Y-72226439D01*
X58275434Y-72045434D01*
X58910434Y-71410434D01*
X59091440Y-71139540D01*
X59155000Y-70820000D01*
X59155000Y-68280000D01*
X59146135Y-68235434D01*
X59091440Y-67960460D01*
X58988034Y-67805703D01*
X59020000Y-67645000D01*
X58918379Y-67134118D01*
X58628988Y-66701012D01*
X58195882Y-66411621D01*
X57685000Y-66310000D01*
X57125500Y-66310000D01*
X57198515Y-66279831D01*
X57588461Y-65890564D01*
X57799759Y-65381702D01*
X57800240Y-64830715D01*
X57733834Y-64670000D01*
X59765000Y-64670000D01*
X60084541Y-64606439D01*
X60355434Y-64425434D01*
X62762202Y-62018666D01*
X62650241Y-62288298D01*
G36*
X44785000Y-73360000D02*
X44848561Y-73679541D01*
X44925708Y-73795000D01*
X44350000Y-73795000D01*
X44030459Y-73858561D01*
X43826264Y-73995000D01*
X43759566Y-74039566D01*
X42489566Y-75309566D01*
X42308561Y-75580459D01*
X42245000Y-75900000D01*
X42245000Y-76570000D01*
X40645976Y-76570000D01*
X40573812Y-76521781D01*
X40815922Y-76331317D01*
X41129144Y-75773355D01*
X41160124Y-75645434D01*
X41040777Y-75392000D01*
X39397000Y-75392000D01*
X39397000Y-75412000D01*
X39143000Y-75412000D01*
X39143000Y-75392000D01*
X37499223Y-75392000D01*
X37379876Y-75645434D01*
X37410856Y-75773355D01*
X37724078Y-76331317D01*
X37966188Y-76521781D01*
X37775971Y-76648880D01*
X37421548Y-77179313D01*
X37297091Y-77805000D01*
X37421548Y-78430687D01*
X37775971Y-78961120D01*
X37946405Y-79075000D01*
X37775971Y-79188880D01*
X37421548Y-79719313D01*
X37297091Y-80345000D01*
X37421548Y-80970687D01*
X37775971Y-81501120D01*
X37946405Y-81615000D01*
X37775971Y-81728880D01*
X37421548Y-82259313D01*
X37297091Y-82885000D01*
X37421548Y-83510687D01*
X37661093Y-83869192D01*
X37518559Y-83960910D01*
X37373569Y-84173110D01*
X37322560Y-84425000D01*
X37322560Y-86425000D01*
X37366838Y-86660317D01*
X37505910Y-86876441D01*
X37718110Y-87021431D01*
X37885000Y-87055227D01*
X37885000Y-87514868D01*
X37230000Y-86859868D01*
X37230000Y-71925132D01*
X37322560Y-71832572D01*
X37322560Y-73725000D01*
X37366838Y-73960317D01*
X37505910Y-74176441D01*
X37672620Y-74290349D01*
X37410856Y-74756645D01*
X37379876Y-74884566D01*
X37499223Y-75138000D01*
X39143000Y-75138000D01*
X39143000Y-75118000D01*
X39397000Y-75118000D01*
X39397000Y-75138000D01*
X41040777Y-75138000D01*
X41160124Y-74884566D01*
X41129144Y-74756645D01*
X40906480Y-74360000D01*
X42445000Y-74360000D01*
X43070687Y-74235543D01*
X43601120Y-73881120D01*
X43955543Y-73350687D01*
X44080000Y-72725000D01*
X44075045Y-72700087D01*
X44517566Y-72257566D01*
X44564459Y-72187386D01*
X44763603Y-71889346D01*
X44785000Y-71781776D01*
X44785000Y-73360000D01*
X44785000Y-73360000D01*
G37*
X44785000Y-73360000D02*
X44848561Y-73679541D01*
X44925708Y-73795000D01*
X44350000Y-73795000D01*
X44030459Y-73858561D01*
X43826264Y-73995000D01*
X43759566Y-74039566D01*
X42489566Y-75309566D01*
X42308561Y-75580459D01*
X42245000Y-75900000D01*
X42245000Y-76570000D01*
X40645976Y-76570000D01*
X40573812Y-76521781D01*
X40815922Y-76331317D01*
X41129144Y-75773355D01*
X41160124Y-75645434D01*
X41040777Y-75392000D01*
X39397000Y-75392000D01*
X39397000Y-75412000D01*
X39143000Y-75412000D01*
X39143000Y-75392000D01*
X37499223Y-75392000D01*
X37379876Y-75645434D01*
X37410856Y-75773355D01*
X37724078Y-76331317D01*
X37966188Y-76521781D01*
X37775971Y-76648880D01*
X37421548Y-77179313D01*
X37297091Y-77805000D01*
X37421548Y-78430687D01*
X37775971Y-78961120D01*
X37946405Y-79075000D01*
X37775971Y-79188880D01*
X37421548Y-79719313D01*
X37297091Y-80345000D01*
X37421548Y-80970687D01*
X37775971Y-81501120D01*
X37946405Y-81615000D01*
X37775971Y-81728880D01*
X37421548Y-82259313D01*
X37297091Y-82885000D01*
X37421548Y-83510687D01*
X37661093Y-83869192D01*
X37518559Y-83960910D01*
X37373569Y-84173110D01*
X37322560Y-84425000D01*
X37322560Y-86425000D01*
X37366838Y-86660317D01*
X37505910Y-86876441D01*
X37718110Y-87021431D01*
X37885000Y-87055227D01*
X37885000Y-87514868D01*
X37230000Y-86859868D01*
X37230000Y-71925132D01*
X37322560Y-71832572D01*
X37322560Y-73725000D01*
X37366838Y-73960317D01*
X37505910Y-74176441D01*
X37672620Y-74290349D01*
X37410856Y-74756645D01*
X37379876Y-74884566D01*
X37499223Y-75138000D01*
X39143000Y-75138000D01*
X39143000Y-75118000D01*
X39397000Y-75118000D01*
X39397000Y-75138000D01*
X41040777Y-75138000D01*
X41160124Y-74884566D01*
X41129144Y-74756645D01*
X40906480Y-74360000D01*
X42445000Y-74360000D01*
X43070687Y-74235543D01*
X43601120Y-73881120D01*
X43955543Y-73350687D01*
X44080000Y-72725000D01*
X44075045Y-72700087D01*
X44517566Y-72257566D01*
X44564459Y-72187386D01*
X44763603Y-71889346D01*
X44785000Y-71781776D01*
X44785000Y-73360000D01*
G36*
X40733748Y-53025858D02*
X40719605Y-53040000D01*
X41692532Y-54012927D01*
X41727938Y-53999836D01*
X41945000Y-54217278D01*
X41945000Y-54310000D01*
X42031397Y-54744346D01*
X42129682Y-54891439D01*
X42277434Y-55112566D01*
X42912434Y-55747566D01*
X43280655Y-55993604D01*
X43563514Y-56049868D01*
X43430813Y-56049752D01*
X42903200Y-56267757D01*
X42499176Y-56671077D01*
X42280250Y-57198309D01*
X42279752Y-57769187D01*
X42497757Y-58296800D01*
X42901077Y-58700824D01*
X43428309Y-58919750D01*
X43999187Y-58920248D01*
X44241806Y-58820000D01*
X45066646Y-58820000D01*
X44676012Y-59081012D01*
X44386621Y-59514118D01*
X44285000Y-60025000D01*
X44310572Y-60153560D01*
X43759566Y-60704566D01*
X43578561Y-60975459D01*
X43515000Y-61295000D01*
X43515000Y-63200000D01*
X43578561Y-63519541D01*
X43679094Y-63670000D01*
X43587998Y-63670000D01*
X43587998Y-63835084D01*
X43365961Y-63713096D01*
X42977577Y-63873959D01*
X42562611Y-64249866D01*
X42323086Y-64755959D01*
X42444371Y-64978000D01*
X43588000Y-64978000D01*
X43588000Y-64958000D01*
X43842000Y-64958000D01*
X43842000Y-64978000D01*
X43862000Y-64978000D01*
X43862000Y-65232000D01*
X43842000Y-65232000D01*
X43842000Y-65252000D01*
X43588000Y-65252000D01*
X43588000Y-65232000D01*
X42444371Y-65232000D01*
X42323086Y-65454041D01*
X42562611Y-65960134D01*
X42977577Y-66336041D01*
X43289594Y-66465274D01*
X42912434Y-66842434D01*
X42666397Y-67210655D01*
X42580000Y-67645000D01*
X42666397Y-68079345D01*
X42912434Y-68447566D01*
X43280655Y-68693603D01*
X43548072Y-68746796D01*
X42912434Y-69382434D01*
X42666397Y-69750654D01*
X42580000Y-70185000D01*
X42580000Y-70984868D01*
X42469913Y-71094955D01*
X42445000Y-71090000D01*
X40931822Y-71090000D01*
X41118452Y-70810687D01*
X41242909Y-70185000D01*
X41118452Y-69559313D01*
X40764029Y-69028880D01*
X40593595Y-68915000D01*
X40764029Y-68801120D01*
X41118452Y-68270687D01*
X41242909Y-67645000D01*
X41118452Y-67019313D01*
X40764029Y-66488880D01*
X40233596Y-66134457D01*
X39607909Y-66010000D01*
X38932091Y-66010000D01*
X38306404Y-66134457D01*
X37775971Y-66488880D01*
X37761859Y-66510000D01*
X36359883Y-66510000D01*
X36360265Y-66071009D01*
X36127068Y-65506629D01*
X35960000Y-65339269D01*
X35960000Y-64940132D01*
X36262566Y-64637566D01*
X36508604Y-64269345D01*
X36520856Y-64207745D01*
X37131861Y-64207745D01*
X37205995Y-64453864D01*
X37743223Y-64646965D01*
X38313454Y-64619778D01*
X38714005Y-64453864D01*
X38788139Y-64207745D01*
X37960000Y-63379605D01*
X37131861Y-64207745D01*
X36520856Y-64207745D01*
X36530567Y-64158926D01*
X36675824Y-64013923D01*
X36703423Y-63947456D01*
X36706136Y-63954005D01*
X36952255Y-64028139D01*
X37780395Y-63200000D01*
X38139605Y-63200000D01*
X38967745Y-64028139D01*
X39213864Y-63954005D01*
X39406965Y-63416777D01*
X39379778Y-62846546D01*
X39213864Y-62445995D01*
X38967745Y-62371861D01*
X38139605Y-63200000D01*
X37780395Y-63200000D01*
X36952255Y-62371861D01*
X36706136Y-62445995D01*
X36703804Y-62452483D01*
X36677243Y-62388200D01*
X36595000Y-62305813D01*
X36595000Y-62192255D01*
X37131861Y-62192255D01*
X37960000Y-63020395D01*
X38788139Y-62192255D01*
X38714005Y-61946136D01*
X38176777Y-61753035D01*
X37606546Y-61780222D01*
X37205995Y-61946136D01*
X37131861Y-62192255D01*
X36595000Y-62192255D01*
X36595000Y-59860132D01*
X36887692Y-59567440D01*
X37530000Y-59567440D01*
X37765317Y-59523162D01*
X37981441Y-59384090D01*
X38126431Y-59171890D01*
X38135370Y-59127745D01*
X38401861Y-59127745D01*
X38475995Y-59373864D01*
X39013223Y-59566965D01*
X39583454Y-59539778D01*
X39984005Y-59373864D01*
X40058139Y-59127745D01*
X39230000Y-58299605D01*
X38401861Y-59127745D01*
X38135370Y-59127745D01*
X38174646Y-58933799D01*
X38222255Y-58948139D01*
X39050395Y-58120000D01*
X39409605Y-58120000D01*
X40237745Y-58948139D01*
X40483864Y-58874005D01*
X40676965Y-58336777D01*
X40649778Y-57766546D01*
X40483864Y-57365995D01*
X40237745Y-57291861D01*
X39409605Y-58120000D01*
X39050395Y-58120000D01*
X38222255Y-57291861D01*
X38174833Y-57306145D01*
X38138351Y-57112255D01*
X38401861Y-57112255D01*
X39230000Y-57940395D01*
X40058139Y-57112255D01*
X39984005Y-56866136D01*
X39446777Y-56673035D01*
X38876546Y-56700222D01*
X38475995Y-56866136D01*
X38401861Y-57112255D01*
X38138351Y-57112255D01*
X38133162Y-57084683D01*
X37994090Y-56868559D01*
X37865000Y-56780356D01*
X37865000Y-54780132D01*
X37970157Y-54674975D01*
X38323795Y-54675284D01*
X38924943Y-54426894D01*
X39159715Y-54192532D01*
X39567073Y-54192532D01*
X39665736Y-54459387D01*
X40275461Y-54685908D01*
X40925460Y-54661856D01*
X41414264Y-54459387D01*
X41512927Y-54192532D01*
X40540000Y-53219605D01*
X39567073Y-54192532D01*
X39159715Y-54192532D01*
X39352562Y-54000022D01*
X39387468Y-54012927D01*
X40360395Y-53040000D01*
X40346253Y-53025858D01*
X40525858Y-52846253D01*
X40540000Y-52860395D01*
X40554143Y-52846253D01*
X40733748Y-53025858D01*
X40733748Y-53025858D01*
G37*
X40733748Y-53025858D02*
X40719605Y-53040000D01*
X41692532Y-54012927D01*
X41727938Y-53999836D01*
X41945000Y-54217278D01*
X41945000Y-54310000D01*
X42031397Y-54744346D01*
X42129682Y-54891439D01*
X42277434Y-55112566D01*
X42912434Y-55747566D01*
X43280655Y-55993604D01*
X43563514Y-56049868D01*
X43430813Y-56049752D01*
X42903200Y-56267757D01*
X42499176Y-56671077D01*
X42280250Y-57198309D01*
X42279752Y-57769187D01*
X42497757Y-58296800D01*
X42901077Y-58700824D01*
X43428309Y-58919750D01*
X43999187Y-58920248D01*
X44241806Y-58820000D01*
X45066646Y-58820000D01*
X44676012Y-59081012D01*
X44386621Y-59514118D01*
X44285000Y-60025000D01*
X44310572Y-60153560D01*
X43759566Y-60704566D01*
X43578561Y-60975459D01*
X43515000Y-61295000D01*
X43515000Y-63200000D01*
X43578561Y-63519541D01*
X43679094Y-63670000D01*
X43587998Y-63670000D01*
X43587998Y-63835084D01*
X43365961Y-63713096D01*
X42977577Y-63873959D01*
X42562611Y-64249866D01*
X42323086Y-64755959D01*
X42444371Y-64978000D01*
X43588000Y-64978000D01*
X43588000Y-64958000D01*
X43842000Y-64958000D01*
X43842000Y-64978000D01*
X43862000Y-64978000D01*
X43862000Y-65232000D01*
X43842000Y-65232000D01*
X43842000Y-65252000D01*
X43588000Y-65252000D01*
X43588000Y-65232000D01*
X42444371Y-65232000D01*
X42323086Y-65454041D01*
X42562611Y-65960134D01*
X42977577Y-66336041D01*
X43289594Y-66465274D01*
X42912434Y-66842434D01*
X42666397Y-67210655D01*
X42580000Y-67645000D01*
X42666397Y-68079345D01*
X42912434Y-68447566D01*
X43280655Y-68693603D01*
X43548072Y-68746796D01*
X42912434Y-69382434D01*
X42666397Y-69750654D01*
X42580000Y-70185000D01*
X42580000Y-70984868D01*
X42469913Y-71094955D01*
X42445000Y-71090000D01*
X40931822Y-71090000D01*
X41118452Y-70810687D01*
X41242909Y-70185000D01*
X41118452Y-69559313D01*
X40764029Y-69028880D01*
X40593595Y-68915000D01*
X40764029Y-68801120D01*
X41118452Y-68270687D01*
X41242909Y-67645000D01*
X41118452Y-67019313D01*
X40764029Y-66488880D01*
X40233596Y-66134457D01*
X39607909Y-66010000D01*
X38932091Y-66010000D01*
X38306404Y-66134457D01*
X37775971Y-66488880D01*
X37761859Y-66510000D01*
X36359883Y-66510000D01*
X36360265Y-66071009D01*
X36127068Y-65506629D01*
X35960000Y-65339269D01*
X35960000Y-64940132D01*
X36262566Y-64637566D01*
X36508604Y-64269345D01*
X36520856Y-64207745D01*
X37131861Y-64207745D01*
X37205995Y-64453864D01*
X37743223Y-64646965D01*
X38313454Y-64619778D01*
X38714005Y-64453864D01*
X38788139Y-64207745D01*
X37960000Y-63379605D01*
X37131861Y-64207745D01*
X36520856Y-64207745D01*
X36530567Y-64158926D01*
X36675824Y-64013923D01*
X36703423Y-63947456D01*
X36706136Y-63954005D01*
X36952255Y-64028139D01*
X37780395Y-63200000D01*
X38139605Y-63200000D01*
X38967745Y-64028139D01*
X39213864Y-63954005D01*
X39406965Y-63416777D01*
X39379778Y-62846546D01*
X39213864Y-62445995D01*
X38967745Y-62371861D01*
X38139605Y-63200000D01*
X37780395Y-63200000D01*
X36952255Y-62371861D01*
X36706136Y-62445995D01*
X36703804Y-62452483D01*
X36677243Y-62388200D01*
X36595000Y-62305813D01*
X36595000Y-62192255D01*
X37131861Y-62192255D01*
X37960000Y-63020395D01*
X38788139Y-62192255D01*
X38714005Y-61946136D01*
X38176777Y-61753035D01*
X37606546Y-61780222D01*
X37205995Y-61946136D01*
X37131861Y-62192255D01*
X36595000Y-62192255D01*
X36595000Y-59860132D01*
X36887692Y-59567440D01*
X37530000Y-59567440D01*
X37765317Y-59523162D01*
X37981441Y-59384090D01*
X38126431Y-59171890D01*
X38135370Y-59127745D01*
X38401861Y-59127745D01*
X38475995Y-59373864D01*
X39013223Y-59566965D01*
X39583454Y-59539778D01*
X39984005Y-59373864D01*
X40058139Y-59127745D01*
X39230000Y-58299605D01*
X38401861Y-59127745D01*
X38135370Y-59127745D01*
X38174646Y-58933799D01*
X38222255Y-58948139D01*
X39050395Y-58120000D01*
X39409605Y-58120000D01*
X40237745Y-58948139D01*
X40483864Y-58874005D01*
X40676965Y-58336777D01*
X40649778Y-57766546D01*
X40483864Y-57365995D01*
X40237745Y-57291861D01*
X39409605Y-58120000D01*
X39050395Y-58120000D01*
X38222255Y-57291861D01*
X38174833Y-57306145D01*
X38138351Y-57112255D01*
X38401861Y-57112255D01*
X39230000Y-57940395D01*
X40058139Y-57112255D01*
X39984005Y-56866136D01*
X39446777Y-56673035D01*
X38876546Y-56700222D01*
X38475995Y-56866136D01*
X38401861Y-57112255D01*
X38138351Y-57112255D01*
X38133162Y-57084683D01*
X37994090Y-56868559D01*
X37865000Y-56780356D01*
X37865000Y-54780132D01*
X37970157Y-54674975D01*
X38323795Y-54675284D01*
X38924943Y-54426894D01*
X39159715Y-54192532D01*
X39567073Y-54192532D01*
X39665736Y-54459387D01*
X40275461Y-54685908D01*
X40925460Y-54661856D01*
X41414264Y-54459387D01*
X41512927Y-54192532D01*
X40540000Y-53219605D01*
X39567073Y-54192532D01*
X39159715Y-54192532D01*
X39352562Y-54000022D01*
X39387468Y-54012927D01*
X40360395Y-53040000D01*
X40346253Y-53025858D01*
X40525858Y-52846253D01*
X40540000Y-52860395D01*
X40554143Y-52846253D01*
X40733748Y-53025858D01*
G36*
X49960000Y-61784228D02*
X49802745Y-61736861D01*
X48974605Y-62565000D01*
X49802745Y-63393139D01*
X50048864Y-63319005D01*
X50051196Y-63312517D01*
X50077757Y-63376800D01*
X50481077Y-63780824D01*
X51008309Y-63999750D01*
X51579187Y-64000248D01*
X52106800Y-63782243D01*
X52510824Y-63378923D01*
X52729750Y-62851691D01*
X52730248Y-62280813D01*
X52630000Y-62038194D01*
X52630000Y-61360000D01*
X55080000Y-61360000D01*
X55080000Y-62168465D01*
X55030241Y-62288298D01*
X55029760Y-62839285D01*
X55096166Y-63000000D01*
X53240000Y-63000000D01*
X52920459Y-63063561D01*
X52716264Y-63200000D01*
X52649566Y-63244566D01*
X51624132Y-64270000D01*
X47417882Y-64270000D01*
X47297811Y-64090302D01*
X46832264Y-63779233D01*
X46283113Y-63670000D01*
X46226887Y-63670000D01*
X46038367Y-63707499D01*
X45903613Y-63572745D01*
X47966861Y-63572745D01*
X48040995Y-63818864D01*
X48578223Y-64011965D01*
X49148454Y-63984778D01*
X49549005Y-63818864D01*
X49623139Y-63572745D01*
X48795000Y-62744605D01*
X47966861Y-63572745D01*
X45903613Y-63572745D01*
X45185000Y-62854132D01*
X45185000Y-62348223D01*
X47348035Y-62348223D01*
X47375222Y-62918454D01*
X47541136Y-63319005D01*
X47787255Y-63393139D01*
X48615395Y-62565000D01*
X47787255Y-61736861D01*
X47541136Y-61810995D01*
X47348035Y-62348223D01*
X45185000Y-62348223D01*
X45185000Y-61640868D01*
X45491440Y-61334428D01*
X45620000Y-61360000D01*
X48026277Y-61360000D01*
X47966861Y-61557255D01*
X48795000Y-62385395D01*
X49623139Y-61557255D01*
X49549005Y-61311136D01*
X49530681Y-61304550D01*
X49874147Y-61075054D01*
X49960000Y-60946566D01*
X49960000Y-61784228D01*
X49960000Y-61784228D01*
G37*
X49960000Y-61784228D02*
X49802745Y-61736861D01*
X48974605Y-62565000D01*
X49802745Y-63393139D01*
X50048864Y-63319005D01*
X50051196Y-63312517D01*
X50077757Y-63376800D01*
X50481077Y-63780824D01*
X51008309Y-63999750D01*
X51579187Y-64000248D01*
X52106800Y-63782243D01*
X52510824Y-63378923D01*
X52729750Y-62851691D01*
X52730248Y-62280813D01*
X52630000Y-62038194D01*
X52630000Y-61360000D01*
X55080000Y-61360000D01*
X55080000Y-62168465D01*
X55030241Y-62288298D01*
X55029760Y-62839285D01*
X55096166Y-63000000D01*
X53240000Y-63000000D01*
X52920459Y-63063561D01*
X52716264Y-63200000D01*
X52649566Y-63244566D01*
X51624132Y-64270000D01*
X47417882Y-64270000D01*
X47297811Y-64090302D01*
X46832264Y-63779233D01*
X46283113Y-63670000D01*
X46226887Y-63670000D01*
X46038367Y-63707499D01*
X45903613Y-63572745D01*
X47966861Y-63572745D01*
X48040995Y-63818864D01*
X48578223Y-64011965D01*
X49148454Y-63984778D01*
X49549005Y-63818864D01*
X49623139Y-63572745D01*
X48795000Y-62744605D01*
X47966861Y-63572745D01*
X45903613Y-63572745D01*
X45185000Y-62854132D01*
X45185000Y-62348223D01*
X47348035Y-62348223D01*
X47375222Y-62918454D01*
X47541136Y-63319005D01*
X47787255Y-63393139D01*
X48615395Y-62565000D01*
X47787255Y-61736861D01*
X47541136Y-61810995D01*
X47348035Y-62348223D01*
X45185000Y-62348223D01*
X45185000Y-61640868D01*
X45491440Y-61334428D01*
X45620000Y-61360000D01*
X48026277Y-61360000D01*
X47966861Y-61557255D01*
X48795000Y-62385395D01*
X49623139Y-61557255D01*
X49549005Y-61311136D01*
X49530681Y-61304550D01*
X49874147Y-61075054D01*
X49960000Y-60946566D01*
X49960000Y-61784228D01*
M02*
